<svg width="48" height="48" fill="none" xmlns="http://www.w3.org/2000/svg"><rect y=".521" width="48" height="48" rx="24" fill="#EDECF8"/><path fill-rule="evenodd" clip-rule="evenodd" d="M18.686 11.207a.61.61 0 1 0 0 1.222h.074c.842 0 1.431.83 1.153 1.625L12 36.664a.61.61 0 1 0 1.153.403l.567-1.62a2.444 2.444 0 0 1 2.307-1.636h5.024c.842 0 1.431.83 1.153 1.625l-.43 1.227a.61.61 0 1 0 1.154.404L24.49 32.6a3.666 3.666 0 0 1 3.46-2.455h2.165c1.538 0 2.912.96 3.442 2.404l1.66 4.527a.61.61 0 0 0 1.147-.421l-6.35-17.313a3.665 3.665 0 0 1-.018-2.473l1.268-3.622c.171-.49.634-.818 1.153-.818h.93a.61.61 0 1 0 0-1.222H18.686Zm11.793 17.716c.849 0 1.44-.845 1.147-1.642l-1.524-4.156c-.395-1.076-1.922-1.065-2.3.017l-1.455 4.156a1.222 1.222 0 0 0 1.153 1.625h2.979Zm-6.992 2.848c-.171.49-.634.818-1.153.818h-5.891a1.222 1.222 0 0 1-1.153-1.625l1.283-3.666c.171-.49.633-.818 1.153-.818h5.89c.843 0 1.432.83 1.154 1.625l-1.283 3.666Zm1.413-6.513c.519 0 .981-.328 1.153-.818l1.283-3.666a1.222 1.222 0 0 0-1.153-1.625H20.29c-.519 0-.981.328-1.153.818l-1.283 3.666a1.222 1.222 0 0 0 1.154 1.625h5.89Zm-3.326-7.331a1.222 1.222 0 0 1-1.153-1.625l1.07-3.055c.17-.49.633-.818 1.152-.818h5.892c.841 0 1.43.83 1.153 1.625l-1.07 3.055c-.17.49-.633.818-1.152.818h-5.892Z" fill="#4840BA"/></svg>