<svg width="40" height="40" viewBox="0 0 40 40" fill="none" xmlns="http://www.w3.org/2000/svg">
<path d="M0 20C0 8.95431 8.95431 0 20 0C31.0457 0 40 8.95431 40 20C40 31.0457 31.0457 40 20 40C8.95431 40 0 31.0457 0 20Z" fill="#EDECF8"/>
<path fill-rule="evenodd" clip-rule="evenodd" d="M28 18.5C28 23.028 25.9497 25.9158 21.4777 26.4207C21.2864 26.4625 21 26.573 21 26.8V27.0607C21 27.5 21 27.65 21.6 27.7424C26 28 28.6656 29.4829 29.8265 30.5605C30.0493 30.7673 30.0588 31.1118 29.8477 31.33C29.6367 31.5483 29.2851 31.5576 29.0624 31.3508C28.0138 30.3776 25.0751 28.7784 20 28.7784C14.9249 28.7784 11.9862 30.3776 10.9376 31.3508C10.7149 31.5576 10.3633 31.5483 10.1522 31.33C9.94123 31.1118 9.95074 30.7673 10.1735 30.5605C11.3344 29.4829 14 28 18.4 27.7424C19 27.6515 19 27.5 19 27.0607V26.8C19 26.5728 18.7133 26.4624 18.522 26.4206C14.0502 25.9157 12 23.0279 12 18.5C12 14.5294 15.5817 8.5 20 8.5C24.4183 8.5 28 14.5294 28 18.5ZM21.2636 25.4393C25.3399 25.0262 27 22.5253 27 18.5C27 15 23.8 9.5 20 9.5C16.2 9.5 13 15 13 18.5C13 22.5554 14.6849 25.0635 18.8281 25.4482C18.9952 25.4394 19 25.3403 19 25C18.99 24.6423 18.9943 23.2613 18.9976 22.2151C18.9989 21.7988 19 21.4355 19 21.2109C19 21.1 18.9634 20.9946 18.8983 20.9296C18.3171 20.2925 15.4633 17.1543 15.4633 17.1543C15.3197 17.0024 15.3218 16.7671 15.4681 16.6177C15.6192 16.4634 15.8688 16.4567 16.0284 16.6025L18.9634 19.2853C19.0323 19.3483 19.11 19.32 19.1252 19.2003L19.6164 14.2172C19.6237 14.0148 19.7932 13.8545 19.9999 13.8545C20.2065 13.8545 20.376 14.0148 20.3834 14.2172L20.8745 22.2003C20.8745 22.3 21 22.32 21.0363 22.2853L23.9719 19.602C24.1321 19.4556 24.382 19.4598 24.5369 19.6116C24.6918 19.7634 24.6962 20.0082 24.5467 20.1652C24.5467 20.1652 21.1283 23.9071 21.0641 23.9713C21 24.0354 21 24.1484 21 24.1484V25C21 25.3706 21.0582 25.4464 21.2636 25.4393Z" fill="#4840BB"/>
</svg>
