<svg width="34" height="37" fill="none" xmlns="http://www.w3.org/2000/svg"><path fill-rule="evenodd" clip-rule="evenodd" d="m16.81.001.61.538a.914.914 0 0 0-1.22 0L16.81 0Zm1.55 19.624c-.186.256-.636.131-.636-.184v-.263c0-.324.131-.633.353-.87l.07-.075a17.54 17.54 0 0 0 1.548-1.93c1.114-1.614 2.295-3.93 2.295-6.552 0-2.622-1.18-4.939-2.295-6.552a17.54 17.54 0 0 0-1.548-1.93 14.515 14.515 0 0 0-.708-.713l-.013-.011-.004-.004-.001-.001L16.81 0 16.2.539l-.002.002-.004.004-.012.01a4.957 4.957 0 0 0-.193.183c-.127.124-.304.303-.516.531a17.54 17.54 0 0 0-1.548 1.93c-1.114 1.613-2.294 3.703-2.294 6.324 0 2.622 1.18 5.166 2.294 6.78a17.54 17.54 0 0 0 1.619 2.005c.221.237.352.546.352.87v.263c0 .315-.45.44-.635.184a8.363 8.363 0 0 0-.851-.998c-1.703-1.703-3.97-2.438-5.731-2.76a16.04 16.04 0 0 0-2.248-.247 13.417 13.417 0 0 0-.92-.003h-.016l-.005.001h-.002a.915.915 0 0 0-.864.863v.024a5.453 5.453 0 0 0-.007.243 16.032 16.032 0 0 0 .256 2.924c.322 1.762 1.057 4.03 2.76 5.732 1.702 1.702 3.97 2.437 5.73 2.76.892.162 1.68.225 2.248.246a.295.295 0 0 1 .285.294v.786c0 .593-.476 1.076-1.068 1.106-7.543.383-12.218 2.907-14.185 4.771A.914.914 0 0 0 1.9 36.694c1.725-1.634 6.56-4.32 14.91-4.32 8.35 0 13.185 2.686 14.91 4.32a.914.914 0 1 0 1.258-1.327c-1.968-1.864-6.643-4.388-14.186-4.771a1.118 1.118 0 0 1-1.068-1.106v-.786c0-.159.127-.288.285-.294a16.037 16.037 0 0 0 2.248-.247c1.76-.322 4.028-1.057 5.73-2.76 1.703-1.702 2.438-3.97 2.76-5.73a16.038 16.038 0 0 0 .257-2.925 8.778 8.778 0 0 0-.007-.243v-.023a.915.915 0 0 0-.863-.864h-.024a4.822 4.822 0 0 0-.244-.007 13.418 13.418 0 0 0-.677.01c-.568.02-1.357.083-2.247.246-1.762.322-4.029 1.057-5.731 2.76-.316.316-.598.65-.851.998Zm1.568 6.74c-.153.028-.249-.153-.143-.266l4.506-4.83a.67.67 0 0 0-.946-.946l-4.83 4.506c-.113.106-.294.01-.266-.142.292-1.595.928-3.441 2.254-4.768 1.327-1.326 3.172-1.962 4.767-2.254.195-.035.383-.065.565-.09a1.06 1.06 0 0 1 1.205 1.204c-.025.182-.055.37-.091.565-.292 1.595-.928 3.44-2.254 4.767-1.326 1.326-3.172 1.962-4.767 2.254ZM9.354 20.35c.249-.26.66-.27.922-.026l4.829 4.505c.113.106.294.01.266-.142-.292-1.595-.928-3.441-2.254-4.768-1.326-1.326-3.172-1.962-4.767-2.254a13.778 13.778 0 0 0-.565-.09 1.06 1.06 0 0 0-1.205 1.204c.026.182.056.37.091.565.292 1.595.928 3.44 2.254 4.767 1.327 1.326 3.173 1.962 4.768 2.254.153.028.25-.153.143-.267l-4.49-4.847a.657.657 0 0 1 .008-.901Zm8.342-5.238c.01.267.343.371.495.152 1.018-1.475 1.97-3.423 1.97-5.513s-.952-4.039-1.97-5.513a15.39 15.39 0 0 0-.529-.72 1.075 1.075 0 0 0-1.704 0c-.172.222-.35.462-.528.72-1.019 1.474-1.971 3.423-1.971 5.513s.952 4.038 1.97 5.513c.152.22.486.115.495-.152l.255-7.19a.631.631 0 0 1 1.262 0l.255 7.19Z" fill="#4840BB"/></svg>