<svg width="48" height="49" fill="none" xmlns="http://www.w3.org/2000/svg"><rect y=".521" width="48" height="48" rx="24" fill="#EDECF8"/><path fill-rule="evenodd" clip-rule="evenodd" d="m24 11.32.445.385a.677.677 0 0 0-.89 0L24 11.32Zm1.13 14.024c-.135.182-.463.093-.463-.132v-.188c0-.231.095-.452.257-.621l.051-.054a12.6 12.6 0 0 0 1.13-1.38c.812-1.152 1.673-2.808 1.673-4.681 0-1.874-.861-3.53-1.674-4.682a12.6 12.6 0 0 0-1.505-1.759 7.176 7.176 0 0 0-.11-.102l-.03-.028-.01-.008-.003-.003v-.001L24 11.32l-.445.385-.002.001-.002.003-.01.008-.03.028a10.587 10.587 0 0 0-.486.482 12.6 12.6 0 0 0-1.13 1.379c-.812 1.152-1.673 2.646-1.673 4.519 0 1.874.861 3.692 1.674 4.845a12.6 12.6 0 0 0 1.129 1.379l.051.054c.162.169.257.39.257.621v.188c0 .225-.328.314-.463.132a6.003 6.003 0 0 0-.62-.714c-1.243-1.216-2.896-1.741-4.18-1.972a11.917 11.917 0 0 0-2.134-.183c-.059 0-.105.002-.139.003l-.039.002h-.016a.66.66 0 0 0-.63.617v.016a2.557 2.557 0 0 0-.005.175c-.002.116-.002.28.006.484.016.405.062.97.18 1.606.236 1.258.772 2.878 2.013 4.095 1.242 1.217 2.896 1.742 4.18 1.972.65.117 1.225.161 1.64.177a.213.213 0 0 1 .207.21v.561c0 .424-.347.769-.779.79-5.501.275-8.911 2.078-10.346 3.41a.644.644 0 0 0-.025.923.677.677 0 0 0 .942.025c1.258-1.168 4.785-3.087 10.875-3.087s9.617 1.92 10.875 3.087c.267.248.69.237.942-.025a.644.644 0 0 0-.025-.923c-1.435-1.332-4.845-3.135-10.346-3.41-.432-.021-.78-.366-.78-.79v-.562c0-.113.093-.205.209-.21.414-.015.989-.06 1.639-.176 1.284-.23 2.938-.755 4.18-1.972 1.241-1.216 1.777-2.837 2.012-4.095a11.236 11.236 0 0 0 .188-2.09l-.004-.136v-.028l-.001-.01v-.011l-.001-.004v-.001a.66.66 0 0 0-.63-.617h-.005l-.011-.001a2.666 2.666 0 0 0-.178-.005 11.917 11.917 0 0 0-2.133.183c-1.285.23-2.938.756-4.18 1.972-.23.226-.437.466-.62.714Zm1.144 4.816a.113.113 0 0 1-.104-.19l3.286-3.451a.471.471 0 0 0-.012-.665.495.495 0 0 0-.678-.011l-3.522 3.22c-.083.075-.215.007-.194-.102.212-1.14.676-2.46 1.644-3.407.967-.948 2.313-1.402 3.477-1.61.141-.026.279-.048.412-.066a.766.766 0 0 1 .878.861c-.018.13-.04.265-.066.404-.213 1.14-.677 2.459-1.644 3.406-.968.948-2.314 1.403-3.477 1.611Zm-7.712-4.298a.486.486 0 0 1 .672-.019l3.522 3.22c.083.075.215.007.194-.102-.212-1.14-.676-2.46-1.644-3.407-.967-.948-2.313-1.402-3.477-1.61-.141-.026-.279-.048-.412-.066a.766.766 0 0 0-.878.861c.018.13.04.265.066.404.213 1.14.677 2.459 1.644 3.406.968.948 2.314 1.403 3.477 1.611.112.02.182-.11.105-.19l-3.275-3.464a.462.462 0 0 1 .006-.644Zm6.084-3.743c.007.19.25.265.361.108.743-1.053 1.437-2.446 1.437-3.94 0-1.493-.694-2.885-1.437-3.939-.13-.184-.26-.356-.386-.514a.794.794 0 0 0-1.242 0c-.126.158-.256.33-.386.514-.743 1.054-1.437 2.446-1.437 3.94 0 1.493.694 2.886 1.437 3.94.11.156.354.081.36-.11l.187-5.137a.456.456 0 0 1 .46-.435c.248 0 .451.192.46.435l.186 5.138Z" fill="#4840BA"/></svg>