<svg width="37" height="30" fill="none" xmlns="http://www.w3.org/2000/svg"><path d="M29.492 21.706a1.82 1.82 0 1 0 0-3.642 1.82 1.82 0 0 0 0 3.642Z" fill="#4840BA"/><path fill-rule="evenodd" clip-rule="evenodd" d="M30.852 1.346A1.214 1.214 0 0 0 29.303.56L18.31 4.29a1.213 1.213 0 0 1-.39.065H3.999A3.642 3.642 0 0 0 .37 7.703c0 .003-.004.004-.006.001-.001-.003-.006-.001-.006.002v18.552A3.642 3.642 0 0 0 4 29.9h31.562c.67 0 1.214-.543 1.214-1.214V11.032c0-.67-.543-1.214-1.214-1.214h-1.17c-.53 0-1-.345-1.158-.852l-2.38-7.62ZM4 6.176h6.918c.344 0 .423.481.098.591l-7.47 2.536c-.363.123-.784.083-1.012-.225A1.82 1.82 0 0 1 4 6.177Zm-1.82 6.677c0-.67.543-1.214 1.213-1.214H33.74c.67 0 1.214.544 1.214 1.214v14.012c0 .67-.543 1.214-1.214 1.214H4a1.82 1.82 0 0 1-1.822-1.82V12.852Zm25.285-3.035a3.035 3.035 0 0 0 2.897-3.94l-.69-2.208a1.214 1.214 0 0 0-1.55-.787L11.174 8.637c-.65.22-.491 1.181.195 1.181h16.096Z" fill="#4840BA"/></svg>