<svg width="48" height="49" fill="none" xmlns="http://www.w3.org/2000/svg"><g clip-path="url(#a)"><circle cx="24" cy="24.52" r="24" fill="#EDECF8"/><path d="M28.057 24.922a1.296 1.296 0 1 1 2.593 0 1.296 1.296 0 0 1-2.593 0ZM25.58 29.21a1.297 1.297 0 1 1 2.593 0 1.297 1.297 0 0 1-2.593 0ZM20.627 29.21a1.297 1.297 0 1 1 2.594 0 1.297 1.297 0 0 1-2.594 0ZM18.15 24.922a1.296 1.296 0 1 1 2.593 0 1.296 1.296 0 0 1-2.593 0ZM20.628 20.632a1.297 1.297 0 1 1 2.593 0 1.297 1.297 0 0 1-2.593 0ZM25.58 20.632a1.297 1.297 0 1 1 2.593 0 1.297 1.297 0 0 1-2.593 0ZM33.007 24.922a1.296 1.296 0 1 1 2.593 0 1.296 1.296 0 0 1-2.593 0ZM31.68 29.874a1.297 1.297 0 1 1 2.594 0 1.297 1.297 0 0 1-2.593 0ZM28.057 33.499a1.297 1.297 0 1 1 2.593 0 1.297 1.297 0 0 1-2.593 0ZM23.105 34.824a1.297 1.297 0 1 1 2.593 0 1.297 1.297 0 0 1-2.593 0ZM18.15 33.499a1.297 1.297 0 1 1 2.593 0 1.297 1.297 0 0 1-2.593 0ZM14.527 29.874a1.296 1.296 0 1 1 2.593 0 1.296 1.296 0 0 1-2.593 0ZM13.2 24.922a1.296 1.296 0 1 1 2.593 0 1.296 1.296 0 0 1-2.593 0ZM14.527 19.97a1.296 1.296 0 1 1 2.593 0 1.296 1.296 0 0 1-2.593 0ZM18.15 16.343a1.296 1.296 0 1 1 2.593 0 1.296 1.296 0 0 1-2.593 0ZM23.105 15.017a1.296 1.296 0 1 1 2.593 0 1.296 1.296 0 0 1-2.593 0ZM28.057 16.343a1.296 1.296 0 1 1 2.593 0 1.296 1.296 0 0 1-2.593 0ZM31.68 19.97a1.297 1.297 0 1 1 2.594 0 1.297 1.297 0 0 1-2.593 0ZM23.105 24.922a1.296 1.296 0 1 1 2.593 0 1.296 1.296 0 0 1-2.593 0Z" fill="#4840BB"/></g><defs><clipPath id="a"><path fill="#fff" transform="translate(0 .52)" d="M0 0h48v48H0z"/></clipPath></defs></svg>