<svg width="1145" height="142" viewBox="0 0 1145 142" fill="none" xmlns="http://www.w3.org/2000/svg">
<path d="M830.647 130.007L830.644 128.993L830.647 130.007ZM953.35 1.1402L953.377 0.126361L953.35 1.1402ZM1143 70.5377C1143.56 70.5377 1144.01 70.0836 1144.01 69.5235C1144.01 68.9633 1143.56 68.5093 1143 68.5093V70.5377ZM1.45049 72.2539C2.01025 72.2746 2.48075 71.8375 2.5014 71.2778C2.52204 70.718 2.08501 70.2475 1.52526 70.2269L1.45049 72.2539ZM6.45112 70.3899C5.89124 70.3729 5.42364 70.8131 5.4067 71.3729C5.38975 71.9328 5.82989 72.4004 6.38976 72.4174L6.45112 70.3899ZM7.37386 72.4467C7.93376 72.4631 8.40095 72.0226 8.41738 71.4627C8.43381 70.9028 7.99324 70.4356 7.43335 70.4192L7.37386 72.4467ZM12.3589 70.5533C11.799 70.5391 11.3336 70.9816 11.3195 71.5416C11.3053 72.1015 11.7478 72.5669 12.3078 72.581L12.3589 70.5533ZM13.298 72.6056C13.858 72.6193 14.323 72.1765 14.3367 71.6165C14.3504 71.0566 13.9076 70.5915 13.3476 70.5778L13.298 72.6056ZM18.2775 70.6894C17.7175 70.6777 17.2541 71.1222 17.2424 71.6823C17.2307 72.2423 17.6752 72.7057 18.2353 72.7174L18.2775 70.6894ZM19.2233 72.7376C19.7833 72.7489 20.2465 72.3041 20.2578 71.7441C20.269 71.184 19.8242 70.7209 19.2642 70.7096L19.2233 72.7376ZM24.1922 70.8004C23.6321 70.7911 23.1705 71.2375 23.1611 71.7976C23.1518 72.3576 23.5982 72.8192 24.1582 72.8286L24.1922 70.8004ZM25.1507 72.8448C25.7108 72.8538 26.1721 72.4071 26.1811 71.847C26.1901 71.287 25.7433 70.8257 25.1833 70.8167L25.1507 72.8448ZM30.1108 70.8875C29.5507 70.8804 29.0909 71.3286 29.0838 71.8887C29.0767 72.4488 29.5249 72.9086 30.085 72.9157L30.1108 70.8875ZM31.0724 72.9279C31.6325 72.9347 32.092 72.4861 32.0987 71.926C32.1054 71.3659 31.6568 70.9064 31.0967 70.8997L31.0724 72.9279ZM36.0313 70.9507C35.4711 70.9458 35.0132 71.3959 35.0083 71.9561C35.0035 72.5162 35.4536 72.9742 36.0137 72.979L36.0313 70.9507ZM36.9974 72.9872C37.5575 72.9917 38.0152 72.5412 38.0196 71.9811C38.0241 71.421 37.5737 70.9633 37.0136 70.9588L36.9974 72.9872ZM41.9444 70.9898C41.3843 70.9872 40.9281 71.4392 40.9256 71.9993C40.923 72.5595 41.375 73.0156 41.9352 73.0182L41.9444 70.9898ZM42.925 73.0223C43.4851 73.0245 43.941 72.5722 43.9431 72.0121C43.9453 71.4519 43.493 70.9961 42.9329 70.9939L42.925 73.0223ZM47.8637 71.0044C47.3035 71.0042 46.8493 71.4581 46.8491 72.0182C46.8489 72.5784 47.3028 73.0326 47.8629 73.0328L47.8637 71.0044ZM48.8855 73.0329C49.4457 73.033 49.8998 72.579 49.8999 72.0189C49.9 71.4587 49.4459 71.0046 48.8858 71.0045L48.8855 73.0329ZM54.061 71.0085C53.5008 71.0077 53.0461 71.4611 53.0453 72.0213C53.0445 72.5814 53.498 73.0361 54.0581 73.0369L54.061 71.0085ZM55.0748 73.0385C55.6349 73.0394 56.0898 72.5861 56.0907 72.026C56.0917 71.4659 55.6383 71.011 55.0782 71.0101L55.0748 73.0385ZM60.1422 71.0219C59.582 71.0203 59.1266 71.473 59.1249 72.0331C59.1232 72.5932 59.5759 73.0487 60.1361 73.0503L60.1422 71.0219ZM61.1778 73.0536C61.7379 73.0555 62.1935 72.6029 62.1953 72.0428C62.1972 71.4826 61.7446 71.0271 61.1845 71.0252L61.1778 73.0536ZM66.3044 71.0456C65.7442 71.043 65.288 71.4949 65.2854 72.0551C65.2828 72.6152 65.7347 73.0714 66.2949 73.074L66.3044 71.0456ZM67.3004 73.0789C67.8605 73.0816 68.3168 72.6298 68.3196 72.0697C68.3224 71.5096 67.8706 71.0532 67.3105 71.0505L67.3004 73.0789ZM72.4381 71.0796C71.8779 71.076 71.421 71.5272 71.4174 72.0873C71.4138 72.6474 71.8649 73.1044 72.4251 73.108L72.4381 71.0796ZM73.4518 73.1147C74.0119 73.1185 74.469 72.6675 74.4728 72.1073C74.4766 71.5472 74.0255 71.0901 73.4654 71.0864L73.4518 73.1147ZM78.5125 71.1239C77.9524 71.1193 77.4947 71.5697 77.4901 72.1298C77.4855 72.6899 77.9358 73.1477 78.496 73.1523L78.5125 71.1239ZM79.5382 73.161C80.0983 73.1657 80.5562 72.7155 80.561 72.1554C80.5657 71.5953 80.1155 71.1374 79.5554 71.1326L79.5382 73.161ZM84.6937 71.1801C84.1336 71.1745 83.675 71.624 83.6694 72.1841C83.6638 72.7442 84.1133 73.2028 84.6734 73.2084L84.6937 71.1801ZM85.6827 73.2187C86.2428 73.2245 86.7015 72.7751 86.7073 72.215C86.7131 71.6549 86.2637 71.1962 85.7036 71.1904L85.6827 73.2187ZM90.8231 71.2471C90.263 71.2404 89.8035 71.6891 89.7969 72.2492C89.7903 72.8093 90.239 73.2687 90.799 73.2754L90.8231 71.2471ZM91.8234 73.2876C92.3835 73.2944 92.8431 72.8459 92.8499 72.2858C92.8567 71.7257 92.4082 71.2662 91.8481 71.2594L91.8234 73.2876ZM96.9224 71.3248C96.3624 71.3171 95.9021 71.765 95.8945 72.3251C95.8869 72.8851 96.3347 73.3454 96.8948 73.353L96.9224 71.3248ZM97.9311 73.3673C98.4912 73.3751 98.9516 72.9274 98.9594 72.3673C98.9672 71.8072 98.5195 71.3469 97.9594 71.3391L97.9311 73.3673ZM103.062 71.4139C102.502 71.4053 102.041 71.8523 102.033 72.4124C102.024 72.9725 102.471 73.4335 103.031 73.4421L103.062 71.4139ZM104.035 73.4577C104.596 73.4664 105.057 73.0195 105.065 72.4595C105.074 71.8994 104.627 71.4383 104.067 71.4295L104.035 73.4577ZM109.205 71.5135C108.645 71.504 108.183 71.9503 108.174 72.5103C108.164 73.0704 108.61 73.5321 109.17 73.5416L109.205 71.5135ZM110.185 73.559C110.745 73.5687 111.207 73.1226 111.217 72.5625C111.226 72.0025 110.78 71.5406 110.22 71.5309L110.185 73.559ZM115.33 71.6224C114.77 71.6121 114.308 72.0577 114.297 72.6177C114.287 73.1777 114.732 73.6401 115.292 73.6505L115.33 71.6224ZM116.314 73.6695C116.874 73.68 117.337 73.2345 117.347 72.6745C117.358 72.1144 116.912 71.6519 116.352 71.6414L116.314 73.6695ZM121.448 71.7395C120.888 71.7285 120.425 72.1735 120.414 72.7335C120.403 73.2935 120.848 73.7565 121.408 73.7676L121.448 71.7395ZM122.434 73.7879C122.994 73.7991 123.457 73.3541 123.468 72.7941C123.48 72.2341 123.035 71.7711 122.475 71.7599L122.434 73.7879ZM127.566 71.8634C127.006 71.8518 126.543 72.2964 126.531 72.8564C126.519 73.4165 126.964 73.8798 127.524 73.8914L127.566 71.8634ZM128.552 73.9128C129.112 73.9244 129.575 73.4799 129.587 72.9199C129.599 72.3599 129.154 71.8965 128.594 71.8848L128.552 73.9128ZM133.699 71.9925C133.139 71.9806 132.676 72.4249 132.664 72.9849C132.652 73.5449 133.096 74.0085 133.656 74.0205L133.699 71.9925ZM134.673 74.0422C135.233 74.0542 135.696 73.6099 135.708 73.0499C135.72 72.4899 135.276 72.0262 134.716 72.0142L134.673 74.0422ZM139.828 72.1241C139.268 72.1121 138.804 72.5563 138.792 73.1163C138.78 73.6763 139.224 74.14 139.784 74.1521L139.828 72.1241ZM140.804 74.1741C141.364 74.1861 141.828 73.742 141.84 73.182C141.852 72.622 141.408 72.1582 140.848 72.1461L140.804 74.1741ZM145.951 72.2559C145.391 72.2439 144.928 72.6881 144.916 73.2481C144.904 73.8081 145.348 74.2718 145.908 74.2838L145.951 72.2559ZM146.93 74.3056C147.49 74.3176 147.953 73.8733 147.965 73.3133C147.977 72.7533 147.533 72.2896 146.973 72.2777L146.93 74.3056ZM152.073 72.3852C151.513 72.3736 151.05 72.8181 151.038 73.3781C151.027 73.9381 151.471 74.4015 152.031 74.4132L152.073 72.3852ZM153.053 74.4344C153.613 74.446 154.076 74.0014 154.088 73.4414C154.099 72.8814 153.655 72.418 153.094 72.4064L153.053 74.4344ZM158.198 72.5099C157.638 72.4988 157.175 72.9438 157.164 73.5038C157.153 74.0638 157.598 74.5268 158.158 74.5379L158.198 72.5099ZM159.176 74.5581C159.736 74.5691 160.199 74.124 160.21 73.564C160.221 73.004 159.776 72.5411 159.216 72.53L159.176 74.5581ZM164.33 72.6278C163.77 72.6175 163.307 73.063 163.297 73.6231C163.287 74.1831 163.732 74.6455 164.292 74.6559L164.33 72.6278ZM165.306 74.6746C165.866 74.6849 166.328 74.2392 166.339 73.6791C166.349 73.1191 165.903 72.6568 165.343 72.6465L165.306 74.6746ZM170.46 72.7369C169.9 72.7274 169.438 73.1737 169.429 73.7337C169.419 74.2938 169.866 74.7555 170.426 74.765L170.46 72.7369ZM171.447 74.7822C172.007 74.7916 172.469 74.3451 172.478 73.7851C172.488 73.225 172.041 72.7634 171.481 72.7541L171.447 74.7822ZM176.57 72.8353C176.01 72.8267 175.549 73.2739 175.541 73.8339C175.532 74.394 175.979 74.8549 176.539 74.8634L176.57 72.8353ZM177.571 74.879C178.131 74.8873 178.592 74.44 178.6 73.8799C178.608 73.3199 178.161 72.8591 177.601 72.8508L177.571 74.879ZM182.685 72.9223C182.125 72.9149 181.665 73.3629 181.657 73.923C181.65 74.4831 182.098 74.9431 182.658 74.9506L182.685 72.9223ZM183.683 74.964C184.243 74.9712 184.703 74.523 184.71 73.9629C184.717 73.4029 184.269 72.943 183.709 72.9357L183.683 74.964ZM188.817 72.9974C188.257 72.9911 187.797 73.4401 187.791 74.0002C187.785 74.5603 188.234 75.0194 188.794 75.0257L188.817 72.9974ZM189.808 75.0369C190.368 75.043 190.827 74.5939 190.833 74.0338C190.839 73.4737 190.39 73.0147 189.83 73.0086L189.808 75.0369ZM194.98 73.0602C194.419 73.0551 193.961 73.505 193.956 74.0651C193.951 74.6252 194.401 75.0834 194.961 75.0886L194.98 73.0602ZM195.962 75.0975C196.522 75.1025 196.98 74.6524 196.985 74.0923C196.99 73.5322 196.54 73.0741 195.98 73.0692L195.962 75.0975ZM201.064 73.1096C200.504 73.1057 200.046 73.5565 200.042 74.1166C200.038 74.6767 200.489 75.134 201.049 75.138L201.064 73.1096ZM202.085 75.1452C202.645 75.149 203.102 74.698 203.106 74.1378C203.109 73.5777 202.658 73.1206 202.098 73.1168L202.085 75.1452ZM207.18 73.1468C206.62 73.144 206.163 73.5958 206.16 74.1559C206.158 74.716 206.609 75.1724 207.169 75.1752L207.18 73.1468ZM208.188 75.1802C208.748 75.1829 209.205 74.731 209.207 74.1708C209.21 73.6107 208.758 73.1545 208.198 73.1518L208.188 75.1802ZM213.351 73.172C212.791 73.1702 212.336 73.6229 212.334 74.183C212.332 74.7432 212.785 75.1986 213.345 75.2004L213.351 73.172ZM214.345 75.2033C214.905 75.2048 215.361 74.752 215.362 74.1919C215.364 73.6318 214.911 73.1764 214.351 73.1749L214.345 75.2033ZM219.436 73.1849C218.876 73.1843 218.421 73.6378 218.421 74.1979C218.42 74.7581 218.874 75.2127 219.434 75.2134L219.436 73.1849ZM220.47 75.2144C221.03 75.2149 221.484 74.7612 221.485 74.2011C221.485 73.641 221.032 73.1865 220.471 73.186L220.47 75.2144ZM225.56 73.1866C225 73.187 224.546 73.6413 224.546 74.2015C224.547 74.7616 225.001 75.2154 225.561 75.2151L225.56 73.1866ZM226.574 75.2143C227.135 75.2138 227.588 74.7593 227.588 74.1991C227.587 73.639 227.133 73.1853 226.573 73.1859L226.574 75.2143ZM231.726 73.1774C231.166 73.1787 230.713 73.6338 230.714 74.194C230.716 74.7541 231.171 75.2071 231.731 75.2058L231.726 73.1774ZM232.777 75.2032C233.337 75.2017 233.79 74.7464 233.789 74.1863C233.787 73.6261 233.332 73.1733 232.772 73.1747L232.777 75.2032ZM237.799 73.158C237.239 73.1602 236.787 73.6161 236.789 74.1763C236.791 74.7364 237.247 75.1886 237.807 75.1864L237.799 73.158ZM238.831 75.1822C239.391 75.1798 239.843 74.7238 239.84 74.1637C239.838 73.6035 239.382 73.1514 238.822 73.1538L238.831 75.1822ZM243.997 73.1283C243.437 73.1314 242.986 73.588 242.989 74.1482C242.992 74.7083 243.449 75.1598 244.009 75.1567L243.997 73.1283ZM245.004 75.1511C245.565 75.1478 246.016 74.6911 246.013 74.131C246.009 73.5708 245.553 73.1194 244.993 73.1227L245.004 75.1511ZM250.051 73.0902C249.491 73.0941 249.04 73.5514 249.044 74.1115C249.048 74.6716 249.505 75.1225 250.066 75.1186L250.051 73.0902ZM251.095 75.1112C251.655 75.1072 252.105 74.6498 252.101 74.0897C252.097 73.5296 251.64 73.0788 251.08 73.0829L251.095 75.1112ZM256.236 73.0424C255.676 73.0472 255.226 73.505 255.231 74.0652C255.235 74.6253 255.693 75.0755 256.253 75.0708L256.236 73.0424ZM257.252 75.0623C257.812 75.0574 258.262 74.5995 258.257 74.0394C258.252 73.4792 257.794 73.0291 257.234 73.0339L257.252 75.0623ZM262.304 72.9874C261.744 72.9929 261.294 73.4513 261.3 74.0114C261.305 74.5716 261.763 75.0212 262.324 75.0158L262.304 72.9874ZM263.354 75.0057C263.914 75.0001 264.364 74.5415 264.358 73.9814C264.352 73.4213 263.894 72.9718 263.334 72.9773L263.354 75.0057ZM268.495 72.9235C267.935 72.9296 267.486 73.3886 267.492 73.9487C267.498 74.5088 267.957 74.9579 268.517 74.9518L268.495 72.9235ZM269.515 74.9408C270.075 74.9345 270.524 74.4754 270.518 73.9153C270.511 73.3552 270.052 72.9062 269.492 72.9125L269.515 74.9408ZM274.553 72.8537C273.993 72.8604 273.544 73.32 273.551 73.8801C273.558 74.4402 274.017 74.8887 274.577 74.8819L274.553 72.8537ZM275.605 74.8694C276.165 74.8625 276.614 74.4029 276.607 73.8428C276.6 73.2827 276.14 72.8343 275.58 72.8411L275.605 74.8694ZM280.777 72.7749C280.217 72.7823 279.769 73.2423 279.776 73.8024C279.784 74.3625 280.244 74.8105 280.804 74.8032L280.777 72.7749ZM281.797 74.79C282.357 74.7825 282.805 74.3224 282.797 73.7623C282.79 73.2022 282.33 72.7542 281.77 72.7617L281.797 74.79ZM286.804 72.6923C286.244 72.7002 285.796 73.1607 285.804 73.7208C285.812 74.2809 286.272 74.7284 286.832 74.7205L286.804 72.6923ZM287.854 74.7059C288.414 74.6978 288.861 74.2373 288.853 73.6772C288.845 73.1171 288.385 72.6696 287.825 72.6777L287.854 74.7059ZM293.002 72.6011C292.442 72.6096 291.995 73.0705 292.003 73.6306C292.012 74.1906 292.473 74.6378 293.033 74.6292L293.002 72.6011ZM294.083 74.6132C294.643 74.6046 295.09 74.1436 295.082 73.5835C295.073 73.0235 294.612 72.5764 294.052 72.585L294.083 74.6132ZM299.07 72.506C298.51 72.5151 298.063 72.9764 298.073 73.5364C298.082 74.0965 298.543 74.5432 299.103 74.5342L299.07 72.506ZM300.115 74.5178C300.675 74.5087 301.121 74.0473 301.112 73.4872C301.103 72.9272 300.642 72.4806 300.082 72.4897L300.115 74.5178ZM305.207 72.4045C304.647 72.414 304.2 72.8757 304.21 73.4358C304.219 73.9958 304.681 74.4421 305.241 74.4326L305.207 72.4045ZM306.28 74.4149C306.84 74.4053 307.286 73.9435 307.277 73.3834C307.267 72.8234 306.805 72.3772 306.245 72.3868L306.28 74.4149ZM311.374 72.2971C310.814 72.3071 310.368 72.7692 310.378 73.3293C310.388 73.8893 310.85 74.3352 311.41 74.3252L311.374 72.2971ZM312.41 74.3074C312.97 74.2973 313.416 73.8352 313.406 73.2751C313.396 72.7151 312.934 72.2692 312.374 72.2793L312.41 74.3074ZM317.433 72.1869C316.873 72.1973 316.428 72.6597 316.438 73.2197C316.448 73.7798 316.911 74.2253 317.471 74.2149L317.433 72.1869ZM318.496 74.1958C319.056 74.1853 319.501 73.7229 319.491 73.1628C319.48 72.6028 319.018 72.1573 318.458 72.1678L318.496 74.1958ZM323.644 72.0691C323.083 72.0799 322.638 72.5427 322.649 73.1027C322.66 73.6628 323.123 74.108 323.683 74.0971L323.644 72.0691ZM324.733 74.0768C325.293 74.0659 325.738 73.6031 325.727 73.043C325.716 72.483 325.254 72.0378 324.694 72.0487L324.733 74.0768ZM329.712 71.9496C329.152 71.9609 328.707 72.4239 328.719 72.984C328.73 73.544 329.193 73.9889 329.753 73.9777L329.712 71.9496ZM330.762 73.9574C331.322 73.9461 331.766 73.483 331.755 72.923C331.744 72.363 331.281 71.9181 330.721 71.9294L330.762 73.9574ZM335.822 71.8252C335.261 71.8368 334.817 72.3002 334.828 72.8602C334.84 73.4202 335.303 73.8648 335.863 73.8532L335.822 71.8252ZM336.896 73.8318C337.456 73.8202 337.9 73.3567 337.888 72.7967C337.877 72.2367 337.413 71.7922 336.853 71.8038L336.896 73.8318ZM342.072 71.6938C341.512 71.7058 341.068 72.1694 341.08 72.7295C341.092 73.2895 341.556 73.7337 342.116 73.7218L342.072 71.6938ZM343.113 73.7005C343.673 73.6885 344.117 73.2247 344.105 72.6647C344.093 72.1047 343.629 71.6605 343.069 71.6725L343.113 73.7005ZM348.078 71.5639C347.518 71.5761 347.074 72.0401 347.086 72.6001C347.099 73.1601 347.563 73.6041 348.123 73.5918L348.078 71.5639ZM349.135 73.5695C349.695 73.5572 350.139 73.0932 350.127 72.5332C350.115 71.9732 349.651 71.5293 349.091 71.5416L349.135 73.5695ZM354.208 71.4276C353.648 71.4402 353.204 71.9044 353.217 72.4644C353.23 73.0244 353.694 73.4681 354.254 73.4555L354.208 71.4276ZM355.288 73.4322C355.848 73.4195 356.292 72.9553 356.279 72.3953C356.267 71.8353 355.803 71.3916 355.243 71.4043L355.288 73.4322ZM360.453 71.2853C359.893 71.2982 359.449 71.7626 359.462 72.3226C359.475 72.8826 359.939 73.3261 360.499 73.3132L360.453 71.2853ZM361.492 73.2902C362.052 73.2772 362.496 72.8128 362.483 72.2528C362.47 71.6928 362.005 71.2494 361.445 71.2623L361.492 73.2902ZM366.458 71.1452C365.898 71.1584 365.454 71.623 365.468 72.183C365.481 72.743 365.946 73.1862 366.506 73.173L366.458 71.1452ZM367.518 73.1491C368.078 73.1358 368.521 72.6712 368.508 72.1112C368.495 71.5512 368.03 71.108 367.47 71.1213L367.518 73.1491ZM372.583 70.9991C372.023 71.0126 371.58 71.4775 371.594 72.0375C371.607 72.5975 372.072 73.0405 372.632 73.027L372.583 70.9991ZM373.665 73.0021C374.225 72.9885 374.668 72.5236 374.654 71.9636C374.641 71.4037 374.176 70.9607 373.616 70.9742L373.665 73.0021ZM378.831 70.8471C378.271 70.8609 377.828 71.326 377.842 71.8859C377.856 72.4459 378.321 72.8887 378.881 72.8749L378.831 70.8471ZM762.249 71.3419C762.387 70.7991 762.06 70.2469 761.517 70.1085C760.974 69.97 760.422 70.2977 760.283 70.8405L762.249 71.3419ZM762.022 66.0291C761.788 66.538 762.011 67.1403 762.52 67.3744C763.029 67.6086 763.631 67.3859 763.865 66.877L762.022 66.0291ZM764.279 66.0151C764.529 65.5141 764.326 64.9049 763.825 64.6544C763.324 64.4039 762.715 64.6069 762.465 65.1079L764.279 66.0151ZM765.127 60.7409C764.795 61.192 764.892 61.8269 765.343 62.1588C765.794 62.4908 766.429 62.3942 766.761 61.9431L765.127 60.7409ZM767.338 61.1883C767.686 60.7495 767.613 60.1116 767.174 59.7633C766.735 59.4151 766.097 59.4885 765.749 59.9272L767.338 61.1883ZM769.311 56.2333C768.884 56.5959 768.832 57.2359 769.194 57.6629C769.557 58.0899 770.197 58.1421 770.624 57.7795L769.311 56.2333ZM771.357 57.1825C771.799 56.8379 771.877 56.2006 771.533 55.759C771.188 55.3174 770.551 55.2388 770.109 55.5834L771.357 57.1825ZM774.478 52.8597C773.975 53.1043 773.764 53.7111 774.009 54.215C774.254 54.7189 774.861 54.929 775.364 54.6844L774.478 52.8597ZM776.221 54.2905C776.734 54.067 776.969 53.4694 776.746 52.9558C776.522 52.4422 775.925 52.2071 775.411 52.4306L776.221 54.2905ZM780.298 50.8641C779.75 50.9829 779.403 51.5229 779.521 52.0703C779.64 52.6177 780.18 52.9652 780.728 52.8464L780.298 50.8641ZM781.665 52.6609C782.217 52.5622 782.584 52.0352 782.485 51.4839C782.386 50.9325 781.859 50.5656 781.308 50.6643L781.665 52.6609ZM786.382 50.189C785.822 50.1973 785.375 50.658 785.383 51.2181C785.392 51.7781 785.852 52.2255 786.412 52.2172L786.382 50.189ZM787.352 52.2267C787.911 52.2594 788.391 51.8327 788.423 51.2735C788.456 50.7143 788.029 50.2345 787.47 50.2017L787.352 52.2267ZM792.614 52.0964C792.161 51.7669 791.527 51.867 791.197 52.32C790.868 52.773 790.968 53.4073 791.421 53.7368L792.614 52.0964ZM792.126 54.2996C792.548 54.6674 793.189 54.6232 793.557 54.2008C793.925 53.7783 793.881 53.1377 793.458 52.7699L792.126 54.2996ZM796.815 56.819C796.516 56.3455 795.889 56.2042 795.416 56.5035C794.942 56.8027 794.801 57.4291 795.1 57.9026L796.815 56.819ZM795.605 58.737C795.887 59.2214 796.507 59.3861 796.992 59.1048C797.476 58.8236 797.641 58.2029 797.36 57.7185L795.605 58.737ZM799.608 62.302C799.391 61.7858 798.796 61.5436 798.28 61.7611C797.764 61.9785 797.521 62.5733 797.739 63.0895L799.608 62.302ZM798.117 64.0115C798.325 64.5315 798.916 64.7843 799.436 64.5762C799.956 64.368 800.209 63.7778 800.001 63.2577L798.117 64.0115ZM801.707 67.9987C801.533 67.4663 800.961 67.1757 800.428 67.3497C799.896 67.5237 799.605 68.0964 799.779 68.6288L801.707 67.9987ZM800.086 69.5825C800.255 70.1166 800.824 70.4127 801.358 70.2439C801.893 70.075 802.189 69.5052 802.02 68.9711L800.086 69.5825ZM803.439 73.7819C803.29 73.2422 802.731 72.926 802.191 73.0758C801.651 73.2255 801.335 73.7845 801.485 74.3242L803.439 73.7819ZM801.748 75.2824C801.895 75.8229 802.452 76.142 802.993 75.9951C803.533 75.8481 803.852 75.2908 803.705 74.7503L801.748 75.2824ZM804.972 79.6065C804.835 79.0634 804.284 78.734 803.741 78.8709C803.198 79.0077 802.868 79.559 803.005 80.1022L804.972 79.6065ZM803.246 81.062C803.381 81.6055 803.932 81.9362 804.475 81.8007C805.019 81.6651 805.349 81.1146 805.214 80.5712L803.246 81.062ZM806.404 85.4261C806.272 84.8817 805.724 84.5473 805.179 84.6792C804.635 84.8111 804.3 85.3593 804.432 85.9037L806.404 85.4261ZM804.668 86.8762C804.799 87.4206 805.348 87.7552 805.892 87.6235C806.436 87.4918 806.771 86.9436 806.639 86.3992L804.668 86.8762ZM807.816 91.2461C807.683 90.7021 807.134 90.3692 806.59 90.5026C806.046 90.636 805.713 91.1852 805.846 91.7292L807.816 91.2461ZM806.085 92.7001C806.22 93.2439 806.769 93.5759 807.313 93.4417C807.857 93.3074 808.189 92.7577 808.055 92.2139L806.085 92.7001ZM809.275 97.0396C809.134 96.4976 808.58 96.1726 808.038 96.3138C807.496 96.455 807.171 97.0088 807.312 97.5509L809.275 97.0396ZM807.566 98.5187C807.709 99.0602 808.264 99.3832 808.806 99.2401C809.347 99.0969 809.67 98.5419 809.527 98.0004L807.566 98.5187ZM810.851 102.793C810.695 102.255 810.132 101.946 809.594 102.102C809.057 102.258 808.747 102.821 808.903 103.359L810.851 102.793ZM809.185 104.321C809.345 104.858 809.909 105.164 810.446 105.005C810.983 104.845 811.289 104.281 811.13 103.744L809.185 104.321ZM812.623 108.458C812.443 107.928 811.867 107.644 811.337 107.824C810.806 108.004 810.522 108.58 810.702 109.11L812.623 108.458ZM811.034 110.072C811.22 110.601 811.799 110.879 812.327 110.694C812.856 110.508 813.134 109.93 812.949 109.401L811.034 110.072ZM814.711 113.995C814.493 113.479 813.898 113.237 813.382 113.455C812.866 113.673 812.624 114.268 812.842 114.784L814.711 113.995ZM813.243 115.715C813.469 116.228 814.068 116.461 814.58 116.235C815.093 116.009 815.325 115.41 815.1 114.898L813.243 115.715ZM817.279 119.274C817.002 118.787 816.383 118.617 815.896 118.894C815.409 119.17 815.239 119.789 815.515 120.276L817.279 119.274ZM816.029 121.154C816.319 121.634 816.942 121.788 817.422 121.499C817.901 121.209 818.055 120.586 817.766 120.106L816.029 121.154ZM820.573 124.005C820.204 123.583 819.563 123.542 819.142 123.911C818.721 124.281 818.679 124.921 819.049 125.342L820.573 124.005ZM819.762 126.118C820.151 126.521 820.793 126.532 821.196 126.143C821.599 125.754 821.611 125.112 821.222 124.709L819.762 126.118ZM824.897 127.562C824.404 127.296 823.789 127.48 823.522 127.972C823.256 128.465 823.44 129.081 823.933 129.347L824.897 127.562ZM824.896 129.821C825.407 130.05 826.007 129.82 826.236 129.309C826.464 128.797 826.235 128.198 825.723 127.969L824.896 129.821ZM830.169 128.985C829.609 128.967 829.14 129.405 829.122 129.965C829.103 130.525 829.541 130.994 830.101 131.013L830.169 128.985ZM831.2 131.007C831.759 130.981 832.191 130.506 832.165 129.946C832.138 129.387 831.663 128.955 831.104 128.981L831.2 131.007ZM835.425 127.793C834.928 128.051 834.734 128.663 834.992 129.16C835.25 129.657 835.863 129.851 836.36 129.593L835.425 127.793ZM837.282 129.07C837.759 128.776 837.908 128.151 837.614 127.674C837.32 127.197 836.695 127.049 836.218 127.343L837.282 129.07ZM839.769 124.326C839.391 124.739 839.42 125.381 839.834 125.758C840.248 126.136 840.889 126.107 841.267 125.693L839.769 124.326ZM841.95 124.913C842.31 124.485 842.255 123.845 841.827 123.484C841.398 123.124 840.758 123.179 840.398 123.607L841.95 124.913ZM843.184 119.688C842.891 120.166 843.042 120.79 843.519 121.083C843.997 121.375 844.621 121.225 844.914 120.747L843.184 119.688ZM845.43 119.881C845.712 119.397 845.548 118.776 845.064 118.495C844.58 118.213 843.959 118.377 843.677 118.861L845.43 119.881ZM845.937 114.52C845.699 115.027 845.917 115.631 846.424 115.87C846.931 116.108 847.535 115.889 847.773 115.382L845.937 114.52ZM848.191 114.475C848.422 113.965 848.196 113.364 847.686 113.133C847.176 112.902 846.575 113.128 846.344 113.638L848.191 114.475ZM848.231 109.119C848.029 109.641 848.288 110.229 848.811 110.431C849.333 110.633 849.921 110.373 850.123 109.851L848.231 109.119ZM850.481 108.913C850.678 108.388 850.413 107.803 849.889 107.606C849.365 107.409 848.78 107.674 848.582 108.198L850.481 108.913ZM850.227 103.547C850.05 104.078 850.337 104.653 850.868 104.83C851.4 105.007 851.974 104.72 852.151 104.188L850.227 103.547ZM852.466 103.234C852.64 102.701 852.349 102.129 851.816 101.955C851.284 101.781 850.711 102.072 850.538 102.605L852.466 103.234ZM852.001 97.8955C851.841 98.4325 852.147 98.997 852.684 99.1563C853.221 99.3156 853.786 99.0094 853.945 98.4724L852.001 97.8955ZM854.225 97.5203C854.382 96.9826 854.074 96.4195 853.536 96.2626C852.998 96.1057 852.435 96.4144 852.278 96.9521L854.225 97.5203ZM853.616 92.1902C853.469 92.7308 853.789 93.2879 854.329 93.4345C854.87 93.581 855.427 93.2616 855.574 92.721L853.616 92.1902ZM855.833 91.758C855.978 91.2169 855.657 90.6608 855.116 90.516C854.575 90.3711 854.019 90.6923 853.874 91.2334L855.833 91.758ZM855.121 86.4403C854.983 86.9833 855.312 87.535 855.855 87.6727C856.398 87.8104 856.95 87.4819 857.087 86.9389L855.121 86.4403ZM857.331 85.9716C857.468 85.4284 857.138 84.8773 856.595 84.7408C856.052 84.6043 855.501 84.934 855.364 85.4773L857.331 85.9716ZM856.55 80.6669C856.418 81.2112 856.752 81.7595 857.297 81.8914C857.841 82.0234 858.389 81.6891 858.521 81.1447L856.55 80.6669ZM858.755 80.1772C858.886 79.6327 858.551 79.0848 858.007 78.9536C857.462 78.8223 856.914 79.1573 856.783 79.7018L858.755 80.1772ZM857.935 74.8755C857.806 75.4205 858.143 75.9671 858.688 76.0962C859.233 76.2253 859.78 75.8881 859.909 75.343L857.935 74.8755ZM860.138 74.3755C860.267 73.8304 859.929 73.284 859.384 73.1551C858.839 73.0261 858.293 73.3635 858.164 73.9086L860.138 74.3755ZM859.306 69.0752C859.177 69.6202 859.514 70.1668 860.059 70.296C860.605 70.4251 861.151 70.088 861.28 69.543L859.306 69.0752ZM861.508 68.5812C861.638 68.0362 861.301 67.4895 860.756 67.36C860.211 67.2305 859.664 67.5673 859.535 68.1123L861.508 68.5812ZM860.695 63.2832C860.562 63.8274 860.896 64.376 861.44 64.5085C861.984 64.6411 862.533 64.3073 862.665 63.7631L860.695 63.2832ZM862.901 62.7994C863.034 62.2554 862.701 61.7062 862.157 61.5728C861.613 61.4394 861.064 61.7722 860.931 62.3162L862.901 62.7994ZM862.145 57.4815C862.005 58.0238 862.331 58.577 862.874 58.717C863.416 58.8571 863.969 58.5309 864.109 57.9886L862.145 57.4815ZM864.359 57.026C864.501 56.4841 864.177 55.9298 863.635 55.788C863.093 55.6462 862.539 55.9705 862.397 56.5124L864.359 57.026ZM863.708 51.7047C863.554 52.2433 863.866 52.8046 864.405 52.9582C864.943 53.1119 865.504 52.7998 865.658 52.2612L863.708 51.7047ZM865.926 51.3316C866.083 50.7938 865.774 50.2308 865.236 50.0741C864.698 49.9174 864.135 50.2263 863.979 50.7641L865.926 51.3316ZM865.472 45.9622C865.295 46.4934 865.581 47.068 866.112 47.2457C866.644 47.4233 867.218 47.1367 867.396 46.6055L865.472 45.9622ZM867.713 45.673C867.896 45.1437 867.616 44.566 867.087 44.3828C866.557 44.1995 865.98 44.48 865.796 45.0093L867.713 45.673ZM867.601 40.3203C867.378 40.8342 867.614 41.4315 868.128 41.6543C868.642 41.8772 869.239 41.6412 869.462 41.1273L867.601 40.3203ZM869.866 40.223C870.101 39.7143 869.878 39.1119 869.37 38.8774C868.861 38.6429 868.258 38.8652 868.024 39.3739L869.866 40.223ZM870.556 34.8882C870.229 35.3426 870.331 35.9764 870.786 36.3039C871.24 36.6315 871.874 36.5286 872.202 36.0742L870.556 34.8882ZM872.754 35.3583C873.111 34.9269 873.051 34.2876 872.62 33.9302C872.188 33.5728 871.549 33.6327 871.192 34.064L872.754 35.3583ZM875.934 31.0996C875.378 31.1636 874.978 31.6666 875.042 32.2231C875.106 32.7795 875.609 33.1787 876.166 33.1147L875.934 31.0996ZM877.002 33.1071C877.561 33.1421 878.043 32.7173 878.078 32.1583C878.113 31.5992 877.688 31.1176 877.129 31.0826L877.002 33.1071ZM882.362 33.0787C881.911 32.7462 881.276 32.8421 880.944 33.2928C880.611 33.7436 880.707 34.3786 881.158 34.7111L882.362 33.0787ZM881.89 35.3003C882.313 35.6685 882.953 35.6248 883.321 35.2026C883.69 34.7805 883.646 34.1398 883.224 33.7717L881.89 35.3003ZM886.711 37.8512C886.398 37.3868 885.767 37.2643 885.303 37.5776C884.839 37.8908 884.716 38.5212 885.03 38.9856L886.711 37.8512ZM885.563 39.8054C885.862 40.2794 886.488 40.4217 886.962 40.1233C887.436 39.8248 887.578 39.1986 887.28 38.7246L885.563 39.8054ZM889.797 43.3046C889.55 42.8014 888.943 42.5929 888.44 42.839C887.937 43.0851 887.728 43.6925 887.974 44.1957L889.797 43.3046ZM888.408 45.0992C888.647 45.6058 889.252 45.8226 889.758 45.5836C890.265 45.3445 890.482 44.7401 890.243 44.2335L888.408 45.0992ZM892.321 48.9555C892.106 48.4383 891.513 48.1932 890.995 48.4082C890.478 48.6232 890.233 49.2168 890.448 49.734L892.321 48.9555ZM890.837 50.6774C891.049 51.1958 891.641 51.4443 892.159 51.2323C892.678 51.0203 892.926 50.4281 892.714 49.9097L890.837 50.6774ZM894.61 54.6724C894.406 54.1508 893.818 53.8935 893.296 54.0977C892.775 54.3018 892.517 54.8902 892.721 55.4118L894.61 54.6724ZM893.093 56.3628C893.297 56.8845 893.885 57.1421 894.407 56.9382C894.929 56.7343 895.186 56.1461 894.983 55.6244L893.093 56.3628ZM896.854 60.3726C896.645 59.8527 896.055 59.6003 895.535 59.8088C895.015 60.0173 894.762 60.6077 894.971 61.1276L896.854 60.3726ZM895.355 62.0794C895.566 62.5984 896.157 62.8484 896.676 62.6378C897.195 62.4271 897.445 61.8356 897.234 61.3166L895.355 62.0794ZM899.215 65.9919C898.986 65.4804 898.387 65.2508 897.875 65.479C897.364 65.7073 897.134 66.307 897.362 66.8185L899.215 65.9919ZM897.787 67.7573C898.02 68.2665 898.622 68.4901 899.131 68.2568C899.64 68.0235 899.864 67.4215 899.631 66.9123L897.787 67.7573ZM901.877 71.4253C901.608 70.9339 900.992 70.7536 900.5 71.0225C900.009 71.2914 899.829 71.9077 900.098 72.3991L901.877 71.4253ZM900.607 73.3087C900.885 73.7947 901.505 73.9629 901.991 73.6845C902.477 73.406 902.645 72.7863 902.367 72.3003L900.607 73.3087ZM905.098 76.4388C904.754 75.9963 904.117 75.9161 903.675 76.2595C903.232 76.603 903.152 77.2401 903.495 77.6826L905.098 76.4388ZM904.169 78.516C904.53 78.9444 905.169 78.9993 905.598 78.6385C906.026 78.2777 906.081 77.6379 905.72 77.2094L904.169 78.516ZM909.256 80.4535C908.788 80.1445 908.159 80.2727 907.85 80.7399C907.541 81.2071 907.669 81.8363 908.137 82.1453L909.256 80.4535ZM909.077 82.7164C909.567 82.9878 910.185 82.8105 910.456 82.3205C910.727 81.8304 910.55 81.2132 910.06 80.9419L909.077 82.7164ZM914.476 82.2138C913.916 82.1881 913.442 82.6208 913.416 83.1803C913.39 83.7398 913.823 84.2143 914.382 84.2401L914.476 82.2138ZM915.534 84.2316C916.093 84.1903 916.512 83.7039 916.471 83.1453C916.429 82.5867 915.943 82.1674 915.385 82.2087L915.534 84.2316ZM919.226 80.4115C918.814 80.791 918.787 81.4326 919.167 81.8446C919.546 82.2566 920.188 82.2829 920.6 81.9034L919.226 80.4115ZM921.352 81.1466C921.729 80.7329 921.7 80.0914 921.287 79.7137C920.873 79.336 920.231 79.3651 919.854 79.7788L921.352 81.1466ZM922.466 75.8448C922.211 76.3436 922.409 76.9545 922.908 77.2093C923.407 77.4641 924.018 77.2663 924.272 76.7675L922.466 75.8448ZM924.734 75.8249C924.973 75.3181 924.755 74.7139 924.248 74.4755C923.741 74.2371 923.137 74.4547 922.899 74.9616L924.734 75.8249ZM924.708 70.4212C924.526 70.951 924.809 71.5278 925.338 71.7096C925.868 71.8914 926.445 71.6092 926.627 71.0794L924.708 70.4212ZM926.949 70.1165C927.123 69.584 926.832 69.0115 926.299 68.8377C925.767 68.6639 925.194 68.9547 925.021 69.4872L926.949 70.1165ZM926.413 64.7426C926.269 65.2839 926.591 65.8395 927.132 65.9836C927.673 66.1276 928.229 65.8056 928.373 65.2643L926.413 64.7426ZM928.633 64.2719C928.772 63.7295 928.446 63.1765 927.903 63.0369C927.361 62.8973 926.808 63.2239 926.668 63.7663L928.633 64.2719ZM927.825 58.9441C927.702 59.4905 928.045 60.0333 928.592 60.1564C929.138 60.2794 929.681 59.9362 929.804 59.3898L927.825 58.9441ZM930.023 58.4063C930.144 57.8593 929.798 57.3181 929.251 57.1974C928.704 57.0768 928.163 57.4224 928.043 57.9694L930.023 58.4063ZM929.076 53.0777C928.964 53.6266 929.318 54.1621 929.867 54.2739C930.416 54.3857 930.952 54.0313 931.063 53.4825L929.076 53.0777ZM931.261 52.5056C931.372 51.9565 931.016 51.4217 930.467 51.3111C929.918 51.2005 929.383 51.556 929.273 52.1051L931.261 52.5056ZM930.242 47.1995C930.135 47.7493 930.493 48.2819 931.043 48.389C931.593 48.4962 932.126 48.1374 932.233 47.5877L930.242 47.1995ZM932.425 46.6025C932.532 46.0526 932.173 45.5202 931.623 45.4132C931.073 45.3063 930.54 45.6653 930.433 46.2151L932.425 46.6025ZM931.392 41.2983C931.284 41.8479 931.642 42.3811 932.192 42.4892C932.741 42.5972 933.275 42.2393 933.383 41.6897L931.392 41.2983ZM933.576 40.7081C933.685 40.1586 933.328 39.625 932.778 39.5163C932.229 39.4076 931.695 39.7649 931.586 40.3143L933.576 40.7081ZM932.582 35.3963C932.468 35.9447 932.82 36.4818 933.368 36.5961C933.917 36.7103 934.454 36.3584 934.568 35.8101L932.582 35.3963ZM934.773 34.8362C934.888 34.2881 934.538 33.75 933.99 33.6342C933.442 33.5183 932.904 33.8687 932.788 34.4167L934.773 34.8362ZM933.872 29.5056C933.746 30.0513 934.085 30.5961 934.631 30.7225C935.177 30.8489 935.722 30.509 935.848 29.9634L933.872 29.5056ZM936.076 28.9897C936.205 28.4447 935.868 27.8981 935.323 27.769C934.778 27.6399 934.231 27.977 934.102 28.5221L936.076 28.9897ZM935.336 23.6418C935.189 24.1824 935.509 24.7394 936.049 24.8858C936.59 25.0322 937.147 24.7126 937.293 24.1719L935.336 23.6418ZM937.556 23.2174C937.707 22.6779 937.391 22.1184 936.852 21.9677C936.312 21.817 935.753 22.1322 935.602 22.6717L937.556 23.2174ZM937.083 17.8224C936.905 18.3535 937.191 18.9284 937.722 19.1065C938.253 19.2846 938.828 18.9985 939.006 18.4674L937.083 17.8224ZM939.323 17.5411C939.508 17.0124 939.229 16.4339 938.7 16.2489C938.172 16.064 937.593 16.3427 937.408 16.8714L939.323 17.5411ZM939.282 12.126C939.053 12.6369 939.281 13.2372 939.792 13.4667C940.303 13.6962 940.903 13.4681 941.133 12.9572L939.282 12.126ZM941.541 12.0734C941.782 11.5678 941.568 10.9625 941.062 10.7216C940.556 10.4806 939.951 10.6952 939.71 11.2008L941.541 12.0734ZM942.262 6.70874C941.945 7.17013 942.061 7.80162 942.523 8.11922C942.984 8.43681 943.616 8.32025 943.933 7.85886L942.262 6.70874ZM944.483 7.09547C944.82 6.6483 944.731 6.01234 944.284 5.67502C943.837 5.3377 943.201 5.42674 942.864 5.87391L944.483 7.09547ZM946.64 2.14806C946.179 2.46575 946.063 3.09727 946.38 3.55859C946.698 4.01992 947.33 4.13635 947.791 3.81865L946.64 2.14806ZM948.57 3.33076C949.058 3.05527 949.23 2.43658 948.954 1.94888C948.679 1.46117 948.06 1.28914 947.573 1.56463L948.57 3.33076ZM952.815 0.12447C952.255 0.135913 951.81 0.599172 951.822 1.15919C951.833 1.7192 952.296 2.16391 952.856 2.15247L952.815 0.12447ZM953.754 2.18275C954.311 2.24222 954.811 1.83892 954.87 1.28195C954.93 0.724985 954.527 0.225265 953.97 0.165795L953.754 2.18275ZM958.956 2.69996C958.557 2.30668 957.915 2.3112 957.521 2.71005C957.128 3.1089 957.133 3.75104 957.531 4.14432L958.956 2.69996ZM958.165 4.82619C958.529 5.25164 959.17 5.30118 959.595 4.93684C960.021 4.5725 960.07 3.93225 959.706 3.5068L958.165 4.82619ZM962.534 7.96695C962.287 7.46383 961.68 7.25555 961.177 7.50174C960.674 7.74794 960.465 8.35539 960.712 8.85851L962.534 7.96695ZM961.128 9.74451C961.358 10.255 961.959 10.4821 962.47 10.2516C962.98 10.0212 963.207 9.42049 962.977 8.90996L961.128 9.74451ZM964.829 13.7698C964.656 13.2372 964.084 12.9461 963.551 13.1195C963.018 13.293 962.727 13.8653 962.901 14.3979L964.829 13.7698ZM963.195 15.3254C963.36 15.8606 963.928 16.1603 964.463 15.9949C964.999 15.8295 965.298 15.2616 965.133 14.7264L963.195 15.3254ZM966.484 19.644C966.35 19.1 965.801 18.7672 965.257 18.9008C964.713 19.0343 964.38 19.5835 964.514 20.1275L966.484 19.644ZM964.746 21.0926C964.875 21.6378 965.421 21.9755 965.966 21.8469C966.511 21.7184 966.849 21.1722 966.72 20.627L964.746 21.0926ZM967.792 25.6045C967.683 25.055 967.15 24.6972 966.601 24.8055C966.051 24.9138 965.693 25.4471 965.802 25.9966L967.792 25.6045ZM965.994 26.9892C966.099 27.5394 966.63 27.9004 967.18 27.7954C967.73 27.6905 968.091 27.1594 967.986 26.6092L965.994 26.9892ZM968.872 31.6063C968.781 31.0537 968.259 30.6796 967.706 30.7708C967.153 30.862 966.779 31.3839 966.871 31.9366L968.872 31.6063ZM967.034 32.9414C967.123 33.4944 967.643 33.8707 968.196 33.7818C968.75 33.693 969.126 33.1726 969.037 32.6195L967.034 32.9414ZM969.794 37.6244C969.715 37.0699 969.201 36.6846 968.647 36.7638C968.092 36.843 967.707 37.3568 967.786 37.9113L969.794 37.6244ZM967.929 38.9205C968.007 39.4752 968.519 39.862 969.074 39.7845C969.629 39.7069 970.015 39.1943 969.938 38.6396L967.929 38.9205ZM970.605 43.6499C970.534 43.0942 970.027 42.7011 969.471 42.7717C968.915 42.8424 968.522 43.3501 968.593 43.9058L970.605 43.6499ZM968.72 44.9155C968.79 45.4713 969.297 45.8655 969.852 45.796C970.408 45.7265 970.802 45.2196 970.733 44.6638L968.72 44.9155ZM971.337 49.6797C971.272 49.1233 970.769 48.7246 970.212 48.7893C969.656 48.8539 969.257 49.3573 969.322 49.9137L971.337 49.6797ZM969.438 50.9222C969.502 51.4787 970.005 51.8781 970.561 51.8143C971.118 51.7505 971.517 51.2476 971.453 50.6911L969.438 50.9222ZM972.013 55.7124C971.953 55.1556 971.452 54.7532 970.895 54.8138C970.339 54.8743 969.936 55.3748 969.997 55.9317L972.013 55.7124ZM970.106 56.9386C970.166 57.4955 970.666 57.8983 971.223 57.8383C971.78 57.7782 972.183 57.2781 972.123 56.7212L970.106 56.9386ZM972.655 61.7468C972.597 61.1897 972.098 60.7852 971.541 60.8433C970.984 60.9014 970.579 61.4001 970.637 61.9572L972.655 61.7468ZM970.742 62.9628C970.8 63.52 971.298 63.9247 971.855 63.8669C972.412 63.809 972.817 63.3105 972.759 62.7534L970.742 62.9628ZM973.277 67.7812C973.22 67.2239 972.722 66.8185 972.165 66.8756C971.608 66.9327 971.202 67.4307 971.259 67.9879L973.277 67.7812ZM971.362 68.9929C971.419 69.5501 971.917 69.9556 972.475 69.8985C973.032 69.8414 973.437 69.3435 973.38 68.7862L971.362 68.9929ZM973.896 73.8134C973.839 73.2562 973.34 72.8511 972.783 72.9086C972.226 72.966 971.821 73.4643 971.878 74.0215L973.896 73.8134ZM971.982 75.0266C972.04 75.5838 972.538 75.9887 973.095 75.9311C973.653 75.8734 974.057 75.375 974 74.8179L971.982 75.0266ZM974.526 79.8412C974.467 79.2842 973.967 78.8807 973.41 78.9399C972.853 78.999 972.45 79.4985 972.509 80.0555L974.526 79.8412ZM972.616 81.0617C972.676 81.6187 973.175 82.0218 973.732 81.9622C974.289 81.9026 974.693 81.4028 974.633 80.8459L972.616 81.0617ZM975.182 85.8622C975.119 85.3056 974.617 84.9049 974.061 84.9673C973.504 85.0296 973.103 85.5315 973.166 86.0881L975.182 85.8622ZM973.279 87.096C973.342 87.6525 973.845 88.0526 974.401 87.9895C974.958 87.9265 975.358 87.4242 975.295 86.8676L973.279 87.096ZM975.88 91.8741C975.813 91.3181 975.308 90.9218 974.752 90.989C974.195 91.0562 973.799 91.5615 973.866 92.1176L975.88 91.8741ZM973.989 93.1275C974.058 93.6834 974.564 94.0788 975.12 94.0106C975.676 93.9424 976.071 93.4364 976.003 92.8804L973.989 93.1275ZM976.641 97.8746C976.567 97.3193 976.057 96.9293 975.502 97.0034C974.947 97.0775 974.556 97.5877 974.631 98.1429L976.641 97.8746ZM974.767 99.1544C974.842 99.7094 975.354 100.098 975.909 100.023C976.464 99.9472 976.852 99.4361 976.777 98.881L974.767 99.1544ZM977.489 103.86C977.406 103.306 976.889 102.925 976.335 103.009C975.781 103.092 975.4 103.609 975.484 104.163L977.489 103.86ZM975.638 105.174C975.724 105.728 976.242 106.108 976.795 106.022C977.349 105.937 977.728 105.419 977.643 104.865L975.638 105.174ZM978.458 109.825C978.361 109.273 977.835 108.904 977.284 109.001C976.732 109.098 976.363 109.623 976.46 110.175L978.458 109.825ZM976.638 111.183C976.738 111.734 977.265 112.101 977.816 112.001C978.368 111.902 978.734 111.375 978.635 110.824L976.638 111.183ZM979.591 115.754C979.476 115.206 978.939 114.855 978.391 114.97C977.842 115.085 977.491 115.622 977.606 116.17L979.591 115.754ZM977.818 117.167C977.937 117.715 978.477 118.063 979.024 117.944C979.572 117.825 979.919 117.285 979.801 116.738L977.818 117.167ZM980.958 121.613C980.817 121.071 980.263 120.747 979.721 120.888C979.179 121.029 978.854 121.584 978.995 122.125L980.958 121.613ZM979.254 123.098C979.401 123.638 979.959 123.957 980.499 123.81C981.04 123.663 981.359 123.106 981.212 122.565L979.254 123.098ZM982.662 127.316C982.479 126.786 981.902 126.505 981.372 126.687C980.843 126.87 980.561 127.447 980.744 127.977L982.662 127.316ZM981.09 128.953C981.282 129.48 981.864 129.751 982.39 129.559C982.916 129.367 983.188 128.785 982.996 128.259L981.09 128.953ZM984.945 132.811C984.69 132.312 984.08 132.114 983.581 132.369C983.082 132.623 982.884 133.234 983.138 133.733L984.945 132.811ZM983.623 134.644C983.894 135.134 984.512 135.311 985.001 135.039C985.491 134.768 985.668 134.151 985.397 133.661L983.623 134.644ZM988.183 137.516C987.788 137.119 987.145 137.118 986.749 137.513C986.352 137.909 986.351 138.551 986.746 138.948L988.183 137.516ZM987.548 139.687C987.977 140.047 988.616 139.992 988.977 139.564C989.338 139.136 989.283 138.496 988.855 138.135L987.548 139.687ZM992.816 139.845C992.257 139.806 991.773 140.228 991.734 140.787C991.695 141.346 992.117 141.83 992.676 141.869L992.816 139.845ZM993.844 141.874C994.404 141.846 994.834 141.369 994.805 140.809C994.777 140.25 994.3 139.82 993.741 139.848L993.844 141.874ZM998.151 138.444C997.673 138.737 997.524 139.362 997.817 139.839C998.11 140.316 998.735 140.465 999.212 140.172L998.151 138.444ZM1000.15 139.541C1000.6 139.21 1000.7 138.575 1000.37 138.124C1000.03 137.672 999.399 137.575 998.948 137.907L1000.15 139.541ZM1002.36 134.424C1002.03 134.871 1002.12 135.507 1002.56 135.845C1003.01 136.182 1003.65 136.093 1003.98 135.646L1002.36 134.424ZM1004.63 134.754C1004.95 134.293 1004.83 133.661 1004.37 133.342C1003.91 133.023 1003.28 133.137 1002.96 133.598L1004.63 134.754ZM1005.5 129.256C1005.25 129.756 1005.45 130.366 1005.95 130.617C1006.45 130.869 1007.06 130.667 1007.32 130.167L1005.5 129.256ZM1007.79 129.193C1008.03 128.687 1007.82 128.082 1007.31 127.841C1006.81 127.599 1006.2 127.814 1005.96 128.319L1007.79 129.193ZM1007.97 123.628C1007.76 124.151 1008.02 124.738 1008.55 124.939C1009.07 125.141 1009.66 124.881 1009.86 124.358L1007.97 123.628ZM1010.23 123.375C1010.43 122.85 1010.16 122.266 1009.63 122.071C1009.11 121.876 1008.52 122.143 1008.33 122.668L1010.23 123.375ZM1010.01 117.78C1009.84 118.313 1010.13 118.884 1010.67 119.055C1011.2 119.225 1011.77 118.931 1011.94 118.397L1010.01 117.78ZM1012.26 117.399C1012.42 116.864 1012.13 116.296 1011.59 116.129C1011.06 115.962 1010.49 116.261 1010.32 116.796L1012.26 117.399ZM1011.78 111.842C1011.63 112.382 1011.94 112.941 1012.48 113.092C1013.02 113.243 1013.58 112.928 1013.73 112.388L1011.78 111.842ZM1014.01 111.383C1014.16 110.843 1013.84 110.285 1013.3 110.137C1012.76 109.988 1012.2 110.306 1012.05 110.846L1014.01 111.383ZM1013.38 105.831C1013.24 106.374 1013.57 106.926 1014.11 107.064C1014.65 107.202 1015.2 106.874 1015.34 106.331L1013.38 105.831ZM1015.6 105.313C1015.74 104.769 1015.41 104.218 1014.86 104.082C1014.32 103.945 1013.77 104.275 1013.63 104.818L1015.6 105.313ZM1014.87 99.7753C1014.74 100.32 1015.07 100.868 1015.62 100.998C1016.16 101.129 1016.71 100.794 1016.84 100.249L1014.87 99.7753ZM1017.08 99.2402C1017.21 98.6954 1016.88 98.1483 1016.33 98.0183C1015.79 97.8884 1015.24 98.2247 1015.11 98.7695L1017.08 99.2402ZM1016.3 93.7104C1016.18 94.2558 1016.52 94.8014 1017.06 94.929C1017.61 95.0566 1018.15 94.718 1018.28 94.1726L1016.3 93.7104ZM1018.52 93.1597C1018.64 92.6143 1018.3 92.0688 1017.76 91.9413C1017.21 91.8138 1016.67 92.1526 1016.54 92.6981L1018.52 93.1597ZM1017.73 87.6299C1017.6 88.1752 1017.94 88.7212 1018.48 88.8494C1019.03 88.9777 1019.57 88.6397 1019.7 88.0944L1017.73 87.6299ZM1019.94 87.0837C1020.07 86.5386 1019.73 85.9923 1019.19 85.8636C1018.64 85.7349 1018.09 86.0724 1017.97 86.6176L1019.94 87.0837ZM1019.18 81.5534C1019.05 82.0976 1019.38 82.6463 1019.92 82.779C1020.47 82.9117 1021.02 82.5781 1021.15 82.0339L1019.18 81.5534ZM1021.4 81.0231C1021.53 80.4792 1021.2 79.9298 1020.65 79.796C1020.11 79.6621 1019.56 79.9946 1019.43 80.5385L1021.4 81.0231ZM1020.71 75.4786C1020.57 76.0206 1020.89 76.5746 1021.43 76.7159C1021.97 76.8573 1022.53 76.5326 1022.67 75.9906L1020.71 75.4786ZM1022.93 74.9847C1023.08 74.4432 1022.75 73.888 1022.21 73.7447C1021.67 73.6014 1021.12 73.9242 1020.97 74.4657L1022.93 74.9847ZM1022.36 69.4287C1022.21 69.9668 1022.52 70.529 1023.06 70.6844C1023.59 70.8398 1024.16 70.5295 1024.31 69.9913L1022.36 69.4287ZM1024.6 69.0055C1024.76 68.4682 1024.45 67.9043 1023.91 67.746C1023.38 67.5877 1022.81 67.895 1022.65 68.4323L1024.6 69.0055ZM1024.21 63.4414C1024.03 63.973 1024.32 64.547 1024.85 64.7236C1025.39 64.9001 1025.96 64.6123 1026.14 64.0807L1024.21 63.4414ZM1026.47 63.0877C1026.65 62.5577 1026.37 61.9812 1025.84 61.8001C1025.31 61.619 1024.73 61.9019 1024.55 62.432L1026.47 63.0877ZM1026.37 57.4983C1026.17 58.018 1026.42 58.6087 1026.94 58.8176C1027.46 59.0264 1028.05 58.7744 1028.26 58.2547L1026.37 57.4983ZM1028.64 57.3155C1028.86 56.7986 1028.61 56.2047 1028.1 55.989C1027.58 55.7733 1026.98 56.0176 1026.77 56.5345L1028.64 57.3155ZM1029 51.7343C1028.74 52.2308 1028.93 52.8435 1029.43 53.1028C1029.93 53.3621 1030.54 53.1698 1030.8 52.6734L1029 51.7343ZM1031.28 51.7698C1031.55 51.2793 1031.38 50.6624 1030.89 50.392C1030.39 50.1215 1029.78 50.2999 1029.51 50.7904L1031.28 51.7698ZM1032.4 46.3106C1032.06 46.7544 1032.14 47.3912 1032.59 47.733C1033.03 48.0749 1033.67 47.9923 1034.01 47.5486L1032.4 46.3106ZM1034.64 46.7594C1035 46.3306 1034.95 45.6908 1034.52 45.3304C1034.09 44.97 1033.45 45.0255 1033.09 45.4543L1034.64 46.7594ZM1037.14 41.7788C1036.67 42.0842 1036.54 42.7124 1036.84 43.182C1037.15 43.6515 1037.78 43.7845 1038.25 43.4791L1037.14 41.7788ZM1039.07 42.9888C1039.56 42.7214 1039.74 42.1056 1039.48 41.6134C1039.21 41.1212 1038.59 40.939 1038.1 41.2064L1039.07 42.9888ZM1043.49 39.6896C1042.93 39.7149 1042.5 40.189 1042.52 40.7486C1042.55 41.3082 1043.02 41.7413 1043.58 41.716L1043.49 39.6896ZM1044.56 41.7125C1045.12 41.7297 1045.58 41.2898 1045.6 40.73C1045.62 40.1701 1045.18 39.7023 1044.62 39.6851L1044.56 41.7125ZM1049.89 40.7109C1049.36 40.5142 1048.78 40.7799 1048.58 41.3044C1048.39 41.8288 1048.65 42.4134 1049.18 42.6101L1049.89 40.7109ZM1050.05 42.9717C1050.56 43.2027 1051.16 42.9763 1051.39 42.466C1051.62 41.9557 1051.4 41.3548 1050.89 41.1238L1050.05 42.9717ZM1055.36 44.0317C1054.94 43.6647 1054.3 43.7102 1053.93 44.1333C1053.56 44.5564 1053.61 45.197 1054.03 45.564L1055.36 44.0317ZM1054.75 46.2161C1055.15 46.6027 1055.8 46.5875 1056.18 46.1822C1056.57 45.7769 1056.55 45.1349 1056.15 44.7483L1054.75 46.2161ZM1059.57 48.7288C1059.24 48.2744 1058.61 48.1717 1058.16 48.4994C1057.7 48.827 1057.6 49.4609 1057.93 49.9152L1059.57 48.7288ZM1058.48 50.7119C1058.8 51.1751 1059.43 51.2954 1059.89 50.9805C1060.36 50.6656 1060.48 50.0348 1060.16 49.5716L1058.48 50.7119ZM1062.82 54.0211C1062.56 53.5263 1061.94 53.3379 1061.45 53.6004C1060.95 53.8629 1060.77 54.4769 1061.03 54.9717L1062.82 54.0211ZM1061.49 55.8492C1061.74 56.3483 1062.35 56.5468 1062.85 56.2925C1063.35 56.0383 1063.55 55.4276 1063.29 54.9285L1061.49 55.8492ZM1065.46 59.5901C1065.24 59.0754 1064.65 58.8372 1064.13 59.0581C1063.62 59.279 1063.38 59.8753 1063.6 60.3901L1065.46 59.5901ZM1063.99 61.3074C1064.2 61.8243 1064.8 62.0685 1065.31 61.8528C1065.83 61.6371 1066.08 61.0431 1065.86 60.5262L1063.99 61.3074ZM1067.73 65.2852C1067.53 64.7602 1066.95 64.493 1066.43 64.6883C1065.9 64.8837 1065.63 65.4676 1065.83 65.9926L1067.73 65.2852ZM1066.18 66.9358C1066.37 67.4619 1066.95 67.7325 1067.48 67.5403C1068 67.348 1068.27 66.7656 1068.08 66.2395L1066.18 66.9358ZM1069.77 71.0385C1069.59 70.5085 1069.02 70.2258 1068.49 70.4071C1067.96 70.5884 1067.67 71.165 1067.85 71.695L1069.77 71.0385ZM1068.18 72.6541C1068.36 73.1846 1068.94 73.4688 1069.47 73.2889C1070 73.109 1070.28 72.5331 1070.1 72.0027L1068.18 72.6541ZM1071.71 76.814C1071.54 76.2825 1070.96 75.9948 1070.43 76.1715C1069.9 76.3481 1069.61 76.9222 1069.79 77.4538L1071.71 76.814ZM1070.11 78.4151C1070.28 78.9466 1070.86 79.2342 1071.39 79.0575C1071.92 78.8807 1072.21 78.3066 1072.03 77.775L1070.11 78.4151ZM1073.64 82.5729C1073.46 82.0428 1072.89 81.7598 1072.36 81.9409C1071.82 82.1219 1071.54 82.6983 1071.72 83.2284L1073.64 82.5729ZM1072.05 84.1915C1072.24 84.721 1072.81 85.0021 1073.34 84.8194C1073.87 84.6368 1074.15 84.0594 1073.97 83.5299L1072.05 84.1915ZM1075.67 88.2734C1075.47 87.7486 1074.89 87.4816 1074.36 87.6772C1073.84 87.8728 1073.57 88.4568 1073.77 88.9817L1075.67 88.2734ZM1074.13 89.9439C1074.33 90.4674 1074.91 90.7303 1075.44 90.531C1075.96 90.3318 1076.22 89.7459 1076.02 89.2224L1074.13 89.9439ZM1077.91 93.8622C1077.68 93.3487 1077.08 93.1139 1076.57 93.3377C1076.06 93.5616 1075.82 94.1593 1076.05 94.6727L1077.91 93.8622ZM1076.47 95.6229C1076.7 96.1334 1077.3 96.3605 1077.81 96.1301C1078.32 95.8997 1078.55 95.299 1078.32 94.7885L1076.47 95.6229ZM1080.54 99.233C1080.26 98.7441 1079.64 98.5693 1079.16 98.8426C1078.67 99.1159 1078.49 99.7339 1078.77 100.223L1080.54 99.233ZM1079.29 101.134C1079.57 101.616 1080.2 101.777 1080.68 101.492C1081.16 101.207 1081.32 100.585 1081.04 100.103L1079.29 101.134ZM1083.82 104.129C1083.47 103.698 1082.83 103.639 1082.4 103.997C1081.97 104.355 1081.91 104.995 1082.26 105.426L1083.82 104.129ZM1082.96 106.221C1083.33 106.636 1083.97 106.667 1084.39 106.29C1084.8 105.914 1084.83 105.272 1084.46 104.857L1082.96 106.221ZM1088.09 107.892C1087.61 107.608 1086.99 107.769 1086.7 108.252C1086.42 108.734 1086.58 109.356 1087.06 109.64L1088.09 107.892ZM1088.03 110.16C1088.53 110.406 1089.14 110.197 1089.38 109.694C1089.63 109.19 1089.42 108.583 1088.92 108.337L1088.03 110.16ZM1093.38 109.461C1092.82 109.439 1092.35 109.874 1092.33 110.434C1092.31 110.994 1092.74 111.465 1093.3 111.488L1093.38 109.461ZM1094.41 111.492C1094.97 111.479 1095.41 111.014 1095.4 110.454C1095.39 109.894 1094.92 109.451 1094.36 109.464L1094.41 111.492ZM1099.14 108.741C1098.61 108.899 1098.3 109.463 1098.46 110C1098.61 110.538 1099.18 110.846 1099.71 110.688L1099.14 108.741ZM1100.74 110.357C1101.26 110.169 1101.54 109.589 1101.35 109.061C1101.16 108.534 1100.59 108.258 1100.06 108.445L1100.74 110.357ZM1104.34 106.215C1103.88 106.537 1103.77 107.169 1104.09 107.628C1104.41 108.087 1105.05 108.198 1105.5 107.876L1104.34 106.215ZM1106.37 107.241C1106.81 106.898 1106.89 106.261 1106.55 105.818C1106.2 105.375 1105.57 105.294 1105.12 105.637L1106.37 107.241ZM1108.69 102.247C1108.32 102.667 1108.36 103.308 1108.78 103.678C1109.2 104.048 1109.84 104.007 1110.21 103.587L1108.69 102.247ZM1110.89 102.787C1111.25 102.356 1111.19 101.717 1110.76 101.359C1110.33 101.001 1109.69 101.06 1109.33 101.491L1110.89 102.787ZM1112.31 97.4588C1112 97.9248 1112.12 98.5545 1112.59 98.8653C1113.05 99.1761 1113.68 99.0502 1113.99 98.5842L1112.31 97.4588ZM1114.56 97.7156C1114.87 97.2452 1114.73 96.6174 1114.26 96.3132C1113.79 96.0091 1113.16 96.1439 1112.86 96.6143L1114.56 97.7156ZM1115.51 92.2848C1115.22 92.7678 1115.39 93.3893 1115.87 93.6729C1116.35 93.9565 1116.97 93.7948 1117.26 93.3118L1115.51 92.2848ZM1117.78 92.4236C1118.06 91.9396 1117.89 91.3187 1117.41 91.0368C1116.93 90.7549 1116.3 90.9188 1116.02 91.4028L1117.78 92.4236ZM1118.6 86.9733C1118.32 87.4558 1118.48 88.0776 1118.96 88.3622C1119.44 88.6468 1120.06 88.4865 1120.35 88.004L1118.6 86.9733ZM1120.87 87.129C1121.15 86.6483 1121 86.0255 1120.52 85.7381C1120.04 85.4507 1119.41 85.6074 1119.13 86.0882L1120.87 87.129ZM1121.88 81.712C1121.57 82.1763 1121.69 82.8067 1122.16 83.12C1122.62 83.4333 1123.25 83.3108 1123.57 82.8465L1121.88 81.712ZM1124.14 82.0149C1124.46 81.5558 1124.35 80.9235 1123.89 80.6025C1123.43 80.2816 1122.8 80.3935 1122.47 80.8526L1124.14 82.0149ZM1125.7 76.7321C1125.32 77.1507 1125.36 77.7918 1125.78 78.1639C1126.2 78.5361 1126.84 78.4984 1127.21 78.0798L1125.7 76.7321ZM1127.88 77.3458C1128.27 76.9389 1128.25 76.297 1127.84 75.912C1127.44 75.5271 1126.8 75.5449 1126.41 75.9518L1127.88 77.3458ZM1130.4 72.4505C1129.94 72.7747 1129.83 73.4078 1130.16 73.8645C1130.48 74.3213 1131.11 74.4288 1131.57 74.1046L1130.4 72.4505ZM1132.38 73.5586C1132.85 73.2563 1132.99 72.6289 1132.69 72.1574C1132.38 71.6859 1131.76 71.5488 1131.29 71.8512L1132.38 73.5586ZM1136.13 69.5496C1135.6 69.7219 1135.31 70.2937 1135.48 70.8267C1135.65 71.3596 1136.22 71.652 1136.76 71.4796L1136.13 69.5496ZM1137.68 71.2074C1138.22 71.063 1138.54 70.5072 1138.4 69.966C1138.25 69.4248 1137.7 69.1032 1137.16 69.2476L1137.68 71.2074ZM1142.45 68.5151C1141.89 68.5272 1141.45 68.9909 1141.46 69.5509C1141.47 70.1109 1141.94 70.5551 1142.5 70.5431L1142.45 68.5151ZM1 71.222C0.960133 72.2354 0.960136 72.2354 0.96014 72.2354C0.960142 72.2354 0.960146 72.2354 0.96015 72.2354C0.960158 72.2354 0.960169 72.2354 0.960182 72.2354C0.960209 72.2354 0.960246 72.2354 0.960292 72.2354C0.960386 72.2354 0.96052 72.2354 0.960694 72.2354C0.961043 72.2355 0.961554 72.2355 0.962226 72.2355C0.963571 72.2356 0.965561 72.2356 0.968195 72.2357C0.973462 72.2359 0.981303 72.2362 0.991698 72.2366C1.01249 72.2375 1.0435 72.2386 1.08457 72.2402C1.16671 72.2433 1.2891 72.248 1.45049 72.2539L1.52526 70.2269C1.36471 70.221 1.24317 70.2164 1.16185 70.2133C1.1212 70.2117 1.0906 70.2105 1.07022 70.2097C1.06003 70.2094 1.05239 70.2091 1.04732 70.2089C1.04479 70.2088 1.0429 70.2087 1.04166 70.2086C1.04104 70.2086 1.04058 70.2086 1.04028 70.2086C1.04013 70.2086 1.04002 70.2086 1.03995 70.2086C1.03992 70.2086 1.03989 70.2086 1.03988 70.2086C1.03987 70.2086 1.03987 70.2086 1.03987 70.2086C1.03986 70.2086 1.03986 70.2086 1.03986 70.2086C1.03987 70.2086 1.03987 70.2086 1 71.222ZM6.38976 72.4174C6.70525 72.4269 7.03338 72.4367 7.37386 72.4467L7.43335 70.4192C7.0935 70.4092 6.76599 70.3994 6.45112 70.3899L6.38976 72.4174ZM12.3078 72.581C12.6319 72.5892 12.962 72.5974 13.298 72.6056L13.3476 70.5778C13.0121 70.5696 12.6825 70.5614 12.3589 70.5533L12.3078 72.581ZM18.2353 72.7174C18.5608 72.7242 18.8902 72.7309 19.2233 72.7376L19.2642 70.7096C18.9315 70.7029 18.6026 70.6962 18.2775 70.6894L18.2353 72.7174ZM24.1582 72.8286C24.4864 72.8341 24.8172 72.8395 25.1507 72.8448L25.1833 70.8167C24.8502 70.8113 24.5198 70.8059 24.1922 70.8004L24.1582 72.8286ZM30.085 72.9157C30.4121 72.9199 30.7412 72.9239 31.0724 72.9279L31.0967 70.8997C30.7661 70.8957 30.4374 70.8916 30.1108 70.8875L30.085 72.9157ZM36.0137 72.979C36.34 72.9818 36.6679 72.9846 36.9974 72.9872L37.0136 70.9588C36.6846 70.9562 36.3571 70.9535 36.0313 70.9507L36.0137 72.979ZM41.9352 73.0182C42.2639 73.0197 42.5938 73.0211 42.925 73.0223L42.9329 70.9939C42.6021 70.9927 42.2726 70.9913 41.9444 70.9898L41.9352 73.0182ZM47.8629 73.0328C48.0284 73.0329 48.194 73.0329 48.36 73.0329V71.0045C48.1943 71.0045 48.0288 71.0044 47.8637 71.0044L47.8629 73.0328ZM48.36 73.0329C48.5354 73.0329 48.7106 73.0329 48.8855 73.0329L48.8858 71.0045C48.7108 71.0045 48.5355 71.0045 48.36 71.0045V73.0329ZM54.0581 73.0369C54.398 73.0374 54.7369 73.0379 55.0748 73.0385L55.0782 71.0101C54.7401 71.0095 54.401 71.009 54.061 71.0085L54.0581 73.0369ZM60.1361 73.0503C60.4843 73.0514 60.8316 73.0525 61.1778 73.0536L61.1845 71.0252C60.8381 71.0241 60.4906 71.023 60.1422 71.0219L60.1361 73.0503ZM66.2949 73.074C66.631 73.0756 66.9662 73.0772 67.3004 73.0789L67.3105 71.0505C66.9761 71.0488 66.6407 71.0472 66.3044 71.0456L66.2949 73.074ZM72.4251 73.108C72.7683 73.1102 73.1106 73.1124 73.4518 73.1147L73.4654 71.0864C73.124 71.0841 72.7815 71.0818 72.4381 71.0796L72.4251 73.108ZM78.496 73.1523C78.8444 73.1551 79.1918 73.158 79.5382 73.161L79.5554 71.1326C79.2088 71.1297 78.8612 71.1268 78.5125 71.1239L78.496 73.1523ZM84.6734 73.2084C85.0108 73.2118 85.3472 73.2152 85.6827 73.2187L85.7036 71.1904C85.3679 71.1869 85.0313 71.1835 84.6937 71.1801L84.6734 73.2084ZM90.799 73.2754C91.1415 73.2794 91.4829 73.2835 91.8234 73.2876L91.8481 71.2594C91.5074 71.2552 91.1657 71.2511 90.8231 71.2471L90.799 73.2754ZM96.8948 73.353C97.2412 73.3577 97.5866 73.3625 97.9311 73.3673L97.9594 71.3391C97.6147 71.3343 97.269 71.3295 96.9224 71.3248L96.8948 73.353ZM103.031 73.4421C103.367 73.4472 103.701 73.4524 104.035 73.4577L104.067 71.4295C103.733 71.4243 103.398 71.4191 103.062 71.4139L103.031 73.4421ZM109.17 73.5416C109.509 73.5474 109.848 73.5532 110.185 73.559L110.22 71.5309C109.882 71.5251 109.544 71.5193 109.205 71.5135L109.17 73.5416ZM115.292 73.6505C115.634 73.6568 115.974 73.6631 116.314 73.6695L116.352 71.6414C116.012 71.6351 115.671 71.6287 115.33 71.6224L115.292 73.6505ZM121.408 73.7676C121.751 73.7743 122.093 73.7811 122.434 73.7879L122.475 71.7599C122.133 71.7531 121.791 71.7463 121.448 71.7395L121.408 73.7676ZM127.524 73.8914C127.867 73.8985 128.21 73.9056 128.552 73.9128L128.594 71.8848C128.252 71.8777 127.909 71.8705 127.566 71.8634L127.524 73.8914ZM133.656 74.0205C133.995 74.0277 134.334 74.035 134.673 74.0422L134.716 72.0142C134.377 72.007 134.039 71.9998 133.699 71.9925L133.656 74.0205ZM139.784 74.1521C140.124 74.1594 140.464 74.1668 140.804 74.1741L140.848 72.1461C140.508 72.1388 140.168 72.1315 139.828 72.1241L139.784 74.1521ZM145.908 74.2838C146.249 74.2911 146.589 74.2984 146.93 74.3056L146.973 72.2777C146.632 72.2704 146.292 72.2631 145.951 72.2559L145.908 74.2838ZM152.031 74.4132C152.371 74.4203 152.712 74.4273 153.053 74.4344L153.094 72.4064C152.754 72.3994 152.414 72.3923 152.073 72.3852L152.031 74.4132ZM158.158 74.5379C158.497 74.5447 158.836 74.5514 159.176 74.5581L159.216 72.53C158.876 72.5234 158.537 72.5167 158.198 72.5099L158.158 74.5379ZM164.292 74.6559C164.63 74.6622 164.967 74.6684 165.306 74.6746L165.343 72.6465C165.005 72.6403 164.667 72.6341 164.33 72.6278L164.292 74.6559ZM170.426 74.765C170.766 74.7708 171.106 74.7765 171.447 74.7822L171.481 72.7541C171.14 72.7484 170.8 72.7426 170.46 72.7369L170.426 74.765ZM176.539 74.8634C176.882 74.8687 177.226 74.8738 177.571 74.879L177.601 72.8508C177.256 72.8456 176.913 72.8405 176.57 72.8353L176.539 74.8634ZM182.658 74.9506C182.999 74.9551 183.34 74.9595 183.683 74.964L183.709 72.9357C183.367 72.9313 183.025 72.9268 182.685 72.9223L182.658 74.9506ZM188.794 75.0257C189.131 75.0295 189.469 75.0332 189.808 75.0369L189.83 73.0086C189.491 73.0049 189.153 73.0012 188.817 72.9974L188.794 75.0257ZM194.961 75.0886C195.294 75.0916 195.627 75.0946 195.962 75.0975L195.98 73.0692C195.645 73.0663 195.312 73.0633 194.98 73.0602L194.961 75.0886ZM201.049 75.138C201.393 75.1405 201.738 75.1428 202.085 75.1452L202.098 73.1168C201.752 73.1145 201.408 73.1121 201.064 73.1096L201.049 75.138ZM207.169 75.1752C207.508 75.1769 207.848 75.1786 208.188 75.1802L208.198 73.1518C207.858 73.1502 207.518 73.1486 207.18 73.1468L207.169 75.1752ZM213.345 75.2004C213.677 75.2014 214.011 75.2024 214.345 75.2033L214.351 73.1749C214.017 73.174 213.683 73.173 213.351 73.172L213.345 75.2004ZM219.434 75.2134C219.778 75.2138 220.123 75.2141 220.47 75.2144L220.471 73.186C220.125 73.1857 219.78 73.1853 219.436 73.1849L219.434 75.2134ZM225.561 75.2151C225.898 75.2148 226.236 75.2146 226.574 75.2143L226.573 73.1859C226.234 73.1862 225.896 73.1864 225.56 73.1866L225.561 75.2151ZM231.731 75.2058C232.079 75.205 232.428 75.2041 232.777 75.2032L232.772 73.1747C232.422 73.1757 232.074 73.1765 231.726 73.1774L231.731 75.2058ZM237.807 75.1864C238.147 75.185 238.488 75.1836 238.831 75.1822L238.822 73.1538C238.48 73.1552 238.139 73.1566 237.799 73.158L237.807 75.1864ZM244.009 75.1567C244.34 75.1549 244.672 75.153 245.004 75.1511L244.993 73.1227C244.66 73.1246 244.328 73.1265 243.997 73.1283L244.009 75.1567ZM250.066 75.1186C250.408 75.1162 250.751 75.1137 251.095 75.1112L251.08 73.0829C250.736 73.0854 250.393 73.0878 250.051 73.0902L250.066 75.1186ZM256.253 75.0708C256.585 75.068 256.918 75.0652 257.252 75.0623L257.234 73.0339C256.901 73.0368 256.568 73.0397 256.236 73.0424L256.253 75.0708ZM262.324 75.0158C262.666 75.0124 263.01 75.0091 263.354 75.0057L263.334 72.9773C262.99 72.9808 262.646 72.9841 262.304 72.9874L262.324 75.0158ZM268.517 74.9518C268.849 74.9481 269.181 74.9445 269.515 74.9408L269.492 72.9125C269.159 72.9162 268.826 72.9198 268.495 72.9235L268.517 74.9518ZM274.577 74.8819C274.919 74.8778 275.262 74.8736 275.605 74.8694L275.58 72.8411C275.237 72.8454 274.894 72.8495 274.553 72.8537L274.577 74.8819ZM280.804 74.8032C281.134 74.7988 281.465 74.7944 281.797 74.79L281.77 72.7617C281.438 72.7662 281.107 72.7706 280.777 72.7749L280.804 74.8032ZM286.832 74.7205C287.172 74.7156 287.513 74.7108 287.854 74.7059L287.825 72.6777C287.483 72.6826 287.143 72.6874 286.804 72.6923L286.832 74.7205ZM293.033 74.6292C293.382 74.6239 293.732 74.6186 294.083 74.6132L294.052 72.585C293.701 72.5904 293.351 72.5958 293.002 72.6011L293.033 74.6292ZM299.103 74.5342C299.439 74.5288 299.777 74.5233 300.115 74.5178L300.082 72.4897C299.744 72.4952 299.407 72.5006 299.07 72.506L299.103 74.5342ZM305.241 74.4326C305.587 74.4267 305.933 74.4208 306.28 74.4149L306.245 72.3868C305.898 72.3927 305.552 72.3986 305.207 72.4045L305.241 74.4326ZM311.41 74.3252C311.743 74.3193 312.076 74.3134 312.41 74.3074L312.374 72.2793C312.04 72.2853 311.707 72.2912 311.374 72.2971L311.41 74.3252ZM317.471 74.2149C317.812 74.2086 318.153 74.2022 318.496 74.1958L318.458 72.1678C318.116 72.1742 317.774 72.1805 317.433 72.1869L317.471 74.2149ZM323.683 74.0971C324.032 74.0904 324.382 74.0836 324.733 74.0768L324.694 72.0487C324.343 72.0556 323.993 72.0624 323.644 72.0691L323.683 74.0971ZM329.753 73.9777C330.089 73.9709 330.425 73.9642 330.762 73.9574L330.721 71.9294C330.384 71.9362 330.048 71.9429 329.712 71.9496L329.753 73.9777ZM335.863 73.8532C336.207 73.8461 336.551 73.839 336.896 73.8318L336.853 71.8038C336.509 71.811 336.165 71.8181 335.822 71.8252L335.863 73.8532ZM342.116 73.7218C342.447 73.7147 342.78 73.7076 343.113 73.7005L343.069 71.6725C342.736 71.6796 342.404 71.6868 342.072 71.6938L342.116 73.7218ZM348.123 73.5918C348.46 73.5844 348.797 73.577 349.135 73.5695L349.091 71.5416C348.753 71.549 348.415 71.5565 348.078 71.5639L348.123 73.5918ZM354.254 73.4555C354.598 73.4478 354.943 73.44 355.288 73.4322L355.243 71.4043C354.897 71.4121 354.552 71.4199 354.208 71.4276L354.254 73.4555ZM360.499 73.3132C360.83 73.3055 361.161 73.2979 361.492 73.2902L361.445 71.2623C361.114 71.27 360.783 71.2777 360.453 71.2853L360.499 73.3132ZM366.506 73.173C366.842 73.1651 367.18 73.1571 367.518 73.1491L367.47 71.1213C367.132 71.1293 366.795 71.1372 366.458 71.1452L366.506 73.173ZM372.632 73.027C372.976 73.0187 373.32 73.0104 373.665 73.0021L373.616 70.9742C373.271 70.9826 372.927 70.9909 372.583 70.9991L372.632 73.027ZM378.881 72.8749C379.056 72.8706 379.232 72.8663 379.408 72.862L379.358 70.8342C379.182 70.8385 379.007 70.8428 378.831 70.8471L378.881 72.8749ZM761.153 71.5683C762.148 71.7689 762.148 71.769 762.148 71.769C762.148 71.769 762.148 71.7691 762.148 71.7691C762.148 71.7691 762.148 71.7692 762.148 71.7692C762.148 71.7693 762.148 71.7694 762.148 71.7695C762.148 71.7697 762.147 71.7698 762.147 71.7699C762.147 71.77 762.147 71.77 762.147 71.7698C762.148 71.7695 762.148 71.7685 762.148 71.7669C762.149 71.7636 762.15 71.7578 762.152 71.7494C762.155 71.7328 762.161 71.7061 762.169 71.6698C762.186 71.5974 762.212 71.4868 762.249 71.3419L760.283 70.8405C760.242 71.0034 760.212 71.1313 760.191 71.2204C760.181 71.265 760.174 71.2999 760.168 71.3246C760.166 71.3369 760.164 71.3467 760.162 71.3539C760.161 71.3575 760.161 71.3605 760.16 71.3627C760.16 71.3639 760.16 71.3649 760.16 71.3657C760.16 71.3661 760.16 71.3665 760.16 71.3668C760.159 71.3669 760.159 71.3671 760.159 71.3672C760.159 71.3673 760.159 71.3674 760.159 71.3674C760.159 71.3675 760.159 71.3675 760.159 71.3675C760.159 71.3676 760.159 71.3676 761.153 71.5683ZM763.865 66.877C763.994 66.5964 764.132 66.3086 764.279 66.0151L762.465 65.1079C762.308 65.4217 762.16 65.7293 762.022 66.0291L763.865 66.877ZM766.761 61.9431C766.947 61.6911 767.139 61.4393 767.338 61.1883L765.749 59.9272C765.534 60.198 765.327 60.4695 765.127 60.7409L766.761 61.9431ZM770.624 57.7795C770.862 57.5773 771.106 57.3782 771.357 57.1825L770.109 55.5834C769.836 55.7965 769.57 56.0134 769.311 56.2333L770.624 57.7795ZM775.364 54.6844C775.644 54.5486 775.929 54.4172 776.221 54.2905L775.411 52.4306C775.094 52.5686 774.783 52.7117 774.478 52.8597L775.364 54.6844ZM780.728 52.8464C781.035 52.7797 781.348 52.7178 781.665 52.6609L781.308 50.6643C780.966 50.7255 780.629 50.7922 780.298 50.8641L780.728 52.8464ZM786.412 52.2172C786.574 52.2148 786.737 52.2136 786.901 52.2136V50.1852C786.727 50.1852 786.554 50.1865 786.382 50.189L786.412 52.2172ZM786.901 52.2136C787.053 52.2136 787.203 52.218 787.352 52.2267L787.47 50.2017C787.282 50.1907 787.092 50.1852 786.901 50.1852V52.2136ZM791.421 53.7368C791.659 53.9098 791.894 54.0974 792.126 54.2996L793.458 52.7699C793.184 52.5308 792.902 52.306 792.614 52.0964L791.421 53.7368ZM795.1 57.9026C795.271 58.1723 795.439 58.4505 795.605 58.737L797.36 57.7185C797.181 57.4112 797 57.1112 796.815 56.819L795.1 57.9026ZM797.739 63.0895C797.866 63.392 797.992 63.6994 798.117 64.0115L800.001 63.2577C799.871 62.9348 799.741 62.6162 799.608 62.302L797.739 63.0895ZM799.779 68.6288C799.882 68.9437 799.984 69.2617 800.086 69.5825L802.02 68.9711C801.916 68.6443 801.812 68.3201 801.707 67.9987L799.779 68.6288ZM801.485 74.3242C801.573 74.6418 801.661 74.9612 801.748 75.2824L803.705 74.7503C803.617 74.4259 803.528 74.1031 803.439 73.7819L801.485 74.3242ZM803.005 80.1022C803.086 80.4211 803.166 80.741 803.246 81.062L805.214 80.5712C805.134 80.2487 805.053 79.9272 804.972 79.6065L803.005 80.1022ZM804.432 85.9037C804.511 86.2274 804.589 86.5516 804.668 86.8762L806.639 86.3992C806.561 86.0745 806.482 85.7501 806.404 85.4261L804.432 85.9037ZM805.846 91.7292C805.926 92.0529 806.005 92.3766 806.085 92.7001L808.055 92.2139C807.975 91.8915 807.896 91.5689 807.816 91.2461L805.846 91.7292ZM807.312 97.5509C807.396 97.8741 807.481 98.1967 807.566 98.5187L809.527 98.0004C809.443 97.6808 809.359 97.3606 809.275 97.0396L807.312 97.5509ZM808.903 103.359C808.996 103.681 809.091 104.001 809.185 104.321L811.13 103.744C811.036 103.428 810.943 103.111 810.851 102.793L808.903 103.359ZM810.702 109.11C810.812 109.433 810.923 109.754 811.034 110.072L812.949 109.401C812.839 109.089 812.731 108.775 812.623 108.458L810.702 109.11ZM812.842 114.784C812.974 115.097 813.108 115.408 813.243 115.715L815.1 114.898C814.969 114.6 814.839 114.299 814.711 113.995L812.842 114.784ZM815.515 120.276C815.684 120.574 815.855 120.866 816.029 121.154L817.766 120.106C817.602 119.834 817.439 119.557 817.279 119.274L815.515 120.276ZM819.049 125.342C819.282 125.609 819.52 125.867 819.762 126.118L821.222 124.709C821.003 124.483 820.787 124.248 820.573 124.005L819.049 125.342ZM823.933 129.347C824.248 129.517 824.569 129.675 824.896 129.821L825.723 127.969C825.444 127.844 825.168 127.709 824.897 127.562L823.933 129.347ZM830.101 131.013C830.283 131.019 830.466 131.022 830.65 131.021L830.644 128.993C830.485 128.993 830.326 128.991 830.169 128.985L830.101 131.013ZM830.65 131.021C830.834 131.02 831.017 131.016 831.2 131.007L831.104 128.981C830.952 128.988 830.799 128.992 830.644 128.993L830.65 131.021ZM836.36 129.593C836.672 129.431 836.979 129.256 837.282 129.07L836.218 127.343C835.956 127.504 835.692 127.654 835.425 127.793L836.36 129.593ZM841.267 125.693C841.497 125.441 841.725 125.181 841.95 124.913L840.398 123.607C840.19 123.855 839.98 124.094 839.769 124.326L841.267 125.693ZM844.914 120.747C845.088 120.463 845.26 120.175 845.43 119.881L843.677 118.861C843.514 119.142 843.35 119.418 843.184 119.688L844.914 120.747ZM847.773 115.382C847.913 115.083 848.053 114.78 848.191 114.475L846.344 113.638C846.209 113.936 846.073 114.23 845.937 114.52L847.773 115.382ZM850.123 109.851C850.243 109.54 850.362 109.228 850.481 108.913L848.582 108.198C848.466 108.507 848.349 108.814 848.231 109.119L850.123 109.851ZM852.151 104.188C852.257 103.872 852.362 103.553 852.466 103.234L850.538 102.605C850.435 102.92 850.331 103.234 850.227 103.547L852.151 104.188ZM853.945 98.4724C854.039 98.1561 854.132 97.8387 854.225 97.5203L852.278 96.9521C852.186 97.2676 852.094 97.5821 852.001 97.8955L853.945 98.4724ZM855.574 92.721C855.661 92.4006 855.747 92.0796 855.833 91.758L853.874 91.2334C853.788 91.553 853.702 91.872 853.616 92.1902L855.574 92.721ZM857.087 86.9389C857.169 86.6168 857.25 86.2943 857.331 85.9716L855.364 85.4773C855.283 85.7986 855.202 86.1196 855.121 86.4403L857.087 86.9389ZM858.521 81.1447C858.599 80.8222 858.677 80.4996 858.755 80.1772L856.783 79.7018C856.706 80.0235 856.628 80.3452 856.55 80.6669L858.521 81.1447ZM859.909 75.343C859.985 75.0201 860.062 74.6976 860.138 74.3755L858.164 73.9086C858.088 74.2306 858.011 74.5529 857.935 74.8755L859.909 75.343ZM861.28 69.543C861.356 69.2216 861.432 68.901 861.508 68.5812L859.535 68.1123C859.459 68.4325 859.383 68.7535 859.306 69.0752L861.28 69.543ZM862.665 63.7631C862.744 63.4406 862.822 63.1194 862.901 62.7994L860.931 62.3162C860.852 62.6373 860.773 62.9597 860.695 63.2832L862.665 63.7631ZM864.109 57.9886C864.193 57.6659 864.276 57.345 864.359 57.026L862.397 56.5124C862.313 56.8336 862.229 57.1567 862.145 57.4815L864.109 57.9886ZM865.658 52.2612C865.747 51.9487 865.837 51.6388 865.926 51.3316L863.979 50.7641C863.888 51.0751 863.798 51.3887 863.708 51.7047L865.658 52.2612ZM867.396 46.6055C867.501 46.2904 867.607 45.9796 867.713 45.673L865.796 45.0093C865.688 45.3229 865.58 45.6406 865.472 45.9622L867.396 46.6055ZM869.462 41.1273C869.596 40.8182 869.731 40.5167 869.866 40.223L868.024 39.3739C867.882 39.6823 867.741 39.9979 867.601 40.3203L869.462 41.1273ZM872.202 36.0742C872.385 35.8194 872.569 35.5807 872.754 35.3583L871.192 34.064C870.976 34.3246 870.764 34.5996 870.556 34.8882L872.202 36.0742ZM876.166 33.1147C876.292 33.1002 876.419 33.0929 876.548 33.0929V31.0645C876.341 31.0645 876.137 31.0763 875.934 31.0996L876.166 33.1147ZM876.548 33.0929C876.701 33.0929 876.852 33.0977 877.002 33.1071L877.129 31.0826C876.937 31.0706 876.743 31.0645 876.548 31.0645V33.0929ZM881.158 34.7111C881.404 34.8928 881.649 35.0893 881.89 35.3003L883.224 33.7717C882.943 33.5265 882.656 33.2951 882.362 33.0787L881.158 34.7111ZM885.03 38.9856C885.209 39.2515 885.387 39.5249 885.563 39.8054L887.28 38.7246C887.093 38.4271 886.903 38.1358 886.711 37.8512L885.03 38.9856ZM887.974 44.1957C888.12 44.493 888.264 44.7943 888.408 45.0992L890.243 44.2335C890.095 43.9206 889.946 43.6108 889.797 43.3046L887.974 44.1957ZM890.448 49.734C890.578 50.0465 890.708 50.361 890.837 50.6774L892.714 49.9097C892.584 49.59 892.453 49.2719 892.321 48.9555L890.448 49.734ZM892.721 55.4118C892.845 55.7282 892.969 56.0452 893.093 56.3628L894.983 55.6244C894.858 55.3068 894.734 54.9894 894.61 54.6724L892.721 55.4118ZM894.971 61.1276C895.098 61.4455 895.226 61.7628 895.355 62.0794L897.234 61.3166C897.107 61.0028 896.98 60.6881 896.854 60.3726L894.971 61.1276ZM897.362 66.8185C897.503 67.1333 897.644 67.4463 897.787 67.7573L899.631 66.9123C899.491 66.6078 899.352 66.3009 899.215 65.9919L897.362 66.8185ZM900.098 72.3991C900.266 72.706 900.435 73.0093 900.607 73.3087L902.367 72.3003C902.202 72.0129 902.039 71.7212 901.877 71.4253L900.098 72.3991ZM903.495 77.6826C903.716 77.9674 903.941 78.2454 904.169 78.516L905.72 77.2094C905.511 76.9604 905.303 76.7034 905.098 76.4388L903.495 77.6826ZM908.137 82.1453C908.444 82.3488 908.758 82.5394 909.077 82.7164L910.06 80.9419C909.789 80.7916 909.521 80.6287 909.256 80.4535L908.137 82.1453ZM914.382 84.2401C914.57 84.2487 914.758 84.2531 914.949 84.2531V82.2247C914.789 82.2247 914.632 82.221 914.476 82.2138L914.382 84.2401ZM914.949 84.2531C915.145 84.2531 915.341 84.2459 915.534 84.2316L915.385 82.2087C915.241 82.2193 915.096 82.2247 914.949 82.2247V84.2531ZM920.6 81.9034C920.857 81.6661 921.108 81.4135 921.352 81.1466L919.854 79.7788C919.647 80.0054 919.437 80.2164 919.226 80.4115L920.6 81.9034ZM924.272 76.7675C924.429 76.4607 924.583 76.1464 924.734 75.8249L922.899 74.9616C922.756 75.2642 922.612 75.5587 922.466 75.8448L924.272 76.7675ZM926.627 71.0794C926.736 70.7625 926.843 70.4415 926.949 70.1165L925.021 69.4872C924.918 69.803 924.813 70.1143 924.708 70.4212L926.627 71.0794ZM928.373 65.2643C928.46 64.9362 928.547 64.6053 928.633 64.2719L926.668 63.7663C926.584 64.0946 926.499 64.42 926.413 64.7426L928.373 65.2643ZM929.804 59.3898C929.878 59.0636 929.951 58.7357 930.023 58.4063L928.043 57.9694C927.97 58.296 927.898 58.621 927.825 58.9441L929.804 59.3898ZM931.063 53.4825C931.13 53.1577 931.195 52.8321 931.261 52.5056L929.273 52.1051C929.207 52.4303 929.142 52.7545 929.076 53.0777L931.063 53.4825ZM932.233 47.5877C932.297 47.2596 932.361 46.9312 932.425 46.6025L930.433 46.2151C930.37 46.5437 930.306 46.8718 930.242 47.1995L932.233 47.5877ZM933.383 41.6897C933.447 41.3624 933.512 41.0351 933.576 40.7081L931.586 40.3143C931.522 40.6423 931.457 40.9703 931.392 41.2983L933.383 41.6897ZM934.568 35.8101C934.636 35.4848 934.704 35.1601 934.773 34.8362L932.788 34.4167C932.719 34.7427 932.651 35.0692 932.582 35.3963L934.568 35.8101ZM935.848 29.9634C935.924 29.6376 936 29.313 936.076 28.9897L934.102 28.5221C934.025 28.8487 933.948 29.1766 933.872 29.5056L935.848 29.9634ZM937.293 24.1719C937.38 23.8517 937.468 23.5335 937.556 23.2174L935.602 22.6717C935.512 22.9932 935.424 23.3166 935.336 23.6418L937.293 24.1719ZM939.006 18.4674C939.11 18.1555 939.216 17.8467 939.323 17.5411L937.408 16.8714C937.298 17.1856 937.19 17.5026 937.083 17.8224L939.006 18.4674ZM941.133 12.9572C941.267 12.6576 941.403 12.3629 941.541 12.0734L939.71 11.2008C939.565 11.5046 939.423 11.8131 939.282 12.126L941.133 12.9572ZM943.933 7.85886C944.114 7.59611 944.297 7.34158 944.483 7.09547L942.864 5.87391C942.659 6.14452 942.459 6.42292 942.262 6.70874L943.933 7.85886ZM947.791 3.81865C948.047 3.64232 948.307 3.47963 948.57 3.33076L947.573 1.56463C947.255 1.74409 946.944 1.93884 946.64 2.14806L947.791 3.81865ZM952.856 2.15247C953.01 2.14932 953.165 2.14982 953.322 2.15405L953.377 0.126361C953.188 0.121288 953.001 0.120668 952.815 0.12447L952.856 2.15247ZM953.322 2.15405C953.468 2.15797 953.612 2.16758 953.754 2.18275L953.97 0.165795C953.774 0.144875 953.576 0.131714 953.377 0.126361L953.322 2.15405ZM957.531 4.14432C957.745 4.35464 957.956 4.58191 958.165 4.82619L959.706 3.5068C959.462 3.22223 959.212 2.95295 958.956 2.69996L957.531 4.14432ZM960.712 8.85851C960.852 9.14548 960.991 9.44086 961.128 9.74451L962.977 8.90996C962.831 8.58814 962.684 8.27372 962.534 7.96695L960.712 8.85851ZM962.901 14.3979C963 14.7024 963.098 15.0116 963.195 15.3254L965.133 14.7264C965.033 14.4032 964.932 14.0843 964.829 13.7698L962.901 14.3979ZM964.514 20.1275C964.592 20.4459 964.67 20.7677 964.746 21.0926L966.72 20.627C966.642 20.2963 966.564 19.9686 966.484 19.644L964.514 20.1275ZM965.802 25.9966C965.866 26.3251 965.93 26.656 965.994 26.9892L967.986 26.6092C967.922 26.272 967.857 25.9371 967.792 25.6045L965.802 25.9966ZM966.871 31.9366C966.926 32.2697 966.98 32.6047 967.034 32.9414L969.037 32.6195C968.982 32.2801 968.927 31.9423 968.872 31.6063L966.871 31.9366ZM967.786 37.9113C967.834 38.2463 967.882 38.5827 967.929 38.9205L969.938 38.6396C969.89 38.2999 969.843 37.9615 969.794 37.6244L967.786 37.9113ZM968.593 43.9058C968.636 44.2413 968.678 44.5779 968.72 44.9155L970.733 44.6638C970.691 44.3249 970.648 43.9869 970.605 43.6499L968.593 43.9058ZM969.322 49.9137C969.361 50.2492 969.4 50.5853 969.438 50.9222L971.453 50.6911C971.415 50.3533 971.376 50.0161 971.337 49.6797L969.322 49.9137ZM969.997 55.9317C970.033 56.2668 970.07 56.6025 970.106 56.9386L972.123 56.7212C972.086 56.3845 972.05 56.0482 972.013 55.7124L969.997 55.9317ZM970.637 61.9572C970.672 62.2921 970.707 62.6273 970.742 62.9628L972.759 62.7534C972.725 62.4176 972.69 62.0821 972.655 61.7468L970.637 61.9572ZM971.259 67.9879C971.294 68.3228 971.328 68.6578 971.362 68.9929L973.38 68.7862C973.346 68.4512 973.312 68.1161 973.277 67.7812L971.259 67.9879ZM971.878 74.0215C971.913 74.3566 971.948 74.6917 971.982 75.0266L974 74.8179C973.965 74.4832 973.931 74.1483 973.896 73.8134L971.878 74.0215ZM972.509 80.0555C972.544 80.3912 972.58 80.7266 972.616 81.0617L974.633 80.8459C974.597 80.5113 974.561 80.1764 974.526 79.8412L972.509 80.0555ZM973.166 86.0881C973.203 86.4245 973.241 86.7605 973.279 87.096L975.295 86.8676C975.257 86.533 975.219 86.1979 975.182 85.8622L973.166 86.0881ZM973.866 92.1176C973.907 92.4549 973.948 92.7916 973.989 93.1275L976.003 92.8804C975.962 92.5457 975.921 92.2103 975.88 91.8741L973.866 92.1176ZM974.631 98.1429C974.676 98.4811 974.721 98.8183 974.767 99.1544L976.777 98.881C976.731 98.5466 976.686 98.2111 976.641 97.8746L974.631 98.1429ZM975.484 104.163C975.535 104.501 975.586 104.839 975.638 105.174L977.643 104.865C977.591 104.531 977.54 104.197 977.489 103.86L975.484 104.163ZM976.46 110.175C976.519 110.513 976.578 110.849 976.638 111.183L978.635 110.824C978.575 110.493 978.516 110.16 978.458 109.825L976.46 110.175ZM977.606 116.17C977.676 116.505 977.747 116.837 977.818 117.167L979.801 116.738C979.73 116.413 979.661 116.085 979.591 115.754L977.606 116.17ZM978.995 122.125C979.081 122.453 979.167 122.777 979.254 123.098L981.212 122.565C981.126 122.251 981.042 121.934 980.958 121.613L978.995 122.125ZM980.744 127.977C980.858 128.307 980.973 128.633 981.09 128.953L982.996 128.259C982.883 127.95 982.772 127.635 982.662 127.316L980.744 127.977ZM983.138 133.733C983.297 134.044 983.459 134.348 983.623 134.644L985.397 133.661C985.244 133.386 985.094 133.102 984.945 132.811L983.138 133.733ZM986.746 138.948C987.007 139.209 987.274 139.456 987.548 139.687L988.855 138.135C988.629 137.945 988.405 137.738 988.183 137.516L986.746 138.948ZM992.676 141.869C992.869 141.882 993.065 141.889 993.262 141.889V139.861C993.111 139.861 992.963 139.855 992.816 139.845L992.676 141.869ZM993.262 141.889C993.457 141.889 993.651 141.884 993.844 141.874L993.741 139.848C993.583 139.856 993.423 139.861 993.262 139.861V141.889ZM999.212 140.172C999.53 139.977 999.842 139.766 1000.15 139.541L998.948 137.907C998.685 138.1 998.419 138.279 998.151 138.444L999.212 140.172ZM1003.98 135.646C1004.2 135.357 1004.42 135.059 1004.63 134.754L1002.96 133.598C1002.76 133.882 1002.57 134.158 1002.36 134.424L1003.98 135.646ZM1007.32 130.167C1007.48 129.847 1007.64 129.522 1007.79 129.193L1005.96 128.319C1005.81 128.637 1005.66 128.949 1005.5 129.256L1007.32 130.167ZM1009.86 124.358C1009.98 124.034 1010.11 123.706 1010.23 123.375L1008.33 122.668C1008.21 122.991 1008.09 123.311 1007.97 123.628L1009.86 124.358ZM1011.94 118.397C1012.05 118.067 1012.15 117.734 1012.26 117.399L1010.32 116.796C1010.22 117.126 1010.11 117.454 1010.01 117.78L1011.94 118.397ZM1013.73 112.388C1013.83 112.054 1013.92 111.719 1014.01 111.383L1012.05 110.846C1011.96 111.18 1011.87 111.512 1011.78 111.842L1013.73 112.388ZM1015.34 106.331C1015.43 105.993 1015.52 105.653 1015.6 105.313L1013.63 104.818C1013.55 105.157 1013.46 105.494 1013.38 105.831L1015.34 106.331ZM1016.84 100.249C1016.92 99.9132 1017 99.5769 1017.08 99.2402L1015.11 98.7695C1015.03 99.1053 1014.95 99.4406 1014.87 99.7753L1016.84 100.249ZM1018.28 94.1726C1018.36 93.8351 1018.44 93.4974 1018.52 93.1597L1016.54 92.6981C1016.46 93.0357 1016.38 93.3732 1016.3 93.7104L1018.28 94.1726ZM1019.7 88.0944C1019.78 87.7573 1019.86 87.4204 1019.94 87.0837L1017.97 86.6176C1017.89 86.9548 1017.81 87.2923 1017.73 87.6299L1019.7 88.0944ZM1021.15 82.0339C1021.23 81.6963 1021.31 81.3594 1021.4 81.0231L1019.43 80.5385C1019.34 80.8762 1019.26 81.2145 1019.18 81.5534L1021.15 82.0339ZM1022.67 75.9906C1022.76 75.6542 1022.85 75.3189 1022.93 74.9847L1020.97 74.4657C1020.88 74.8023 1020.8 75.14 1020.71 75.4786L1022.67 75.9906ZM1024.31 69.9913C1024.41 69.6611 1024.5 69.3325 1024.6 69.0055L1022.65 68.4323C1022.56 68.7629 1022.46 69.0951 1022.36 69.4287L1024.31 69.9913ZM1026.14 64.0807C1026.25 63.7473 1026.36 63.4163 1026.47 63.0877L1024.55 62.432C1024.44 62.7662 1024.32 63.1027 1024.21 63.4414L1026.14 64.0807ZM1028.26 58.2547C1028.38 57.9383 1028.51 57.6252 1028.64 57.3155L1026.77 56.5345C1026.64 56.8526 1026.51 57.1739 1026.37 57.4983L1028.26 58.2547ZM1030.8 52.6734C1030.96 52.3668 1031.12 52.0656 1031.28 51.7698L1029.51 50.7904C1029.34 51.1 1029.17 51.4147 1029 51.7343L1030.8 52.6734ZM1034.01 47.5486C1034.22 47.2768 1034.43 47.0136 1034.64 46.7594L1033.09 45.4543C1032.86 45.7315 1032.63 46.0171 1032.4 46.3106L1034.01 47.5486ZM1038.25 43.4791C1038.52 43.3028 1038.79 43.1393 1039.07 42.9888L1038.1 41.2064C1037.78 41.3833 1037.46 41.5743 1037.14 41.7788L1038.25 43.4791ZM1043.58 41.716C1043.74 41.7087 1043.91 41.7051 1044.07 41.7051V39.6766C1043.87 39.6766 1043.68 39.681 1043.49 39.6896L1043.58 41.716ZM1044.07 41.7051C1044.23 41.7051 1044.4 41.7076 1044.56 41.7125L1044.62 39.6851C1044.44 39.6795 1044.25 39.6766 1044.07 39.6766V41.7051ZM1049.18 42.6101C1049.47 42.721 1049.76 42.8416 1050.05 42.9717L1050.89 41.1238C1050.56 40.9754 1050.23 40.8377 1049.89 40.7109L1049.18 42.6101ZM1054.03 45.564C1054.27 45.7736 1054.51 45.991 1054.75 46.2161L1056.15 44.7483C1055.89 44.502 1055.63 44.263 1055.36 44.0317L1054.03 45.564ZM1057.93 49.9152C1058.12 50.1757 1058.3 50.4413 1058.48 50.7119L1060.16 49.5716C1059.97 49.2861 1059.77 49.005 1059.57 48.7288L1057.93 49.9152ZM1061.03 54.9717C1061.18 55.2609 1061.33 55.5534 1061.49 55.8492L1063.29 54.9285C1063.14 54.6231 1062.98 54.3205 1062.82 54.0211L1061.03 54.9717ZM1063.6 60.3901C1063.73 60.6938 1063.86 60.9996 1063.99 61.3074L1065.86 60.5262C1065.73 60.2124 1065.6 59.9003 1065.46 59.5901L1063.6 60.3901ZM1065.83 65.9926C1065.95 66.3057 1066.06 66.6202 1066.18 66.9358L1068.08 66.2395C1067.96 65.9204 1067.85 65.6023 1067.73 65.2852L1065.83 65.9926ZM1067.85 71.695C1067.96 72.0142 1068.07 72.3339 1068.18 72.6541L1070.1 72.0027C1069.99 71.681 1069.88 71.3595 1069.77 71.0385L1067.85 71.695ZM1069.79 77.4538C1069.89 77.7743 1070 78.0949 1070.11 78.4151L1072.03 77.775C1071.92 77.455 1071.82 77.1347 1071.71 76.814L1069.79 77.4538ZM1071.72 83.2284C1071.83 83.5502 1071.94 83.8713 1072.05 84.1915L1073.97 83.5299C1073.86 83.2119 1073.75 82.8929 1073.64 82.5729L1071.72 83.2284ZM1073.77 88.9817C1073.89 89.3041 1074.01 89.6249 1074.13 89.9439L1076.02 89.2224C1075.9 88.908 1075.78 88.5916 1075.67 88.2734L1073.77 88.9817ZM1076.05 94.6727C1076.19 94.9922 1076.33 95.309 1076.47 95.6229L1078.32 94.7885C1078.18 94.4829 1078.04 94.174 1077.91 93.8622L1076.05 94.6727ZM1078.77 100.223C1078.94 100.531 1079.11 100.835 1079.29 101.134L1081.04 100.103C1080.87 99.8181 1080.7 99.528 1080.54 99.233L1078.77 100.223ZM1082.26 105.426C1082.49 105.698 1082.72 105.963 1082.96 106.221L1084.46 104.857C1084.24 104.623 1084.03 104.38 1083.82 104.129L1082.26 105.426ZM1087.06 109.64C1087.38 109.826 1087.7 110 1088.03 110.16L1088.92 108.337C1088.64 108.201 1088.36 108.052 1088.09 107.892L1087.06 109.64ZM1093.3 111.488C1093.49 111.495 1093.67 111.499 1093.86 111.499V109.47C1093.7 109.47 1093.54 109.467 1093.38 109.461L1093.3 111.488ZM1093.86 111.499C1094.04 111.499 1094.23 111.497 1094.41 111.492L1094.36 109.464C1094.2 109.468 1094.03 109.47 1093.86 109.47V111.499ZM1099.71 110.688C1100.06 110.586 1100.4 110.476 1100.74 110.357L1100.06 108.445C1099.76 108.552 1099.45 108.651 1099.14 108.741L1099.71 110.688ZM1105.5 107.876C1105.8 107.671 1106.08 107.459 1106.37 107.241L1105.12 105.637C1104.87 105.836 1104.61 106.029 1104.34 106.215L1105.5 107.876ZM1110.21 103.587C1110.44 103.324 1110.67 103.058 1110.89 102.787L1109.33 101.491C1109.12 101.747 1108.9 101.999 1108.69 102.247L1110.21 103.587ZM1113.99 98.5842C1114.19 98.2967 1114.38 98.0071 1114.56 97.7156L1112.86 96.6143C1112.68 96.8983 1112.49 97.1799 1112.31 97.4588L1113.99 98.5842ZM1117.26 93.3118C1117.43 93.0162 1117.6 92.7201 1117.78 92.4236L1116.02 91.4028C1115.85 91.6977 1115.68 91.9917 1115.51 92.2848L1117.26 93.3118ZM1120.35 88.004C1120.52 87.7113 1120.69 87.4196 1120.87 87.129L1119.13 86.0882C1118.95 86.3826 1118.77 86.6777 1118.6 86.9733L1120.35 88.004ZM1123.57 82.8465C1123.75 82.5666 1123.94 82.2893 1124.14 82.0149L1122.47 80.8526C1122.28 81.1368 1122.08 81.4234 1121.88 81.712L1123.57 82.8465ZM1127.21 78.0798C1127.43 77.8305 1127.66 77.5857 1127.88 77.3458L1126.41 75.9518C1126.17 76.2076 1125.93 76.4678 1125.7 76.7321L1127.21 78.0798ZM1131.57 74.1046C1131.84 73.9161 1132.11 73.734 1132.38 73.5586L1131.29 71.8512C1130.98 72.0441 1130.69 72.244 1130.4 72.4505L1131.57 74.1046ZM1136.76 71.4796C1137.06 71.3817 1137.37 71.2909 1137.68 71.2074L1137.16 69.2476C1136.81 69.3402 1136.47 69.4409 1136.13 69.5496L1136.76 71.4796ZM1142.5 70.5431C1142.66 70.5395 1142.83 70.5377 1143 70.5377V68.5093C1142.82 68.5093 1142.63 68.5112 1142.45 68.5151L1142.5 70.5431Z" fill="#44407C"/>
<path d="M378.505 71.3445C378.505 71.3445 399.81 63.3562 417.825 63.3562C435.839 63.3562 451.357 87.392 476.551 87.392C501.745 87.392 509.105 65.694 535.671 65.694C562.238 65.694 557.355 75.8548 587.184 75.8548C617.012 75.8548 627.728 55.9976 648.698 55.9976C669.668 55.9976 690.988 78.3518 711.606 78.3518C732.224 78.3518 757.933 68.2853 757.933 68.2853" stroke="#D2874B" stroke-width="3.23033"/>
<circle cx="8.60657" cy="70.9103" r="7.60657" fill="#44407C"/>
<circle cx="383.864" cy="70.9103" r="7.60657" fill="#D2874B"/>
<circle cx="760.136" cy="70.9103" r="7.60657" fill="#44407C"/>
<circle cx="1135.39" cy="70.9103" r="7.60657" fill="#44407C"/>
</svg>
