<svg width="1467" height="347" viewBox="0 0 1467 347" fill="none" xmlns="http://www.w3.org/2000/svg">
<path d="M12 172.401C12 172.401 31.2356 173.186 56.9826 173.186C168.259 173.186 171 178.139 371.388 173.018M733.995 172.742C733.995 172.742 737.899 152.659 758.45 152.659C779 152.659 774 230.44 800 230.362C826 230.284 827.505 133.806 843.596 133.806C859.687 133.806 861.297 184.249 880.07 184.249C898.843 184.249 893.086 102.646 916.543 103.301C940 103.956 929.242 241.078 954.451 241.078C979.661 241.078 975.889 142.298 1002.71 142.298C1029.53 142.298 1026.4 211.113 1050 211.113C1073.6 211.113 1072 170.726 1096.67 170.726C1121.35 170.726 1091.75 285.35 1123.39 285.35C1155.04 285.35 1135.55 80.4603 1161.27 79.4554C1187 78.4504 1165.16 345.593 1202.08 345.593C1239 345.593 1206.22 31.3935 1243 29.0929C1279.78 26.7923 1246.38 268.607 1289.19 268.607C1332 268.607 1301 1 1343 1C1385 1 1355.08 291.914 1388.04 291.914C1421 291.914 1406 85.3521 1442 85.3521C1458 85.3521 1459.91 149.766 1459.91 173.538" stroke="#44407C" stroke-width="2" stroke-linejoin="round" stroke-dasharray="1 5"/>
<path d="M370.554 172.522C370.554 172.522 390.79 164.645 407.901 164.645C425.011 164.645 439.75 188.344 463.679 188.344C487.608 188.344 494.598 166.95 519.832 166.95C545.065 166.95 540.427 176.969 568.758 176.969C597.089 176.969 607.267 157.39 627.184 157.39C647.102 157.39 667.352 179.431 686.935 179.431C706.518 179.431 730.936 169.505 730.936 169.505" stroke="#D2874B" stroke-width="3.18507"/>
<circle cx="7.5" cy="172.093" r="7.5" fill="#44407C"/>
<circle cx="370.5" cy="172.093" r="7.5" fill="#D2874B"/>
<circle cx="733.5" cy="172.093" r="7.5" fill="#44407C"/>
<circle cx="1096.5" cy="172.093" r="7.5" fill="#44407C"/>
<circle cx="1459.5" cy="172.093" r="7.5" fill="#44407C"/>
</svg>
