<svg width="21" height="24" viewBox="0 0 21 24" fill="none" xmlns="http://www.w3.org/2000/svg">
<path d="M0.750079 12.8665C0.750079 10.2411 1.95981 8.6968 3.89023 8.90271C4.40501 7.43559 5.56326 6.43177 7.15907 6.43177C7.41646 6.43177 7.64811 6.45751 7.82828 6.50899C7.7768 5.11909 7.64811 3.36884 7.64811 2.62242C7.64811 1.23251 8.3688 0.40887 9.65574 0.40887C11.406 0.40887 12.7187 2.15911 12.7187 5.06761C12.7187 6.66342 12.1524 8.2335 12.1524 10.9103C12.1524 12.5062 12.3583 12.9952 12.8474 12.9952C13.6968 12.9952 14.3145 11.8112 16.7854 11.8112C18.6901 11.8112 20.2602 13.2783 20.2602 14.7454C20.2602 16.3927 19.2821 16.9847 17.5576 16.9847C16.528 16.9847 15.6014 16.8046 14.855 17.1392C13.6195 17.6797 13.6195 18.2974 12.1267 19.6101C12.3583 19.8675 12.4355 20.2021 12.4355 20.5367C12.4355 22.5186 10.5309 23.6511 7.59663 23.6511C5.30587 23.6511 3.76153 22.7245 3.76153 21.2831C3.76153 20.8713 3.89023 20.5624 4.14761 20.2793C2.03702 18.8894 0.750079 16.2126 0.750079 12.8665ZM7.75106 20.3823C9.06375 20.3823 10.1448 19.919 11.3803 18.8379C12.6157 17.7312 13.0275 16.7531 14.3402 16.1353C15.1639 15.775 16.3993 15.9037 17.4546 15.9037C18.5357 15.9037 19.4108 15.672 19.4108 14.7712C19.4108 13.9475 18.1496 13.0209 16.7339 13.0209C14.5204 13.0209 13.8254 14.2564 12.7444 14.2564C11.6119 14.2564 11.0971 13.0724 11.0971 10.3184C11.0971 8.28498 11.5862 6.32882 11.5862 5.01613C11.5862 2.8798 10.6596 1.46416 9.47557 1.46416C8.88358 1.46416 8.7034 1.77303 8.7034 2.64815C8.7034 3.72919 8.85784 5.83978 8.85784 7.22968C8.85784 8.79975 8.26584 10.2154 7.28776 11.142C7.59663 10.061 7.80254 8.90271 7.85402 7.82168C7.64811 7.71872 7.39072 7.6415 7.13333 7.6415C5.15143 7.6415 3.83875 9.7521 3.99318 12.6863C3.68432 11.8369 3.55562 10.9876 3.6071 10.1897C2.60328 10.0095 1.7539 10.9618 1.7539 12.8665C1.7539 16.959 4.19909 20.3823 7.75106 20.3823ZM6.69577 14.7969C6.69577 16.4957 7.00464 18.143 7.28776 18.8637C7.57089 19.5586 6.72151 19.6358 6.54133 19.0438C6.18099 17.9628 5.9236 16.2126 5.9236 14.8999C5.9236 14.3079 6.69577 14.2049 6.69577 14.7969ZM4.61092 15.6463C4.86831 16.856 5.15143 17.6025 5.74343 18.5548C6.00082 18.9666 5.43456 19.2755 5.15143 18.8894C4.55944 18.0143 4.12188 17.0619 3.86449 15.8007C3.76153 15.2345 4.48222 15.0286 4.61092 15.6463ZM9.03801 15.8007C8.85784 16.856 8.98653 17.7826 9.11523 18.8122C9.21818 19.4557 8.3688 19.5329 8.26584 18.9151C8.11141 17.9113 8.03419 17.1649 8.2401 15.8007C8.34306 15.1573 9.14096 15.286 9.03801 15.8007ZM4.76535 21.0515C4.76535 21.7979 5.82065 22.5701 7.72532 22.5701C10.119 22.5701 11.5604 21.592 11.5604 20.6397C11.5604 20.4595 11.5347 20.305 11.4575 20.1764C10.2992 21 9.19244 21.3346 7.64811 21.3346C6.61855 21.3346 5.66621 21.103 4.81683 20.6911C4.79109 20.7941 4.76535 20.9228 4.76535 21.0515Z" fill="url(#paint0_linear_1355_49497)"/>
<defs>
<linearGradient id="paint0_linear_1355_49497" x1="10.5" y1="0" x2="10.5" y2="26" gradientUnits="userSpaceOnUse">
<stop stop-color="#2D2A5B"/>
<stop offset="1" stop-color="#18172B"/>
</linearGradient>
</defs>
</svg>
