<svg width="481" height="203" viewBox="0 0 481 203" fill="none" xmlns="http://www.w3.org/2000/svg">
<g filter="url(#filter0_d_585_951)">
<path fill-rule="evenodd" clip-rule="evenodd" d="M35.6267 0.898438C27.7408 0.898438 21.3481 7.29116 21.3481 15.177V17.7177H21.1391C20.8609 17.7177 20.5845 17.7256 20.3101 17.7414C19.9442 15.1793 20.491 9.66649 22.2161 6.46771L23.3549 4.90597C22.9297 5.31389 22.5508 5.84727 22.2161 6.46771L10.7221 22.2308C8.32725 24.7844 6.8606 28.2191 6.8606 31.9962V180.975C6.8606 188.861 13.2533 195.254 21.1391 195.254H452.812C457.654 195.254 461.934 192.844 464.515 189.158C467.258 186.093 473.217 179.067 476.272 175.452C479.015 172.85 480.726 169.17 480.726 165.091V15.177C480.726 7.29116 474.334 0.898438 466.448 0.898438H35.6267Z" fill="#44407C"/>
<rect x="19.7757" y="1.79072" width="460.06" height="176.541" rx="13.3861" fill="#FFFBF5" stroke="#44407C" stroke-width="1.78482"/>
<path fill-rule="evenodd" clip-rule="evenodd" d="M83.9571 30.1474C84.5167 28.4686 82.388 27.216 81.1922 28.5205L56.6924 55.2475C55.7281 56.2995 56.4743 57.9959 57.9014 57.9959H69.47C70.5895 57.9959 71.38 59.0926 71.026 60.1546L65.3915 77.0582C64.8319 78.737 66.9606 79.9896 68.1564 78.6851L92.6562 51.958C93.6205 50.906 92.8743 49.2097 91.4472 49.2097H79.8786C78.7591 49.2097 77.9686 48.1129 78.3226 47.0509L83.9571 30.1474ZM87.0637 54.4182C88.028 53.3662 87.2818 51.6698 85.8547 51.6698H76.4653C75.3458 51.6698 74.5553 50.5731 74.9094 49.5111L77.975 40.3141C78.5346 38.6353 76.4059 37.3827 75.2101 38.6872L62.2849 52.7874C61.3206 53.8394 62.0668 55.5357 63.4939 55.5357H72.8833C74.0028 55.5357 74.7932 56.6325 74.4392 57.6945L71.3736 66.8915C70.814 68.5703 72.9427 69.8228 74.1385 68.5183L87.0637 54.4182Z" fill="#4840BB"/>
<path d="M64.8337 34.3316C64.3533 33.8513 64.3533 33.0724 64.8337 32.592L68.0144 29.4113C68.4948 28.931 69.2736 28.931 69.754 29.4113C70.2344 29.8917 70.2344 30.6705 69.754 31.1509L66.5733 34.3316C66.0929 34.812 65.3141 34.812 64.8337 34.3316Z" fill="#4840BB"/>
<path d="M51.3029 47.8624C50.8225 47.3821 50.8225 46.6032 51.3029 46.1228L59.4039 38.0218C59.8843 37.5415 60.6631 37.5415 61.1435 38.0218C61.6239 38.5022 61.6239 39.2811 61.1435 39.7614L53.0425 47.8624C52.5621 48.3428 51.7833 48.3428 51.3029 47.8624Z" fill="#4840BB"/>
<path d="M81.6447 76.5641C82.1251 77.0445 82.9039 77.0445 83.3843 76.5641L84.5149 75.4336C84.9953 74.9532 84.9953 74.1744 84.5149 73.694C84.0345 73.2136 83.2557 73.2136 82.7753 73.694L81.6447 74.8246C81.1643 75.3049 81.1643 76.0838 81.6447 76.5641Z" fill="#4840BB"/>
<path d="M88.2051 70.0038C88.6855 70.4841 89.4643 70.4841 89.9447 70.0038L97.6357 62.3128C98.116 61.8324 98.116 61.0536 97.6357 60.5732C97.1553 60.0928 96.3765 60.0928 95.8961 60.5732L88.2051 68.2642C87.7247 68.7445 87.7247 69.5234 88.2051 70.0038Z" fill="#4840BB"/>
<path d="M128.869 39.9947H136.243L146.765 67.6027H139.436L137.457 62.2519H127.43L125.497 67.6027H118.347L128.869 39.9947ZM132.466 48.5379L129.633 56.3167H135.299L132.466 48.5379ZM167.395 47.3688V67.6027H160.336V65.8491C159.256 67.1081 157.233 68.0523 154.94 68.0523C150.488 68.0523 147.835 65.1296 147.835 60.6332V47.3688H154.85V58.9695C154.85 60.6782 155.659 61.8922 157.458 61.8922C158.762 61.8922 159.976 61.0379 160.336 59.644V47.3688H167.395ZM172.188 60.6332V52.8544H169.221V47.3688H172.188V41.7933H179.158V47.3688H183.384V52.8544H179.158V59.599C179.158 61.1728 179.922 61.8473 181.316 61.8473C182.08 61.8473 182.935 61.6674 183.564 61.3976V67.3778C182.755 67.7376 181.226 68.0073 179.652 68.0073C174.886 68.0073 172.188 65.7591 172.188 60.6332ZM205.886 57.4857C205.886 63.7357 201.705 68.0523 195.545 68.0523C189.429 68.0523 185.203 63.7357 185.203 57.4857C185.203 51.2357 189.429 46.9192 195.545 46.9192C201.705 46.9192 205.886 51.2357 205.886 57.4857ZM198.962 57.4857C198.962 54.698 197.748 52.7195 195.545 52.7195C193.386 52.7195 192.172 54.698 192.172 57.4857C192.172 60.2735 193.386 62.207 195.545 62.207C197.748 62.207 198.962 60.2735 198.962 57.4857ZM226.033 49.3472C227.247 48.0882 229.316 46.9192 232.283 46.9192C236.51 46.9192 239.118 49.7969 239.118 54.3382V67.6027H232.059V56.0469C232.059 54.3382 231.339 53.1242 229.765 53.1242C228.551 53.1242 227.517 53.8886 227.157 55.2825V67.6027H220.143V56.0469C220.143 54.3382 219.424 53.1242 217.85 53.1242C216.636 53.1242 215.557 53.8886 215.242 55.2825V67.6027H208.183V47.3688H215.242V49.0325C216.276 47.7735 218.21 46.9192 220.458 46.9192C223.021 46.9192 224.819 47.9084 226.033 49.3472ZM260.321 67.6027H253.531V66.5685C252.857 67.2429 250.834 67.9624 248.675 67.9624C244.673 67.9624 241.301 65.7142 241.301 61.4426C241.301 57.5307 244.673 55.0127 249.08 55.0127C250.744 55.0127 252.722 55.5523 253.531 56.1368V54.8328C253.531 53.5289 252.767 52.4048 251.058 52.4048C249.754 52.4048 248.99 52.9893 248.675 53.8886H242.021C242.605 49.9767 246.067 46.8742 251.283 46.8742C257.039 46.8742 260.321 49.9318 260.321 55.1926V67.6027ZM253.531 61.9372V60.7681C253.082 59.9138 251.868 59.3742 250.564 59.3742C249.17 59.3742 247.776 59.9588 247.776 61.3077C247.776 62.7016 249.17 63.2861 250.564 63.2861C251.868 63.2861 253.082 62.7465 253.531 61.9372ZM264.709 60.6332V52.8544H261.741V47.3688H264.709V41.7933H271.678V47.3688H275.905V52.8544H271.678V59.599C271.678 61.1728 272.443 61.8473 273.837 61.8473C274.601 61.8473 275.455 61.6674 276.085 61.3976V67.3778C275.275 67.7376 273.747 68.0073 272.173 68.0073C267.407 68.0073 264.709 65.7591 264.709 60.6332ZM285.95 47.3688V67.6027H278.89V47.3688H285.95ZM286.444 41.8832C286.444 44.1764 284.601 45.6602 282.443 45.6602C280.284 45.6602 278.441 44.1764 278.441 41.8832C278.441 39.545 280.284 38.0612 282.443 38.0612C284.601 38.0612 286.444 39.545 286.444 41.8832ZM288.251 57.4857C288.251 51.2357 292.388 46.9192 298.458 46.9192C303.899 46.9192 307.271 50.1566 307.856 54.8778H301.021C300.841 53.6638 299.897 52.7645 298.458 52.7645C296.48 52.7645 295.221 54.608 295.221 57.4857C295.221 60.3634 296.48 62.162 298.458 62.162C299.897 62.162 300.841 61.3077 301.021 60.0937H307.856C307.271 64.7699 303.899 68.0523 298.458 68.0523C292.388 68.0523 288.251 63.7357 288.251 57.4857Z" fill="#44407C"/>
<path d="M60.6274 91.634H61.7614L64.1014 100.418L66.3694 91.634H67.7374L64.8034 102.686H63.5074L61.1854 94.064L58.8274 102.686H57.5494L54.6154 91.634H56.0194L58.2874 100.418L60.6274 91.634ZM73.8612 100.292H75.1392C74.8512 101.804 73.7172 102.848 71.9172 102.848C69.7392 102.848 68.2452 101.174 68.2452 98.708C68.2452 96.314 69.7032 94.532 71.8812 94.532C74.0772 94.532 75.2472 96.134 75.2472 98.456V98.942H69.5952C69.6132 100.652 70.5672 101.696 71.9172 101.696C72.9072 101.696 73.6452 101.192 73.8612 100.292ZM71.8992 95.684C70.6932 95.684 69.8292 96.512 69.6312 97.916H73.8792C73.8612 96.728 73.2312 95.684 71.8992 95.684ZM76.0959 95.18L77.1939 93.326C76.7439 93.254 76.4019 92.93 76.4019 92.426C76.4019 91.868 76.8339 91.472 77.3739 91.472C77.9139 91.472 78.3279 91.85 78.3279 92.516C78.3279 92.894 78.1479 93.29 77.9319 93.65L77.0139 95.18H76.0959ZM81.3333 90.986V102.686H79.9833V90.986H81.3333ZM85.0951 90.986V102.686H83.7451V90.986H85.0951ZM97.2754 102.686H95.9794V102.092C95.6734 102.416 94.8274 102.83 93.8734 102.83C92.2534 102.83 90.9034 101.858 90.9034 100.274C90.9034 98.78 92.2534 97.772 93.9634 97.772C94.7914 97.772 95.6374 98.114 95.9794 98.42V97.412C95.9794 96.422 95.3674 95.702 94.2154 95.702C93.3694 95.702 92.8294 96.062 92.5774 96.8H91.2454C91.5154 95.45 92.7034 94.532 94.2334 94.532C96.1414 94.532 97.2754 95.612 97.2754 97.358V102.686ZM95.9794 100.706V99.878C95.7454 99.284 94.9354 98.888 94.1074 98.888C93.1354 98.888 92.1994 99.32 92.1994 100.274C92.1994 101.246 93.1354 101.696 94.1074 101.696C94.9354 101.696 95.7454 101.3 95.9794 100.706ZM105.955 94.694V102.686H104.587V101.678C104.137 102.308 103.291 102.848 102.265 102.848C100.447 102.848 99.475 101.678 99.475 99.932V94.694H100.843V99.716C100.843 100.832 101.383 101.606 102.589 101.606C103.525 101.606 104.299 100.976 104.587 100.112V94.694H105.955ZM108.732 100.67V95.846H107.436V94.694H108.732V92.588H110.082V94.694H112.008V95.846H110.082V100.526C110.082 101.3 110.46 101.642 111.144 101.642C111.522 101.642 111.918 101.498 112.188 101.318V102.578C111.882 102.74 111.414 102.848 110.928 102.848C109.632 102.848 108.732 102.146 108.732 100.67ZM120.747 98.69C120.747 101.138 119.253 102.848 117.075 102.848C114.879 102.848 113.403 101.138 113.403 98.69C113.403 96.242 114.879 94.532 117.075 94.532C119.253 94.532 120.747 96.242 120.747 98.69ZM119.379 98.69C119.379 96.944 118.515 95.72 117.075 95.72C115.635 95.72 114.771 96.944 114.771 98.69C114.771 100.436 115.635 101.66 117.075 101.66C118.515 101.66 119.379 100.436 119.379 98.69ZM128.245 95.81C128.749 95.09 129.559 94.532 130.675 94.532C132.295 94.532 133.195 95.666 133.195 97.394V102.686H131.827V97.61C131.827 96.494 131.341 95.756 130.315 95.756C129.505 95.756 128.803 96.314 128.551 97.178V102.686H127.201V97.61C127.201 96.494 126.715 95.756 125.689 95.756C124.879 95.756 124.177 96.314 123.925 97.178V102.686H122.575V94.694H123.925V95.63C124.321 95 125.095 94.532 126.085 94.532C127.093 94.532 127.867 95.054 128.245 95.81ZM141.273 102.686H139.977V102.092C139.671 102.416 138.825 102.83 137.871 102.83C136.251 102.83 134.901 101.858 134.901 100.274C134.901 98.78 136.251 97.772 137.961 97.772C138.789 97.772 139.635 98.114 139.977 98.42V97.412C139.977 96.422 139.365 95.702 138.213 95.702C137.367 95.702 136.827 96.062 136.575 96.8H135.243C135.513 95.45 136.701 94.532 138.231 94.532C140.139 94.532 141.273 95.612 141.273 97.358V102.686ZM139.977 100.706V99.878C139.743 99.284 138.933 98.888 138.105 98.888C137.133 98.888 136.197 99.32 136.197 100.274C136.197 101.246 137.133 101.696 138.105 101.696C138.933 101.696 139.743 101.3 139.977 100.706ZM143.906 100.67V95.846H142.61V94.694H143.906V92.588H145.256V94.694H147.182V95.846H145.256V100.526C145.256 101.3 145.634 101.642 146.318 101.642C146.696 101.642 147.092 101.498 147.362 101.318V102.578C147.056 102.74 146.588 102.848 146.102 102.848C144.806 102.848 143.906 102.146 143.906 100.67ZM150.591 94.694V102.686H149.241V94.694H150.591ZM150.789 92.282C150.789 92.75 150.393 93.146 149.907 93.146C149.439 93.146 149.043 92.75 149.043 92.282C149.043 91.796 149.439 91.418 149.907 91.418C150.393 91.418 150.789 91.796 150.789 92.282ZM152.427 98.69C152.427 96.206 153.921 94.532 156.063 94.532C157.863 94.532 158.997 95.576 159.267 97.106H157.881C157.701 96.242 157.017 95.72 156.063 95.72C154.695 95.72 153.795 96.944 153.795 98.69C153.795 100.436 154.695 101.66 156.063 101.66C157.017 101.66 157.701 101.138 157.881 100.274H159.267C158.997 101.804 157.863 102.848 156.063 102.848C153.921 102.848 152.427 101.174 152.427 98.69ZM166.832 102.686H165.536V102.092C165.23 102.416 164.384 102.83 163.43 102.83C161.81 102.83 160.46 101.858 160.46 100.274C160.46 98.78 161.81 97.772 163.52 97.772C164.348 97.772 165.194 98.114 165.536 98.42V97.412C165.536 96.422 164.924 95.702 163.772 95.702C162.926 95.702 162.386 96.062 162.134 96.8H160.802C161.072 95.45 162.26 94.532 163.79 94.532C165.698 94.532 166.832 95.612 166.832 97.358V102.686ZM165.536 100.706V99.878C165.302 99.284 164.492 98.888 163.664 98.888C162.692 98.888 161.756 99.32 161.756 100.274C161.756 101.246 162.692 101.696 163.664 101.696C164.492 101.696 165.302 101.3 165.536 100.706ZM170.49 90.986V102.686H169.14V90.986H170.49ZM174.251 90.986V102.686H172.901V90.986H174.251ZM179.021 105.746H177.689L178.895 102.74L175.781 94.694H177.239L179.597 100.994L181.919 94.694H183.323L179.021 105.746ZM192.931 94.658V96.044C192.715 95.9 192.373 95.828 192.031 95.828C191.185 95.828 190.447 96.386 190.177 97.322V102.686H188.827V94.694H190.177V95.738C190.519 95.054 191.275 94.532 192.157 94.532C192.499 94.532 192.787 94.586 192.931 94.658ZM199.422 100.292H200.7C200.412 101.804 199.278 102.848 197.478 102.848C195.3 102.848 193.806 101.174 193.806 98.708C193.806 96.314 195.264 94.532 197.442 94.532C199.638 94.532 200.808 96.134 200.808 98.456V98.942H195.156C195.174 100.652 196.128 101.696 197.478 101.696C198.468 101.696 199.206 101.192 199.422 100.292ZM197.46 95.684C196.254 95.684 195.39 96.512 195.192 97.916H199.44C199.422 96.728 198.792 95.684 197.46 95.684ZM203.958 94.694V102.686H202.608V94.694H203.958ZM204.156 92.282C204.156 92.75 203.76 93.146 203.274 93.146C202.806 93.146 202.41 92.75 202.41 92.282C202.41 91.796 202.806 91.418 203.274 91.418C203.76 91.418 204.156 91.796 204.156 92.282ZM206.37 102.686V94.694H207.72V95.702C208.188 95.072 209.052 94.532 210.078 94.532C211.896 94.532 212.886 95.702 212.886 97.448V102.686H211.518V97.664C211.518 96.548 210.96 95.774 209.754 95.774C208.818 95.774 208.008 96.404 207.72 97.268V102.686H206.37ZM218.635 102.686H217.303L214.207 94.694H215.665L218.005 100.976L220.327 94.694H221.749L218.635 102.686ZM228.18 100.292H229.458C229.17 101.804 228.036 102.848 226.236 102.848C224.058 102.848 222.564 101.174 222.564 98.708C222.564 96.314 224.022 94.532 226.2 94.532C228.396 94.532 229.566 96.134 229.566 98.456V98.942H223.914C223.932 100.652 224.886 101.696 226.236 101.696C227.226 101.696 227.964 101.192 228.18 100.292ZM226.218 95.684C225.012 95.684 224.148 96.512 223.95 97.916H228.198C228.18 96.728 227.55 95.684 226.218 95.684ZM230.735 100.49H232.139C232.391 101.318 233.093 101.714 234.029 101.714C234.983 101.714 235.667 101.336 235.667 100.526C235.667 99.968 235.307 99.626 234.479 99.41L232.895 98.996C231.761 98.708 230.969 98.132 230.969 96.89C230.969 95.468 232.211 94.532 233.831 94.532C235.595 94.532 236.639 95.396 236.927 96.8H235.577C235.343 96.08 234.785 95.666 233.813 95.666C233.021 95.666 232.283 96.044 232.283 96.818C232.283 97.358 232.643 97.61 233.399 97.826L234.947 98.204C236.315 98.564 236.981 99.32 236.981 100.436C236.981 101.948 235.721 102.848 234.011 102.848C232.265 102.848 230.987 101.966 230.735 100.49ZM239.232 100.67V95.846H237.936V94.694H239.232V92.588H240.582V94.694H242.508V95.846H240.582V100.526C240.582 101.3 240.96 101.642 241.644 101.642C242.022 101.642 242.418 101.498 242.688 101.318V102.578C242.382 102.74 241.914 102.848 241.428 102.848C240.132 102.848 239.232 102.146 239.232 100.67ZM250.898 105.746H249.566L250.772 102.74L247.658 94.694H249.116L251.474 100.994L253.796 94.694H255.2L250.898 105.746ZM263.359 98.69C263.359 101.138 261.865 102.848 259.687 102.848C257.491 102.848 256.015 101.138 256.015 98.69C256.015 96.242 257.491 94.532 259.687 94.532C261.865 94.532 263.359 96.242 263.359 98.69ZM261.991 98.69C261.991 96.944 261.127 95.72 259.687 95.72C258.247 95.72 257.383 96.944 257.383 98.69C257.383 100.436 258.247 101.66 259.687 101.66C261.127 101.66 261.991 100.436 261.991 98.69ZM271.558 94.694V102.686H270.19V101.678C269.74 102.308 268.894 102.848 267.868 102.848C266.05 102.848 265.078 101.678 265.078 99.932V94.694H266.446V99.716C266.446 100.832 266.986 101.606 268.192 101.606C269.128 101.606 269.902 100.976 270.19 100.112V94.694H271.558ZM278.062 94.658V96.044C277.846 95.9 277.504 95.828 277.162 95.828C276.316 95.828 275.578 96.386 275.308 97.322V102.686H273.958V94.694H275.308V95.738C275.65 95.054 276.406 94.532 277.288 94.532C277.63 94.532 277.918 94.586 278.062 94.658ZM289.384 95.81C289.888 95.09 290.698 94.532 291.814 94.532C293.434 94.532 294.334 95.666 294.334 97.394V102.686H292.966V97.61C292.966 96.494 292.48 95.756 291.454 95.756C290.644 95.756 289.942 96.314 289.69 97.178V102.686H288.34V97.61C288.34 96.494 287.854 95.756 286.828 95.756C286.018 95.756 285.316 96.314 285.064 97.178V102.686H283.714V94.694H285.064V95.63C285.46 95 286.234 94.532 287.224 94.532C288.232 94.532 289.006 95.054 289.384 95.81ZM303.384 98.69C303.384 101.138 301.89 102.848 299.712 102.848C297.516 102.848 296.04 101.138 296.04 98.69C296.04 96.242 297.516 94.532 299.712 94.532C301.89 94.532 303.384 96.242 303.384 98.69ZM302.016 98.69C302.016 96.944 301.152 95.72 299.712 95.72C298.272 95.72 297.408 96.944 297.408 98.69C297.408 100.436 298.272 101.66 299.712 101.66C301.152 101.66 302.016 100.436 302.016 98.69ZM305.212 102.686V94.694H306.562V95.702C307.03 95.072 307.894 94.532 308.92 94.532C310.738 94.532 311.728 95.702 311.728 97.448V102.686H310.36V97.664C310.36 96.548 309.802 95.774 308.596 95.774C307.66 95.774 306.85 96.404 306.562 97.268V102.686H305.212ZM314.397 100.67V95.846H313.101V94.694H314.397V92.588H315.747V94.694H317.673V95.846H315.747V100.526C315.747 101.3 316.125 101.642 316.809 101.642C317.187 101.642 317.583 101.498 317.853 101.318V102.578C317.547 102.74 317.079 102.848 316.593 102.848C315.297 102.848 314.397 102.146 314.397 100.67ZM319.731 102.686V90.986H321.081V95.702C321.549 95.072 322.413 94.532 323.439 94.532C325.257 94.532 326.247 95.702 326.247 97.448V102.686H324.879V97.664C324.879 96.548 324.321 95.774 323.115 95.774C322.179 95.774 321.369 96.404 321.081 97.268V102.686H319.731ZM329.888 90.986V102.686H328.538V90.986H329.888ZM334.658 105.746H333.326L334.532 102.74L331.418 94.694H332.876L335.234 100.994L337.556 94.694H338.96L334.658 105.746ZM349.738 102.686V101.75C349.342 102.326 348.478 102.848 347.488 102.848C345.148 102.848 343.888 100.958 343.888 98.69C343.888 96.44 345.148 94.532 347.488 94.532C348.478 94.532 349.342 95.054 349.738 95.63V90.986H351.106V102.686H349.738ZM349.738 100.31V97.07C349.324 96.242 348.532 95.756 347.686 95.756C346.156 95.756 345.256 96.998 345.256 98.69C345.256 100.382 346.156 101.624 347.686 101.624C348.532 101.624 349.324 101.138 349.738 100.31ZM354.849 94.694V102.686H353.499V94.694H354.849ZM355.047 92.282C355.047 92.75 354.651 93.146 354.165 93.146C353.697 93.146 353.301 92.75 353.301 92.282C353.301 91.796 353.697 91.418 354.165 91.418C354.651 91.418 355.047 91.796 355.047 92.282ZM360.807 102.686H359.475L356.379 94.694H357.837L360.177 100.976L362.499 94.694H363.921L360.807 102.686ZM366.802 94.694V102.686H365.452V94.694H366.802ZM367 92.282C367 92.75 366.604 93.146 366.118 93.146C365.65 93.146 365.254 92.75 365.254 92.282C365.254 91.796 365.65 91.418 366.118 91.418C366.604 91.418 367 91.796 367 92.282ZM374.488 102.686V101.75C374.092 102.326 373.228 102.848 372.238 102.848C369.898 102.848 368.638 100.958 368.638 98.69C368.638 96.44 369.898 94.532 372.238 94.532C373.228 94.532 374.092 95.054 374.488 95.63V90.986H375.856V102.686H374.488ZM374.488 100.31V97.07C374.074 96.242 373.282 95.756 372.436 95.756C370.906 95.756 370.006 96.998 370.006 98.69C370.006 100.382 370.906 101.624 372.436 101.624C373.282 101.624 374.074 101.138 374.488 100.31ZM383.289 100.292H384.567C384.279 101.804 383.145 102.848 381.345 102.848C379.167 102.848 377.673 101.174 377.673 98.708C377.673 96.314 379.131 94.532 381.309 94.532C383.505 94.532 384.675 96.134 384.675 98.456V98.942H379.023C379.041 100.652 379.995 101.696 381.345 101.696C382.335 101.696 383.073 101.192 383.289 100.292ZM381.327 95.684C380.121 95.684 379.257 96.512 379.059 97.916H383.307C383.289 96.728 382.659 95.684 381.327 95.684ZM386.476 102.686V94.694H387.826V95.702C388.294 95.072 389.158 94.532 390.184 94.532C392.002 94.532 392.992 95.702 392.992 97.448V102.686H391.624V97.664C391.624 96.548 391.066 95.774 389.86 95.774C388.924 95.774 388.114 96.404 387.826 97.268V102.686H386.476ZM400.556 102.686V101.75C400.16 102.326 399.296 102.848 398.306 102.848C395.966 102.848 394.706 100.958 394.706 98.69C394.706 96.44 395.966 94.532 398.306 94.532C399.296 94.532 400.16 95.054 400.556 95.63V90.986H401.924V102.686H400.556ZM400.556 100.31V97.07C400.142 96.242 399.35 95.756 398.504 95.756C396.974 95.756 396.074 96.998 396.074 98.69C396.074 100.382 396.974 101.624 398.504 101.624C399.35 101.624 400.142 101.138 400.556 100.31ZM403.651 100.49H405.055C405.307 101.318 406.009 101.714 406.945 101.714C407.899 101.714 408.583 101.336 408.583 100.526C408.583 99.968 408.223 99.626 407.395 99.41L405.811 98.996C404.677 98.708 403.885 98.132 403.885 96.89C403.885 95.468 405.127 94.532 406.747 94.532C408.511 94.532 409.555 95.396 409.843 96.8H408.493C408.259 96.08 407.701 95.666 406.729 95.666C405.937 95.666 405.199 96.044 405.199 96.818C405.199 97.358 405.559 97.61 406.315 97.826L407.863 98.204C409.231 98.564 409.897 99.32 409.897 100.436C409.897 101.948 408.637 102.848 406.927 102.848C405.181 102.848 403.903 101.966 403.651 100.49ZM417.093 94.694V102.686H415.743V94.694H417.093ZM417.291 92.282C417.291 92.75 416.895 93.146 416.409 93.146C415.941 93.146 415.545 92.75 415.545 92.282C415.545 91.796 415.941 91.418 416.409 91.418C416.895 91.418 417.291 91.796 417.291 92.282ZM419.505 102.686V94.694H420.855V95.702C421.323 95.072 422.187 94.532 423.213 94.532C425.031 94.532 426.021 95.702 426.021 97.448V102.686H424.653V97.664C424.653 96.548 424.095 95.774 422.889 95.774C421.953 95.774 421.143 96.404 420.855 97.268V102.686H419.505ZM55.8574 122.67V117.846H54.5614V116.694H55.8574V114.588H57.2074V116.694H59.1334V117.846H57.2074V122.526C57.2074 123.3 57.5854 123.642 58.2694 123.642C58.6474 123.642 59.0434 123.498 59.3134 123.318V124.578C59.0074 124.74 58.5394 124.848 58.0534 124.848C56.7574 124.848 55.8574 124.146 55.8574 122.67ZM61.1923 124.686V112.986H62.5423V117.702C63.0103 117.072 63.8743 116.532 64.9003 116.532C66.7183 116.532 67.7083 117.702 67.7083 119.448V124.686H66.3403V119.664C66.3403 118.548 65.7823 117.774 64.5763 117.774C63.6403 117.774 62.8303 118.404 62.5423 119.268V124.686H61.1923ZM75.039 122.292H76.317C76.029 123.804 74.895 124.848 73.095 124.848C70.917 124.848 69.423 123.174 69.423 120.708C69.423 118.314 70.881 116.532 73.059 116.532C75.255 116.532 76.425 118.134 76.425 120.456V120.942H70.773C70.791 122.652 71.745 123.696 73.095 123.696C74.085 123.696 74.823 123.192 75.039 122.292ZM73.077 117.684C71.871 117.684 71.007 118.512 70.809 119.916H75.057C75.039 118.728 74.409 117.684 73.077 117.684ZM87.8682 117.81C88.3722 117.09 89.1822 116.532 90.2982 116.532C91.9182 116.532 92.8182 117.666 92.8182 119.394V124.686H91.4502V119.61C91.4502 118.494 90.9642 117.756 89.9382 117.756C89.1282 117.756 88.4262 118.314 88.1742 119.178V124.686H86.8242V119.61C86.8242 118.494 86.3382 117.756 85.3122 117.756C84.5022 117.756 83.8002 118.314 83.5482 119.178V124.686H82.1982V116.694H83.5482V117.63C83.9442 117 84.7182 116.532 85.7082 116.532C86.7162 116.532 87.4902 117.054 87.8682 117.81ZM101.869 120.69C101.869 123.138 100.375 124.848 98.1965 124.848C96.0005 124.848 94.5245 123.138 94.5245 120.69C94.5245 118.242 96.0005 116.532 98.1965 116.532C100.375 116.532 101.869 118.242 101.869 120.69ZM100.501 120.69C100.501 118.944 99.6365 117.72 98.1965 117.72C96.7565 117.72 95.8925 118.944 95.8925 120.69C95.8925 122.436 96.7565 123.66 98.1965 123.66C99.6365 123.66 100.501 122.436 100.501 120.69ZM103.03 122.49H104.434C104.686 123.318 105.388 123.714 106.324 123.714C107.278 123.714 107.962 123.336 107.962 122.526C107.962 121.968 107.602 121.626 106.774 121.41L105.19 120.996C104.056 120.708 103.264 120.132 103.264 118.89C103.264 117.468 104.506 116.532 106.126 116.532C107.89 116.532 108.934 117.396 109.222 118.8H107.872C107.638 118.08 107.08 117.666 106.108 117.666C105.316 117.666 104.578 118.044 104.578 118.818C104.578 119.358 104.938 119.61 105.694 119.826L107.242 120.204C108.61 120.564 109.276 121.32 109.276 122.436C109.276 123.948 108.016 124.848 106.306 124.848C104.56 124.848 103.282 123.966 103.03 122.49ZM111.527 122.67V117.846H110.231V116.694H111.527V114.588H112.877V116.694H114.803V117.846H112.877V122.526C112.877 123.3 113.255 123.642 113.939 123.642C114.317 123.642 114.713 123.498 114.983 123.318V124.578C114.677 124.74 114.209 124.848 113.723 124.848C112.427 124.848 111.527 124.146 111.527 122.67ZM121.213 122.67V117.846H119.917V116.694H121.213V114.588H122.563V116.694H124.489V117.846H122.563V122.526C122.563 123.3 122.941 123.642 123.625 123.642C124.003 123.642 124.399 123.498 124.669 123.318V124.578C124.363 124.74 123.895 124.848 123.409 124.848C122.113 124.848 121.213 124.146 121.213 122.67ZM132.221 124.686H130.925V124.092C130.619 124.416 129.773 124.83 128.819 124.83C127.199 124.83 125.849 123.858 125.849 122.274C125.849 120.78 127.199 119.772 128.909 119.772C129.737 119.772 130.583 120.114 130.925 120.42V119.412C130.925 118.422 130.313 117.702 129.161 117.702C128.315 117.702 127.775 118.062 127.523 118.8H126.191C126.461 117.45 127.649 116.532 129.179 116.532C131.087 116.532 132.221 117.612 132.221 119.358V124.686ZM130.925 122.706V121.878C130.691 121.284 129.881 120.888 129.053 120.888C128.081 120.888 127.145 121.32 127.145 122.274C127.145 123.246 128.081 123.696 129.053 123.696C129.881 123.696 130.691 123.3 130.925 122.706ZM140.918 116.694L138.11 120.546L141.08 124.686H139.55L137.336 121.572L135.104 124.686H133.646L136.598 120.6L133.808 116.694H135.356L137.372 119.556L139.442 116.694H140.918ZM141.636 120.618V119.358H145.974V120.618H141.636ZM153.244 122.292H154.522C154.234 123.804 153.1 124.848 151.3 124.848C149.122 124.848 147.628 123.174 147.628 120.708C147.628 118.314 149.086 116.532 151.264 116.532C153.46 116.532 154.63 118.134 154.63 120.456V120.942H148.978C148.996 122.652 149.95 123.696 151.3 123.696C152.29 123.696 153.028 123.192 153.244 122.292ZM151.282 117.684C150.076 117.684 149.212 118.512 149.014 119.916H153.262C153.244 118.728 152.614 117.684 151.282 117.684ZM165.125 113.004V114.228C164.855 114.066 164.567 114.012 164.261 114.012C163.487 114.012 162.965 114.516 162.965 115.47V116.694H164.765V117.846H162.965V124.686H161.615V117.846H158.267V124.686H156.935V117.846H155.585V116.694H156.935V115.47C156.935 113.868 157.979 112.932 159.383 112.932C159.815 112.932 160.121 112.986 160.427 113.112V114.336C160.175 114.174 159.869 114.12 159.581 114.12C158.789 114.12 158.267 114.624 158.267 115.578V116.694H161.615V115.362C161.615 113.76 162.659 112.824 164.063 112.824C164.495 112.824 164.819 112.878 165.125 113.004ZM167.677 116.694V124.686H166.327V116.694H167.677ZM167.875 114.282C167.875 114.75 167.479 115.146 166.993 115.146C166.525 115.146 166.129 114.75 166.129 114.282C166.129 113.796 166.525 113.418 166.993 113.418C167.479 113.418 167.875 113.796 167.875 114.282ZM169.513 120.69C169.513 118.206 171.007 116.532 173.149 116.532C174.949 116.532 176.083 117.576 176.353 119.106H174.967C174.787 118.242 174.103 117.72 173.149 117.72C171.781 117.72 170.881 118.944 170.881 120.69C170.881 122.436 171.781 123.66 173.149 123.66C174.103 123.66 174.787 123.138 174.967 122.274H176.353C176.083 123.804 174.949 124.848 173.149 124.848C171.007 124.848 169.513 123.174 169.513 120.69ZM179.472 116.694V124.686H178.122V116.694H179.472ZM179.67 114.282C179.67 114.75 179.274 115.146 178.788 115.146C178.32 115.146 177.924 114.75 177.924 114.282C177.924 113.796 178.32 113.418 178.788 113.418C179.274 113.418 179.67 113.796 179.67 114.282ZM186.924 122.292H188.202C187.914 123.804 186.78 124.848 184.98 124.848C182.802 124.848 181.308 123.174 181.308 120.708C181.308 118.314 182.766 116.532 184.944 116.532C187.14 116.532 188.31 118.134 188.31 120.456V120.942H182.658C182.676 122.652 183.63 123.696 184.98 123.696C185.97 123.696 186.708 123.192 186.924 122.292ZM184.962 117.684C183.756 117.684 182.892 118.512 182.694 119.916H186.942C186.924 118.728 186.294 117.684 184.962 117.684ZM190.11 124.686V116.694H191.46V117.702C191.928 117.072 192.792 116.532 193.818 116.532C195.636 116.532 196.626 117.702 196.626 119.448V124.686H195.258V119.664C195.258 118.548 194.7 117.774 193.494 117.774C192.558 117.774 191.748 118.404 191.46 119.268V124.686H190.11ZM199.295 122.67V117.846H197.999V116.694H199.295V114.588H200.645V116.694H202.571V117.846H200.645V122.526C200.645 123.3 201.023 123.642 201.707 123.642C202.085 123.642 202.481 123.498 202.751 123.318V124.578C202.445 124.74 201.977 124.848 201.491 124.848C200.195 124.848 199.295 124.146 199.295 122.67ZM213.678 116.694L215.316 122.796L217.08 116.694H218.394L216.036 124.686H214.722L213.066 118.62L211.392 124.686H210.078L207.72 116.694H209.07L210.834 122.796L212.472 116.694H213.678ZM225.666 124.686H224.37V124.092C224.064 124.416 223.218 124.83 222.264 124.83C220.644 124.83 219.294 123.858 219.294 122.274C219.294 120.78 220.644 119.772 222.354 119.772C223.182 119.772 224.028 120.114 224.37 120.42V119.412C224.37 118.422 223.758 117.702 222.606 117.702C221.76 117.702 221.22 118.062 220.968 118.8H219.636C219.906 117.45 221.094 116.532 222.624 116.532C224.532 116.532 225.666 117.612 225.666 119.358V124.686ZM224.37 122.706V121.878C224.136 121.284 223.326 120.888 222.498 120.888C221.526 120.888 220.59 121.32 220.59 122.274C220.59 123.246 221.526 123.696 222.498 123.696C223.326 123.696 224.136 123.3 224.37 122.706ZM230.191 127.746H228.859L230.065 124.74L226.951 116.694H228.409L230.767 122.994L233.089 116.694H234.493L230.191 127.746ZM241.347 123.75V127.746H239.997V116.694H241.347V117.63C241.761 117.054 242.607 116.532 243.597 116.532C245.955 116.532 247.197 118.476 247.197 120.69C247.197 122.904 245.955 124.848 243.597 124.848C242.607 124.848 241.761 124.326 241.347 123.75ZM241.347 119.07V122.31C241.761 123.138 242.553 123.624 243.399 123.624C244.929 123.624 245.829 122.382 245.829 120.69C245.829 118.998 244.929 117.756 243.399 117.756C242.553 117.756 241.761 118.242 241.347 119.07ZM255.835 120.69C255.835 123.138 254.341 124.848 252.163 124.848C249.967 124.848 248.491 123.138 248.491 120.69C248.491 118.242 249.967 116.532 252.163 116.532C254.341 116.532 255.835 118.242 255.835 120.69ZM254.467 120.69C254.467 118.944 253.603 117.72 252.163 117.72C250.723 117.72 249.859 118.944 249.859 120.69C249.859 122.436 250.723 123.66 252.163 123.66C253.603 123.66 254.467 122.436 254.467 120.69ZM256.997 122.49H258.401C258.653 123.318 259.355 123.714 260.291 123.714C261.245 123.714 261.929 123.336 261.929 122.526C261.929 121.968 261.569 121.626 260.741 121.41L259.157 120.996C258.023 120.708 257.231 120.132 257.231 118.89C257.231 117.468 258.473 116.532 260.093 116.532C261.857 116.532 262.901 117.396 263.189 118.8H261.839C261.605 118.08 261.047 117.666 260.075 117.666C259.283 117.666 258.545 118.044 258.545 118.818C258.545 119.358 258.905 119.61 259.661 119.826L261.209 120.204C262.577 120.564 263.243 121.32 263.243 122.436C263.243 123.948 261.983 124.848 260.273 124.848C258.527 124.848 257.249 123.966 256.997 122.49ZM264.485 122.49H265.889C266.141 123.318 266.843 123.714 267.779 123.714C268.733 123.714 269.417 123.336 269.417 122.526C269.417 121.968 269.057 121.626 268.229 121.41L266.645 120.996C265.511 120.708 264.719 120.132 264.719 118.89C264.719 117.468 265.961 116.532 267.581 116.532C269.345 116.532 270.389 117.396 270.677 118.8H269.327C269.093 118.08 268.535 117.666 267.563 117.666C266.771 117.666 266.033 118.044 266.033 118.818C266.033 119.358 266.393 119.61 267.149 119.826L268.697 120.204C270.065 120.564 270.731 121.32 270.731 122.436C270.731 123.948 269.471 124.848 267.761 124.848C266.015 124.848 264.737 123.966 264.485 122.49ZM273.954 116.694V124.686H272.604V116.694H273.954ZM274.152 114.282C274.152 114.75 273.756 115.146 273.27 115.146C272.802 115.146 272.406 114.75 272.406 114.282C272.406 113.796 272.802 113.418 273.27 113.418C273.756 113.418 274.152 113.796 274.152 114.282ZM277.716 123.75V124.686H276.348V112.986H277.716V117.63C278.112 117.054 278.976 116.532 279.966 116.532C282.306 116.532 283.566 118.44 283.566 120.69C283.566 122.958 282.306 124.848 279.966 124.848C278.976 124.848 278.112 124.326 277.716 123.75ZM277.716 119.07V122.31C278.13 123.138 278.922 123.624 279.768 123.624C281.298 123.624 282.198 122.382 282.198 120.69C282.198 118.998 281.298 117.756 279.768 117.756C278.922 117.756 278.13 118.242 277.716 119.07ZM286.751 112.986V124.686H285.401V112.986H286.751ZM294.203 122.292H295.481C295.193 123.804 294.059 124.848 292.259 124.848C290.081 124.848 288.587 123.174 288.587 120.708C288.587 118.314 290.045 116.532 292.223 116.532C294.419 116.532 295.589 118.134 295.589 120.456V120.942H289.937C289.955 122.652 290.909 123.696 292.259 123.696C293.249 123.696 293.987 123.192 294.203 122.292ZM292.241 117.684C291.035 117.684 290.171 118.512 289.973 119.916H294.221C294.203 118.728 293.573 117.684 292.241 117.684ZM307.158 124.686H305.862V124.092C305.556 124.416 304.71 124.83 303.756 124.83C302.136 124.83 300.786 123.858 300.786 122.274C300.786 120.78 302.136 119.772 303.846 119.772C304.674 119.772 305.52 120.114 305.862 120.42V119.412C305.862 118.422 305.25 117.702 304.098 117.702C303.252 117.702 302.712 118.062 302.46 118.8H301.128C301.398 117.45 302.586 116.532 304.116 116.532C306.024 116.532 307.158 117.612 307.158 119.358V124.686ZM305.862 122.706V121.878C305.628 121.284 304.818 120.888 303.99 120.888C303.018 120.888 302.082 121.32 302.082 122.274C302.082 123.246 303.018 123.696 303.99 123.696C304.818 123.696 305.628 123.3 305.862 122.706ZM309.466 124.686V116.694H310.816V117.702C311.284 117.072 312.148 116.532 313.174 116.532C314.992 116.532 315.982 117.702 315.982 119.448V124.686H314.614V119.664C314.614 118.548 314.056 117.774 312.85 117.774C311.914 117.774 311.104 118.404 310.816 119.268V124.686H309.466ZM323.546 124.686V123.75C323.15 124.326 322.286 124.848 321.296 124.848C318.956 124.848 317.696 122.958 317.696 120.69C317.696 118.44 318.956 116.532 321.296 116.532C322.286 116.532 323.15 117.054 323.546 117.63V112.986H324.914V124.686H323.546ZM323.546 122.31V119.07C323.132 118.242 322.34 117.756 321.494 117.756C319.964 117.756 319.064 118.998 319.064 120.69C319.064 122.382 319.964 123.624 321.494 123.624C322.34 123.624 323.132 123.138 323.546 122.31ZM331.28 124.686V112.986H332.63V117.702C333.098 117.072 333.962 116.532 334.988 116.532C336.806 116.532 337.796 117.702 337.796 119.448V124.686H336.428V119.664C336.428 118.548 335.87 117.774 334.664 117.774C333.728 117.774 332.918 118.404 332.63 119.268V124.686H331.28ZM345.127 122.292H346.405C346.117 123.804 344.983 124.848 343.183 124.848C341.005 124.848 339.511 123.174 339.511 120.708C339.511 118.314 340.969 116.532 343.147 116.532C345.343 116.532 346.513 118.134 346.513 120.456V120.942H340.861C340.879 122.652 341.833 123.696 343.183 123.696C344.173 123.696 344.911 123.192 345.127 122.292ZM343.165 117.684C341.959 117.684 341.095 118.512 340.897 119.916H345.145C345.127 118.728 344.497 117.684 343.165 117.684ZM349.663 112.986V124.686H348.313V112.986H349.663ZM353.425 123.75V127.746H352.075V116.694H353.425V117.63C353.839 117.054 354.685 116.532 355.675 116.532C358.033 116.532 359.275 118.476 359.275 120.69C359.275 122.904 358.033 124.848 355.675 124.848C354.685 124.848 353.839 124.326 353.425 123.75ZM353.425 119.07V122.31C353.839 123.138 354.631 123.624 355.477 123.624C357.007 123.624 357.907 122.382 357.907 120.69C357.907 118.998 357.007 117.756 355.477 117.756C354.631 117.756 353.839 118.242 353.425 119.07ZM365.461 122.67V117.846H364.165V116.694H365.461V114.588H366.811V116.694H368.737V117.846H366.811V122.526C366.811 123.3 367.189 123.642 367.873 123.642C368.251 123.642 368.647 123.498 368.917 123.318V124.578C368.611 124.74 368.143 124.848 367.657 124.848C366.361 124.848 365.461 124.146 365.461 122.67ZM377.476 120.69C377.476 123.138 375.982 124.848 373.804 124.848C371.608 124.848 370.132 123.138 370.132 120.69C370.132 118.242 371.608 116.532 373.804 116.532C375.982 116.532 377.476 118.242 377.476 120.69ZM376.108 120.69C376.108 118.944 375.244 117.72 373.804 117.72C372.364 117.72 371.5 118.944 371.5 120.69C371.5 122.436 372.364 123.66 373.804 123.66C375.244 123.66 376.108 122.436 376.108 120.69ZM384.626 112.986V124.686H383.276V112.986H384.626ZM393.806 120.69C393.806 123.138 392.312 124.848 390.134 124.848C387.938 124.848 386.462 123.138 386.462 120.69C386.462 118.242 387.938 116.532 390.134 116.532C392.312 116.532 393.806 118.242 393.806 120.69ZM392.438 120.69C392.438 118.944 391.574 117.72 390.134 117.72C388.694 117.72 387.83 118.944 387.83 120.69C387.83 122.436 388.694 123.66 390.134 123.66C391.574 123.66 392.438 122.436 392.438 120.69ZM400.71 116.694L402.348 122.796L404.112 116.694H405.426L403.068 124.686H401.754L400.098 118.62L398.424 124.686H397.11L394.752 116.694H396.102L397.866 122.796L399.504 116.694H400.71ZM411.994 122.292H413.272C412.984 123.804 411.85 124.848 410.05 124.848C407.872 124.848 406.378 123.174 406.378 120.708C406.378 118.314 407.836 116.532 410.014 116.532C412.21 116.532 413.38 118.134 413.38 120.456V120.942H407.728C407.746 122.652 408.7 123.696 410.05 123.696C411.04 123.696 411.778 123.192 411.994 122.292ZM410.032 117.684C408.826 117.684 407.962 118.512 407.764 119.916H412.012C411.994 118.728 411.364 117.684 410.032 117.684ZM419.285 116.658V118.044C419.069 117.9 418.727 117.828 418.385 117.828C417.539 117.828 416.801 118.386 416.531 119.322V124.686H415.181V116.694H416.531V117.738C416.873 117.054 417.629 116.532 418.511 116.532C418.853 116.532 419.141 116.586 419.285 116.658ZM57.8374 149.746H56.5054L57.7114 146.74L54.5974 138.694H56.0554L58.4134 144.994L60.7354 138.694H62.1394L57.8374 149.746ZM70.2982 142.69C70.2982 145.138 68.8042 146.848 66.6262 146.848C64.4302 146.848 62.9542 145.138 62.9542 142.69C62.9542 140.242 64.4302 138.532 66.6262 138.532C68.8042 138.532 70.2982 140.242 70.2982 142.69ZM68.9302 142.69C68.9302 140.944 68.0662 139.72 66.6262 139.72C65.1862 139.72 64.3222 140.944 64.3222 142.69C64.3222 144.436 65.1862 145.66 66.6262 145.66C68.0662 145.66 68.9302 144.436 68.9302 142.69ZM78.4979 138.694V146.686H77.1299V145.678C76.6799 146.308 75.8339 146.848 74.8079 146.848C72.9899 146.848 72.0179 145.678 72.0179 143.932V138.694H73.3859V143.716C73.3859 144.832 73.9259 145.606 75.1319 145.606C76.0679 145.606 76.8419 144.976 77.1299 144.112V138.694H78.4979ZM85.0014 138.658V140.044C84.7854 139.9 84.4434 139.828 84.1014 139.828C83.2554 139.828 82.5174 140.386 82.2474 141.322V146.686H80.8974V138.694H82.2474V139.738C82.5894 139.054 83.3454 138.532 84.2274 138.532C84.5694 138.532 84.8574 138.586 85.0014 138.658ZM91.0313 144.67V139.846H89.7353V138.694H91.0313V136.588H92.3813V138.694H94.3073V139.846H92.3813V144.526C92.3813 145.3 92.7593 145.642 93.4433 145.642C93.8213 145.642 94.2173 145.498 94.4873 145.318V146.578C94.1813 146.74 93.7133 146.848 93.2273 146.848C91.9313 146.848 91.0313 146.146 91.0313 144.67ZM102.039 146.686H100.743V146.092C100.437 146.416 99.5911 146.83 98.6371 146.83C97.0171 146.83 95.6671 145.858 95.6671 144.274C95.6671 142.78 97.0171 141.772 98.7271 141.772C99.5551 141.772 100.401 142.114 100.743 142.42V141.412C100.743 140.422 100.131 139.702 98.9791 139.702C98.1331 139.702 97.5931 140.062 97.3411 140.8H96.0091C96.2791 139.45 97.4671 138.532 98.9971 138.532C100.905 138.532 102.039 139.612 102.039 141.358V146.686ZM100.743 144.706V143.878C100.509 143.284 99.6991 142.888 98.8711 142.888C97.8991 142.888 96.9631 143.32 96.9631 144.274C96.9631 145.246 97.8991 145.696 98.8711 145.696C99.6991 145.696 100.509 145.3 100.743 144.706ZM110.737 138.694L107.929 142.546L110.899 146.686H109.369L107.155 143.572L104.923 146.686H103.465L106.417 142.6L103.627 138.694H105.175L107.191 141.556L109.261 138.694H110.737ZM117.297 144.292H118.575C118.287 145.804 117.153 146.848 115.353 146.848C113.175 146.848 111.681 145.174 111.681 142.708C111.681 140.314 113.139 138.532 115.317 138.532C117.513 138.532 118.683 140.134 118.683 142.456V142.942H113.031C113.049 144.652 114.003 145.696 115.353 145.696C116.343 145.696 117.081 145.192 117.297 144.292ZM115.335 139.684C114.129 139.684 113.265 140.512 113.067 141.916H117.315C117.297 140.728 116.667 139.684 115.335 139.684ZM119.853 144.49H121.257C121.509 145.318 122.211 145.714 123.147 145.714C124.101 145.714 124.785 145.336 124.785 144.526C124.785 143.968 124.425 143.626 123.597 143.41L122.013 142.996C120.879 142.708 120.087 142.132 120.087 140.89C120.087 139.468 121.329 138.532 122.949 138.532C124.713 138.532 125.757 139.396 126.045 140.8H124.695C124.461 140.08 123.903 139.666 122.931 139.666C122.139 139.666 121.401 140.044 121.401 140.818C121.401 141.358 121.761 141.61 122.517 141.826L124.064 142.204C125.433 142.564 126.099 143.32 126.099 144.436C126.099 145.948 124.839 146.848 123.129 146.848C121.383 146.848 120.105 145.966 119.853 144.49ZM137.02 138.694L138.658 144.796L140.422 138.694H141.736L139.378 146.686H138.064L136.408 140.62L134.734 146.686H133.42L131.062 138.694H132.412L134.176 144.796L135.814 138.694H137.02ZM144.615 138.694V146.686H143.265V138.694H144.615ZM144.813 136.282C144.813 136.75 144.417 137.146 143.931 137.146C143.463 137.146 143.067 136.75 143.067 136.282C143.067 135.796 143.463 135.418 143.931 135.418C144.417 135.418 144.813 135.796 144.813 136.282ZM147.404 144.67V139.846H146.108V138.694H147.404V136.588H148.754V138.694H150.68V139.846H148.754V144.526C148.754 145.3 149.132 145.642 149.816 145.642C150.194 145.642 150.59 145.498 150.86 145.318V146.578C150.554 146.74 150.086 146.848 149.6 146.848C148.304 146.848 147.404 146.146 147.404 144.67ZM152.739 146.686V134.986H154.089V139.702C154.557 139.072 155.421 138.532 156.447 138.532C158.265 138.532 159.255 139.702 159.255 141.448V146.686H157.887V141.664C157.887 140.548 157.329 139.774 156.123 139.774C155.187 139.774 154.377 140.404 154.089 141.268V146.686H152.739ZM164.853 136.894V135.634H173.979V136.894H170.127V146.686H168.705V136.894H164.853ZM180.174 146.686H178.878V146.092C178.572 146.416 177.726 146.83 176.772 146.83C175.152 146.83 173.802 145.858 173.802 144.274C173.802 142.78 175.152 141.772 176.862 141.772C177.69 141.772 178.536 142.114 178.878 142.42V141.412C178.878 140.422 178.266 139.702 177.114 139.702C176.268 139.702 175.728 140.062 175.476 140.8H174.144C174.414 139.45 175.602 138.532 177.132 138.532C179.04 138.532 180.174 139.612 180.174 141.358V146.686ZM178.878 144.706V143.878C178.644 143.284 177.834 142.888 177.006 142.888C176.034 142.888 175.098 143.32 175.098 144.274C175.098 145.246 176.034 145.696 177.006 145.696C177.834 145.696 178.644 145.3 178.878 144.706ZM188.871 138.694L186.063 142.546L189.033 146.686H187.503L185.289 143.572L183.057 146.686H181.599L184.551 142.6L181.761 138.694H183.309L185.325 141.556L187.395 138.694H188.871ZM189.589 142.618V141.358H193.927V142.618H189.589ZM195.966 146.686V135.634H197.388V145.408H203.022V146.686H195.966ZM211.556 142.69C211.556 145.138 210.062 146.848 207.884 146.848C205.688 146.848 204.212 145.138 204.212 142.69C204.212 140.242 205.688 138.532 207.884 138.532C210.062 138.532 211.556 140.242 211.556 142.69ZM210.188 142.69C210.188 140.944 209.324 139.72 207.884 139.72C206.444 139.72 205.58 140.944 205.58 142.69C205.58 144.436 206.444 145.66 207.884 145.66C209.324 145.66 210.188 144.436 210.188 142.69ZM212.718 144.49H214.122C214.374 145.318 215.076 145.714 216.012 145.714C216.966 145.714 217.65 145.336 217.65 144.526C217.65 143.968 217.29 143.626 216.462 143.41L214.878 142.996C213.744 142.708 212.952 142.132 212.952 140.89C212.952 139.468 214.194 138.532 215.814 138.532C217.578 138.532 218.622 139.396 218.91 140.8H217.56C217.326 140.08 216.768 139.666 215.796 139.666C215.004 139.666 214.266 140.044 214.266 140.818C214.266 141.358 214.626 141.61 215.382 141.826L216.93 142.204C218.298 142.564 218.964 143.32 218.964 144.436C218.964 145.948 217.704 146.848 215.994 146.848C214.248 146.848 212.97 145.966 212.718 144.49ZM220.206 144.49H221.61C221.862 145.318 222.564 145.714 223.5 145.714C224.454 145.714 225.138 145.336 225.138 144.526C225.138 143.968 224.778 143.626 223.95 143.41L222.366 142.996C221.232 142.708 220.44 142.132 220.44 140.89C220.44 139.468 221.682 138.532 223.302 138.532C225.066 138.532 226.11 139.396 226.398 140.8H225.048C224.814 140.08 224.256 139.666 223.284 139.666C222.492 139.666 221.754 140.044 221.754 140.818C221.754 141.358 222.114 141.61 222.87 141.826L224.418 142.204C225.786 142.564 226.452 143.32 226.452 144.436C226.452 145.948 225.192 146.848 223.482 146.848C221.736 146.848 220.458 145.966 220.206 144.49ZM240.074 135.634H241.496V146.686H240.074V141.646H233.828V146.686H232.406V135.634H233.828V140.368H240.074V135.634ZM249.818 146.686H248.522V146.092C248.216 146.416 247.37 146.83 246.416 146.83C244.796 146.83 243.446 145.858 243.446 144.274C243.446 142.78 244.796 141.772 246.506 141.772C247.334 141.772 248.18 142.114 248.522 142.42V141.412C248.522 140.422 247.91 139.702 246.758 139.702C245.912 139.702 245.372 140.062 245.12 140.8H243.788C244.058 139.45 245.246 138.532 246.776 138.532C248.684 138.532 249.818 139.612 249.818 141.358V146.686ZM248.522 144.706V143.878C248.288 143.284 247.478 142.888 246.65 142.888C245.678 142.888 244.742 143.32 244.742 144.274C244.742 145.246 245.678 145.696 246.65 145.696C247.478 145.696 248.288 145.3 248.522 144.706ZM256.23 138.658V140.044C256.014 139.9 255.672 139.828 255.33 139.828C254.484 139.828 253.746 140.386 253.476 141.322V146.686H252.126V138.694H253.476V139.738C253.818 139.054 254.574 138.532 255.456 138.532C255.798 138.532 256.086 138.586 256.23 138.658ZM261.455 146.686H260.123L257.027 138.694H258.485L260.825 144.976L263.147 138.694H264.569L261.455 146.686ZM271 144.292H272.278C271.99 145.804 270.856 146.848 269.056 146.848C266.878 146.848 265.384 145.174 265.384 142.708C265.384 140.314 266.842 138.532 269.02 138.532C271.216 138.532 272.386 140.134 272.386 142.456V142.942H266.734C266.752 144.652 267.706 145.696 269.056 145.696C270.046 145.696 270.784 145.192 271 144.292ZM269.038 139.684C267.832 139.684 266.968 140.512 266.77 141.916H271.018C271 140.728 270.37 139.684 269.038 139.684ZM273.556 144.49H274.96C275.212 145.318 275.914 145.714 276.85 145.714C277.804 145.714 278.488 145.336 278.488 144.526C278.488 143.968 278.128 143.626 277.3 143.41L275.716 142.996C274.582 142.708 273.79 142.132 273.79 140.89C273.79 139.468 275.032 138.532 276.652 138.532C278.416 138.532 279.46 139.396 279.748 140.8H278.398C278.164 140.08 277.606 139.666 276.634 139.666C275.842 139.666 275.104 140.044 275.104 140.818C275.104 141.358 275.464 141.61 276.22 141.826L277.768 142.204C279.136 142.564 279.802 143.32 279.802 144.436C279.802 145.948 278.542 146.848 276.832 146.848C275.086 146.848 273.808 145.966 273.556 144.49ZM282.053 144.67V139.846H280.757V138.694H282.053V136.588H283.403V138.694H285.329V139.846H283.403V144.526C283.403 145.3 283.781 145.642 284.465 145.642C284.843 145.642 285.239 145.498 285.509 145.318V146.578C285.203 146.74 284.735 146.848 284.249 146.848C282.953 146.848 282.053 146.146 282.053 144.67ZM288.738 138.694V146.686H287.388V138.694H288.738ZM288.936 136.282C288.936 136.75 288.54 137.146 288.054 137.146C287.586 137.146 287.19 136.75 287.19 136.282C287.19 135.796 287.586 135.418 288.054 135.418C288.54 135.418 288.936 135.796 288.936 136.282ZM291.149 146.686V138.694H292.499V139.702C292.967 139.072 293.831 138.532 294.857 138.532C296.675 138.532 297.665 139.702 297.665 141.448V146.686H296.297V141.664C296.297 140.548 295.739 139.774 294.533 139.774C293.597 139.774 292.787 140.404 292.499 141.268V146.686H291.149ZM305.194 146.146V145.552C304.798 146.11 303.952 146.632 302.962 146.632C300.622 146.632 299.38 144.688 299.38 142.582C299.38 140.458 300.622 138.532 302.962 138.532C303.952 138.532 304.798 139.036 305.194 139.594V138.694H306.562V146.056C306.562 148.684 305.05 149.926 302.998 149.926C301.054 149.926 299.83 148.918 299.578 147.28H300.91C301.144 148.288 301.9 148.774 302.998 148.774C304.438 148.774 305.194 147.874 305.194 146.146ZM305.194 144.166V140.98C304.78 140.224 304.024 139.738 303.16 139.738C301.648 139.738 300.766 140.926 300.766 142.582C300.766 144.22 301.648 145.408 303.16 145.408C304.024 145.408 304.78 144.922 305.194 144.166ZM308.344 145.804C308.344 145.246 308.776 144.814 309.316 144.814C309.838 144.814 310.27 145.246 310.27 145.804C310.27 146.362 309.838 146.776 309.316 146.776C308.776 146.776 308.344 146.362 308.344 145.804Z" fill="#230B59"/>
</g>
<defs>
<filter id="filter0_d_585_951" x="0.321551" y="0.898315" width="480.408" height="201.829" filterUnits="userSpaceOnUse" color-interpolation-filters="sRGB">
<feFlood flood-opacity="0" result="BackgroundImageFix"/>
<feColorMatrix in="SourceAlpha" type="matrix" values="0 0 0 0 0 0 0 0 0 0 0 0 0 0 0 0 0 0 127 0" result="hardAlpha"/>
<feOffset dx="-4.67075" dy="5.6049"/>
<feGaussianBlur stdDeviation="0.934149"/>
<feComposite in2="hardAlpha" operator="out"/>
<feColorMatrix type="matrix" values="0 0 0 0 0.451157 0 0 0 0 0.447014 0 0 0 0 0.654167 0 0 0 0.25 0"/>
<feBlend mode="normal" in2="BackgroundImageFix" result="effect1_dropShadow_585_951"/>
<feBlend mode="normal" in="SourceGraphic" in2="effect1_dropShadow_585_951" result="shape"/>
</filter>
</defs>
</svg>
