<svg width="102" height="21" viewBox="0 0 101 21" fill="none" xmlns="http://www.w3.org/2000/svg">
  <g clip-path="url(#clip0_4391_92348)">
    <path
        d="M25.1401 19.7257V17.6856H25.1001C24.1626 19.2507 22.4951 20.0606 20.6001 20.0606C16.7376 20.0606 13.6001 17.1532 13.6001 13.3407C13.6001 9.12315 16.6301 6.16565 20.5126 6.16565C22.4426 6.16565 24.0651 6.88065 25.0901 8.38315H25.1376V6.52315H27.6151V19.7257H25.1401ZM25.1876 13.1482C25.1876 10.5757 23.3276 8.43565 20.5851 8.43565C18.1076 8.43565 16.0851 10.5582 16.0851 13.1532C16.0851 15.6332 18.1126 17.8032 20.5851 17.8032C21.8114 17.7919 22.9835 17.2962 23.8457 16.4242C24.7079 15.5521 25.1903 14.3745 25.1876 13.1482ZM38.8976 19.7257V12.5307C38.8976 9.74065 37.8026 8.43065 35.6076 8.43065C33.4126 8.43065 32.1276 10.0282 32.1276 12.5082V19.7306H29.6476V6.52315H31.9601V7.93565H32.0076C32.9826 6.68565 34.3451 6.18565 35.8701 6.18565C39.0401 6.18565 41.3701 8.18565 41.3701 11.8357V19.7306H38.8951L38.8976 19.7257ZM75.1301 19.7257V17.6856H75.0851C74.1551 19.2582 72.4851 20.0681 70.6026 20.0681C66.7401 20.0681 63.6026 17.1607 63.6026 13.3482C63.6026 9.13065 66.6276 6.17315 70.5151 6.17315C72.4451 6.17315 74.0676 6.88815 75.0926 8.39065H75.1376V6.52315H77.6001V19.7257H75.1301ZM75.1776 13.1482C75.1776 10.5757 73.3176 8.43065 70.5776 8.43065C68.0976 8.43065 66.0776 10.5532 66.0776 13.1482C66.0776 15.6282 68.1051 17.7981 70.5776 17.7981C71.8028 17.7869 72.9739 17.2918 73.8355 16.4208C74.6972 15.5498 75.1796 14.3734 75.1776 13.1482ZM81.3776 19.7257V8.78815H79.6001V6.52315H81.3876V2.09065H83.8501V6.52315H86.0201V8.78815H83.8501V19.7257H81.3776ZM89.1001 14.1982C89.6726 16.3882 91.4126 17.7981 93.4401 17.7981C94.2096 17.804 94.9663 17.6008 95.6294 17.2103C96.2925 16.8198 96.8371 16.2565 97.2051 15.5807H99.6826C99.2121 16.8895 98.35 18.0217 97.2134 18.8232C96.0768 19.6248 94.7209 20.0569 93.3301 20.0606C89.6126 20.0606 86.6001 16.7707 86.6001 13.2432C86.6001 9.07315 89.7451 6.16315 93.2501 6.16315C94.1494 6.14638 95.043 6.3102 95.8778 6.64489C96.7127 6.97958 97.472 7.47836 98.1107 8.11169C98.7494 8.74502 99.2545 9.50005 99.5962 10.3321C99.938 11.1641 100.109 12.0562 100.1 12.9557C100.112 13.3736 100.087 13.7918 100.028 14.2057H89.1001V14.1982ZM97.6326 12.2932C97.4451 10.0432 95.4651 8.43065 93.3426 8.43065C91.3151 8.43065 89.2901 10.0282 89.0926 12.2932H97.6326ZM10.6001 10.1557C10.2378 9.78546 9.82646 9.46666 9.3776 9.20815C9.53358 9.05208 9.67812 8.88498 9.8101 8.70815C10.5502 7.69807 10.9048 6.45674 10.8101 5.20815C10.7299 3.90434 10.1791 2.67399 9.2601 1.74565C8.73321 1.23192 8.10859 0.829151 7.42323 0.561191C6.73787 0.29323 6.00571 0.165529 5.2701 0.18565H0.100098V20.0606H6.1851C8.4676 20.0606 9.8726 19.0606 10.6526 18.2132C11.6575 17.1138 12.2094 15.675 12.1976 14.1857C12.2142 12.6848 11.6405 11.2375 10.6001 10.1557ZM5.2701 2.50315C7.3626 2.50315 8.3951 3.94065 8.4901 5.36065C8.52573 6.06992 8.29735 6.76725 7.84906 7.31804C7.40076 7.86883 6.76433 8.23403 6.0626 8.34315H2.4176V2.50315H5.2701ZM6.1826 17.7531H2.4176V10.6607H5.8501C8.8226 10.6607 9.8751 12.5606 9.8751 14.1882C9.8726 15.8982 8.7201 17.7432 6.1826 17.7432V17.7531ZM61.5676 6.53315C59.2226 6.35815 58.3176 7.53315 58.3176 7.53315V6.53315H55.8501V19.7257H58.3276V12.3157C58.3255 11.7749 58.4099 11.2373 58.5776 10.7232C59.1126 9.10315 60.8676 8.58315 62.5776 9.22315L63.6001 7.04815C62.9604 6.75195 62.2712 6.57731 61.5676 6.53315ZM43.3676 2.09065H45.8476V19.7281H43.3676V2.09065ZM51.4151 19.7257L45.9451 13.1182L50.8501 6.52315H53.6526L48.8251 13.1182L54.3376 19.7257H51.4151Z"
        fill="#F0F0F2"/>
  </g>
  <defs>
    <clipPath id="clip0_4391_92348">
      <rect width="100" height="20" fill="white" transform="translate(0.100098 0.183594)"/>
    </clipPath>
  </defs>
</svg>
