<svg width="80" height="17" viewBox="0 0 80 17" fill="none" xmlns="http://www.w3.org/2000/svg">
<g clip-path="url(#clip0_1470_28098)">
<path d="M20.0125 15.7116V14.0984H19.9809C19.2395 15.336 17.9209 15.9765 16.4223 15.9765C13.3678 15.9765 10.8867 13.6773 10.8867 10.6624C10.8867 7.32719 13.2828 4.98841 16.3531 4.98841C17.8793 4.98841 19.1624 5.55383 19.973 6.742H20.0105V5.27112H21.9697V15.7116H20.0125ZM20.0501 10.5102C20.0501 8.47583 18.5792 6.78352 16.4104 6.78352C14.4512 6.78352 12.8518 8.46199 12.8518 10.5141C12.8518 12.4753 14.4552 14.1913 16.4104 14.1913C17.3802 14.1824 18.3071 13.7904 18.9889 13.1008C19.6707 12.4112 20.0522 11.4799 20.0501 10.5102ZM30.8919 15.7116V10.0218C30.8919 7.81551 30.026 6.77957 28.2902 6.77957C26.5544 6.77957 25.5382 8.04287 25.5382 10.004V15.7156H23.577V5.27112H25.4058V6.38812H25.4433C26.2143 5.39962 27.2918 5.00423 28.4978 5.00423C31.0046 5.00423 32.8472 6.58582 32.8472 9.47223V15.7156H30.8899L30.8919 15.7116ZM59.5445 15.7116V14.0984H59.5089C58.7735 15.3419 57.4528 15.9825 55.9642 15.9825C52.9097 15.9825 50.4286 13.6832 50.4286 10.6683C50.4286 7.33313 52.8207 4.99434 55.895 4.99434C57.4212 4.99434 58.7043 5.55976 59.5148 6.74793H59.5504V5.27112H61.4978V15.7116H59.5445ZM59.5821 10.5102C59.5821 8.47583 58.1112 6.77957 55.9444 6.77957C53.9832 6.77957 52.3858 8.45803 52.3858 10.5102C52.3858 12.4713 53.9891 14.1874 55.9444 14.1874C56.9133 14.1785 57.8393 13.787 58.5208 13.0982C59.2022 12.4093 59.5837 11.4791 59.5821 10.5102ZM64.485 15.7116V7.06228H63.0794V5.27112H64.4929V1.76591H66.4403V5.27112H68.1563V7.06228H66.4403V15.7116H64.485ZM70.5919 11.3405C71.0447 13.0723 72.4207 14.1874 74.024 14.1874C74.6325 14.192 75.2309 14.0313 75.7553 13.7225C76.2797 13.4137 76.7103 12.9682 77.0014 12.4338H78.9606C78.5885 13.4688 77.9067 14.3641 77.0079 14.998C76.1091 15.6319 75.0369 15.9735 73.937 15.9765C70.9972 15.9765 68.6149 13.3748 68.6149 10.5853C68.6149 7.28765 71.102 4.98643 73.8737 4.98643C74.5849 4.97317 75.2915 5.10272 75.9518 5.36739C76.612 5.63206 77.2124 6.02649 77.7175 6.52733C78.2225 7.02817 78.622 7.62524 78.8923 8.28321C79.1625 8.94118 79.298 9.64667 79.2907 10.3579C79.2998 10.6885 79.2806 11.0192 79.2334 11.3464H70.5919V11.3405ZM77.3394 9.83402C77.1911 8.05473 75.6254 6.77957 73.9469 6.77957C72.3436 6.77957 70.7422 8.04287 70.586 9.83402H77.3394ZM8.51431 8.14369C8.2278 7.85095 7.90253 7.59884 7.54756 7.39441C7.67091 7.27099 7.78521 7.13885 7.88958 6.99901C8.47482 6.20024 8.75529 5.2186 8.68038 4.23122C8.61693 3.20017 8.18138 2.22721 7.45465 1.49308C7.03799 1.08683 6.54404 0.768318 6.00206 0.556415C5.46007 0.344512 4.88108 0.243527 4.29936 0.259439H0.210938V15.9765H5.02294C6.82794 15.9765 7.93901 15.1857 8.55583 14.5155C9.35051 13.6462 9.78697 12.5084 9.77761 11.3306C9.79075 10.1437 9.33706 8.99922 8.51431 8.14369ZM4.29936 2.09211C5.95411 2.09211 6.77061 3.22888 6.84573 4.35182C6.87391 4.91271 6.69331 5.46415 6.3388 5.89972C5.98429 6.33528 5.481 6.62408 4.92607 6.71037H2.04361V2.09211H4.29936ZM5.02097 14.1518H2.04361V8.54305H4.75802C7.10867 8.54305 7.94099 10.0456 7.94099 11.3326C7.93901 12.6848 7.02761 14.1439 5.02097 14.1439V14.1518ZM48.8193 5.27903C46.9649 5.14064 46.2492 6.06982 46.2492 6.06982V5.27903H44.2979V15.7116H46.2571V9.85182C46.2554 9.42418 46.3222 8.99902 46.4548 8.59247C46.8779 7.31138 48.2657 6.90016 49.618 7.40627L50.4266 5.68629C49.9207 5.45205 49.3757 5.31395 48.8193 5.27903ZM34.4268 1.76591H36.388V15.7136H34.4268V1.76591ZM40.7907 15.7116L36.4651 10.4864L40.3439 5.27112H42.5601L38.7426 10.4864L43.1018 15.7116H40.7907Z" fill="#4840BB" fill-opacity="0.75"/>
</g>
<defs>
<clipPath id="clip0_1470_28098">
<rect width="79.0798" height="15.816" fill="white" transform="translate(0.210938 0.259766)"/>
</clipPath>
</defs>
</svg>
