<svg width="63" height="62" viewBox="0 0 63 62" fill="none" xmlns="http://www.w3.org/2000/svg">
<path d="M59.2625 0.458984H23.7275C22.0515 0.458984 20.6928 1.81763 20.6928 3.49361C20.6928 5.16958 22.0515 6.52823 23.7275 6.52823H42.4009C45.849 6.52823 47.5609 10.7104 45.1025 13.1282L2.21572 55.3068C0.996682 56.5057 0.996683 58.4709 2.21572 59.6698C3.40638 60.8408 5.31606 60.8408 6.50673 59.6698L49.6224 17.2662C52.0587 14.8701 56.177 16.596 56.177 20.0132V37.5821C56.177 39.2863 57.5584 40.6677 59.2625 40.6677C60.9667 40.6677 62.3481 39.2863 62.3481 37.5821V4.29495C62.3481 4.27138 62.329 4.25228 62.3055 4.25228C62.2775 4.25228 62.2571 4.22582 62.2637 4.19865C62.4116 3.58928 62.3677 2.93648 62.1132 2.33231C61.6357 1.19835 60.5105 0.458984 59.2625 0.458984Z" fill="#F4B896" fill-opacity="0.2"/>
</svg>
