<svg width="482" height="203" viewBox="0 0 482 203" fill="none" xmlns="http://www.w3.org/2000/svg">
<g filter="url(#filter0_d_585_929)">
<path fill-rule="evenodd" clip-rule="evenodd" d="M35.6833 0.273071C27.7975 0.273071 21.4048 6.6658 21.4048 14.5516V17.0923H21.1958C20.9175 17.0923 20.6411 17.1003 20.3668 17.116C20.0008 14.5539 20.5476 9.04112 22.2728 5.84234L23.4116 4.28061C22.9863 4.68852 22.6074 5.2219 22.2728 5.84234L10.7788 21.6054C8.38389 24.1591 6.91724 27.5937 6.91724 31.3709V180.35C6.91724 188.236 13.3099 194.629 21.1958 194.629H452.869C457.711 194.629 461.99 192.218 464.572 188.532C467.314 185.467 473.274 178.441 476.329 174.827C479.072 172.225 480.783 168.545 480.783 164.465V14.5516C480.783 6.66579 474.39 0.273071 466.504 0.273071H35.6833Z" fill="#44407C"/>
<rect x="19.8321" y="1.16548" width="460.06" height="176.541" rx="13.3861" fill="#FFFBF5" stroke="#44407C" stroke-width="1.78482"/>
<path fill-rule="evenodd" clip-rule="evenodd" d="M73.7825 27.8379C74.0372 27.1921 74.9511 27.1921 75.2058 27.8379L75.468 28.5026C75.4864 28.5493 75.5234 28.5863 75.5701 28.6047L76.2348 28.8669C76.8806 29.1216 76.8806 30.0355 76.2348 30.2902L75.5701 30.5524C75.5234 30.5708 75.4864 30.6078 75.468 30.6545L75.2058 31.3192C74.9511 31.965 74.0372 31.965 73.7825 31.3192L73.5203 30.6545C73.5019 30.6078 73.4649 30.5708 73.4182 30.5524L72.7535 30.2902C72.1077 30.0355 72.1077 29.1216 72.7535 28.8669L73.4182 28.6047C73.4649 28.5863 73.5019 28.5493 73.5203 28.5026L73.7825 27.8379ZM61.3743 34.9282C61.629 34.2824 62.543 34.2824 62.7977 34.9282L63.0599 35.593C63.0783 35.6397 63.1153 35.6766 63.162 35.695L63.8267 35.9572C64.4725 36.2119 64.4725 37.1259 63.8267 37.3806L63.162 37.6428C63.1153 37.6612 63.0783 37.6981 63.0599 37.7448L62.7977 38.4096C62.543 39.0554 61.629 39.0554 61.3743 38.4096L61.1122 37.7448C61.0938 37.6981 61.0568 37.6612 61.0101 37.6428L60.3453 37.3806C59.6995 37.1259 59.6995 36.2119 60.3453 35.9572L61.0101 35.695C61.0568 35.6766 61.0938 35.6397 61.1122 35.593L61.3743 34.9282ZM53.9348 41.1323C53.6801 40.4865 52.7661 40.4865 52.5114 41.1323L52.2492 41.797C52.2308 41.8437 52.1939 41.8807 52.1472 41.8991L51.4824 42.1613C50.8366 42.416 50.8366 43.3299 51.4824 43.5846L52.1472 43.8468C52.1939 43.8652 52.2308 43.9022 52.2492 43.9489L52.5114 44.6136C52.7661 45.2594 53.6801 45.2594 53.9348 44.6136L54.1969 43.9489C54.2154 43.9022 54.2523 43.8652 54.299 43.8468L54.9638 43.5846C55.6096 43.3299 55.6096 42.416 54.9638 42.1613L54.299 41.8991C54.2523 41.8807 54.2154 41.8437 54.1969 41.797L53.9348 41.1323ZM76.9651 53.8088C76.5083 53.6286 76.1467 53.267 75.9665 52.8101L75.9233 52.7005C75.4118 51.4037 73.5765 51.4037 73.0651 52.7005L73.0218 52.8101C72.8417 53.267 72.48 53.6286 72.0232 53.8088L71.9136 53.852C70.6168 54.3634 70.6168 56.1987 71.9136 56.7102L72.0232 56.7534C72.48 56.9336 72.8417 57.2952 73.0218 57.752L73.0651 57.8616C73.5765 59.1584 75.4118 59.1584 75.9233 57.8616L75.9665 57.752C76.1467 57.2952 76.5083 56.9336 76.9651 56.7534L77.0747 56.7102C78.3715 56.1987 78.3715 54.3634 77.0747 53.852L76.9651 53.8088ZM53.9348 53.5404C53.6801 52.8946 52.7661 52.8946 52.5114 53.5404L52.2492 54.2051C52.2308 54.2518 52.1939 54.2888 52.1472 54.3072L51.4824 54.5694C50.8366 54.8241 50.8366 55.7381 51.4824 55.9928L52.1472 56.2549C52.1939 56.2733 52.2308 56.3103 52.2492 56.357L52.5114 57.0218C52.7661 57.6676 53.6801 57.6676 53.9348 57.0218L54.1969 56.357C54.2154 56.3103 54.2523 56.2733 54.299 56.2549L54.9638 55.9928C55.6096 55.7381 55.6096 54.8241 54.9638 54.5694L54.299 54.3072C54.2523 54.2888 54.2154 54.2518 54.1969 54.2051L53.9348 53.5404ZM95.0535 53.5404C95.3082 52.8946 96.2222 52.8946 96.4769 53.5404L96.7391 54.2051C96.7575 54.2518 96.7945 54.2888 96.8411 54.3072L97.5059 54.5694C98.1517 54.8241 98.1517 55.7381 97.5059 55.9928L96.8411 56.2549C96.7945 56.2733 96.7575 56.3103 96.7391 56.357L96.4769 57.0218C96.2222 57.6676 95.3082 57.6676 95.0535 57.0218L94.7914 56.357C94.7729 56.3103 94.736 56.2733 94.6893 56.2549L94.0245 55.9928C93.3787 55.7381 93.3787 54.8241 94.0245 54.5694L94.6893 54.3072C94.736 54.2888 94.773 54.2518 94.7914 54.2051L95.0535 53.5404ZM53.9348 65.9485C53.6801 65.3027 52.7661 65.3027 52.5114 65.9485L52.2492 66.6133C52.2308 66.66 52.1939 66.6969 52.1472 66.7153L51.4824 66.9775C50.8366 67.2322 50.8366 68.1462 51.4824 68.4009L52.1472 68.663C52.1939 68.6815 52.2308 68.7184 52.2492 68.7651L52.5114 69.4299C52.7661 70.0757 53.6801 70.0757 53.9348 69.4299L54.1969 68.7651C54.2154 68.7184 54.2523 68.6815 54.299 68.663L54.9638 68.4009C55.6096 68.1462 55.6096 67.2322 54.9638 66.9775L54.299 66.7153C54.2523 66.6969 54.2154 66.66 54.1969 66.6133L53.9348 65.9485ZM95.0535 65.9485C95.3082 65.3027 96.2222 65.3027 96.4769 65.9485L96.7391 66.6133C96.7575 66.66 96.7945 66.6969 96.8411 66.7153L97.5059 66.9775C98.1517 67.2322 98.1517 68.1462 97.5059 68.4009L96.8411 68.663C96.7945 68.6815 96.7575 68.7184 96.7391 68.7651L96.4769 69.4299C96.2222 70.0757 95.3082 70.0757 95.0535 69.4299L94.7914 68.7651C94.7729 68.7184 94.736 68.6815 94.6893 68.663L94.0245 68.4009C93.3787 68.1462 93.3787 67.2322 94.0245 66.9775L94.6893 66.7153C94.736 66.6969 94.7729 66.66 94.7914 66.6133L95.0535 65.9485ZM87.614 34.9282C87.3593 34.2824 86.4453 34.2824 86.1906 34.9282L85.9284 35.593C85.91 35.6397 85.873 35.6766 85.8264 35.695L85.1616 35.9572C84.5158 36.2119 84.5158 37.1259 85.1616 37.3806L85.8264 37.6428C85.873 37.6612 85.91 37.6981 85.9284 37.7448L86.1906 38.4096C86.4453 39.0554 87.3593 39.0554 87.614 38.4096L87.8761 37.7448C87.8946 37.6981 87.9315 37.6612 87.9782 37.6428L88.643 37.3806C89.2888 37.1259 89.2888 36.2119 88.643 35.9572L87.9782 35.695C87.9315 35.6766 87.8946 35.6397 87.8761 35.593L87.614 34.9282ZM63.2195 72.3358C62.8139 71.3072 61.3582 71.3072 60.9525 72.3358C60.876 72.5297 60.7225 72.6833 60.5285 72.7598C59.5 73.1654 59.5 74.6211 60.5285 75.0267C60.7225 75.1032 60.876 75.2568 60.9525 75.4507C61.3582 76.4793 62.8139 76.4793 63.2195 75.4507C63.296 75.2568 63.4496 75.1032 63.6435 75.0267C64.6721 74.6211 64.6721 73.1654 63.6435 72.7598C63.4496 72.6833 63.296 72.5297 63.2195 72.3358ZM86.1906 72.1526C86.4453 71.5068 87.3593 71.5068 87.614 72.1526L87.8761 72.8173C87.8946 72.864 87.9315 72.901 87.9782 72.9194L88.643 73.1816C89.2888 73.4363 89.2888 74.3502 88.643 74.6049L87.9782 74.8671C87.9315 74.8855 87.8946 74.9225 87.8761 74.9692L87.614 75.6339C87.3593 76.2797 86.4453 76.2797 86.1906 75.6339L85.9284 74.9692C85.91 74.9225 85.873 74.8855 85.8264 74.8671L85.1616 74.6049C84.5158 74.3502 84.5158 73.4363 85.1616 73.1816L85.8264 72.9194C85.873 72.901 85.91 72.864 85.9284 72.8173L86.1906 72.1526ZM75.2058 79.2429C74.9511 78.5971 74.0372 78.5971 73.7825 79.2429L73.5203 79.9077C73.5019 79.9544 73.4649 79.9913 73.4182 80.0097L72.7535 80.2719C72.1077 80.5266 72.1077 81.4406 72.7535 81.6953L73.4182 81.9574C73.4649 81.9759 73.5019 82.0128 73.5203 82.0595L73.7825 82.7243C74.0372 83.3701 74.9511 83.3701 75.2058 82.7243L75.468 82.0595C75.4864 82.0128 75.5234 81.9759 75.5701 81.9574L76.2348 81.6953C76.8806 81.4406 76.8806 80.5266 76.2348 80.2719L75.5701 80.0097C75.5234 79.9913 75.4864 79.9544 75.468 79.9077L75.2058 79.2429ZM95.0535 41.1323C95.3082 40.4865 96.2222 40.4865 96.4769 41.1323L96.7391 41.797C96.7575 41.8437 96.7945 41.8807 96.8411 41.8991L97.5059 42.1613C98.1517 42.416 98.1517 43.3299 97.5059 43.5846L96.8411 43.8468C96.7945 43.8652 96.7575 43.9022 96.7391 43.9489L96.4769 44.6136C96.2222 45.2594 95.3082 45.2594 95.0535 44.6136L94.7914 43.9489C94.773 43.9022 94.736 43.8652 94.6893 43.8468L94.0245 43.5846C93.3787 43.3299 93.3787 42.416 94.0245 42.1613L94.6893 41.8991C94.736 41.8807 94.773 41.8437 94.7914 41.797L95.0535 41.1323ZM64.557 60.8991C64.1001 60.7189 63.7385 60.3573 63.5583 59.9005L63.5151 59.7909C63.0037 58.4941 61.1684 58.4941 60.6569 59.7909L60.6137 59.9005C60.4335 60.3573 60.0719 60.7189 59.6151 60.8991L59.5055 60.9423C58.2087 61.4538 58.2087 63.2891 59.5055 63.8005L59.6151 63.8437C60.0719 64.0239 60.4335 64.3855 60.6137 64.8424L60.6569 64.9519C61.1684 66.2487 63.0037 66.2487 63.5151 64.9519L63.5583 64.8424C63.7385 64.3855 64.1001 64.0239 64.557 63.8437L64.6666 63.8005C65.9634 63.2891 65.9634 61.4538 64.6666 60.9423L64.557 60.8991ZM88.3314 59.7909L88.3746 59.9005C88.5548 60.3573 88.9164 60.7189 89.3732 60.8991L89.4828 60.9423C90.7796 61.4538 90.7796 63.2891 89.4828 63.8005L89.3732 63.8437C88.9164 64.0239 88.5548 64.3855 88.3746 64.8424L88.3314 64.9519C87.8199 66.2487 85.9846 66.2487 85.4732 64.9519L85.43 64.8424C85.2498 64.3855 84.8882 64.0239 84.4313 63.8437L84.3218 63.8005C83.025 63.2891 83.025 61.4538 84.3218 60.9423L84.4313 60.8991C84.8882 60.7189 85.2498 60.3573 85.43 59.9005L85.4732 59.7909C85.9846 58.4941 87.8199 58.4941 88.3314 59.7909ZM64.557 46.7184C64.1001 46.5382 63.7385 46.1766 63.5583 45.7198L63.5151 45.6102C63.0037 44.3134 61.1684 44.3134 60.6569 45.6102L60.6137 45.7198C60.4335 46.1766 60.0719 46.5382 59.6151 46.7184L59.5055 46.7616C58.2087 47.2731 58.2087 49.1084 59.5055 49.6198L59.6151 49.663C60.0719 49.8432 60.4335 50.2048 60.6137 50.6617L60.6569 50.7712C61.1684 52.068 63.0037 52.068 63.5151 50.7712L63.5583 50.6617C63.7385 50.2048 64.1001 49.8432 64.557 49.663L64.6666 49.6198C65.9634 49.1084 65.9634 47.2731 64.6666 46.7616L64.557 46.7184ZM75.9233 38.5198L75.9665 38.6294C76.1467 39.0863 76.5083 39.4479 76.9651 39.6281L77.0747 39.6713C78.3715 40.1827 78.3715 42.018 77.0747 42.5295L76.9651 42.5727C76.5083 42.7529 76.1467 43.1145 75.9665 43.5713L75.9233 43.6809C75.4118 44.9777 73.5765 44.9777 73.0651 43.6809L73.0218 43.5713C72.8417 43.1145 72.48 42.7529 72.0232 42.5727L71.9136 42.5295C70.6168 42.018 70.6168 40.1827 71.9136 39.6713L72.0232 39.6281C72.48 39.4479 72.8417 39.0863 73.0218 38.6294L73.0651 38.5198C73.5765 37.223 75.4118 37.223 75.9233 38.5198ZM89.3732 46.7184C88.9164 46.5382 88.5548 46.1766 88.3746 45.7198L88.3314 45.6102C87.8199 44.3134 85.9846 44.3134 85.4732 45.6102L85.43 45.7198C85.2498 46.1766 84.8882 46.5382 84.4313 46.7184L84.3218 46.7616C83.025 47.2731 83.025 49.1084 84.3218 49.6198L84.4313 49.663C84.8882 49.8432 85.2498 50.2048 85.43 50.6617L85.4732 50.7712C85.9846 52.068 87.8199 52.068 88.3314 50.7712L88.3746 50.6617C88.5548 50.2048 88.9164 49.8432 89.3732 49.663L89.4828 49.6198C90.7796 49.1084 90.7796 47.2731 89.4828 46.7616L89.3732 46.7184ZM75.9233 66.8812L75.9665 66.9908C76.1467 67.4477 76.5083 67.8093 76.9651 67.9894L77.0747 68.0327C78.3715 68.5441 78.3715 70.3794 77.0747 70.8909L76.9651 70.9341C76.5083 71.1143 76.1467 71.4759 75.9665 71.9327L75.9233 72.0423C75.4118 73.3391 73.5765 73.3391 73.0651 72.0423L73.0218 71.9327C72.8417 71.4759 72.48 71.1143 72.0232 70.9341L71.9136 70.8909C70.6168 70.3794 70.6168 68.5441 71.9136 68.0327L72.0232 67.9894C72.48 67.8093 72.8417 67.4477 73.0218 66.9908L73.0651 66.8812C73.5765 65.5844 75.4118 65.5844 75.9233 66.8812Z" fill="#44407C"/>
<path d="M133.809 41.673H139.295L143.522 57.9051L147.343 41.673H154.628L147.343 69.281H140.734L136.462 53.0939L132.146 69.281H125.536L118.297 41.673H125.671L129.538 57.9051L133.809 41.673ZM167.13 62.2216H173.65C172.931 66.8979 169.424 69.7306 164.163 69.7306C157.958 69.7306 153.866 65.4591 153.866 59.1641C153.866 52.9141 158.183 48.5975 164.028 48.5975C170.233 48.5975 173.74 52.7342 173.74 58.7594V60.513H160.656C160.88 62.9411 162.139 64.245 164.163 64.245C165.602 64.245 166.726 63.6155 167.13 62.2216ZM164.028 54.0831C162.364 54.0831 161.24 55.1173 160.791 57.0058H166.906C166.816 55.3421 165.782 54.0831 164.028 54.0831ZM183.027 40.0543V69.281H175.968V40.0543H183.027ZM193.467 40.0543V69.281H186.408V40.0543H193.467ZM218.35 69.281V67.6623C217.405 68.7414 215.427 69.7306 213.359 69.7306C207.513 69.7306 204.321 65.0094 204.321 59.1641C204.321 53.3187 207.513 48.5975 213.359 48.5975C215.427 48.5975 217.405 49.5867 218.35 50.6659V40.0543H225.409V69.281H218.35ZM218.35 61.817V56.4662C217.81 55.3871 216.596 54.5777 215.247 54.5777C212.819 54.5777 211.38 56.5562 211.38 59.1641C211.38 61.772 212.819 63.7055 215.247 63.7055C216.641 63.7055 217.81 62.9411 218.35 61.817ZM235.809 49.0471V69.281H228.75V49.0471H235.809ZM236.304 43.5615C236.304 45.8547 234.46 47.3385 232.302 47.3385C230.143 47.3385 228.3 45.8547 228.3 43.5615C228.3 41.2234 230.143 39.7396 232.302 39.7396C234.46 39.7396 236.304 41.2234 236.304 43.5615ZM251.645 69.281H245.305L237.616 49.0471H244.81L248.677 60.6479L252.454 49.0471H259.379L251.645 69.281ZM272.441 62.2216H278.961C278.242 66.8979 274.735 69.7306 269.474 69.7306C263.269 69.7306 259.177 65.4591 259.177 59.1641C259.177 52.9141 263.494 48.5975 269.339 48.5975C275.544 48.5975 279.051 52.7342 279.051 58.7594V60.513H265.967C266.191 62.9411 267.45 64.245 269.474 64.245C270.913 64.245 272.037 63.6155 272.441 62.2216ZM269.339 54.0831C267.675 54.0831 266.551 55.1173 266.101 57.0058H272.217C272.127 55.3421 271.092 54.0831 269.339 54.0831ZM294.858 48.9572V55.7468C294.003 55.2972 293.059 55.1173 291.935 55.1173C290.002 55.1173 288.698 55.9716 288.338 57.4105V69.281H281.279V49.0471H288.338V50.8457C289.327 49.4968 290.901 48.5975 292.924 48.5975C293.824 48.5975 294.543 48.7774 294.858 48.9572ZM295.994 63.031H302.874C303.189 64.1551 304.178 64.7846 305.437 64.7846C306.606 64.7846 307.505 64.335 307.505 63.3907C307.505 62.6263 306.921 62.3565 305.932 62.1317L301.975 61.3224C298.602 60.6029 296.399 58.9842 296.399 55.4321C296.399 51.1155 300.266 48.5975 305.032 48.5975C310.563 48.5975 313.575 51.1605 314.205 55.1623H307.685C307.46 54.308 306.831 53.5436 305.212 53.5436C304.178 53.5436 303.324 53.9932 303.324 54.8925C303.324 55.522 303.773 55.8367 304.718 56.0166L308.719 56.9608C312.406 57.8152 314.385 59.7486 314.385 63.031C314.385 67.3475 310.473 69.7306 305.527 69.7306C300.356 69.7306 296.624 67.3925 295.994 63.031ZM323.928 49.0471V69.281H316.869V49.0471H323.928ZM324.423 43.5615C324.423 45.8547 322.579 47.3385 320.421 47.3385C318.263 47.3385 316.419 45.8547 316.419 43.5615C316.419 41.2234 318.263 39.7396 320.421 39.7396C322.579 39.7396 324.423 41.2234 324.423 43.5615ZM340.169 40.1892V45.9446C339.674 45.6748 339.134 45.5399 338.505 45.5399C336.931 45.5399 335.987 46.3493 335.987 47.968V49.0471H339.899V54.5328H335.987V69.281H329.017V54.5328H326.005V49.0471H329.017V47.5633C329.017 42.7072 331.94 39.6496 336.886 39.6496C338.235 39.6496 339.314 39.8745 340.169 40.1892ZM349.112 49.0471V69.281H342.052V49.0471H349.112ZM349.606 43.5615C349.606 45.8547 347.763 47.3385 345.604 47.3385C343.446 47.3385 341.603 45.8547 341.603 43.5615C341.603 41.2234 343.446 39.7396 345.604 39.7396C347.763 39.7396 349.606 41.2234 349.606 43.5615ZM364.678 62.2216H371.197C370.478 66.8979 366.971 69.7306 361.71 69.7306C355.505 69.7306 351.413 65.4591 351.413 59.1641C351.413 52.9141 355.73 48.5975 361.575 48.5975C367.78 48.5975 371.287 52.7342 371.287 58.7594V60.513H358.203C358.428 62.9411 359.687 64.245 361.71 64.245C363.149 64.245 364.273 63.6155 364.678 62.2216ZM361.575 54.0831C359.911 54.0831 358.787 55.1173 358.338 57.0058H364.453C364.363 55.3421 363.329 54.0831 361.575 54.0831ZM386.728 69.281V67.6623C385.784 68.7414 383.805 69.7306 381.737 69.7306C375.892 69.7306 372.699 65.0094 372.699 59.1641C372.699 53.3187 375.892 48.5975 381.737 48.5975C383.805 48.5975 385.784 49.5867 386.728 50.6659V40.0543H393.787V69.281H386.728ZM386.728 61.817V56.4662C386.188 55.3871 384.974 54.5777 383.625 54.5777C381.197 54.5777 379.758 56.5562 379.758 59.1641C379.758 61.772 381.197 63.7055 383.625 63.7055C385.019 63.7055 386.188 62.9411 386.728 61.817Z" fill="#44407C"/>
<path d="M51.9841 123.746C53.1743 124.052 53.9858 125.116 53.9858 126.361C53.9858 128.38 52.5792 129.48 50.307 129.48H46.3037V118.408H49.9464C52.2366 118.408 53.6071 119.436 53.6071 121.347C53.6071 122.664 52.8497 123.475 51.9841 123.746ZM47.6923 123.223H49.9464C51.4251 123.223 52.2366 122.628 52.2366 121.419C52.2366 120.211 51.4251 119.652 49.9464 119.652H47.6923V123.223ZM47.6923 124.413V128.236H50.307C51.8038 128.236 52.5972 127.479 52.5972 126.324C52.5972 125.152 51.8038 124.413 50.307 124.413H47.6923ZM58.0456 132.546H56.7111L57.9194 129.534L54.7996 121.474H56.2603L58.6226 127.785L60.9489 121.474H62.3555L58.0456 132.546ZM68.8614 121.474V129.48H67.509V121.474H68.8614ZM69.0598 119.057C69.0598 119.526 68.6631 119.923 68.1762 119.923C67.7073 119.923 67.3106 119.526 67.3106 119.057C67.3106 118.57 67.7073 118.192 68.1762 118.192C68.6631 118.192 69.0598 118.57 69.0598 119.057ZM71.0972 129.48V121.474H72.4497V122.483C72.9186 121.852 73.7842 121.311 74.812 121.311C76.6334 121.311 77.6252 122.483 77.6252 124.233V129.48H76.2547V124.449C76.2547 123.331 75.6957 122.556 74.4874 122.556C73.5497 122.556 72.7382 123.187 72.4497 124.052V129.48H71.0972ZM83.2041 129.48H81.8697L78.768 121.474H80.2287L82.573 127.767L84.8992 121.474H86.3238L83.2041 129.48ZM92.5861 127.082H93.8664C93.5779 128.597 92.4418 129.643 90.6385 129.643C88.4565 129.643 86.9598 127.965 86.9598 125.495C86.9598 123.097 88.4205 121.311 90.6025 121.311C92.8025 121.311 93.9746 122.916 93.9746 125.242V125.729H88.3123C88.3303 127.442 89.286 128.488 90.6385 128.488C91.6303 128.488 92.3697 127.983 92.5861 127.082ZM90.6205 122.465C89.4123 122.465 88.5467 123.295 88.3483 124.701H92.6041C92.5861 123.511 91.9549 122.465 90.6205 122.465ZM94.9662 127.28H96.3727C96.6252 128.11 97.3285 128.506 98.2662 128.506C99.2219 128.506 99.9072 128.128 99.9072 127.316C99.9072 126.757 99.5465 126.415 98.717 126.198L97.1301 125.783C95.994 125.495 95.2006 124.918 95.2006 123.674C95.2006 122.249 96.4449 121.311 98.0678 121.311C99.8351 121.311 100.881 122.177 101.17 123.583H99.817C99.5826 122.862 99.0236 122.447 98.0498 122.447C97.2563 122.447 96.517 122.826 96.517 123.601C96.517 124.142 96.8776 124.395 97.635 124.611L99.1859 124.99C100.556 125.351 101.224 126.108 101.224 127.226C101.224 128.741 99.9613 129.643 98.2482 129.643C96.499 129.643 95.2186 128.759 94.9662 127.28ZM103.299 127.461V122.628H102V121.474H103.299V119.364H104.651V121.474H106.581V122.628H104.651V127.316C104.651 128.092 105.03 128.434 105.715 128.434C106.094 128.434 106.49 128.29 106.761 128.11V129.372C106.454 129.534 105.985 129.643 105.499 129.643C104.2 129.643 103.299 128.939 103.299 127.461ZM109.815 121.474V129.48H108.463V121.474H109.815ZM110.014 119.057C110.014 119.526 109.617 119.923 109.13 119.923C108.661 119.923 108.264 119.526 108.264 119.057C108.264 118.57 108.661 118.192 109.13 118.192C109.617 118.192 110.014 118.57 110.014 119.057ZM112.051 129.48V121.474H113.404V122.483C113.872 121.852 114.738 121.311 115.766 121.311C117.587 121.311 118.579 122.483 118.579 124.233V129.48H117.209V124.449C117.209 123.331 116.65 122.556 115.441 122.556C114.504 122.556 113.692 123.187 113.404 124.052V129.48H112.051ZM125.941 128.939V128.344C125.544 128.903 124.697 129.426 123.705 129.426C121.361 129.426 120.117 127.479 120.117 125.369C120.117 123.241 121.361 121.311 123.705 121.311C124.697 121.311 125.544 121.816 125.941 122.375V121.474H127.312V128.849C127.312 131.482 125.797 132.726 123.741 132.726C121.794 132.726 120.567 131.716 120.315 130.075H121.649C121.884 131.085 122.641 131.572 123.741 131.572C125.184 131.572 125.941 130.67 125.941 128.939ZM125.941 126.956V123.764C125.526 123.006 124.769 122.519 123.903 122.519C122.389 122.519 121.505 123.71 121.505 125.369C121.505 127.01 122.389 128.2 123.903 128.2C124.769 128.2 125.526 127.713 125.941 126.956ZM134.699 121.474V129.48H133.347V121.474H134.699ZM134.898 119.057C134.898 119.526 134.501 119.923 134.014 119.923C133.545 119.923 133.149 119.526 133.149 119.057C133.149 118.57 133.545 118.192 134.014 118.192C134.501 118.192 134.898 118.57 134.898 119.057ZM136.935 129.48V121.474H138.288V122.483C138.757 121.852 139.622 121.311 140.65 121.311C142.471 121.311 143.463 122.483 143.463 124.233V129.48H142.093V124.449C142.093 123.331 141.534 122.556 140.325 122.556C139.388 122.556 138.576 123.187 138.288 124.052V129.48H136.935ZM155.184 129.48H153.886V128.885C153.579 129.21 152.731 129.624 151.776 129.624C150.153 129.624 148.8 128.651 148.8 127.064C148.8 125.567 150.153 124.557 151.866 124.557C152.695 124.557 153.543 124.9 153.886 125.206V124.197C153.886 123.205 153.272 122.483 152.118 122.483C151.271 122.483 150.73 122.844 150.477 123.583H149.143C149.413 122.231 150.604 121.311 152.136 121.311C154.048 121.311 155.184 122.393 155.184 124.142V129.48ZM153.886 127.497V126.667C153.651 126.072 152.84 125.675 152.01 125.675C151.036 125.675 150.099 126.108 150.099 127.064C150.099 128.038 151.036 128.488 152.01 128.488C152.84 128.488 153.651 128.092 153.886 127.497ZM160.448 127.28H161.854C162.107 128.11 162.81 128.506 163.748 128.506C164.704 128.506 165.389 128.128 165.389 127.316C165.389 126.757 165.028 126.415 164.199 126.198L162.612 125.783C161.476 125.495 160.682 124.918 160.682 123.674C160.682 122.249 161.926 121.311 163.549 121.311C165.317 121.311 166.363 122.177 166.651 123.583H165.299C165.064 122.862 164.505 122.447 163.531 122.447C162.738 122.447 161.999 122.826 161.999 123.601C161.999 124.142 162.359 124.395 163.117 124.611L164.667 124.99C166.038 125.351 166.705 126.108 166.705 127.226C166.705 128.741 165.443 129.643 163.73 129.643C161.981 129.643 160.7 128.759 160.448 127.28ZM169.754 128.543V132.546H168.401V121.474H169.754V122.411C170.169 121.834 171.016 121.311 172.008 121.311C174.37 121.311 175.615 123.259 175.615 125.477C175.615 127.695 174.37 129.643 172.008 129.643C171.016 129.643 170.169 129.12 169.754 128.543ZM169.754 123.854V127.1C170.169 127.929 170.962 128.416 171.81 128.416C173.342 128.416 174.244 127.172 174.244 125.477C174.244 123.782 173.342 122.538 171.81 122.538C170.962 122.538 170.169 123.024 169.754 123.854ZM181.384 121.438V122.826C181.168 122.682 180.825 122.61 180.483 122.61C179.635 122.61 178.896 123.169 178.625 124.106V129.48H177.273V121.474H178.625V122.519C178.968 121.834 179.725 121.311 180.609 121.311C180.952 121.311 181.24 121.365 181.384 121.438ZM187.707 127.082H188.987C188.698 128.597 187.562 129.643 185.759 129.643C183.577 129.643 182.08 127.965 182.08 125.495C182.08 123.097 183.541 121.311 185.723 121.311C187.923 121.311 189.095 122.916 189.095 125.242V125.729H183.433C183.451 127.442 184.407 128.488 185.759 128.488C186.751 128.488 187.49 127.983 187.707 127.082ZM185.741 122.465C184.533 122.465 183.667 123.295 183.469 124.701H187.725C187.707 123.511 187.075 122.465 185.741 122.465ZM196.525 129.48H195.227V128.885C194.92 129.21 194.073 129.624 193.117 129.624C191.494 129.624 190.142 128.651 190.142 127.064C190.142 125.567 191.494 124.557 193.207 124.557C194.037 124.557 194.884 124.9 195.227 125.206V124.197C195.227 123.205 194.614 122.483 193.46 122.483C192.612 122.483 192.071 122.844 191.819 123.583H190.484C190.755 122.231 191.945 121.311 193.478 121.311C195.389 121.311 196.525 122.393 196.525 124.142V129.48ZM195.227 127.497V126.667C194.992 126.072 194.181 125.675 193.351 125.675C192.378 125.675 191.44 126.108 191.44 127.064C191.44 128.038 192.378 128.488 193.351 128.488C194.181 128.488 194.992 128.092 195.227 127.497ZM203.94 129.48V128.543C203.544 129.12 202.678 129.643 201.686 129.643C199.342 129.643 198.08 127.749 198.08 125.477C198.08 123.223 199.342 121.311 201.686 121.311C202.678 121.311 203.544 121.834 203.94 122.411V117.759H205.311V129.48H203.94ZM203.94 127.1V123.854C203.526 123.024 202.732 122.538 201.885 122.538C200.352 122.538 199.45 123.782 199.45 125.477C199.45 127.172 200.352 128.416 201.885 128.416C202.732 128.416 203.526 127.929 203.94 127.1ZM218.108 125.477C218.108 127.929 216.611 129.643 214.429 129.643C212.229 129.643 210.751 127.929 210.751 125.477C210.751 123.024 212.229 121.311 214.429 121.311C216.611 121.311 218.108 123.024 218.108 125.477ZM216.738 125.477C216.738 123.728 215.872 122.501 214.429 122.501C212.987 122.501 212.121 123.728 212.121 125.477C212.121 127.226 212.987 128.452 214.429 128.452C215.872 128.452 216.738 127.226 216.738 125.477ZM223.762 117.777V119.003C223.51 118.841 223.203 118.787 222.915 118.787C222.121 118.787 221.598 119.292 221.598 120.247V121.474H223.401V122.628H221.598V129.48H220.264V122.628H218.911V121.474H220.264V120.139C220.264 118.534 221.31 117.596 222.716 117.596C223.149 117.596 223.456 117.651 223.762 117.777ZM233.874 129.48V128.543C233.478 129.12 232.612 129.643 231.62 129.643C229.276 129.643 228.014 127.749 228.014 125.477C228.014 123.223 229.276 121.311 231.62 121.311C232.612 121.311 233.478 121.834 233.874 122.411V117.759H235.245V129.48H233.874ZM233.874 127.1V123.854C233.46 123.024 232.666 122.538 231.819 122.538C230.286 122.538 229.384 123.782 229.384 125.477C229.384 127.172 230.286 128.416 231.819 128.416C232.666 128.416 233.46 127.929 233.874 127.1ZM238.815 121.474V129.48H237.462V121.474H238.815ZM239.013 119.057C239.013 119.526 238.616 119.923 238.129 119.923C237.66 119.923 237.264 119.526 237.264 119.057C237.264 118.57 237.66 118.192 238.129 118.192C238.616 118.192 239.013 118.57 239.013 119.057ZM249.76 117.777V119.003C249.49 118.841 249.201 118.787 248.895 118.787C248.119 118.787 247.596 119.292 247.596 120.247V121.474H249.4V122.628H247.596V129.48H246.244V122.628H242.89V129.48H241.555V122.628H240.203V121.474H241.555V120.247C241.555 118.642 242.601 117.705 244.008 117.705C244.441 117.705 244.747 117.759 245.054 117.885V119.111C244.801 118.949 244.495 118.895 244.206 118.895C243.413 118.895 242.89 119.4 242.89 120.356V121.474H246.244V120.139C246.244 118.534 247.29 117.596 248.696 117.596C249.129 117.596 249.454 117.651 249.76 117.777ZM255.711 127.082H256.991C256.702 128.597 255.566 129.643 253.763 129.643C251.581 129.643 250.084 127.965 250.084 125.495C250.084 123.097 251.545 121.311 253.727 121.311C255.927 121.311 257.099 122.916 257.099 125.242V125.729H251.437C251.455 127.442 252.411 128.488 253.763 128.488C254.755 128.488 255.494 127.983 255.711 127.082ZM253.745 122.465C252.537 122.465 251.671 123.295 251.473 124.701H255.729C255.711 123.511 255.079 122.465 253.745 122.465ZM262.834 121.438V122.826C262.618 122.682 262.275 122.61 261.933 122.61C261.085 122.61 260.346 123.169 260.075 124.106V129.48H258.723V121.474H260.075V122.519C260.418 121.834 261.175 121.311 262.059 121.311C262.401 121.311 262.69 121.365 262.834 121.438ZM269.156 127.082H270.437C270.148 128.597 269.012 129.643 267.209 129.643C265.027 129.643 263.53 127.965 263.53 125.495C263.53 123.097 264.991 121.311 267.173 121.311C269.373 121.311 270.545 122.916 270.545 125.242V125.729H264.883C264.901 127.442 265.856 128.488 267.209 128.488C268.201 128.488 268.94 127.983 269.156 127.082ZM267.191 122.465C265.983 122.465 265.117 123.295 264.919 124.701H269.175C269.156 123.511 268.525 122.465 267.191 122.465ZM272.169 129.48V121.474H273.521V122.483C273.99 121.852 274.855 121.311 275.883 121.311C277.705 121.311 278.697 122.483 278.697 124.233V129.48H277.326V124.449C277.326 123.331 276.767 122.556 275.559 122.556C274.621 122.556 273.81 123.187 273.521 124.052V129.48H272.169ZM281.19 127.461V122.628H279.891V121.474H281.19V119.364H282.542V121.474H284.472V122.628H282.542V127.316C282.542 128.092 282.921 128.434 283.606 128.434C283.985 128.434 284.382 128.29 284.652 128.11V129.372C284.345 129.534 283.877 129.643 283.39 129.643C282.091 129.643 281.19 128.939 281.19 127.461ZM291.506 128.543V129.48H290.136V117.759H291.506V122.411C291.903 121.834 292.768 121.311 293.76 121.311C296.105 121.311 297.367 123.223 297.367 125.477C297.367 127.749 296.105 129.643 293.76 129.643C292.768 129.643 291.903 129.12 291.506 128.543ZM291.506 123.854V127.1C291.921 127.929 292.714 128.416 293.562 128.416C295.095 128.416 295.996 127.172 295.996 125.477C295.996 123.782 295.095 122.538 293.562 122.538C292.714 122.538 291.921 123.024 291.506 123.854ZM305.841 125.477C305.841 127.929 304.344 129.643 302.162 129.643C299.962 129.643 298.483 127.929 298.483 125.477C298.483 123.024 299.962 121.311 302.162 121.311C304.344 121.311 305.841 123.024 305.841 125.477ZM304.47 125.477C304.47 123.728 303.605 122.501 302.162 122.501C300.719 122.501 299.854 123.728 299.854 125.477C299.854 127.226 300.719 128.452 302.162 128.452C303.605 128.452 304.47 127.226 304.47 125.477ZM307.491 129.48V121.474H308.844V122.483C309.313 121.852 310.178 121.311 311.206 121.311C313.028 121.311 314.019 122.483 314.019 124.233V129.48H312.649V124.449C312.649 123.331 312.09 122.556 310.882 122.556C309.944 122.556 309.132 123.187 308.844 124.052V129.48H307.491ZM321.418 129.48V128.543C321.021 129.12 320.155 129.643 319.163 129.643C316.819 129.643 315.557 127.749 315.557 125.477C315.557 123.223 316.819 121.311 319.163 121.311C320.155 121.311 321.021 121.834 321.418 122.411V117.759H322.788V129.48H321.418ZM321.418 127.1V123.854C321.003 123.024 320.209 122.538 319.362 122.538C317.829 122.538 316.927 123.782 316.927 125.477C316.927 127.172 317.829 128.416 319.362 128.416C320.209 128.416 321.003 127.929 321.418 127.1ZM324.338 127.28H325.745C325.997 128.11 326.7 128.506 327.638 128.506C328.594 128.506 329.279 128.128 329.279 127.316C329.279 126.757 328.918 126.415 328.089 126.198L326.502 125.783C325.366 125.495 324.572 124.918 324.572 123.674C324.572 122.249 325.817 121.311 327.44 121.311C329.207 121.311 330.253 122.177 330.541 123.583H329.189C328.954 122.862 328.395 122.447 327.422 122.447C326.628 122.447 325.889 122.826 325.889 123.601C325.889 124.142 326.25 124.395 327.007 124.611L328.558 124.99C329.928 125.351 330.595 126.108 330.595 127.226C330.595 128.741 329.333 129.643 327.62 129.643C325.871 129.643 324.59 128.759 324.338 127.28ZM331.318 131.41L332.454 129.498C332.003 129.426 331.661 129.12 331.661 128.597C331.661 128.038 332.093 127.641 332.634 127.641C333.175 127.641 333.59 128.02 333.59 128.687C333.59 129.065 333.41 129.48 333.193 129.823L332.238 131.41H331.318ZM341.355 132.546H340.021L341.229 129.534L338.109 121.474H339.57L341.932 127.785L344.258 121.474H345.665L341.355 132.546ZM353.658 125.477C353.658 127.929 352.162 129.643 349.98 129.643C347.78 129.643 346.301 127.929 346.301 125.477C346.301 123.024 347.78 121.311 349.98 121.311C352.162 121.311 353.658 123.024 353.658 125.477ZM352.288 125.477C352.288 123.728 351.422 122.501 349.98 122.501C348.537 122.501 347.671 123.728 347.671 125.477C347.671 127.226 348.537 128.452 349.98 128.452C351.422 128.452 352.288 127.226 352.288 125.477ZM361.693 121.474V129.48H360.322V128.47C359.871 129.102 359.024 129.643 357.996 129.643C356.175 129.643 355.201 128.47 355.201 126.721V121.474H356.571V126.505C356.571 127.623 357.112 128.398 358.321 128.398C359.258 128.398 360.034 127.767 360.322 126.902V121.474H361.693ZM362.998 121.96L364.098 120.103C363.647 120.031 363.304 119.706 363.304 119.201C363.304 118.642 363.737 118.246 364.278 118.246C364.819 118.246 365.234 118.624 365.234 119.292C365.234 119.67 365.054 120.067 364.837 120.428L363.918 121.96H362.998ZM368.065 117.759V129.48H366.712V117.759H368.065ZM371.653 117.759V129.48H370.3V117.759H371.653ZM379.041 128.543V129.48H377.67V117.759H379.041V122.411C379.438 121.834 380.303 121.311 381.295 121.311C383.639 121.311 384.902 123.223 384.902 125.477C384.902 127.749 383.639 129.643 381.295 129.643C380.303 129.643 379.438 129.12 379.041 128.543ZM379.041 123.854V127.1C379.456 127.929 380.249 128.416 381.097 128.416C382.629 128.416 383.531 127.172 383.531 125.477C383.531 123.782 382.629 122.538 381.097 122.538C380.249 122.538 379.456 123.024 379.041 123.854ZM391.644 127.082H392.925C392.636 128.597 391.5 129.643 389.697 129.643C387.515 129.643 386.018 127.965 386.018 125.495C386.018 123.097 387.479 121.311 389.661 121.311C391.861 121.311 393.033 122.916 393.033 125.242V125.729H387.37C387.388 127.442 388.344 128.488 389.697 128.488C390.688 128.488 391.428 127.983 391.644 127.082ZM389.679 122.465C388.47 122.465 387.605 123.295 387.406 124.701H391.662C391.644 123.511 391.013 122.465 389.679 122.465ZM399.808 117.759V129.48H398.456V117.759H399.808ZM407.093 127.082H408.374C408.085 128.597 406.949 129.643 405.146 129.643C402.964 129.643 401.467 127.965 401.467 125.495C401.467 123.097 402.928 121.311 405.11 121.311C407.31 121.311 408.482 122.916 408.482 125.242V125.729H402.82C402.838 127.442 403.793 128.488 405.146 128.488C406.138 128.488 406.877 127.983 407.093 127.082ZM405.128 122.465C403.92 122.465 403.054 123.295 402.856 124.701H407.111C407.093 123.511 406.462 122.465 405.128 122.465ZM409.473 127.28H410.88C411.132 128.11 411.836 128.506 412.773 128.506C413.729 128.506 414.414 128.128 414.414 127.316C414.414 126.757 414.054 126.415 413.224 126.198L411.637 125.783C410.501 125.495 409.708 124.918 409.708 123.674C409.708 122.249 410.952 121.311 412.575 121.311C414.342 121.311 415.388 122.177 415.677 123.583H414.324C414.09 122.862 413.531 122.447 412.557 122.447C411.764 122.447 411.024 122.826 411.024 123.601C411.024 124.142 411.385 124.395 412.142 124.611L413.693 124.99C415.064 125.351 415.731 126.108 415.731 127.226C415.731 128.741 414.469 129.643 412.755 129.643C411.006 129.643 409.726 128.759 409.473 127.28ZM416.795 127.28H418.202C418.454 128.11 419.157 128.506 420.095 128.506C421.051 128.506 421.736 128.128 421.736 127.316C421.736 126.757 421.375 126.415 420.546 126.198L418.959 125.783C417.823 125.495 417.03 124.918 417.03 123.674C417.03 122.249 418.274 121.311 419.897 121.311C421.664 121.311 422.71 122.177 422.998 123.583H421.646C421.412 122.862 420.853 122.447 419.879 122.447C419.085 122.447 418.346 122.826 418.346 123.601C418.346 124.142 418.707 124.395 419.464 124.611L421.015 124.99C422.385 125.351 423.053 126.108 423.053 127.226C423.053 128.741 421.79 129.643 420.077 129.643C418.328 129.643 417.048 128.759 416.795 127.28ZM51.2448 147.082H52.5251C52.2366 148.597 51.1005 149.643 49.2972 149.643C47.1152 149.643 45.6185 147.965 45.6185 145.495C45.6185 143.097 47.0791 141.311 49.2611 141.311C51.4611 141.311 52.6333 142.916 52.6333 145.242V145.729H46.9709C46.989 147.442 47.9447 148.488 49.2972 148.488C50.289 148.488 51.0284 147.983 51.2448 147.082ZM49.2792 142.465C48.0709 142.465 47.2054 143.295 47.007 144.701H51.2628C51.2448 143.511 50.6136 142.465 49.2792 142.465ZM60.4824 141.474L57.6693 145.333L60.6447 149.48H59.1119L56.8939 146.361L54.6578 149.48H53.1971L56.1545 145.387L53.3594 141.474H54.9102L56.9299 144.341L59.0037 141.474H60.4824ZM63.3536 148.543V152.546H62.0011V141.474H63.3536V142.411C63.7684 141.834 64.6159 141.311 65.6077 141.311C67.9701 141.311 69.2143 143.259 69.2143 145.477C69.2143 147.695 67.9701 149.643 65.6077 149.643C64.6159 149.643 63.7684 149.12 63.3536 148.543ZM63.3536 143.854V147.1C63.7684 147.929 64.5618 148.416 65.4094 148.416C66.9422 148.416 67.8438 147.172 67.8438 145.477C67.8438 143.782 66.9422 142.538 65.4094 142.538C64.5618 142.538 63.7684 143.024 63.3536 143.854ZM77.6882 145.477C77.6882 147.929 76.1914 149.643 74.0094 149.643C71.8094 149.643 70.3307 147.929 70.3307 145.477C70.3307 143.024 71.8094 141.311 74.0094 141.311C76.1914 141.311 77.6882 143.024 77.6882 145.477ZM76.3176 145.477C76.3176 143.728 75.4521 142.501 74.0094 142.501C72.5668 142.501 71.7012 143.728 71.7012 145.477C71.7012 147.226 72.5668 148.452 74.0094 148.452C75.4521 148.452 76.3176 147.226 76.3176 145.477ZM78.6717 147.28H80.0782C80.3307 148.11 81.034 148.506 81.9717 148.506C82.9274 148.506 83.6127 148.128 83.6127 147.316C83.6127 146.757 83.252 146.415 82.4225 146.198L80.8356 145.783C79.6995 145.495 78.9061 144.918 78.9061 143.674C78.9061 142.249 80.1504 141.311 81.7733 141.311C83.5406 141.311 84.5865 142.177 84.875 143.583H83.5225C83.2881 142.862 82.7291 142.447 81.7553 142.447C80.9618 142.447 80.2225 142.826 80.2225 143.601C80.2225 144.142 80.5832 144.395 81.3405 144.611L82.8914 144.99C84.2619 145.351 84.9291 146.108 84.9291 147.226C84.9291 148.741 83.6668 149.643 81.9537 149.643C80.2045 149.643 78.9241 148.759 78.6717 147.28ZM91.6746 147.082H92.9549C92.6664 148.597 91.5303 149.643 89.727 149.643C87.545 149.643 86.0483 147.965 86.0483 145.495C86.0483 143.097 87.5089 141.311 89.6909 141.311C91.891 141.311 93.0631 142.916 93.0631 145.242V145.729H87.4008C87.4188 147.442 88.3745 148.488 89.727 148.488C90.7188 148.488 91.4582 147.983 91.6746 147.082ZM89.709 142.465C88.5008 142.465 87.6352 143.295 87.4368 144.701H91.6926C91.6746 143.511 91.0434 142.465 89.709 142.465ZM100.006 149.48V148.543C99.6088 149.12 98.7432 149.643 97.7514 149.643C95.4071 149.643 94.1448 147.749 94.1448 145.477C94.1448 143.223 95.4071 141.311 97.7514 141.311C98.7432 141.311 99.6088 141.834 100.006 142.411V137.759H101.376V149.48H100.006ZM100.006 147.1V143.854C99.5908 143.024 98.7973 142.538 97.9498 142.538C96.417 142.538 95.5153 143.782 95.5153 145.477C95.5153 147.172 96.417 148.416 97.9498 148.416C98.7973 148.416 99.5908 147.929 100.006 147.1ZM107.772 147.461V142.628H106.473V141.474H107.772V139.364H109.124V141.474H111.054V142.628H109.124V147.316C109.124 148.092 109.503 148.434 110.188 148.434C110.567 148.434 110.963 148.29 111.234 148.11V149.372C110.927 149.534 110.458 149.643 109.972 149.643C108.673 149.643 107.772 148.939 107.772 147.461ZM119.628 145.477C119.628 147.929 118.131 149.643 115.95 149.643C113.749 149.643 112.271 147.929 112.271 145.477C112.271 143.024 113.749 141.311 115.95 141.311C118.131 141.311 119.628 143.024 119.628 145.477ZM118.258 145.477C118.258 143.728 117.392 142.501 115.95 142.501C114.507 142.501 113.641 143.728 113.641 145.477C113.641 147.226 114.507 148.452 115.95 148.452C117.392 148.452 118.258 147.226 118.258 145.477ZM129.19 141.438V142.826C128.974 142.682 128.631 142.61 128.288 142.61C127.441 142.61 126.702 143.169 126.431 144.106V149.48H125.079V141.474H126.431V142.519C126.774 141.834 127.531 141.311 128.415 141.311C128.757 141.311 129.046 141.365 129.19 141.438ZM132.045 141.474V149.48H130.692V141.474H132.045ZM132.243 139.057C132.243 139.526 131.846 139.923 131.359 139.923C130.89 139.923 130.494 139.526 130.494 139.057C130.494 138.57 130.89 138.192 131.359 138.192C131.846 138.192 132.243 138.57 132.243 139.057ZM133.613 147.28H135.02C135.272 148.11 135.975 148.506 136.913 148.506C137.869 148.506 138.554 148.128 138.554 147.316C138.554 146.757 138.193 146.415 137.364 146.198L135.777 145.783C134.641 145.495 133.848 144.918 133.848 143.674C133.848 142.249 135.092 141.311 136.715 141.311C138.482 141.311 139.528 142.177 139.816 143.583H138.464C138.23 142.862 137.671 142.447 136.697 142.447C135.903 142.447 135.164 142.826 135.164 143.601C135.164 144.142 135.525 144.395 136.282 144.611L137.833 144.99C139.203 145.351 139.871 146.108 139.871 147.226C139.871 148.741 138.608 149.643 136.895 149.643C135.146 149.643 133.866 148.759 133.613 147.28ZM146.832 149.48L143.785 145.783L142.919 146.613V149.48H141.567V137.759H142.919V145.026L146.58 141.474H148.365L144.759 144.936L148.491 149.48H146.832ZM149.042 151.41L150.178 149.498C149.727 149.426 149.384 149.12 149.384 148.597C149.384 148.038 149.817 147.641 150.358 147.641C150.899 147.641 151.314 148.02 151.314 148.687C151.314 149.065 151.134 149.48 150.917 149.823L149.961 151.41H149.042ZM161.802 141.474L163.443 147.587L165.21 141.474H166.527L164.164 149.48H162.848L161.189 143.403L159.512 149.48H158.195L155.833 141.474H157.185L158.953 147.587L160.594 141.474H161.802ZM167.877 149.48V137.759H169.23V142.483C169.699 141.852 170.564 141.311 171.592 141.311C173.413 141.311 174.405 142.483 174.405 144.233V149.48H173.035V144.449C173.035 143.331 172.476 142.556 171.268 142.556C170.33 142.556 169.518 143.187 169.23 144.052V149.48H167.877ZM177.872 141.474V149.48H176.52V141.474H177.872ZM178.071 139.057C178.071 139.526 177.674 139.923 177.187 139.923C176.718 139.923 176.321 139.526 176.321 139.057C176.321 138.57 176.718 138.192 177.187 138.192C177.674 138.192 178.071 138.57 178.071 139.057ZM181.461 137.759V149.48H180.108V137.759H181.461ZM188.746 147.082H190.026C189.737 148.597 188.601 149.643 186.798 149.643C184.616 149.643 183.119 147.965 183.119 145.495C183.119 143.097 184.58 141.311 186.762 141.311C188.962 141.311 190.134 142.916 190.134 145.242V145.729H184.472C184.49 147.442 185.446 148.488 186.798 148.488C187.79 148.488 188.529 147.983 188.746 147.082ZM186.78 142.465C185.572 142.465 184.706 143.295 184.508 144.701H188.764C188.746 143.511 188.114 142.465 186.78 142.465ZM200.606 147.082H201.887C201.598 148.597 200.462 149.643 198.659 149.643C196.477 149.643 194.98 147.965 194.98 145.495C194.98 143.097 196.441 141.311 198.623 141.311C200.823 141.311 201.995 142.916 201.995 145.242V145.729H196.333C196.351 147.442 197.306 148.488 198.659 148.488C199.651 148.488 200.39 147.983 200.606 147.082ZM198.641 142.465C197.433 142.465 196.567 143.295 196.369 144.701H200.625C200.606 143.511 199.975 142.465 198.641 142.465ZM209.425 149.48H208.127V148.885C207.82 149.21 206.973 149.624 206.017 149.624C204.394 149.624 203.042 148.651 203.042 147.064C203.042 145.567 204.394 144.557 206.107 144.557C206.937 144.557 207.784 144.9 208.127 145.206V144.197C208.127 143.205 207.514 142.483 206.36 142.483C205.512 142.483 204.971 142.844 204.719 143.583H203.384C203.655 142.231 204.845 141.311 206.378 141.311C208.289 141.311 209.425 142.393 209.425 144.142V149.48ZM208.127 147.497V146.667C207.892 146.072 207.081 145.675 206.251 145.675C205.278 145.675 204.34 146.108 204.34 147.064C204.34 148.038 205.278 148.488 206.251 148.488C207.081 148.488 207.892 148.092 208.127 147.497ZM215.668 141.438V142.826C215.452 142.682 215.109 142.61 214.766 142.61C213.919 142.61 213.18 143.169 212.909 144.106V149.48H211.557V141.474H212.909V142.519C213.252 141.834 214.009 141.311 214.893 141.311C215.235 141.311 215.524 141.365 215.668 141.438ZM217.17 149.48V141.474H218.523V142.483C218.991 141.852 219.857 141.311 220.885 141.311C222.706 141.311 223.698 142.483 223.698 144.233V149.48H222.328V144.449C222.328 143.331 221.768 142.556 220.56 142.556C219.623 142.556 218.811 143.187 218.523 144.052V149.48H217.17ZM227.165 141.474V149.48H225.813V141.474H227.165ZM227.363 139.057C227.363 139.526 226.967 139.923 226.48 139.923C226.011 139.923 225.614 139.526 225.614 139.057C225.614 138.57 226.011 138.192 226.48 138.192C226.967 138.192 227.363 138.57 227.363 139.057ZM229.401 149.48V141.474H230.753V142.483C231.222 141.852 232.088 141.311 233.116 141.311C234.937 141.311 235.929 142.483 235.929 144.233V149.48H234.558V144.449C234.558 143.331 233.999 142.556 232.791 142.556C231.853 142.556 231.042 143.187 230.753 144.052V149.48H229.401ZM243.291 148.939V148.344C242.894 148.903 242.047 149.426 241.055 149.426C238.71 149.426 237.466 147.479 237.466 145.369C237.466 143.241 238.71 141.311 241.055 141.311C242.047 141.311 242.894 141.816 243.291 142.375V141.474H244.661V148.849C244.661 151.482 243.147 152.726 241.091 152.726C239.143 152.726 237.917 151.716 237.665 150.075H238.999C239.233 151.085 239.991 151.572 241.091 151.572C242.533 151.572 243.291 150.67 243.291 148.939ZM243.291 146.956V143.764C242.876 143.006 242.119 142.519 241.253 142.519C239.738 142.519 238.855 143.71 238.855 145.369C238.855 147.01 239.738 148.2 241.253 148.2C242.119 148.2 242.876 147.713 243.291 146.956ZM256.503 149.48H255.205V148.885C254.898 149.21 254.051 149.624 253.095 149.624C251.472 149.624 250.12 148.651 250.12 147.064C250.12 145.567 251.472 144.557 253.185 144.557C254.015 144.557 254.862 144.9 255.205 145.206V144.197C255.205 143.205 254.592 142.483 253.438 142.483C252.59 142.483 252.049 142.844 251.797 143.583H250.462C250.733 142.231 251.923 141.311 253.456 141.311C255.367 141.311 256.503 142.393 256.503 144.142V149.48ZM255.205 147.497V146.667C254.97 146.072 254.159 145.675 253.329 145.675C252.356 145.675 251.418 146.108 251.418 147.064C251.418 148.038 252.356 148.488 253.329 148.488C254.159 148.488 254.97 148.092 255.205 147.497ZM261.767 147.28H263.174C263.426 148.11 264.129 148.506 265.067 148.506C266.023 148.506 266.708 148.128 266.708 147.316C266.708 146.757 266.347 146.415 265.518 146.198L263.931 145.783C262.795 145.495 262.001 144.918 262.001 143.674C262.001 142.249 263.246 141.311 264.869 141.311C266.636 141.311 267.682 142.177 267.97 143.583H266.618C266.384 142.862 265.824 142.447 264.851 142.447C264.057 142.447 263.318 142.826 263.318 143.601C263.318 144.142 263.679 144.395 264.436 144.611L265.987 144.99C267.357 145.351 268.025 146.108 268.025 147.226C268.025 148.741 266.762 149.643 265.049 149.643C263.3 149.643 262.02 148.759 261.767 147.28ZM270.099 147.461V142.628H268.801V141.474H270.099V139.364H271.452V141.474H273.381V142.628H271.452V147.316C271.452 148.092 271.831 148.434 272.516 148.434C272.895 148.434 273.291 148.29 273.562 148.11V149.372C273.255 149.534 272.786 149.643 272.299 149.643C271.001 149.643 270.099 148.939 270.099 147.461ZM280.225 147.082H281.505C281.217 148.597 280.081 149.643 278.277 149.643C276.095 149.643 274.599 147.965 274.599 145.495C274.599 143.097 276.059 141.311 278.241 141.311C280.441 141.311 281.613 142.916 281.613 145.242V145.729H275.951C275.969 147.442 276.925 148.488 278.277 148.488C279.269 148.488 280.009 147.983 280.225 147.082ZM278.259 142.465C277.051 142.465 276.186 143.295 275.987 144.701H280.243C280.225 143.511 279.594 142.465 278.259 142.465ZM289.044 149.48H287.745V148.885C287.439 149.21 286.591 149.624 285.635 149.624C284.012 149.624 282.66 148.651 282.66 147.064C282.66 145.567 284.012 144.557 285.726 144.557C286.555 144.557 287.403 144.9 287.745 145.206V144.197C287.745 143.205 287.132 142.483 285.978 142.483C285.13 142.483 284.589 142.844 284.337 143.583H283.003C283.273 142.231 284.463 141.311 285.996 141.311C287.908 141.311 289.044 142.393 289.044 144.142V149.48ZM287.745 147.497V146.667C287.511 146.072 286.699 145.675 285.87 145.675C284.896 145.675 283.958 146.108 283.958 147.064C283.958 148.038 284.896 148.488 285.87 148.488C286.699 148.488 287.511 148.092 287.745 147.497ZM296.459 149.48V148.543C296.062 149.12 295.196 149.643 294.205 149.643C291.86 149.643 290.598 147.749 290.598 145.477C290.598 143.223 291.86 141.311 294.205 141.311C295.196 141.311 296.062 141.834 296.459 142.411V137.759H297.829V149.48H296.459ZM296.459 147.1V143.854C296.044 143.024 295.251 142.538 294.403 142.538C292.87 142.538 291.969 143.782 291.969 145.477C291.969 147.172 292.87 148.416 294.403 148.416C295.251 148.416 296.044 147.929 296.459 147.1ZM302.409 152.546H301.074L302.283 149.534L299.163 141.474H300.624L302.986 147.785L305.312 141.474H306.719L302.409 152.546ZM314.234 152.546H312.9L314.108 149.534L310.989 141.474H312.449L314.812 147.785L317.138 141.474H318.544L314.234 152.546ZM321.251 141.474V149.48H319.898V141.474H321.251ZM321.449 139.057C321.449 139.526 321.052 139.923 320.565 139.923C320.097 139.923 319.7 139.526 319.7 139.057C319.7 138.57 320.097 138.192 320.565 138.192C321.052 138.192 321.449 138.57 321.449 139.057ZM328.536 147.082H329.816C329.528 148.597 328.391 149.643 326.588 149.643C324.406 149.643 322.909 147.965 322.909 145.495C322.909 143.097 324.37 141.311 326.552 141.311C328.752 141.311 329.924 142.916 329.924 145.242V145.729H324.262C324.28 147.442 325.236 148.488 326.588 148.488C327.58 148.488 328.319 147.983 328.536 147.082ZM326.57 142.465C325.362 142.465 324.496 143.295 324.298 144.701H328.554C328.536 143.511 327.905 142.465 326.57 142.465ZM332.9 137.759V149.48H331.548V137.759H332.9ZM340.42 149.48V148.543C340.023 149.12 339.157 149.643 338.166 149.643C335.821 149.643 334.559 147.749 334.559 145.477C334.559 143.223 335.821 141.311 338.166 141.311C339.157 141.311 340.023 141.834 340.42 142.411V137.759H341.79V149.48H340.42ZM340.42 147.1V143.854C340.005 143.024 339.212 142.538 338.364 142.538C336.831 142.538 335.93 143.782 335.93 145.477C335.93 147.172 336.831 148.416 338.364 148.416C339.212 148.416 340.005 147.929 340.42 147.1Z" fill="#44407C"/>
<path fill-rule="evenodd" clip-rule="evenodd" d="M36.6875 0.273193C28.8016 0.273193 22.4089 6.66592 22.4089 14.5517V17.0924H22.1999C21.5504 17.0924 20.911 17.1358 20.2845 17.2198C20.1379 14.5488 20.6791 10.124 22.0744 7.2378L23.4141 5.28239C22.9013 5.77423 22.4559 6.44848 22.0744 7.2378L13.0511 20.4081C9.91592 23.0273 7.92139 26.9662 7.92139 31.371V180.35C7.92139 188.236 14.3141 194.629 22.1999 194.629H453.873C458.95 194.629 463.407 191.98 465.939 187.988C469.12 184.349 474.185 178.37 476.701 175.392C479.811 172.773 481.787 168.85 481.787 164.465V14.5517C481.787 6.66592 475.394 0.273193 467.509 0.273193H36.6875Z" fill="#44407C"/>
<rect x="20.8338" y="1.1656" width="460.06" height="176.541" rx="13.3861" fill="#FFFBF5" stroke="#44407C" stroke-width="1.78482"/>
<path fill-rule="evenodd" clip-rule="evenodd" d="M66.5951 33.7408C66.7596 34.1579 67.0897 34.488 67.5068 34.6525L72.9006 36.7798C74.2667 37.3186 74.2667 39.2519 72.9006 39.7906L67.5068 41.9179C67.0897 42.0824 66.7596 42.4126 66.5951 42.8296L64.4678 48.2235C63.929 49.5895 61.9957 49.5895 61.4569 48.2235L59.3296 42.8296C59.1651 42.4126 58.835 42.0824 58.4179 41.9179L53.0241 39.7906C51.658 39.2519 51.658 37.3185 53.0241 36.7798L58.4179 34.6525C58.835 34.488 59.1651 34.1579 59.3296 33.7408L61.4569 28.3469C61.9957 26.9809 63.929 26.9809 64.4678 28.3469L66.5951 33.7408ZM66.2845 36.7798C67.6505 37.3186 67.6505 39.2519 66.2845 39.7906L65.6354 40.0466C65.2184 40.2111 64.8882 40.5412 64.7237 40.9583L64.4678 41.6073C63.929 42.9734 61.9957 42.9734 61.4569 41.6073L61.2009 40.9583C61.0365 40.5412 60.7063 40.2111 60.2893 40.0466L59.6402 39.7906C58.2742 39.2519 58.2742 37.3185 59.6402 36.7798L60.2893 36.5238C60.7063 36.3593 61.0365 36.0292 61.2009 35.6121L61.4569 34.9631C61.9957 33.597 63.929 33.597 64.4678 34.9631L64.7237 35.6121C64.8882 36.0292 65.2184 36.3593 65.6354 36.5238L66.2845 36.7798Z" fill="#4840BB"/>
<path fill-rule="evenodd" clip-rule="evenodd" d="M61.3441 58.9182C61.3441 60.9291 59.7139 62.5593 57.7029 62.5593C55.692 62.5593 54.0618 60.9291 54.0618 58.9182C54.0618 56.9073 55.692 55.2771 57.7029 55.2771C59.7139 55.2771 61.3441 56.9073 61.3441 58.9182ZM58.9167 58.9182C58.9167 59.5885 58.3733 60.1319 57.7029 60.1319C57.0326 60.1319 56.4892 59.5885 56.4892 58.9182C56.4892 58.2479 57.0326 57.7045 57.7029 57.7045C58.3733 57.7045 58.9167 58.2479 58.9167 58.9182Z" fill="#4840BB"/>
<path d="M73.6489 67.4638C73.2993 66.5773 72.0447 66.5773 71.695 67.4638C71.5883 67.7345 71.3741 67.9487 71.1034 68.0555C70.2169 68.4051 70.2169 69.6597 71.1034 70.0093C71.3741 70.1161 71.5883 70.3303 71.695 70.601C72.0447 71.4875 73.2993 71.4875 73.6489 70.601C73.7557 70.3303 73.9699 70.1161 74.2406 70.0093C75.1271 69.6597 75.1271 68.4051 74.2406 68.0555C73.9699 67.9487 73.7557 67.7345 73.6489 67.4638Z" fill="#4840BB"/>
<path d="M84.6412 31.8618C84.9909 30.9753 86.2455 30.9753 86.5951 31.8618C86.7019 32.1324 86.9161 32.3467 87.1868 32.4534C88.0733 32.8031 88.0733 34.0577 87.1868 34.4073C86.9161 34.5141 86.7019 34.7283 86.5951 34.999C86.2455 35.8855 84.9909 35.8855 84.6412 34.999C84.5345 34.7283 84.3203 34.5141 84.0496 34.4073C83.1631 34.0577 83.1631 32.8031 84.0496 32.4534C84.3203 32.3467 84.5345 32.1324 84.6412 31.8618Z" fill="#4840BB"/>
<path fill-rule="evenodd" clip-rule="evenodd" d="M71.2749 51.1748C70.6429 50.5428 70.6429 49.5182 71.2749 48.8862L73.5635 46.5976C74.1955 45.9657 75.2201 45.9657 75.8521 46.5976L101.083 71.8286C101.715 72.4606 101.715 73.4852 101.083 74.1172L98.7944 76.4057C98.1625 77.0377 97.1378 77.0377 96.5059 76.4057L71.2749 51.1748ZM74.1356 50.6027C73.8196 50.2867 73.8196 49.7744 74.1356 49.4584C74.4516 49.1424 74.9639 49.1424 75.2799 49.4584L83.5953 57.7738C83.9113 58.0898 83.9113 58.6021 83.5953 58.9181C83.2793 59.2341 82.767 59.2341 82.451 58.9181L74.1356 50.6027Z" fill="#4840BB"/>
<path d="M123.662 38.4932H143.401V44.6983H130.766V49.0148H142.322V55.085H130.766V59.8512H143.401V66.1012H123.662V38.4932ZM164.292 66.1012H157.502V65.067C156.828 65.7415 154.804 66.4609 152.646 66.4609C148.644 66.4609 145.272 64.2127 145.272 59.9411C145.272 56.0292 148.644 53.5112 153.051 53.5112C154.714 53.5112 156.693 54.0508 157.502 54.6353V53.3314C157.502 52.0274 156.738 50.9033 155.029 50.9033C153.725 50.9033 152.961 51.4879 152.646 52.3871H145.991C146.576 48.4753 150.038 45.3727 155.254 45.3727C161.009 45.3727 164.292 48.4303 164.292 53.6911V66.1012ZM157.502 60.4357V59.2667C157.053 58.4123 155.838 57.8728 154.535 57.8728C153.141 57.8728 151.747 58.4573 151.747 59.8062C151.747 61.2001 153.141 61.7846 154.535 61.7846C155.838 61.7846 157.053 61.2451 157.502 60.4357ZM166.115 59.8512H172.994C173.309 60.9753 174.298 61.6048 175.557 61.6048C176.726 61.6048 177.625 61.1551 177.625 60.2109C177.625 59.4465 177.041 59.1767 176.052 58.9519L172.095 58.1425C168.722 57.4231 166.519 55.8044 166.519 52.2522C166.519 47.9357 170.386 45.4177 175.152 45.4177C180.683 45.4177 183.696 47.9807 184.325 51.9825H177.805C177.58 51.1281 176.951 50.3638 175.332 50.3638C174.298 50.3638 173.444 50.8134 173.444 51.7127C173.444 52.3422 173.893 52.6569 174.838 52.8368L178.839 53.781C182.526 54.6353 184.505 56.5688 184.505 59.8512C184.505 64.1677 180.593 66.5508 175.647 66.5508C170.476 66.5508 166.744 64.2127 166.115 59.8512ZM196.268 73.2505H189.299L192.266 65.6066L184.712 45.8673H192.042L195.909 57.3782L199.686 45.8673H206.7L196.268 73.2505ZM218.442 59.1318V51.353H215.475V45.8673H218.442V40.2918H225.412V45.8673H229.638V51.353H225.412V58.0976C225.412 59.6713 226.176 60.3458 227.57 60.3458C228.334 60.3458 229.189 60.1659 229.818 59.8961V65.8764C229.009 66.2361 227.48 66.5059 225.906 66.5059C221.14 66.5059 218.442 64.2577 218.442 59.1318ZM252.14 55.9843C252.14 62.2343 247.959 66.5508 241.799 66.5508C235.684 66.5508 231.457 62.2343 231.457 55.9843C231.457 49.7343 235.684 45.4177 241.799 45.4177C247.959 45.4177 252.14 49.7343 252.14 55.9843ZM245.216 55.9843C245.216 53.1965 244.002 51.2181 241.799 51.2181C239.64 51.2181 238.426 53.1965 238.426 55.9843C238.426 58.772 239.64 60.7055 241.799 60.7055C244.002 60.7055 245.216 58.772 245.216 55.9843ZM280.839 47.8458C282.053 46.5868 284.122 45.4177 287.089 45.4177C291.316 45.4177 293.924 48.2954 293.924 52.8368V66.1012H286.865V54.5454C286.865 52.8368 286.145 51.6228 284.571 51.6228C283.357 51.6228 282.323 52.3871 281.964 53.781V66.1012H274.949V54.5454C274.949 52.8368 274.23 51.6228 272.656 51.6228C271.442 51.6228 270.363 52.3871 270.048 53.781V66.1012H262.989V45.8673H270.048V47.531C271.082 46.272 273.016 45.4177 275.264 45.4177C277.827 45.4177 279.625 46.4069 280.839 47.8458ZM315.127 66.1012H308.337V65.067C307.663 65.7415 305.64 66.4609 303.481 66.4609C299.48 66.4609 296.107 64.2127 296.107 59.9411C296.107 56.0292 299.48 53.5112 303.886 53.5112C305.55 53.5112 307.528 54.0508 308.337 54.6353V53.3314C308.337 52.0274 307.573 50.9033 305.864 50.9033C304.56 50.9033 303.796 51.4879 303.481 52.3871H296.827C297.411 48.4753 300.873 45.3727 306.089 45.3727C311.845 45.3727 315.127 48.4303 315.127 53.6911V66.1012ZM308.337 60.4357V59.2667C307.888 58.4123 306.674 57.8728 305.37 57.8728C303.976 57.8728 302.582 58.4573 302.582 59.8062C302.582 61.2001 303.976 61.7846 305.37 61.7846C306.674 61.7846 307.888 61.2451 308.337 60.4357ZM318.119 66.1012V45.8673H325.178V47.6209C326.302 46.3619 328.281 45.4177 330.619 45.4177C335.115 45.4177 337.768 48.3404 337.768 52.8368V66.1012H330.754V54.5454C330.754 52.8817 329.899 51.6677 328.101 51.6677C326.707 51.6677 325.538 52.4771 325.178 53.871V66.1012H318.119ZM359.016 66.1012H352.227V65.067C351.552 65.7415 349.529 66.4609 347.371 66.4609C343.369 66.4609 339.996 64.2127 339.996 59.9411C339.996 56.0292 343.369 53.5112 347.775 53.5112C349.439 53.5112 351.417 54.0508 352.227 54.6353V53.3314C352.227 52.0274 351.462 50.9033 349.754 50.9033C348.45 50.9033 347.685 51.4879 347.371 52.3871H340.716C341.3 48.4753 344.763 45.3727 349.978 45.3727C355.734 45.3727 359.016 48.4303 359.016 53.6911V66.1012ZM352.227 60.4357V59.2667C351.777 58.4123 350.563 57.8728 349.259 57.8728C347.865 57.8728 346.471 58.4573 346.471 59.8062C346.471 61.2001 347.865 61.7846 349.259 61.7846C350.563 61.7846 351.777 61.2451 352.227 60.4357ZM374.688 64.7073V63.2685C373.789 64.3026 372.125 65.2469 369.877 65.2469C364.211 65.2469 360.929 60.8854 360.929 55.3098C360.929 49.7792 364.211 45.4177 369.877 45.4177C372.125 45.4177 373.789 46.317 374.688 47.3961V45.8673H381.657V63.1785C381.657 70.2829 377.296 73.7001 371.136 73.7001C365.74 73.7001 361.873 71.0472 361.154 66.371H367.943C368.348 67.8098 369.427 68.5293 371.136 68.5293C373.339 68.5293 374.688 67.3602 374.688 64.7073ZM374.688 57.9177V52.7019C374.148 51.8026 373.024 50.9933 371.63 50.9933C369.292 50.9933 367.898 52.7918 367.898 55.3098C367.898 57.8728 369.292 59.6264 371.63 59.6264C373.024 59.6264 374.148 58.862 374.688 57.9177ZM397.192 59.0418H403.712C402.992 63.7181 399.485 66.5508 394.224 66.5508C388.019 66.5508 383.927 62.2792 383.927 55.9843C383.927 49.7343 388.244 45.4177 394.089 45.4177C400.294 45.4177 403.802 49.5544 403.802 55.5796V57.3332H390.717C390.942 59.7613 392.201 61.0652 394.224 61.0652C395.663 61.0652 396.787 60.4357 397.192 59.0418ZM394.089 50.9033C392.426 50.9033 391.302 51.9375 390.852 53.826H396.967C396.877 52.1623 395.843 50.9033 394.089 50.9033Z" fill="#44407C"/>
<path d="M53.1711 100.499H54.6111C55.0251 101.723 56.0691 102.335 57.4191 102.335C58.8591 102.335 59.8671 101.633 59.8671 100.409C59.8671 99.545 59.3811 98.987 58.1031 98.663L56.1231 98.141C54.5931 97.745 53.4771 96.971 53.4771 95.297C53.4771 93.425 55.0251 92.165 57.1131 92.165C59.3991 92.165 60.7491 93.335 61.1631 95.081H59.7411C59.3991 94.091 58.5711 93.371 57.1131 93.371C55.7991 93.371 54.8271 94.055 54.8271 95.189C54.8271 96.125 55.4391 96.575 56.5911 96.881L58.4811 97.367C60.2451 97.817 61.2351 98.771 61.2351 100.337C61.2351 102.335 59.6151 103.541 57.4191 103.541C55.2231 103.541 53.5851 102.443 53.1711 100.499ZM68.3773 103.379L65.3353 99.689L64.4713 100.517V103.379H63.1213V91.679H64.4713V98.933L68.1253 95.387H69.9073L66.3073 98.843L70.0333 103.379H68.3773ZM72.8209 95.387V103.379H71.4709V95.387H72.8209ZM73.0189 92.975C73.0189 93.443 72.6229 93.839 72.1369 93.839C71.6689 93.839 71.2729 93.443 71.2729 92.975C71.2729 92.489 71.6689 92.111 72.1369 92.111C72.6229 92.111 73.0189 92.489 73.0189 92.975ZM76.5826 102.443V106.439H75.2326V95.387H76.5826V96.323C76.9966 95.747 77.8426 95.225 78.8326 95.225C81.1906 95.225 82.4326 97.169 82.4326 99.383C82.4326 101.597 81.1906 103.541 78.8326 103.541C77.8426 103.541 76.9966 103.019 76.5826 102.443ZM76.5826 97.763V101.003C76.9966 101.831 77.7886 102.317 78.6346 102.317C80.1646 102.317 81.0646 101.075 81.0646 99.383C81.0646 97.691 80.1646 96.449 78.6346 96.449C77.7886 96.449 76.9966 96.935 76.5826 97.763ZM88.6184 101.363V96.539H87.3224V95.387H88.6184V93.281H89.9684V95.387H91.8944V96.539H89.9684V101.219C89.9684 101.993 90.3464 102.335 91.0304 102.335C91.4084 102.335 91.8044 102.191 92.0744 102.011V103.271C91.7684 103.433 91.3004 103.541 90.8144 103.541C89.5184 103.541 88.6184 102.839 88.6184 101.363ZM93.9533 103.379V91.679H95.3033V96.395C95.7713 95.765 96.6353 95.225 97.6613 95.225C99.4793 95.225 100.469 96.395 100.469 98.141V103.379H99.1013V98.357C99.1013 97.241 98.5433 96.467 97.3373 96.467C96.4013 96.467 95.5913 97.097 95.3033 97.961V103.379H93.9533ZM107.8 100.985H109.078C108.79 102.497 107.656 103.541 105.856 103.541C103.678 103.541 102.184 101.867 102.184 99.401C102.184 97.007 103.642 95.225 105.82 95.225C108.016 95.225 109.186 96.827 109.186 99.149V99.635H103.534C103.552 101.345 104.506 102.389 105.856 102.389C106.846 102.389 107.584 101.885 107.8 100.985ZM105.838 96.377C104.632 96.377 103.768 97.205 103.57 98.609H107.818C107.8 97.421 107.17 96.377 105.838 96.377ZM114.959 103.379V91.679H116.309V96.395C116.777 95.765 117.641 95.225 118.667 95.225C120.485 95.225 121.475 96.395 121.475 98.141V103.379H120.107V98.357C120.107 97.241 119.549 96.467 118.343 96.467C117.407 96.467 116.597 97.097 116.309 97.961V103.379H114.959ZM128.806 100.985H130.084C129.796 102.497 128.662 103.541 126.862 103.541C124.684 103.541 123.19 101.867 123.19 99.401C123.19 97.007 124.648 95.225 126.826 95.225C129.022 95.225 130.192 96.827 130.192 99.149V99.635H124.54C124.558 101.345 125.512 102.389 126.862 102.389C127.852 102.389 128.59 101.885 128.806 100.985ZM126.844 96.377C125.638 96.377 124.774 97.205 124.576 98.609H128.824C128.806 97.421 128.176 96.377 126.844 96.377ZM137.788 103.379H136.492V102.785C136.186 103.109 135.34 103.523 134.386 103.523C132.766 103.523 131.416 102.551 131.416 100.967C131.416 99.473 132.766 98.465 134.476 98.465C135.304 98.465 136.15 98.807 136.492 99.113V98.105C136.492 97.115 135.88 96.395 134.728 96.395C133.882 96.395 133.342 96.755 133.09 97.493H131.758C132.028 96.143 133.216 95.225 134.746 95.225C136.654 95.225 137.788 96.305 137.788 98.051V103.379ZM136.492 101.399V100.571C136.258 99.977 135.448 99.581 134.62 99.581C133.648 99.581 132.712 100.013 132.712 100.967C132.712 101.939 133.648 102.389 134.62 102.389C135.448 102.389 136.258 101.993 136.492 101.399ZM145.37 103.379V102.443C144.974 103.019 144.11 103.541 143.12 103.541C140.78 103.541 139.52 101.651 139.52 99.383C139.52 97.133 140.78 95.225 143.12 95.225C144.11 95.225 144.974 95.747 145.37 96.323V91.679H146.738V103.379H145.37ZM145.37 101.003V97.763C144.956 96.935 144.164 96.449 143.318 96.449C141.788 96.449 140.888 97.691 140.888 99.383C140.888 101.075 141.788 102.317 143.318 102.317C144.164 102.317 144.956 101.831 145.37 101.003ZM154.927 103.379H153.631V102.785C153.325 103.109 152.479 103.523 151.525 103.523C149.905 103.523 148.555 102.551 148.555 100.967C148.555 99.473 149.905 98.465 151.615 98.465C152.443 98.465 153.289 98.807 153.631 99.113V98.105C153.631 97.115 153.019 96.395 151.867 96.395C151.021 96.395 150.481 96.755 150.229 97.493H148.897C149.167 96.143 150.355 95.225 151.885 95.225C153.793 95.225 154.927 96.305 154.927 98.051V103.379ZM153.631 101.399V100.571C153.397 99.977 152.587 99.581 151.759 99.581C150.787 99.581 149.851 100.013 149.851 100.967C149.851 101.939 150.787 102.389 151.759 102.389C152.587 102.389 153.397 101.993 153.631 101.399ZM156.659 99.383C156.659 96.899 158.153 95.225 160.295 95.225C162.095 95.225 163.229 96.269 163.499 97.799H162.113C161.933 96.935 161.249 96.413 160.295 96.413C158.927 96.413 158.027 97.637 158.027 99.383C158.027 101.129 158.927 102.353 160.295 102.353C161.249 102.353 161.933 101.831 162.113 100.967H163.499C163.229 102.497 162.095 103.541 160.295 103.541C158.153 103.541 156.659 101.867 156.659 99.383ZM165.268 103.379V91.679H166.618V96.395C167.086 95.765 167.95 95.225 168.976 95.225C170.794 95.225 171.784 96.395 171.784 98.141V103.379H170.416V98.357C170.416 97.241 169.858 96.467 168.652 96.467C167.716 96.467 166.906 97.097 166.618 97.961V103.379H165.268ZM179.114 100.985H180.392C180.104 102.497 178.97 103.541 177.17 103.541C174.992 103.541 173.498 101.867 173.498 99.401C173.498 97.007 174.956 95.225 177.134 95.225C179.33 95.225 180.5 96.827 180.5 99.149V99.635H174.848C174.866 101.345 175.82 102.389 177.17 102.389C178.16 102.389 178.898 101.885 179.114 100.985ZM177.152 96.377C175.946 96.377 175.082 97.205 174.884 98.609H179.132C179.114 97.421 178.484 96.377 177.152 96.377ZM193.042 99.383C193.042 101.831 191.548 103.541 189.37 103.541C187.174 103.541 185.698 101.831 185.698 99.383C185.698 96.935 187.174 95.225 189.37 95.225C191.548 95.225 193.042 96.935 193.042 99.383ZM191.674 99.383C191.674 97.637 190.81 96.413 189.37 96.413C187.93 96.413 187.066 97.637 187.066 99.383C187.066 101.129 187.93 102.353 189.37 102.353C190.81 102.353 191.674 101.129 191.674 99.383ZM198.865 91.697V92.921C198.613 92.759 198.307 92.705 198.019 92.705C197.227 92.705 196.705 93.209 196.705 94.163V95.387H198.505V96.539H196.705V103.379H195.373V96.539H194.023V95.387H195.373V94.055C195.373 92.453 196.417 91.517 197.821 91.517C198.253 91.517 198.559 91.571 198.865 91.697ZM205.395 102.443V103.379H204.027V91.679H205.395V96.323C205.791 95.747 206.655 95.225 207.645 95.225C209.985 95.225 211.245 97.133 211.245 99.383C211.245 101.651 209.985 103.541 207.645 103.541C206.655 103.541 205.791 103.019 205.395 102.443ZM205.395 97.763V101.003C205.809 101.831 206.601 102.317 207.447 102.317C208.977 102.317 209.877 101.075 209.877 99.383C209.877 97.691 208.977 96.449 207.447 96.449C206.601 96.449 205.809 96.935 205.395 97.763ZM219.452 95.387V103.379H218.084V102.371C217.634 103.001 216.788 103.541 215.762 103.541C213.944 103.541 212.972 102.371 212.972 100.625V95.387H214.34V100.409C214.34 101.525 214.88 102.299 216.086 102.299C217.022 102.299 217.796 101.669 218.084 100.805V95.387H219.452ZM224.21 106.439H222.878L224.084 103.433L220.97 95.387H222.428L224.786 101.687L227.108 95.387H228.512L224.21 106.439ZM231.393 95.387V103.379H230.043V95.387H231.393ZM231.591 92.975C231.591 93.443 231.195 93.839 230.709 93.839C230.241 93.839 229.845 93.443 229.845 92.975C229.845 92.489 230.241 92.111 230.709 92.111C231.195 92.111 231.591 92.489 231.591 92.975ZM233.805 103.379V95.387H235.155V96.395C235.623 95.765 236.487 95.225 237.513 95.225C239.331 95.225 240.321 96.395 240.321 98.141V103.379H238.953V98.357C238.953 97.241 238.395 96.467 237.189 96.467C236.253 96.467 235.443 97.097 235.155 97.961V103.379H233.805ZM247.85 102.839V102.245C247.454 102.803 246.608 103.325 245.618 103.325C243.278 103.325 242.036 101.381 242.036 99.275C242.036 97.151 243.278 95.225 245.618 95.225C246.608 95.225 247.454 95.729 247.85 96.287V95.387H249.218V102.749C249.218 105.377 247.706 106.619 245.654 106.619C243.71 106.619 242.486 105.611 242.234 103.973H243.566C243.8 104.981 244.556 105.467 245.654 105.467C247.094 105.467 247.85 104.567 247.85 102.839ZM247.85 100.859V97.673C247.436 96.917 246.68 96.431 245.816 96.431C244.304 96.431 243.422 97.619 243.422 99.275C243.422 100.913 244.304 102.101 245.816 102.101C246.68 102.101 247.436 101.615 247.85 100.859ZM256.952 102.443V103.379H255.584V91.679H256.952V96.323C257.348 95.747 258.212 95.225 259.202 95.225C261.542 95.225 262.802 97.133 262.802 99.383C262.802 101.651 261.542 103.541 259.202 103.541C258.212 103.541 257.348 103.019 256.952 102.443ZM256.952 97.763V101.003C257.366 101.831 258.158 102.317 259.004 102.317C260.534 102.317 261.434 101.075 261.434 99.383C261.434 97.691 260.534 96.449 259.004 96.449C258.158 96.449 257.366 96.935 256.952 97.763ZM271.44 99.383C271.44 101.831 269.946 103.541 267.768 103.541C265.572 103.541 264.096 101.831 264.096 99.383C264.096 96.935 265.572 95.225 267.768 95.225C269.946 95.225 271.44 96.935 271.44 99.383ZM270.072 99.383C270.072 97.637 269.208 96.413 267.768 96.413C266.328 96.413 265.464 97.637 265.464 99.383C265.464 101.129 266.328 102.353 267.768 102.353C269.208 102.353 270.072 101.129 270.072 99.383ZM273.268 103.379V95.387H274.618V96.395C275.086 95.765 275.95 95.225 276.976 95.225C278.794 95.225 279.784 96.395 279.784 98.141V103.379H278.416V98.357C278.416 97.241 277.858 96.467 276.652 96.467C275.716 96.467 274.906 97.097 274.618 97.961V103.379H273.268ZM287.348 103.379V102.443C286.952 103.019 286.088 103.541 285.098 103.541C282.758 103.541 281.498 101.651 281.498 99.383C281.498 97.133 282.758 95.225 285.098 95.225C286.088 95.225 286.952 95.747 287.348 96.323V91.679H288.716V103.379H287.348ZM287.348 101.003V97.763C286.934 96.935 286.142 96.449 285.296 96.449C283.766 96.449 282.866 97.691 282.866 99.383C282.866 101.075 283.766 102.317 285.296 102.317C286.142 102.317 286.934 101.831 287.348 101.003ZM294.506 99.383C294.506 96.899 296 95.225 298.142 95.225C299.942 95.225 301.076 96.269 301.346 97.799H299.96C299.78 96.935 299.096 96.413 298.142 96.413C296.774 96.413 295.874 97.637 295.874 99.383C295.874 101.129 296.774 102.353 298.142 102.353C299.096 102.353 299.78 101.831 299.96 100.967H301.346C301.076 102.497 299.942 103.541 298.142 103.541C296 103.541 294.506 101.867 294.506 99.383ZM308.12 100.985H309.398C309.11 102.497 307.976 103.541 306.176 103.541C303.998 103.541 302.504 101.867 302.504 99.401C302.504 97.007 303.962 95.225 306.14 95.225C308.336 95.225 309.506 96.827 309.506 99.149V99.635H303.854C303.872 101.345 304.826 102.389 306.176 102.389C307.166 102.389 307.904 101.885 308.12 100.985ZM306.158 96.377C304.952 96.377 304.088 97.205 303.89 98.609H308.138C308.12 97.421 307.49 96.377 306.158 96.377ZM315.411 95.351V96.737C315.195 96.593 314.853 96.521 314.511 96.521C313.665 96.521 312.927 97.079 312.657 98.015V103.379H311.307V95.387H312.657V96.431C312.999 95.747 313.755 95.225 314.637 95.225C314.979 95.225 315.267 95.279 315.411 95.351ZM317.468 101.363V96.539H316.172V95.387H317.468V93.281H318.818V95.387H320.744V96.539H318.818V101.219C318.818 101.993 319.196 102.335 319.88 102.335C320.258 102.335 320.654 102.191 320.924 102.011V103.271C320.618 103.433 320.15 103.541 319.664 103.541C318.368 103.541 317.468 102.839 317.468 101.363ZM324.153 95.387V103.379H322.803V95.387H324.153ZM324.351 92.975C324.351 93.443 323.955 93.839 323.469 93.839C323.001 93.839 322.605 93.443 322.605 92.975C322.605 92.489 323.001 92.111 323.469 92.111C323.955 92.111 324.351 92.489 324.351 92.975ZM330.561 91.697V92.921C330.309 92.759 330.003 92.705 329.715 92.705C328.923 92.705 328.401 93.209 328.401 94.163V95.387H330.201V96.539H328.401V103.379H327.069V96.539H325.719V95.387H327.069V94.055C327.069 92.453 328.113 91.517 329.517 91.517C329.949 91.517 330.255 91.571 330.561 91.697ZM333.118 95.387V103.379H331.768V95.387H333.118ZM333.316 92.975C333.316 93.443 332.92 93.839 332.434 93.839C331.966 93.839 331.57 93.443 331.57 92.975C331.57 92.489 331.966 92.111 332.434 92.111C332.92 92.111 333.316 92.489 333.316 92.975ZM334.953 99.383C334.953 96.899 336.447 95.225 338.589 95.225C340.389 95.225 341.523 96.269 341.793 97.799H340.407C340.227 96.935 339.543 96.413 338.589 96.413C337.221 96.413 336.321 97.637 336.321 99.383C336.321 101.129 337.221 102.353 338.589 102.353C339.543 102.353 340.227 101.831 340.407 100.967H341.793C341.523 102.497 340.389 103.541 338.589 103.541C336.447 103.541 334.953 101.867 334.953 99.383ZM349.359 103.379H348.063V102.785C347.757 103.109 346.911 103.523 345.957 103.523C344.337 103.523 342.987 102.551 342.987 100.967C342.987 99.473 344.337 98.465 346.047 98.465C346.875 98.465 347.721 98.807 348.063 99.113V98.105C348.063 97.115 347.451 96.395 346.299 96.395C345.453 96.395 344.913 96.755 344.661 97.493H343.329C343.599 96.143 344.787 95.225 346.317 95.225C348.225 95.225 349.359 96.305 349.359 98.051V103.379ZM348.063 101.399V100.571C347.829 99.977 347.019 99.581 346.191 99.581C345.219 99.581 344.283 100.013 344.283 100.967C344.283 101.939 345.219 102.389 346.191 102.389C347.019 102.389 347.829 101.993 348.063 101.399ZM351.991 101.363V96.539H350.695V95.387H351.991V93.281H353.341V95.387H355.267V96.539H353.341V101.219C353.341 101.993 353.719 102.335 354.403 102.335C354.781 102.335 355.177 102.191 355.447 102.011V103.271C355.141 103.433 354.673 103.541 354.187 103.541C352.891 103.541 351.991 102.839 351.991 101.363ZM362.278 100.985H363.556C363.268 102.497 362.134 103.541 360.334 103.541C358.156 103.541 356.662 101.867 356.662 99.401C356.662 97.007 358.12 95.225 360.298 95.225C362.494 95.225 363.664 96.827 363.664 99.149V99.635H358.012C358.03 101.345 358.984 102.389 360.334 102.389C361.324 102.389 362.062 101.885 362.278 100.985ZM360.316 96.377C359.11 96.377 358.246 97.205 358.048 98.609H362.296C362.278 97.421 361.648 96.377 360.316 96.377ZM364.834 101.183H366.238C366.49 102.011 367.192 102.407 368.128 102.407C369.082 102.407 369.766 102.029 369.766 101.219C369.766 100.661 369.406 100.319 368.578 100.103L366.994 99.689C365.86 99.401 365.068 98.825 365.068 97.583C365.068 96.161 366.31 95.225 367.93 95.225C369.694 95.225 370.738 96.089 371.026 97.493H369.676C369.442 96.773 368.884 96.359 367.912 96.359C367.12 96.359 366.382 96.737 366.382 97.511C366.382 98.051 366.742 98.303 367.498 98.519L369.046 98.897C370.414 99.257 371.08 100.013 371.08 101.129C371.08 102.641 369.82 103.541 368.11 103.541C366.364 103.541 365.086 102.659 364.834 101.183ZM59.7591 125.379H58.4631V124.785C58.1571 125.109 57.3111 125.523 56.3571 125.523C54.7371 125.523 53.3871 124.551 53.3871 122.967C53.3871 121.473 54.7371 120.465 56.4471 120.465C57.2751 120.465 58.1211 120.807 58.4631 121.113V120.105C58.4631 119.115 57.8511 118.395 56.6991 118.395C55.8531 118.395 55.3131 118.755 55.0611 119.493H53.7291C53.9991 118.143 55.1871 117.225 56.7171 117.225C58.6251 117.225 59.7591 118.305 59.7591 120.051V125.379ZM58.4631 123.399V122.571C58.2291 121.977 57.4191 121.581 56.5911 121.581C55.6191 121.581 54.6831 122.013 54.6831 122.967C54.6831 123.939 55.6191 124.389 56.5911 124.389C57.4191 124.389 58.2291 123.993 58.4631 123.399ZM62.0666 125.379V117.387H63.4166V118.395C63.8846 117.765 64.7486 117.225 65.7746 117.225C67.5926 117.225 68.5826 118.395 68.5826 120.141V125.379H67.2146V120.357C67.2146 119.241 66.6566 118.467 65.4506 118.467C64.5146 118.467 63.7046 119.097 63.4166 119.961V125.379H62.0666ZM76.1472 125.379V124.443C75.7512 125.019 74.8872 125.541 73.8972 125.541C71.5572 125.541 70.2972 123.651 70.2972 121.383C70.2972 119.133 71.5572 117.225 73.8972 117.225C74.8872 117.225 75.7512 117.747 76.1472 118.323V113.679H77.5152V125.379H76.1472ZM76.1472 123.003V119.763C75.7332 118.935 74.9412 118.449 74.0952 118.449C72.5652 118.449 71.6652 119.691 71.6652 121.383C71.6652 123.075 72.5652 124.317 74.0952 124.317C74.9412 124.317 75.7332 123.831 76.1472 123.003ZM89.551 118.503C90.055 117.783 90.865 117.225 91.981 117.225C93.601 117.225 94.501 118.359 94.501 120.087V125.379H93.133V120.303C93.133 119.187 92.647 118.449 91.621 118.449C90.811 118.449 90.109 119.007 89.857 119.871V125.379H88.507V120.303C88.507 119.187 88.021 118.449 86.995 118.449C86.185 118.449 85.483 119.007 85.231 119.871V125.379H83.881V117.387H85.231V118.323C85.627 117.693 86.401 117.225 87.391 117.225C88.399 117.225 89.173 117.747 89.551 118.503ZM102.579 125.379H101.283V124.785C100.977 125.109 100.131 125.523 99.1774 125.523C97.5574 125.523 96.2074 124.551 96.2074 122.967C96.2074 121.473 97.5574 120.465 99.2674 120.465C100.095 120.465 100.941 120.807 101.283 121.113V120.105C101.283 119.115 100.671 118.395 99.5194 118.395C98.6734 118.395 98.1334 118.755 97.8814 119.493H96.5494C96.8194 118.143 98.0074 117.225 99.5374 117.225C101.445 117.225 102.579 118.305 102.579 120.051V125.379ZM101.283 123.399V122.571C101.049 121.977 100.239 121.581 99.4114 121.581C98.4394 121.581 97.5034 122.013 97.5034 122.967C97.5034 123.939 98.4394 124.389 99.4114 124.389C100.239 124.389 101.049 123.993 101.283 123.399ZM104.887 125.379V117.387H106.237V118.395C106.705 117.765 107.569 117.225 108.595 117.225C110.413 117.225 111.403 118.395 111.403 120.141V125.379H110.035V120.357C110.035 119.241 109.477 118.467 108.271 118.467C107.335 118.467 106.525 119.097 106.237 119.961V125.379H104.887ZM119.49 125.379H118.194V124.785C117.888 125.109 117.042 125.523 116.088 125.523C114.468 125.523 113.118 124.551 113.118 122.967C113.118 121.473 114.468 120.465 116.178 120.465C117.006 120.465 117.852 120.807 118.194 121.113V120.105C118.194 119.115 117.582 118.395 116.43 118.395C115.584 118.395 115.044 118.755 114.792 119.493H113.46C113.73 118.143 114.918 117.225 116.448 117.225C118.356 117.225 119.49 118.305 119.49 120.051V125.379ZM118.194 123.399V122.571C117.96 121.977 117.15 121.581 116.322 121.581C115.35 121.581 114.414 122.013 114.414 122.967C114.414 123.939 115.35 124.389 116.322 124.389C117.15 124.389 117.96 123.993 118.194 123.399ZM127.035 124.839V124.245C126.639 124.803 125.793 125.325 124.803 125.325C122.463 125.325 121.221 123.381 121.221 121.275C121.221 119.151 122.463 117.225 124.803 117.225C125.793 117.225 126.639 117.729 127.035 118.287V117.387H128.403V124.749C128.403 127.377 126.891 128.619 124.839 128.619C122.895 128.619 121.671 127.611 121.419 125.973H122.751C122.985 126.981 123.741 127.467 124.839 127.467C126.279 127.467 127.035 126.567 127.035 124.839ZM127.035 122.859V119.673C126.621 118.917 125.865 118.431 125.001 118.431C123.489 118.431 122.607 119.619 122.607 121.275C122.607 122.913 123.489 124.101 125.001 124.101C125.865 124.101 126.621 123.615 127.035 122.859ZM132.165 117.387V125.379H130.815V117.387H132.165ZM132.363 114.975C132.363 115.443 131.967 115.839 131.481 115.839C131.013 115.839 130.617 115.443 130.617 114.975C130.617 114.489 131.013 114.111 131.481 114.111C131.967 114.111 132.363 114.489 132.363 114.975ZM134.576 125.379V117.387H135.926V118.395C136.394 117.765 137.258 117.225 138.284 117.225C140.102 117.225 141.092 118.395 141.092 120.141V125.379H139.724V120.357C139.724 119.241 139.166 118.467 137.96 118.467C137.024 118.467 136.214 119.097 135.926 119.961V125.379H134.576ZM148.621 124.839V124.245C148.225 124.803 147.379 125.325 146.389 125.325C144.049 125.325 142.807 123.381 142.807 121.275C142.807 119.151 144.049 117.225 146.389 117.225C147.379 117.225 148.225 117.729 148.621 118.287V117.387H149.989V124.749C149.989 127.377 148.477 128.619 146.425 128.619C144.481 128.619 143.257 127.611 143.005 125.973H144.337C144.571 126.981 145.327 127.467 146.425 127.467C147.865 127.467 148.621 126.567 148.621 124.839ZM148.621 122.859V119.673C148.207 118.917 147.451 118.431 146.587 118.431C145.075 118.431 144.193 119.619 144.193 121.275C144.193 122.913 145.075 124.101 146.587 124.101C147.451 124.101 148.207 123.615 148.621 122.859ZM162.043 118.503C162.547 117.783 163.357 117.225 164.473 117.225C166.093 117.225 166.993 118.359 166.993 120.087V125.379H165.625V120.303C165.625 119.187 165.139 118.449 164.113 118.449C163.303 118.449 162.601 119.007 162.349 119.871V125.379H160.999V120.303C160.999 119.187 160.513 118.449 159.487 118.449C158.677 118.449 157.975 119.007 157.723 119.871V125.379H156.373V117.387H157.723V118.323C158.119 117.693 158.893 117.225 159.883 117.225C160.891 117.225 161.665 117.747 162.043 118.503ZM175.072 125.379H173.776V124.785C173.47 125.109 172.624 125.523 171.67 125.523C170.05 125.523 168.7 124.551 168.7 122.967C168.7 121.473 170.05 120.465 171.76 120.465C172.588 120.465 173.434 120.807 173.776 121.113V120.105C173.776 119.115 173.164 118.395 172.012 118.395C171.166 118.395 170.626 118.755 170.374 119.493H169.042C169.312 118.143 170.5 117.225 172.03 117.225C173.938 117.225 175.072 118.305 175.072 120.051V125.379ZM173.776 123.399V122.571C173.542 121.977 172.732 121.581 171.904 121.581C170.932 121.581 169.996 122.013 169.996 122.967C169.996 123.939 170.932 124.389 171.904 124.389C172.732 124.389 173.542 123.993 173.776 123.399ZM177.379 125.379V117.387H178.729V118.395C179.197 117.765 180.061 117.225 181.087 117.225C182.905 117.225 183.895 118.395 183.895 120.141V125.379H182.527V120.357C182.527 119.241 181.969 118.467 180.763 118.467C179.827 118.467 179.017 119.097 178.729 119.961V125.379H177.379ZM188.456 128.439H187.124L188.33 125.433L185.216 117.387H186.674L189.032 123.687L191.354 117.387H192.758L188.456 128.439ZM203.932 118.503C204.436 117.783 205.246 117.225 206.362 117.225C207.982 117.225 208.882 118.359 208.882 120.087V125.379H207.514V120.303C207.514 119.187 207.028 118.449 206.002 118.449C205.192 118.449 204.49 119.007 204.238 119.871V125.379H202.888V120.303C202.888 119.187 202.402 118.449 201.376 118.449C200.566 118.449 199.864 119.007 199.612 119.871V125.379H198.262V117.387H199.612V118.323C200.008 117.693 200.782 117.225 201.772 117.225C202.78 117.225 203.554 117.747 203.932 118.503ZM216.96 125.379H215.664V124.785C215.358 125.109 214.512 125.523 213.558 125.523C211.938 125.523 210.588 124.551 210.588 122.967C210.588 121.473 211.938 120.465 213.648 120.465C214.476 120.465 215.322 120.807 215.664 121.113V120.105C215.664 119.115 215.052 118.395 213.9 118.395C213.054 118.395 212.514 118.755 212.262 119.493H210.93C211.2 118.143 212.388 117.225 213.918 117.225C215.826 117.225 216.96 118.305 216.96 120.051V125.379ZM215.664 123.399V122.571C215.43 121.977 214.62 121.581 213.792 121.581C212.82 121.581 211.884 122.013 211.884 122.967C211.884 123.939 212.82 124.389 213.792 124.389C214.62 124.389 215.43 123.993 215.664 123.399ZM219.593 123.363V118.539H218.297V117.387H219.593V115.281H220.943V117.387H222.869V118.539H220.943V123.219C220.943 123.993 221.321 124.335 222.005 124.335C222.383 124.335 222.779 124.191 223.049 124.011V125.271C222.743 125.433 222.275 125.541 221.789 125.541C220.493 125.541 219.593 124.839 219.593 123.363ZM231.265 117.387V125.379H229.897V124.371C229.447 125.001 228.601 125.541 227.575 125.541C225.757 125.541 224.785 124.371 224.785 122.625V117.387H226.153V122.409C226.153 123.525 226.693 124.299 227.899 124.299C228.835 124.299 229.609 123.669 229.897 122.805V117.387H231.265ZM237.768 117.351V118.737C237.552 118.593 237.21 118.521 236.868 118.521C236.022 118.521 235.284 119.079 235.014 120.015V125.379H233.664V117.387H235.014V118.431C235.356 117.747 236.112 117.225 236.994 117.225C237.336 117.225 237.624 117.279 237.768 117.351ZM240.797 117.387V125.379H239.447V117.387H240.797ZM240.995 114.975C240.995 115.443 240.599 115.839 240.113 115.839C239.645 115.839 239.249 115.443 239.249 114.975C239.249 114.489 239.645 114.111 240.113 114.111C240.599 114.111 240.995 114.489 240.995 114.975ZM243.587 123.363V118.539H242.291V117.387H243.587V115.281H244.937V117.387H246.863V118.539H244.937V123.219C244.937 123.993 245.315 124.335 245.999 124.335C246.377 124.335 246.773 124.191 247.043 124.011V125.271C246.737 125.433 246.269 125.541 245.783 125.541C244.487 125.541 243.587 124.839 243.587 123.363ZM251.157 128.439H249.825L251.031 125.433L247.917 117.387H249.375L251.733 123.687L254.055 117.387H255.459L251.157 128.439ZM266.237 125.379V124.443C265.841 125.019 264.977 125.541 263.987 125.541C261.647 125.541 260.387 123.651 260.387 121.383C260.387 119.133 261.647 117.225 263.987 117.225C264.977 117.225 265.841 117.747 266.237 118.323V113.679H267.605V125.379H266.237ZM266.237 123.003V119.763C265.823 118.935 265.031 118.449 264.185 118.449C262.655 118.449 261.755 119.691 261.755 121.383C261.755 123.075 262.655 124.317 264.185 124.317C265.031 124.317 265.823 123.831 266.237 123.003ZM275.794 125.379H274.498V124.785C274.192 125.109 273.346 125.523 272.392 125.523C270.772 125.523 269.422 124.551 269.422 122.967C269.422 121.473 270.772 120.465 272.482 120.465C273.31 120.465 274.156 120.807 274.498 121.113V120.105C274.498 119.115 273.886 118.395 272.734 118.395C271.888 118.395 271.348 118.755 271.096 119.493H269.764C270.034 118.143 271.222 117.225 272.752 117.225C274.66 117.225 275.794 118.305 275.794 120.051V125.379ZM274.498 123.399V122.571C274.264 121.977 273.454 121.581 272.626 121.581C271.654 121.581 270.718 122.013 270.718 122.967C270.718 123.939 271.654 124.389 272.626 124.389C273.454 124.389 274.264 123.993 274.498 123.399ZM278.427 123.363V118.539H277.131V117.387H278.427V115.281H279.777V117.387H281.703V118.539H279.777V123.219C279.777 123.993 280.155 124.335 280.839 124.335C281.217 124.335 281.613 124.191 281.883 124.011V125.271C281.577 125.433 281.109 125.541 280.623 125.541C279.327 125.541 278.427 124.839 278.427 123.363ZM288.714 122.985H289.992C289.704 124.497 288.57 125.541 286.77 125.541C284.592 125.541 283.098 123.867 283.098 121.401C283.098 119.007 284.556 117.225 286.734 117.225C288.93 117.225 290.1 118.827 290.1 121.149V121.635H284.448C284.466 123.345 285.42 124.389 286.77 124.389C287.76 124.389 288.498 123.885 288.714 122.985ZM286.752 118.377C285.546 118.377 284.682 119.205 284.484 120.609H288.732C288.714 119.421 288.084 118.377 286.752 118.377ZM291.27 123.183H292.674C292.926 124.011 293.628 124.407 294.564 124.407C295.518 124.407 296.202 124.029 296.202 123.219C296.202 122.661 295.842 122.319 295.014 122.103L293.43 121.689C292.296 121.401 291.504 120.825 291.504 119.583C291.504 118.161 292.746 117.225 294.366 117.225C296.13 117.225 297.174 118.089 297.462 119.493H296.112C295.878 118.773 295.32 118.359 294.348 118.359C293.556 118.359 292.818 118.737 292.818 119.511C292.818 120.051 293.178 120.303 293.934 120.519L295.482 120.897C296.85 121.257 297.516 122.013 297.516 123.129C297.516 124.641 296.256 125.541 294.546 125.541C292.8 125.541 291.522 124.659 291.27 123.183ZM308.438 117.387L310.076 123.489L311.84 117.387H313.154L310.796 125.379H309.482L307.826 119.313L306.152 125.379H304.838L302.48 117.387H303.83L305.594 123.489L307.232 117.387H308.438ZM316.032 117.387V125.379H314.682V117.387H316.032ZM316.23 114.975C316.23 115.443 315.834 115.839 315.348 115.839C314.88 115.839 314.484 115.443 314.484 114.975C314.484 114.489 314.88 114.111 315.348 114.111C315.834 114.111 316.23 114.489 316.23 114.975ZM318.822 123.363V118.539H317.526V117.387H318.822V115.281H320.172V117.387H322.098V118.539H320.172V123.219C320.172 123.993 320.55 124.335 321.234 124.335C321.612 124.335 322.008 124.191 322.278 124.011V125.271C321.972 125.433 321.504 125.541 321.018 125.541C319.722 125.541 318.822 124.839 318.822 123.363ZM324.156 125.379V113.679H325.506V118.395C325.974 117.765 326.838 117.225 327.864 117.225C329.682 117.225 330.672 118.395 330.672 120.141V125.379H329.304V120.357C329.304 119.241 328.746 118.467 327.54 118.467C326.604 118.467 325.794 119.097 325.506 119.961V125.379H324.156ZM342.732 125.379H341.436V124.785C341.13 125.109 340.284 125.523 339.33 125.523C337.71 125.523 336.36 124.551 336.36 122.967C336.36 121.473 337.71 120.465 339.42 120.465C340.248 120.465 341.094 120.807 341.436 121.113V120.105C341.436 119.115 340.824 118.395 339.672 118.395C338.826 118.395 338.286 118.755 338.034 119.493H336.702C336.972 118.143 338.16 117.225 339.69 117.225C341.598 117.225 342.732 118.305 342.732 120.051V125.379ZM341.436 123.399V122.571C341.202 121.977 340.392 121.581 339.564 121.581C338.592 121.581 337.656 122.013 337.656 122.967C337.656 123.939 338.592 124.389 339.564 124.389C340.392 124.389 341.202 123.993 341.436 123.399ZM57.9591 135.697V136.921C57.7071 136.759 57.4011 136.705 57.1131 136.705C56.3211 136.705 55.7991 137.209 55.7991 138.163V139.387H57.5991V140.539H55.7991V147.379H54.4671V140.539H53.1171V139.387H54.4671V138.055C54.4671 136.453 55.5111 135.517 56.9151 135.517C57.3471 135.517 57.6531 135.571 57.9591 135.697ZM60.5162 135.679V147.379H59.1662V135.679H60.5162ZM67.9679 144.985H69.2459C68.9579 146.497 67.8239 147.541 66.0239 147.541C63.8459 147.541 62.3519 145.867 62.3519 143.401C62.3519 141.007 63.8099 139.225 65.9879 139.225C68.1839 139.225 69.3539 140.827 69.3539 143.149V143.635H63.7019C63.7199 145.345 64.6739 146.389 66.0239 146.389C67.0139 146.389 67.7519 145.885 67.9679 144.985ZM66.0059 140.377C64.7999 140.377 63.9359 141.205 63.7379 142.609H67.9859C67.9679 141.421 67.3379 140.377 66.0059 140.377ZM77.3687 139.387L74.5607 143.239L77.5307 147.379H76.0007L73.7867 144.265L71.5547 147.379H70.0967L73.0487 143.293L70.2587 139.387H71.8067L73.8227 142.249L75.8927 139.387H77.3687ZM80.4146 139.387V147.379H79.0646V139.387H80.4146ZM80.6126 136.975C80.6126 137.443 80.2166 137.839 79.7306 137.839C79.2626 137.839 78.8666 137.443 78.8666 136.975C78.8666 136.489 79.2626 136.111 79.7306 136.111C80.2166 136.111 80.6126 136.489 80.6126 136.975ZM84.1764 146.443V147.379H82.8084V135.679H84.1764V140.323C84.5724 139.747 85.4364 139.225 86.4264 139.225C88.7664 139.225 90.0264 141.133 90.0264 143.383C90.0264 145.651 88.7664 147.541 86.4264 147.541C85.4364 147.541 84.5724 147.019 84.1764 146.443ZM84.1764 141.763V145.003C84.5904 145.831 85.3824 146.317 86.2284 146.317C87.7584 146.317 88.6584 145.075 88.6584 143.383C88.6584 141.691 87.7584 140.449 86.2284 140.449C85.3824 140.449 84.5904 140.935 84.1764 141.763ZM93.2115 135.679V147.379H91.8615V135.679H93.2115ZM100.663 144.985H101.941C101.653 146.497 100.519 147.541 98.7192 147.541C96.5412 147.541 95.0472 145.867 95.0472 143.401C95.0472 141.007 96.5052 139.225 98.6832 139.225C100.879 139.225 102.049 140.827 102.049 143.149V143.635H96.3972C96.4152 145.345 97.3692 146.389 98.7192 146.389C99.7092 146.389 100.447 145.885 100.663 144.985ZM98.7012 140.377C97.4952 140.377 96.6312 141.205 96.4332 142.609H100.681C100.663 141.421 100.033 140.377 98.7012 140.377ZM109.172 146.443V150.439H107.822V139.387H109.172V140.323C109.586 139.747 110.432 139.225 111.422 139.225C113.78 139.225 115.022 141.169 115.022 143.383C115.022 145.597 113.78 147.541 111.422 147.541C110.432 147.541 109.586 147.019 109.172 146.443ZM109.172 141.763V145.003C109.586 145.831 110.378 146.317 111.224 146.317C112.754 146.317 113.654 145.075 113.654 143.383C113.654 141.691 112.754 140.449 111.224 140.449C110.378 140.449 109.586 140.935 109.172 141.763ZM123.661 143.383C123.661 145.831 122.167 147.541 119.989 147.541C117.793 147.541 116.317 145.831 116.317 143.383C116.317 140.935 117.793 139.225 119.989 139.225C122.167 139.225 123.661 140.935 123.661 143.383ZM122.293 143.383C122.293 141.637 121.429 140.413 119.989 140.413C118.549 140.413 117.685 141.637 117.685 143.383C117.685 145.129 118.549 146.353 119.989 146.353C121.429 146.353 122.293 145.129 122.293 143.383ZM129.592 139.351V140.737C129.376 140.593 129.034 140.521 128.692 140.521C127.846 140.521 127.108 141.079 126.838 142.015V147.379H125.488V139.387H126.838V140.431C127.18 139.747 127.936 139.225 128.818 139.225C129.16 139.225 129.448 139.279 129.592 139.351ZM131.65 145.363V140.539H130.354V139.387H131.65V137.281H133V139.387H134.926V140.539H133V145.219C133 145.993 133.378 146.335 134.062 146.335C134.44 146.335 134.836 146.191 135.106 146.011V147.271C134.8 147.433 134.332 147.541 133.846 147.541C132.55 147.541 131.65 146.839 131.65 145.363ZM140.928 135.697V136.921C140.676 136.759 140.37 136.705 140.082 136.705C139.29 136.705 138.768 137.209 138.768 138.163V139.387H140.568V140.539H138.768V147.379H137.436V140.539H136.086V139.387H137.436V138.055C137.436 136.453 138.48 135.517 139.884 135.517C140.316 135.517 140.622 135.571 140.928 135.697ZM148.78 143.383C148.78 145.831 147.286 147.541 145.108 147.541C142.912 147.541 141.436 145.831 141.436 143.383C141.436 140.935 142.912 139.225 145.108 139.225C147.286 139.225 148.78 140.935 148.78 143.383ZM147.412 143.383C147.412 141.637 146.548 140.413 145.108 140.413C143.668 140.413 142.804 141.637 142.804 143.383C142.804 145.129 143.668 146.353 145.108 146.353C146.548 146.353 147.412 145.129 147.412 143.383ZM151.958 135.679V147.379H150.608V135.679H151.958ZM155.719 139.387V147.379H154.369V139.387H155.719ZM155.917 136.975C155.917 137.443 155.521 137.839 155.035 137.839C154.567 137.839 154.171 137.443 154.171 136.975C154.171 136.489 154.567 136.111 155.035 136.111C155.521 136.111 155.917 136.489 155.917 136.975ZM164.899 143.383C164.899 145.831 163.405 147.541 161.227 147.541C159.031 147.541 157.555 145.831 157.555 143.383C157.555 140.935 159.031 139.225 161.227 139.225C163.405 139.225 164.899 140.935 164.899 143.383ZM163.531 143.383C163.531 141.637 162.667 140.413 161.227 140.413C159.787 140.413 158.923 141.637 158.923 143.383C158.923 145.129 159.787 146.353 161.227 146.353C162.667 146.353 163.531 145.129 163.531 143.383ZM177.467 143.383C177.467 145.831 175.973 147.541 173.795 147.541C171.599 147.541 170.123 145.831 170.123 143.383C170.123 140.935 171.599 139.225 173.795 139.225C175.973 139.225 177.467 140.935 177.467 143.383ZM176.099 143.383C176.099 141.637 175.235 140.413 173.795 140.413C172.355 140.413 171.491 141.637 171.491 143.383C171.491 145.129 172.355 146.353 173.795 146.353C175.235 146.353 176.099 145.129 176.099 143.383ZM183.291 135.697V136.921C183.039 136.759 182.733 136.705 182.445 136.705C181.653 136.705 181.131 137.209 181.131 138.163V139.387H182.931V140.539H181.131V147.379H179.799V140.539H178.449V139.387H179.799V138.055C179.799 136.453 180.843 135.517 182.247 135.517C182.679 135.517 182.985 135.571 183.291 135.697ZM189.821 146.443V147.379H188.453V135.679H189.821V140.323C190.217 139.747 191.081 139.225 192.071 139.225C194.411 139.225 195.671 141.133 195.671 143.383C195.671 145.651 194.411 147.541 192.071 147.541C191.081 147.541 190.217 147.019 189.821 146.443ZM189.821 141.763V145.003C190.235 145.831 191.027 146.317 191.873 146.317C193.403 146.317 194.303 145.075 194.303 143.383C194.303 141.691 193.403 140.449 191.873 140.449C191.027 140.449 190.235 140.935 189.821 141.763ZM204.309 143.383C204.309 145.831 202.815 147.541 200.637 147.541C198.441 147.541 196.965 145.831 196.965 143.383C196.965 140.935 198.441 139.225 200.637 139.225C202.815 139.225 204.309 140.935 204.309 143.383ZM202.941 143.383C202.941 141.637 202.077 140.413 200.637 140.413C199.197 140.413 198.333 141.637 198.333 143.383C198.333 145.129 199.197 146.353 200.637 146.353C202.077 146.353 202.941 145.129 202.941 143.383ZM206.137 147.379V139.387H207.487V140.395C207.955 139.765 208.819 139.225 209.845 139.225C211.663 139.225 212.653 140.395 212.653 142.141V147.379H211.285V142.357C211.285 141.241 210.727 140.467 209.521 140.467C208.585 140.467 207.775 141.097 207.487 141.961V147.379H206.137ZM220.218 147.379V146.443C219.822 147.019 218.958 147.541 217.968 147.541C215.628 147.541 214.368 145.651 214.368 143.383C214.368 141.133 215.628 139.225 217.968 139.225C218.958 139.225 219.822 139.747 220.218 140.323V135.679H221.586V147.379H220.218ZM220.218 145.003V141.763C219.804 140.935 219.012 140.449 218.166 140.449C216.636 140.449 215.736 141.691 215.736 143.383C215.736 145.075 216.636 146.317 218.166 146.317C219.012 146.317 219.804 145.831 220.218 145.003ZM228.059 136.327H235.097V137.587H229.463V141.079H234.575V142.339H229.463V146.101H235.097V147.379H228.059V136.327ZM236.549 137.587V136.327H245.675V137.587H241.823V147.379H240.401V137.587H236.549ZM248.958 147.379H247.536V136.327H254.286V137.587H248.958V141.313H253.962V142.573H248.958V147.379ZM255.322 145.183H256.726C256.978 146.011 257.68 146.407 258.616 146.407C259.57 146.407 260.254 146.029 260.254 145.219C260.254 144.661 259.894 144.319 259.066 144.103L257.482 143.689C256.348 143.401 255.556 142.825 255.556 141.583C255.556 140.161 256.798 139.225 258.418 139.225C260.182 139.225 261.226 140.089 261.514 141.493H260.164C259.93 140.773 259.372 140.359 258.4 140.359C257.608 140.359 256.87 140.737 256.87 141.511C256.87 142.051 257.23 142.303 257.986 142.519L259.534 142.897C260.902 143.257 261.568 144.013 261.568 145.129C261.568 146.641 260.308 147.541 258.598 147.541C256.852 147.541 255.574 146.659 255.322 145.183ZM262.812 146.497C262.812 145.939 263.244 145.507 263.784 145.507C264.306 145.507 264.738 145.939 264.738 146.497C264.738 147.055 264.306 147.469 263.784 147.469C263.244 147.469 262.812 147.055 262.812 146.497Z" fill="#230B59"/>
</g>
<defs>
<filter id="filter0_d_585_929" x="0.378192" y="0.273071" width="481.409" height="201.829" filterUnits="userSpaceOnUse" color-interpolation-filters="sRGB">
<feFlood flood-opacity="0" result="BackgroundImageFix"/>
<feColorMatrix in="SourceAlpha" type="matrix" values="0 0 0 0 0 0 0 0 0 0 0 0 0 0 0 0 0 0 127 0" result="hardAlpha"/>
<feOffset dx="-4.67075" dy="5.6049"/>
<feGaussianBlur stdDeviation="0.934149"/>
<feComposite in2="hardAlpha" operator="out"/>
<feColorMatrix type="matrix" values="0 0 0 0 0.451157 0 0 0 0 0.447014 0 0 0 0 0.654167 0 0 0 0.25 0"/>
<feBlend mode="normal" in2="BackgroundImageFix" result="effect1_dropShadow_585_929"/>
<feBlend mode="normal" in="SourceGraphic" in2="effect1_dropShadow_585_929" result="shape"/>
</filter>
</defs>
</svg>
