<svg width="29" height="29" fill="none" xmlns="http://www.w3.org/2000/svg"><path fill-rule="evenodd" clip-rule="evenodd" d="M14.557 6a.7.7 0 0 0-.525 0l-9.78 3.954a.7.7 0 0 0-.028 1.285l2.993 1.368a.7.7 0 0 1 .409.637v4.931c0 .126.046.247.13.34.755.837 2.773 2.372 6.538 2.372 1.145 0 2.127-.142 2.962-.363.476-.125.971.216.971.707v1.056a.7.7 0 0 1-.105.37l-.143.229a1.353 1.353 0 0 0 .259 1.734l.04.036a.7.7 0 0 0 .924 0l.04-.036c.5-.439.61-1.171.26-1.734l-.143-.23a.699.699 0 0 1-.106-.37v-2.143c0-.254.14-.486.355-.621a5.898 5.898 0 0 0 1.224-1.006.509.509 0 0 0 .131-.34v-4.932a.7.7 0 0 1 .41-.637l2.992-1.368a.7.7 0 0 0-.029-1.285L14.556 6Zm5.38 11.814c0 .101-.02.18-.094.25a.35.35 0 0 1-.59-.258v-2.555a.342.342 0 1 1 .684 0v2.563Zm-2.128 1.464a.662.662 0 0 0 .418-.626v-2.43a1.4 1.4 0 0 0-1.982-1.273l-1.66.76a.7.7 0 0 1-.581 0l-4.361-1.994a.7.7 0 0 0-.991.637v3.33c0 .186.072.366.213.488.798.692 2.498 1.697 5.43 1.697 1.465 0 2.623-.251 3.514-.589Zm1.14-7.013a.7.7 0 0 0 .618.02l2.95-1.328a.35.35 0 0 0-.013-.643L14.557 7.1a.7.7 0 0 0-.525 0L6.08 10.316a.35.35 0 0 0-.015.643l7.939 3.627a.7.7 0 0 0 .581 0l2.885-1.318a.35.35 0 0 0 .02-.627l-3.439-1.84a.508.508 0 0 1-.208-.69.515.515 0 0 1 .695-.207l4.412 2.36Z" fill="#4840BB"/></svg>