<svg width="482" height="203" viewBox="0 0 482 203" fill="none" xmlns="http://www.w3.org/2000/svg">
<g filter="url(#filter0_d_585_916)">
<path fill-rule="evenodd" clip-rule="evenodd" d="M35.9985 0.766602C28.1127 0.766602 21.7199 7.15933 21.7199 15.0451V17.5858H21.511C21.4601 17.5858 21.4093 17.5861 21.3585 17.5866C20.9387 14.3481 20.6777 9.49507 21.9827 6.8727L22.7612 5.77579C22.4551 6.06949 22.1977 6.44084 21.9827 6.8727L11.4048 21.7777C8.8266 24.3608 7.23242 27.9264 7.23242 31.8644V180.844C7.23242 188.729 13.6251 195.122 21.511 195.122H453.184C458.026 195.122 462.305 192.712 464.887 189.026C467.629 185.961 473.589 178.935 476.644 175.32C479.387 172.718 481.098 169.038 481.098 164.959V15.0451C481.098 7.15932 474.705 0.766602 466.82 0.766602H35.9985Z" fill="#44407C"/>
<rect x="20.1475" y="1.65901" width="460.06" height="176.541" rx="13.3861" fill="#FFFBF5" stroke="#44407C" stroke-width="1.78482"/>
<path d="M51.3132 39.5345C51.3132 38.5017 52.1505 37.6644 53.1833 37.6644H105.546C106.579 37.6644 107.416 38.5017 107.416 39.5345V62.2857C107.416 63.5136 105.95 64.1487 105.054 63.3089C104.771 63.0438 104.611 62.6734 104.611 62.2857V42.3396C104.611 41.3068 103.773 40.4696 102.741 40.4696H55.9885C54.9556 40.4696 54.1184 41.3068 54.1184 42.3396V66.6508C54.1184 67.6836 54.9556 68.5209 55.9885 68.5209H90.5107C90.8671 68.5209 91.21 68.6565 91.47 68.9002C92.0611 69.4543 92.0611 70.3925 91.47 70.9466C91.2101 71.1903 90.8671 71.326 90.5107 71.326H53.1833C52.1505 71.326 51.3132 70.4887 51.3132 69.4559V39.5345Z" fill="#4840BB"/>
<path fill-rule="evenodd" clip-rule="evenodd" d="M79.3645 45.6123C74.4587 45.6123 70.4816 49.5893 70.4816 54.4952C70.4816 59.4011 74.4587 63.3781 79.3645 63.3781C84.2704 63.3781 88.2475 59.4011 88.2475 54.4952C88.2475 49.5893 84.2704 45.6123 79.3645 45.6123ZM73.2868 54.4952C73.2868 51.1385 76.0079 48.4174 79.3645 48.4174C82.7212 48.4174 85.4423 51.1385 85.4423 54.4952C85.4423 57.8519 82.7212 60.573 79.3645 60.573C76.0079 60.573 73.2868 57.8519 73.2868 54.4952Z" fill="#4840BB"/>
<path d="M62.5338 57.3003C64.083 57.3003 65.3389 56.0444 65.3389 54.4952C65.3389 52.946 64.083 51.6901 62.5338 51.6901C60.9845 51.6901 59.7286 52.946 59.7286 54.4952C59.7286 56.0444 60.9845 57.3003 62.5338 57.3003Z" fill="#4840BB"/>
<path d="M96.1953 57.3003C97.7446 57.3003 99.0005 56.0444 99.0005 54.4952C99.0005 52.946 97.7446 51.6901 96.1953 51.6901C94.6461 51.6901 93.3902 52.946 93.3902 54.4952C93.3902 56.0444 94.6461 57.3003 96.1953 57.3003Z" fill="#4840BB"/>
<path d="M106.609 68.5591C107.397 69.2979 107.397 70.5489 106.609 71.2877L99.4922 77.9595C98.9271 78.4893 98.0395 78.4606 97.5097 77.8955C96.9799 77.3304 97.0086 76.4428 97.5737 75.913L103.235 70.6056C103.629 70.2362 103.629 69.6107 103.235 69.2413L97.5737 63.9338C97.0086 63.404 96.9799 62.5164 97.5097 61.9513C98.0395 61.3862 98.9271 61.3576 99.4922 61.8874L106.609 68.5591Z" fill="#4840BB"/>
<path d="M92.0119 77.9595L99.1284 71.2877C99.9165 70.5489 99.9165 69.2979 99.1284 68.5591L92.0119 61.8874C91.4468 61.3576 90.5592 61.3862 90.0294 61.9513C89.4996 62.5164 89.5282 63.404 90.0933 63.9338L95.7546 69.2413C96.1487 69.6107 96.1487 70.2362 95.7546 70.6056L90.0933 75.913C89.5282 76.4428 89.4996 77.3304 90.0294 77.8955C90.5592 78.4606 91.4468 78.4893 92.0119 77.9595Z" fill="#4840BB"/>
<path d="M136.671 69.4944H129.522V41.8864H148.946V48.1364H136.671V53.622H147.957V59.7372H136.671V69.4944ZM158.785 40.2677V69.4944H151.726V40.2677H158.785ZM174.351 62.435H180.871C180.152 67.1113 176.644 69.944 171.384 69.944C165.179 69.944 161.087 65.6724 161.087 59.3775C161.087 53.1274 165.403 48.8109 171.249 48.8109C177.454 48.8109 180.961 52.9476 180.961 58.9728V60.7264H167.876C168.101 63.1544 169.36 64.4584 171.384 64.4584C172.822 64.4584 173.947 63.8289 174.351 62.435ZM171.249 54.2965C169.585 54.2965 168.461 55.3307 168.011 57.2192H174.126C174.036 55.5555 173.002 54.2965 171.249 54.2965ZM202.315 49.2605L195.525 59.1526L202.63 69.4944H194.986L191.524 64.2336L188.061 69.4944H180.777L187.837 59.1976L181.092 49.2605H188.691L191.838 54.1167L195.031 49.2605H202.315ZM211.314 49.2605V69.4944H204.255V49.2605H211.314ZM211.809 43.7749C211.809 46.0681 209.965 47.5519 207.807 47.5519C205.649 47.5519 203.805 46.0681 203.805 43.7749C203.805 41.4368 205.649 39.953 207.807 39.953C209.965 39.953 211.809 41.4368 211.809 43.7749ZM221.754 67.8757V69.4944H214.695V40.2677H221.754V50.8792C222.699 49.8001 224.677 48.8109 226.745 48.8109C232.591 48.8109 235.783 53.5321 235.783 59.3775C235.783 65.2228 232.591 69.944 226.745 69.944C224.677 69.944 222.699 68.9548 221.754 67.8757ZM221.754 56.6796V62.0303C222.294 63.1544 223.463 63.9188 224.857 63.9188C227.285 63.9188 228.724 61.9854 228.724 59.3775C228.724 56.7695 227.285 54.7911 224.857 54.7911C223.508 54.7911 222.294 55.6005 221.754 56.6796ZM245.104 40.2677V69.4944H238.045V40.2677H245.104ZM260.67 62.435H267.19C266.47 67.1113 262.963 69.944 257.702 69.944C251.497 69.944 247.406 65.6724 247.406 59.3775C247.406 53.1274 251.722 48.8109 257.568 48.8109C263.773 48.8109 267.28 52.9476 267.28 58.9728V60.7264H254.195C254.42 63.1544 255.679 64.4584 257.702 64.4584C259.141 64.4584 260.265 63.8289 260.67 62.435ZM257.568 54.2965C255.904 54.2965 254.78 55.3307 254.33 57.2192H260.445C260.355 55.5555 259.321 54.2965 257.568 54.2965ZM296.09 69.4944H289.3V68.4602C288.626 69.1347 286.602 69.8541 284.444 69.8541C280.442 69.8541 277.07 67.6059 277.07 63.3343C277.07 59.4224 280.442 56.9044 284.849 56.9044C286.512 56.9044 288.491 57.444 289.3 58.0285V56.7246C289.3 55.4206 288.536 54.2965 286.827 54.2965C285.523 54.2965 284.759 54.881 284.444 55.7803H277.789C278.374 51.8684 281.836 48.7659 287.052 48.7659C292.807 48.7659 296.09 51.8235 296.09 57.0843V69.4944ZM289.3 63.8289V62.6598C288.851 61.8055 287.637 61.2659 286.333 61.2659C284.939 61.2659 283.545 61.8505 283.545 63.1994C283.545 64.5933 284.939 65.1778 286.333 65.1778C287.637 65.1778 288.851 64.6383 289.3 63.8289ZM299.082 69.4944V49.2605H306.141V51.0141C307.265 49.7551 309.244 48.8109 311.582 48.8109C316.078 48.8109 318.731 51.7336 318.731 56.23V69.4944H311.717V57.9386C311.717 56.2749 310.862 55.0609 309.064 55.0609C307.67 55.0609 306.501 55.8703 306.141 57.2641V69.4944H299.082ZM334.898 69.4944V67.8757C333.954 68.9548 331.975 69.944 329.907 69.944C324.062 69.944 320.869 65.2228 320.869 59.3775C320.869 53.5321 324.062 48.8109 329.907 48.8109C331.975 48.8109 333.954 49.8001 334.898 50.8792V40.2677H341.957V69.4944H334.898ZM334.898 62.0303V56.6796C334.358 55.6005 333.144 54.7911 331.796 54.7911C329.367 54.7911 327.929 56.7695 327.929 59.3775C327.929 61.9854 329.367 63.9188 331.796 63.9188C333.189 63.9188 334.358 63.1544 334.898 62.0303ZM360.909 40.2677V69.4944H353.85V40.2677H360.909ZM371.35 49.2605V69.4944H364.29V49.2605H371.35ZM371.844 43.7749C371.844 46.0681 370.001 47.5519 367.842 47.5519C365.684 47.5519 363.841 46.0681 363.841 43.7749C363.841 41.4368 365.684 39.953 367.842 39.953C370.001 39.953 371.844 41.4368 371.844 43.7749ZM387.68 76.6437V67.8757C386.736 68.9548 384.757 69.944 382.689 69.944C376.844 69.944 373.651 65.1329 373.651 59.3775C373.651 53.5771 376.844 48.8109 382.689 48.8109C384.757 48.8109 386.736 49.8001 387.68 50.8792V49.2605H394.739V76.6437H387.68ZM387.68 62.0303V56.6796C387.14 55.6005 385.971 54.7911 384.577 54.7911C382.149 54.7911 380.711 56.7695 380.711 59.3775C380.711 61.9854 382.149 63.9188 384.577 63.9188C385.926 63.9188 387.14 63.1544 387.68 62.0303ZM417.55 49.2605V69.4944H410.49V67.7408C409.411 68.9998 407.388 69.944 405.094 69.944C400.643 69.944 397.99 67.0214 397.99 62.5249V49.2605H405.005V60.8613C405.005 62.5699 405.814 63.7839 407.612 63.7839C408.916 63.7839 410.13 62.9296 410.49 61.5357V49.2605H417.55ZM427.918 49.2605V69.4944H420.859V49.2605H427.918ZM428.413 43.7749C428.413 46.0681 426.569 47.5519 424.411 47.5519C422.253 47.5519 420.409 46.0681 420.409 43.7749C420.409 41.4368 422.253 39.953 424.411 39.953C426.569 39.953 428.413 41.4368 428.413 43.7749ZM444.249 69.4944V67.8757C443.304 68.9548 441.326 69.944 439.258 69.944C433.412 69.944 430.22 65.2228 430.22 59.3775C430.22 53.5321 433.412 48.8109 439.258 48.8109C441.326 48.8109 443.304 49.8001 444.249 50.8792V40.2677H451.308V69.4944H444.249ZM444.249 62.0303V56.6796C443.709 55.6005 442.495 54.7911 441.146 54.7911C438.718 54.7911 437.279 56.7695 437.279 59.3775C437.279 61.9854 438.718 63.9188 441.146 63.9188C442.54 63.9188 443.709 63.1544 444.249 62.0303Z" fill="#44407C"/>
<path d="M62.004 102.379H61.032L57.54 93.9551V102.379H56.19V91.3271H57.792L61.536 100.399L65.262 91.3271H66.81V102.379H65.46V93.9551L62.004 102.379ZM76.1039 98.3832C76.1039 100.831 74.6099 102.541 72.4319 102.541C70.2359 102.541 68.7599 100.831 68.7599 98.3832C68.7599 95.9352 70.2359 94.2252 72.4319 94.2252C74.6099 94.2252 76.1039 95.9352 76.1039 98.3832ZM74.7359 98.3832C74.7359 96.6372 73.8719 95.4131 72.4319 95.4131C70.9919 95.4131 70.1279 96.6372 70.1279 98.3832C70.1279 100.129 70.9919 101.353 72.4319 101.353C73.8719 101.353 74.7359 100.129 74.7359 98.3832ZM82.0356 94.3512V95.7372C81.8196 95.5932 81.4776 95.5212 81.1356 95.5212C80.2896 95.5212 79.5516 96.0791 79.2816 97.0152V102.379H77.9316V94.3871H79.2816V95.4312C79.6236 94.7471 80.3796 94.2252 81.2616 94.2252C81.6036 94.2252 81.8916 94.2792 82.0356 94.3512ZM88.5263 99.9852H89.8043C89.5163 101.497 88.3823 102.541 86.5823 102.541C84.4043 102.541 82.9103 100.867 82.9103 98.4012C82.9103 96.0072 84.3683 94.2252 86.5463 94.2252C88.7423 94.2252 89.9123 95.8271 89.9123 98.1492V98.6352H84.2603C84.2783 100.345 85.2323 101.389 86.5823 101.389C87.5723 101.389 88.3103 100.885 88.5263 99.9852ZM86.5643 95.3771C85.3583 95.3771 84.4943 96.2051 84.2963 97.6092H88.5443C88.5263 96.4211 87.8963 95.3771 86.5643 95.3771ZM97.0355 90.6791V102.379H95.6855V90.6791H97.0355ZM100.797 94.3871V102.379H99.4472V94.3871H100.797ZM100.995 91.9752C100.995 92.4431 100.599 92.8391 100.113 92.8391C99.6452 92.8391 99.2492 92.4431 99.2492 91.9752C99.2492 91.4892 99.6452 91.1111 100.113 91.1111C100.599 91.1111 100.995 91.4892 100.995 91.9752ZM108.483 105.439V101.443C108.069 102.019 107.223 102.541 106.233 102.541C103.875 102.541 102.633 100.597 102.633 98.3832C102.633 96.1691 103.875 94.2252 106.233 94.2252C107.223 94.2252 108.069 94.7471 108.483 95.3232V94.3871H109.833V105.439H108.483ZM108.483 100.003V96.7632C108.069 95.9352 107.277 95.4492 106.431 95.4492C104.901 95.4492 104.001 96.6912 104.001 98.3832C104.001 100.075 104.901 101.317 106.431 101.317C107.277 101.317 108.069 100.831 108.483 100.003ZM118.616 94.3871V102.379H117.248V101.371C116.798 102.001 115.952 102.541 114.926 102.541C113.108 102.541 112.136 101.371 112.136 99.6252V94.3871H113.504V99.4092C113.504 100.525 114.044 101.299 115.25 101.299C116.186 101.299 116.96 100.669 117.248 99.8052V94.3871H118.616ZM122.366 94.3871V102.379H121.016V94.3871H122.366ZM122.564 91.9752C122.564 92.4431 122.168 92.8391 121.682 92.8391C121.214 92.8391 120.818 92.4431 120.818 91.9752C120.818 91.4892 121.214 91.1111 121.682 91.1111C122.168 91.1111 122.564 91.4892 122.564 91.9752ZM130.051 102.379V101.443C129.655 102.019 128.791 102.541 127.801 102.541C125.461 102.541 124.201 100.651 124.201 98.3832C124.201 96.1332 125.461 94.2252 127.801 94.2252C128.791 94.2252 129.655 94.7471 130.051 95.3232V90.6791H131.419V102.379H130.051ZM130.051 100.003V96.7632C129.637 95.9352 128.845 95.4492 127.999 95.4492C126.469 95.4492 125.569 96.6912 125.569 98.3832C125.569 100.075 126.469 101.317 127.999 101.317C128.845 101.317 129.637 100.831 130.051 100.003ZM138.163 100.363V95.5391H136.867V94.3871H138.163V92.2811H139.513V94.3871H141.439V95.5391H139.513V100.219C139.513 100.993 139.891 101.335 140.575 101.335C140.953 101.335 141.349 101.191 141.619 101.011V102.271C141.313 102.433 140.845 102.541 140.359 102.541C139.063 102.541 138.163 101.839 138.163 100.363ZM143.498 102.379V90.6791H144.848V95.3952C145.316 94.7652 146.18 94.2252 147.206 94.2252C149.024 94.2252 150.014 95.3952 150.014 97.1412V102.379H148.646V97.3572C148.646 96.2412 148.088 95.4672 146.882 95.4672C145.946 95.4672 145.136 96.0972 144.848 96.9611V102.379H143.498ZM158.101 102.379H156.805V101.785C156.499 102.109 155.653 102.523 154.699 102.523C153.079 102.523 151.729 101.551 151.729 99.9672C151.729 98.4732 153.079 97.4652 154.789 97.4652C155.617 97.4652 156.463 97.8072 156.805 98.1132V97.1052C156.805 96.1152 156.193 95.3952 155.041 95.3952C154.195 95.3952 153.655 95.7551 153.403 96.4931H152.071C152.341 95.1432 153.529 94.2252 155.059 94.2252C156.967 94.2252 158.101 95.3052 158.101 97.0512V102.379ZM156.805 100.399V99.5712C156.571 98.9772 155.761 98.5812 154.933 98.5812C153.961 98.5812 153.025 99.0132 153.025 99.9672C153.025 100.939 153.961 101.389 154.933 101.389C155.761 101.389 156.571 100.993 156.805 100.399ZM160.408 102.379V94.3871H161.758V95.3952C162.226 94.7652 163.09 94.2252 164.116 94.2252C165.934 94.2252 166.924 95.3952 166.924 97.1412V102.379H165.556V97.3572C165.556 96.2412 164.998 95.4672 163.792 95.4672C162.856 95.4672 162.046 96.0972 161.758 96.9611V102.379H160.408ZM172.647 96.8532C172.647 93.4151 174.807 91.1651 177.597 91.1651C179.919 91.1651 181.449 92.5151 181.899 94.5672H180.495C180.045 93.2892 179.127 92.4431 177.597 92.4431C175.491 92.4431 174.069 94.2252 174.069 96.8532C174.069 99.4632 175.473 101.263 177.597 101.263C179.127 101.263 180.045 100.417 180.495 99.1212H181.899C181.449 101.191 179.901 102.541 177.597 102.541C174.807 102.541 172.647 100.291 172.647 96.8532ZM185.264 101.101H187.37C189.872 101.101 191.348 99.4452 191.348 96.8532C191.348 94.2611 189.872 92.5871 187.37 92.5871H185.264V101.101ZM183.842 102.379V91.3271H187.388C190.628 91.3271 192.752 93.4872 192.752 96.8532C192.752 100.219 190.628 102.379 187.388 102.379H183.842ZM194.019 100.183H195.423C195.675 101.011 196.377 101.407 197.313 101.407C198.267 101.407 198.951 101.029 198.951 100.219C198.951 99.6612 198.591 99.3192 197.763 99.1032L196.179 98.6892C195.045 98.4012 194.253 97.8252 194.253 96.5831C194.253 95.1611 195.495 94.2252 197.115 94.2252C198.879 94.2252 199.923 95.0891 200.211 96.4931H198.861C198.627 95.7732 198.069 95.3592 197.097 95.3592C196.305 95.3592 195.567 95.7372 195.567 96.5112C195.567 97.0512 195.927 97.3032 196.683 97.5192L198.231 97.8972C199.599 98.2572 200.265 99.0132 200.265 100.129C200.265 101.641 199.005 102.541 197.295 102.541C195.549 102.541 194.271 101.659 194.019 100.183ZM212.879 98.3832C212.879 100.831 211.385 102.541 209.207 102.541C207.011 102.541 205.535 100.831 205.535 98.3832C205.535 95.9352 207.011 94.2252 209.207 94.2252C211.385 94.2252 212.879 95.9352 212.879 98.3832ZM211.511 98.3832C211.511 96.6372 210.647 95.4131 209.207 95.4131C207.767 95.4131 206.903 96.6372 206.903 98.3832C206.903 100.129 207.767 101.353 209.207 101.353C210.647 101.353 211.511 100.129 211.511 98.3832ZM218.811 94.3512V95.7372C218.595 95.5932 218.253 95.5212 217.911 95.5212C217.065 95.5212 216.327 96.0791 216.057 97.0152V102.379H214.707V94.3871H216.057V95.4312C216.399 94.7471 217.155 94.2252 218.037 94.2252C218.379 94.2252 218.667 94.2792 218.811 94.3512ZM223.797 92.5871V91.3271H232.923V92.5871H229.071V102.379H227.649V92.5871H223.797ZM237.707 94.3512V95.7372C237.491 95.5932 237.149 95.5212 236.807 95.5212C235.961 95.5212 235.223 96.0791 234.953 97.0152V102.379H233.603V94.3871H234.953V95.4312C235.295 94.7471 236.051 94.2252 236.933 94.2252C237.275 94.2252 237.563 94.2792 237.707 94.3512ZM244.198 99.9852H245.476C245.188 101.497 244.054 102.541 242.254 102.541C240.076 102.541 238.582 100.867 238.582 98.4012C238.582 96.0072 240.04 94.2252 242.218 94.2252C244.414 94.2252 245.584 95.8271 245.584 98.1492V98.6352H239.932C239.95 100.345 240.904 101.389 242.254 101.389C243.244 101.389 243.982 100.885 244.198 99.9852ZM242.236 95.3771C241.03 95.3771 240.166 96.2051 239.968 97.6092H244.216C244.198 96.4211 243.568 95.3771 242.236 95.3771ZM253.181 102.379H251.885V101.785C251.579 102.109 250.733 102.523 249.779 102.523C248.159 102.523 246.809 101.551 246.809 99.9672C246.809 98.4732 248.159 97.4652 249.869 97.4652C250.697 97.4652 251.543 97.8072 251.885 98.1132V97.1052C251.885 96.1152 251.273 95.3952 250.121 95.3952C249.275 95.3952 248.735 95.7551 248.483 96.4931H247.151C247.421 95.1432 248.609 94.2252 250.139 94.2252C252.047 94.2252 253.181 95.3052 253.181 97.0512V102.379ZM251.885 100.399V99.5712C251.651 98.9772 250.841 98.5812 250.013 98.5812C249.041 98.5812 248.105 99.0132 248.105 99.9672C248.105 100.939 249.041 101.389 250.013 101.389C250.841 101.389 251.651 100.993 251.885 100.399ZM254.822 100.183H256.226C256.478 101.011 257.18 101.407 258.116 101.407C259.07 101.407 259.754 101.029 259.754 100.219C259.754 99.6612 259.394 99.3192 258.566 99.1032L256.982 98.6892C255.848 98.4012 255.056 97.8252 255.056 96.5831C255.056 95.1611 256.298 94.2252 257.918 94.2252C259.682 94.2252 260.726 95.0891 261.014 96.4931H259.664C259.43 95.7732 258.872 95.3592 257.9 95.3592C257.108 95.3592 256.37 95.7372 256.37 96.5112C256.37 97.0512 256.73 97.3032 257.486 97.5192L259.034 97.8972C260.402 98.2572 261.068 99.0132 261.068 100.129C261.068 101.641 259.808 102.541 258.098 102.541C256.352 102.541 255.074 101.659 254.822 100.183ZM269.313 94.3871V102.379H267.945V101.371C267.495 102.001 266.649 102.541 265.623 102.541C263.805 102.541 262.833 101.371 262.833 99.6252V94.3871H264.201V99.4092C264.201 100.525 264.741 101.299 265.947 101.299C266.883 101.299 267.657 100.669 267.945 99.8052V94.3871H269.313ZM275.817 94.3512V95.7372C275.601 95.5932 275.259 95.5212 274.917 95.5212C274.071 95.5212 273.333 96.0791 273.063 97.0152V102.379H271.713V94.3871H273.063V95.4312C273.405 94.7471 274.161 94.2252 275.043 94.2252C275.385 94.2252 275.673 94.2792 275.817 94.3512ZM279.854 105.439H278.522L279.728 102.433L276.614 94.3871H278.072L280.43 100.687L282.752 94.3871H284.156L279.854 105.439ZM291.01 101.443V102.379H289.642V90.6791H291.01V95.3232C291.406 94.7471 292.27 94.2252 293.26 94.2252C295.6 94.2252 296.86 96.1332 296.86 98.3832C296.86 100.651 295.6 102.541 293.26 102.541C292.27 102.541 291.406 102.019 291.01 101.443ZM291.01 96.7632V100.003C291.424 100.831 292.216 101.317 293.062 101.317C294.592 101.317 295.492 100.075 295.492 98.3832C295.492 96.6912 294.592 95.4492 293.062 95.4492C292.216 95.4492 291.424 95.9352 291.01 96.7632ZM300.045 94.3871V102.379H298.695V94.3871H300.045ZM300.243 91.9752C300.243 92.4431 299.847 92.8391 299.361 92.8391C298.893 92.8391 298.497 92.4431 298.497 91.9752C298.497 91.4892 298.893 91.1111 299.361 91.1111C299.847 91.1111 300.243 91.4892 300.243 91.9752ZM303.807 90.6791V102.379H302.457V90.6791H303.807ZM307.569 90.6791V102.379H306.219V90.6791H307.569ZM309.314 100.183H310.718C310.97 101.011 311.672 101.407 312.608 101.407C313.562 101.407 314.246 101.029 314.246 100.219C314.246 99.6612 313.886 99.3192 313.058 99.1032L311.474 98.6892C310.34 98.4012 309.548 97.8252 309.548 96.5831C309.548 95.1611 310.79 94.2252 312.41 94.2252C314.174 94.2252 315.218 95.0891 315.506 96.4931H314.156C313.922 95.7732 313.364 95.3592 312.392 95.3592C311.6 95.3592 310.862 95.7372 310.862 96.5112C310.862 97.0512 311.222 97.3032 311.978 97.5192L313.526 97.8972C314.894 98.2572 315.56 99.0132 315.56 100.129C315.56 101.641 314.3 102.541 312.59 102.541C310.844 102.541 309.566 101.659 309.314 100.183ZM316.804 101.497C316.804 100.939 317.236 100.507 317.776 100.507C318.298 100.507 318.73 100.939 318.73 101.497C318.73 102.055 318.298 102.469 317.776 102.469C317.236 102.469 316.804 102.055 316.804 101.497ZM329.63 91.3271H330.764L333.104 100.111L335.372 91.3271H336.74L333.806 102.379H332.51L330.188 93.7571L327.83 102.379H326.552L323.618 91.3271H325.022L327.29 100.111L329.63 91.3271ZM339.631 94.3871V102.379H338.281V94.3871H339.631ZM339.829 91.9752C339.829 92.4431 339.433 92.8391 338.947 92.8391C338.479 92.8391 338.083 92.4431 338.083 91.9752C338.083 91.4892 338.479 91.1111 338.947 91.1111C339.433 91.1111 339.829 91.4892 339.829 91.9752ZM342.421 100.363V95.5391H341.125V94.3871H342.421V92.2811H343.771V94.3871H345.697V95.5391H343.771V100.219C343.771 100.993 344.149 101.335 344.833 101.335C345.211 101.335 345.607 101.191 345.877 101.011V102.271C345.571 102.433 345.103 102.541 344.617 102.541C343.321 102.541 342.421 101.839 342.421 100.363ZM347.756 102.379V90.6791H349.106V95.3952C349.574 94.7652 350.438 94.2252 351.464 94.2252C353.282 94.2252 354.272 95.3952 354.272 97.1412V102.379H352.904V97.3572C352.904 96.2412 352.346 95.4672 351.14 95.4672C350.204 95.4672 349.394 96.0972 349.106 96.9611V102.379H347.756ZM361.836 102.379V101.443C361.44 102.019 360.576 102.541 359.586 102.541C357.246 102.541 355.986 100.651 355.986 98.3832C355.986 96.1332 357.246 94.2252 359.586 94.2252C360.576 94.2252 361.44 94.7471 361.836 95.3232V90.6791H363.204V102.379H361.836ZM361.836 100.003V96.7632C361.422 95.9352 360.63 95.4492 359.784 95.4492C358.254 95.4492 357.354 96.6912 357.354 98.3832C357.354 100.075 358.254 101.317 359.784 101.317C360.63 101.317 361.422 100.831 361.836 100.003ZM369.702 94.3512V95.7372C369.486 95.5932 369.144 95.5212 368.802 95.5212C367.956 95.5212 367.218 96.0791 366.948 97.0152V102.379H365.598V94.3871H366.948V95.4312C367.29 94.7471 368.046 94.2252 368.928 94.2252C369.27 94.2252 369.558 94.2792 369.702 94.3512ZM376.966 102.379H375.67V101.785C375.364 102.109 374.518 102.523 373.564 102.523C371.944 102.523 370.594 101.551 370.594 99.9672C370.594 98.4732 371.944 97.4652 373.654 97.4652C374.482 97.4652 375.328 97.8072 375.67 98.1132V97.1052C375.67 96.1152 375.058 95.3952 373.906 95.3952C373.06 95.3952 372.52 95.7551 372.268 96.4931H370.936C371.206 95.1432 372.394 94.2252 373.924 94.2252C375.832 94.2252 376.966 95.3052 376.966 97.0512V102.379ZM375.67 100.399V99.5712C375.436 98.9772 374.626 98.5812 373.798 98.5812C372.826 98.5812 371.89 99.0132 371.89 99.9672C371.89 100.939 372.826 101.389 373.798 101.389C374.626 101.389 375.436 100.993 375.67 100.399ZM384.349 94.3871L385.987 100.489L387.751 94.3871H389.065L386.707 102.379H385.393L383.737 96.3132L382.063 102.379H380.749L378.391 94.3871H379.741L381.505 100.489L383.143 94.3871H384.349ZM58.44 127.439H57.108L58.314 124.433L55.2 116.387H56.658L59.016 122.687L61.338 116.387H62.742L58.44 127.439ZM70.9008 120.383C70.9008 122.831 69.4068 124.541 67.2288 124.541C65.0328 124.541 63.5568 122.831 63.5568 120.383C63.5568 117.935 65.0328 116.225 67.2288 116.225C69.4068 116.225 70.9008 117.935 70.9008 120.383ZM69.5328 120.383C69.5328 118.637 68.6688 117.413 67.2288 117.413C65.7888 117.413 64.9248 118.637 64.9248 120.383C64.9248 122.129 65.7888 123.353 67.2288 123.353C68.6688 123.353 69.5328 122.129 69.5328 120.383ZM79.1005 116.387V124.379H77.7325V123.371C77.2825 124.001 76.4365 124.541 75.4105 124.541C73.5925 124.541 72.6205 123.371 72.6205 121.625V116.387H73.9885V121.409C73.9885 122.525 74.5285 123.299 75.7345 123.299C76.6705 123.299 77.4445 122.669 77.7325 121.805V116.387H79.1005ZM85.6039 116.351V117.737C85.3879 117.593 85.0459 117.521 84.7039 117.521C83.8579 117.521 83.1199 118.079 82.8499 119.015V124.379H81.4999V116.387H82.8499V117.431C83.1919 116.747 83.9479 116.225 84.8299 116.225C85.1719 116.225 85.4599 116.279 85.6039 116.351ZM96.9258 117.503C97.4298 116.783 98.2398 116.225 99.3558 116.225C100.976 116.225 101.876 117.359 101.876 119.087V124.379H100.508V119.303C100.508 118.187 100.022 117.449 98.9958 117.449C98.1858 117.449 97.4838 118.007 97.2318 118.871V124.379H95.8818V119.303C95.8818 118.187 95.3958 117.449 94.3698 117.449C93.5598 117.449 92.8578 118.007 92.6058 118.871V124.379H91.2558V116.387H92.6058V117.323C93.0018 116.693 93.7758 116.225 94.7658 116.225C95.7738 116.225 96.5478 116.747 96.9258 117.503ZM110.926 120.383C110.926 122.831 109.432 124.541 107.254 124.541C105.058 124.541 103.582 122.831 103.582 120.383C103.582 117.935 105.058 116.225 107.254 116.225C109.432 116.225 110.926 117.935 110.926 120.383ZM109.558 120.383C109.558 118.637 108.694 117.413 107.254 117.413C105.814 117.413 104.95 118.637 104.95 120.383C104.95 122.129 105.814 123.353 107.254 123.353C108.694 123.353 109.558 122.129 109.558 120.383ZM112.754 124.379V116.387H114.104V117.395C114.572 116.765 115.436 116.225 116.462 116.225C118.28 116.225 119.27 117.395 119.27 119.141V124.379H117.902V119.357C117.902 118.241 117.344 117.467 116.138 117.467C115.202 117.467 114.392 118.097 114.104 118.961V124.379H112.754ZM126.6 121.985H127.878C127.59 123.497 126.456 124.541 124.656 124.541C122.478 124.541 120.984 122.867 120.984 120.401C120.984 118.007 122.442 116.225 124.62 116.225C126.816 116.225 127.986 117.827 127.986 120.149V120.635H122.334C122.352 122.345 123.306 123.389 124.656 123.389C125.646 123.389 126.384 122.885 126.6 121.985ZM124.638 117.377C123.432 117.377 122.568 118.205 122.37 119.609H126.618C126.6 118.421 125.97 117.377 124.638 117.377ZM132.004 127.439H130.672L131.878 124.433L128.764 116.387H130.222L132.58 122.687L134.902 116.387H136.306L132.004 127.439ZM143.16 116.387V124.379H141.81V116.387H143.16ZM143.358 113.975C143.358 114.443 142.962 114.839 142.476 114.839C142.008 114.839 141.612 114.443 141.612 113.975C141.612 113.489 142.008 113.111 142.476 113.111C142.962 113.111 143.358 113.489 143.358 113.975ZM145.572 124.379V116.387H146.922V117.395C147.39 116.765 148.254 116.225 149.28 116.225C151.098 116.225 152.088 117.395 152.088 119.141V124.379H150.72V119.357C150.72 118.241 150.162 117.467 148.956 117.467C148.02 117.467 147.21 118.097 146.922 118.961V124.379H145.572ZM164.148 124.379H162.852V123.785C162.546 124.109 161.7 124.523 160.746 124.523C159.126 124.523 157.776 123.551 157.776 121.967C157.776 120.473 159.126 119.465 160.836 119.465C161.664 119.465 162.51 119.807 162.852 120.113V119.105C162.852 118.115 162.24 117.395 161.088 117.395C160.242 117.395 159.702 117.755 159.45 118.493H158.118C158.388 117.143 159.576 116.225 161.106 116.225C163.014 116.225 164.148 117.305 164.148 119.051V124.379ZM162.852 122.399V121.571C162.618 120.977 161.808 120.581 160.98 120.581C160.008 120.581 159.072 121.013 159.072 121.967C159.072 122.939 160.008 123.389 160.98 123.389C161.808 123.389 162.618 122.993 162.852 122.399ZM169.852 120.383C169.852 117.899 171.346 116.225 173.488 116.225C175.288 116.225 176.422 117.269 176.692 118.799H175.306C175.126 117.935 174.442 117.413 173.488 117.413C172.12 117.413 171.22 118.637 171.22 120.383C171.22 122.129 172.12 123.353 173.488 123.353C174.442 123.353 175.126 122.831 175.306 121.967H176.692C176.422 123.497 175.288 124.541 173.488 124.541C171.346 124.541 169.852 122.867 169.852 120.383ZM185.194 120.383C185.194 122.831 183.7 124.541 181.522 124.541C179.326 124.541 177.85 122.831 177.85 120.383C177.85 117.935 179.326 116.225 181.522 116.225C183.7 116.225 185.194 117.935 185.194 120.383ZM183.826 120.383C183.826 118.637 182.962 117.413 181.522 117.413C180.082 117.413 179.218 118.637 179.218 120.383C179.218 122.129 180.082 123.353 181.522 123.353C182.962 123.353 183.826 122.129 183.826 120.383ZM193.393 116.387V124.379H192.025V123.371C191.575 124.001 190.729 124.541 189.703 124.541C187.885 124.541 186.913 123.371 186.913 121.625V116.387H188.281V121.409C188.281 122.525 188.821 123.299 190.027 123.299C190.963 123.299 191.737 122.669 192.025 121.805V116.387H193.393ZM197.143 123.443V127.439H195.793V116.387H197.143V117.323C197.557 116.747 198.403 116.225 199.393 116.225C201.751 116.225 202.993 118.169 202.993 120.383C202.993 122.597 201.751 124.541 199.393 124.541C198.403 124.541 197.557 124.019 197.143 123.443ZM197.143 118.763V122.003C197.557 122.831 198.349 123.317 199.195 123.317C200.725 123.317 201.625 122.075 201.625 120.383C201.625 118.691 200.725 117.449 199.195 117.449C198.349 117.449 197.557 117.935 197.143 118.763ZM206.178 112.679V124.379H204.828V112.679H206.178ZM213.63 121.985H214.908C214.62 123.497 213.486 124.541 211.686 124.541C209.508 124.541 208.014 122.867 208.014 120.401C208.014 118.007 209.472 116.225 211.65 116.225C213.846 116.225 215.016 117.827 215.016 120.149V120.635H209.364C209.382 122.345 210.336 123.389 211.686 123.389C212.676 123.389 213.414 122.885 213.63 121.985ZM211.668 117.377C210.462 117.377 209.598 118.205 209.4 119.609H213.648C213.63 118.421 213 117.377 211.668 117.377ZM227.557 120.383C227.557 122.831 226.063 124.541 223.885 124.541C221.689 124.541 220.213 122.831 220.213 120.383C220.213 117.935 221.689 116.225 223.885 116.225C226.063 116.225 227.557 117.935 227.557 120.383ZM226.189 120.383C226.189 118.637 225.325 117.413 223.885 117.413C222.445 117.413 221.581 118.637 221.581 120.383C221.581 122.129 222.445 123.353 223.885 123.353C225.325 123.353 226.189 122.129 226.189 120.383ZM233.381 112.697V113.921C233.129 113.759 232.823 113.705 232.535 113.705C231.743 113.705 231.221 114.209 231.221 115.163V116.387H233.021V117.539H231.221V124.379H229.889V117.539H228.539V116.387H229.889V115.055C229.889 113.453 230.933 112.517 232.337 112.517C232.769 112.517 233.075 112.571 233.381 112.697ZM243.834 124.379V123.443C243.438 124.019 242.574 124.541 241.584 124.541C239.244 124.541 237.984 122.651 237.984 120.383C237.984 118.133 239.244 116.225 241.584 116.225C242.574 116.225 243.438 116.747 243.834 117.323V112.679H245.202V124.379H243.834ZM243.834 122.003V118.763C243.42 117.935 242.628 117.449 241.782 117.449C240.252 117.449 239.352 118.691 239.352 120.383C239.352 122.075 240.252 123.317 241.782 123.317C242.628 123.317 243.42 122.831 243.834 122.003ZM253.392 124.379H252.096V123.785C251.79 124.109 250.944 124.523 249.99 124.523C248.37 124.523 247.02 123.551 247.02 121.967C247.02 120.473 248.37 119.465 250.08 119.465C250.908 119.465 251.754 119.807 252.096 120.113V119.105C252.096 118.115 251.484 117.395 250.332 117.395C249.486 117.395 248.946 117.755 248.694 118.493H247.362C247.632 117.143 248.82 116.225 250.35 116.225C252.258 116.225 253.392 117.305 253.392 119.051V124.379ZM252.096 122.399V121.571C251.862 120.977 251.052 120.581 250.224 120.581C249.252 120.581 248.316 121.013 248.316 121.967C248.316 122.939 249.252 123.389 250.224 123.389C251.052 123.389 251.862 122.993 252.096 122.399ZM257.917 127.439H256.585L257.791 124.433L254.677 116.387H256.135L258.493 122.687L260.815 116.387H262.219L257.917 127.439ZM262.961 122.183H264.365C264.617 123.011 265.319 123.407 266.255 123.407C267.209 123.407 267.893 123.029 267.893 122.219C267.893 121.661 267.533 121.319 266.705 121.103L265.121 120.689C263.987 120.401 263.195 119.825 263.195 118.583C263.195 117.161 264.437 116.225 266.057 116.225C267.821 116.225 268.865 117.089 269.153 118.493H267.803C267.569 117.773 267.011 117.359 266.039 117.359C265.247 117.359 264.509 117.737 264.509 118.511C264.509 119.051 264.869 119.303 265.625 119.519L267.173 119.897C268.541 120.257 269.207 121.013 269.207 122.129C269.207 123.641 267.947 124.541 266.237 124.541C264.491 124.541 263.213 123.659 262.961 122.183ZM280.129 116.387L281.767 122.489L283.531 116.387H284.845L282.487 124.379H281.173L279.517 118.313L277.843 124.379H276.529L274.171 116.387H275.521L277.285 122.489L278.923 116.387H280.129ZM287.723 116.387V124.379H286.373V116.387H287.723ZM287.921 113.975C287.921 114.443 287.525 114.839 287.039 114.839C286.571 114.839 286.175 114.443 286.175 113.975C286.175 113.489 286.571 113.111 287.039 113.111C287.525 113.111 287.921 113.489 287.921 113.975ZM290.513 122.363V117.539H289.217V116.387H290.513V114.281H291.863V116.387H293.789V117.539H291.863V122.219C291.863 122.993 292.241 123.335 292.925 123.335C293.303 123.335 293.699 123.191 293.969 123.011V124.271C293.663 124.433 293.195 124.541 292.709 124.541C291.413 124.541 290.513 123.839 290.513 122.363ZM295.848 124.379V112.679H297.198V117.395C297.666 116.765 298.53 116.225 299.556 116.225C301.374 116.225 302.364 117.395 302.364 119.141V124.379H300.996V119.357C300.996 118.241 300.438 117.467 299.232 117.467C298.296 117.467 297.486 118.097 297.198 118.961V124.379H295.848ZM311.422 120.383C311.422 122.831 309.928 124.541 307.75 124.541C305.554 124.541 304.078 122.831 304.078 120.383C304.078 117.935 305.554 116.225 307.75 116.225C309.928 116.225 311.422 117.935 311.422 120.383ZM310.054 120.383C310.054 118.637 309.19 117.413 307.75 117.413C306.31 117.413 305.446 118.637 305.446 120.383C305.446 122.129 306.31 123.353 307.75 123.353C309.19 123.353 310.054 122.129 310.054 120.383ZM319.622 116.387V124.379H318.254V123.371C317.804 124.001 316.958 124.541 315.932 124.541C314.114 124.541 313.142 123.371 313.142 121.625V116.387H314.51V121.409C314.51 122.525 315.05 123.299 316.256 123.299C317.192 123.299 317.966 122.669 318.254 121.805V116.387H319.622ZM322.399 122.363V117.539H321.103V116.387H322.399V114.281H323.749V116.387H325.675V117.539H323.749V122.219C323.749 122.993 324.127 123.335 324.811 123.335C325.189 123.335 325.585 123.191 325.855 123.011V124.271C325.549 124.433 325.081 124.541 324.595 124.541C323.299 124.541 322.399 123.839 322.399 122.363ZM333.057 123.443V127.439H331.707V116.387H333.057V117.323C333.471 116.747 334.317 116.225 335.307 116.225C337.665 116.225 338.907 118.169 338.907 120.383C338.907 122.597 337.665 124.541 335.307 124.541C334.317 124.541 333.471 124.019 333.057 123.443ZM333.057 118.763V122.003C333.471 122.831 334.263 123.317 335.109 123.317C336.639 123.317 337.539 122.075 337.539 120.383C337.539 118.691 336.639 117.449 335.109 117.449C334.263 117.449 333.471 117.935 333.057 118.763ZM345.817 121.985H347.095C346.807 123.497 345.673 124.541 343.873 124.541C341.695 124.541 340.201 122.867 340.201 120.401C340.201 118.007 341.659 116.225 343.837 116.225C346.033 116.225 347.203 117.827 347.203 120.149V120.635H341.551C341.569 122.345 342.523 123.389 343.873 123.389C344.863 123.389 345.601 122.885 345.817 121.985ZM343.855 117.377C342.649 117.377 341.785 118.205 341.587 119.609H345.835C345.817 118.421 345.187 117.377 343.855 117.377ZM349.004 124.379V116.387H350.354V117.395C350.822 116.765 351.686 116.225 352.712 116.225C354.53 116.225 355.52 117.395 355.52 119.141V124.379H354.152V119.357C354.152 118.241 353.594 117.467 352.388 117.467C351.452 117.467 350.642 118.097 350.354 118.961V124.379H349.004ZM363.606 124.379H362.31V123.785C362.004 124.109 361.158 124.523 360.204 124.523C358.584 124.523 357.234 123.551 357.234 121.967C357.234 120.473 358.584 119.465 360.294 119.465C361.122 119.465 361.968 119.807 362.31 120.113V119.105C362.31 118.115 361.698 117.395 360.546 117.395C359.7 117.395 359.16 117.755 358.908 118.493H357.576C357.846 117.143 359.034 116.225 360.564 116.225C362.472 116.225 363.606 117.305 363.606 119.051V124.379ZM362.31 122.399V121.571C362.076 120.977 361.266 120.581 360.438 120.581C359.466 120.581 358.53 121.013 358.53 121.967C358.53 122.939 359.466 123.389 360.438 123.389C361.266 123.389 362.076 122.993 362.31 122.399ZM367.264 112.679V124.379H365.914V112.679H367.264ZM370.054 122.363V117.539H368.758V116.387H370.054V114.281H371.404V116.387H373.33V117.539H371.404V122.219C371.404 122.993 371.782 123.335 372.466 123.335C372.844 123.335 373.24 123.191 373.51 123.011V124.271C373.204 124.433 372.736 124.541 372.25 124.541C370.954 124.541 370.054 123.839 370.054 122.363ZM376.739 116.387V124.379H375.389V116.387H376.739ZM376.937 113.975C376.937 114.443 376.541 114.839 376.055 114.839C375.587 114.839 375.191 114.443 375.191 113.975C375.191 113.489 375.587 113.111 376.055 113.111C376.541 113.111 376.937 113.489 376.937 113.975ZM384.19 121.985H385.468C385.18 123.497 384.046 124.541 382.246 124.541C380.068 124.541 378.574 122.867 378.574 120.401C378.574 118.007 380.032 116.225 382.21 116.225C384.406 116.225 385.576 117.827 385.576 120.149V120.635H379.924C379.942 122.345 380.896 123.389 382.246 123.389C383.236 123.389 383.974 122.885 384.19 121.985ZM382.228 117.377C381.022 117.377 380.158 118.205 379.96 119.609H384.208C384.19 118.421 383.56 117.377 382.228 117.377ZM386.746 122.183H388.15C388.402 123.011 389.104 123.407 390.04 123.407C390.994 123.407 391.678 123.029 391.678 122.219C391.678 121.661 391.318 121.319 390.49 121.103L388.906 120.689C387.772 120.401 386.98 119.825 386.98 118.583C386.98 117.161 388.222 116.225 389.842 116.225C391.606 116.225 392.65 117.089 392.938 118.493H391.588C391.354 117.773 390.796 117.359 389.824 117.359C389.032 117.359 388.294 117.737 388.294 118.511C388.294 119.051 388.654 119.303 389.41 119.519L390.958 119.897C392.326 120.257 392.992 121.013 392.992 122.129C392.992 123.641 391.732 124.541 390.022 124.541C388.276 124.541 386.998 123.659 386.746 122.183ZM62.85 142.383C62.85 144.831 61.356 146.541 59.178 146.541C56.982 146.541 55.506 144.831 55.506 142.383C55.506 139.935 56.982 138.225 59.178 138.225C61.356 138.225 62.85 139.935 62.85 142.383ZM61.482 142.383C61.482 140.637 60.618 139.413 59.178 139.413C57.738 139.413 56.874 140.637 56.874 142.383C56.874 144.129 57.738 145.353 59.178 145.353C60.618 145.353 61.482 144.129 61.482 142.383ZM68.7817 138.351V139.737C68.5657 139.593 68.2237 139.521 67.8817 139.521C67.0357 139.521 66.2977 140.079 66.0277 141.015V146.379H64.6777V138.387H66.0277V139.431C66.3697 138.747 67.1257 138.225 68.0077 138.225C68.3497 138.225 68.6377 138.279 68.7817 138.351ZM79.5095 138.387L81.1475 144.489L82.9115 138.387H84.2255L81.8675 146.379H80.5535L78.8975 140.313L77.2235 146.379H75.9095L73.5515 138.387H74.9015L76.6655 144.489L78.3035 138.387H79.5095ZM91.4971 146.379H90.2011V145.785C89.8951 146.109 89.0491 146.523 88.0951 146.523C86.4751 146.523 85.1251 145.551 85.1251 143.967C85.1251 142.473 86.4751 141.465 88.1851 141.465C89.0131 141.465 89.8591 141.807 90.2011 142.113V141.105C90.2011 140.115 89.5891 139.395 88.4371 139.395C87.5911 139.395 87.0511 139.755 86.7991 140.493H85.4671C85.7371 139.143 86.9251 138.225 88.4551 138.225C90.3631 138.225 91.4971 139.305 91.4971 141.051V146.379ZM90.2011 144.399V143.571C89.9671 142.977 89.1571 142.581 88.3291 142.581C87.3571 142.581 86.4211 143.013 86.4211 143.967C86.4211 144.939 87.3571 145.389 88.3291 145.389C89.1571 145.389 89.9671 144.993 90.2011 144.399ZM95.1546 138.387V146.379H93.8046V138.387H95.1546ZM95.3526 135.975C95.3526 136.443 94.9566 136.839 94.4706 136.839C94.0026 136.839 93.6066 136.443 93.6066 135.975C93.6066 135.489 94.0026 135.111 94.4706 135.111C94.9566 135.111 95.3526 135.489 95.3526 135.975ZM97.9444 144.363V139.539H96.6484V138.387H97.9444V136.281H99.2944V138.387H101.22V139.539H99.2944V144.219C99.2944 144.993 99.6724 145.335 100.356 145.335C100.734 145.335 101.13 145.191 101.4 145.011V146.271C101.094 146.433 100.626 146.541 100.14 146.541C98.8444 146.541 97.9444 145.839 97.9444 144.363ZM104.629 138.387V146.379H103.279V138.387H104.629ZM104.827 135.975C104.827 136.443 104.431 136.839 103.945 136.839C103.477 136.839 103.081 136.443 103.081 135.975C103.081 135.489 103.477 135.111 103.945 135.111C104.431 135.111 104.827 135.489 104.827 135.975ZM107.041 146.379V138.387H108.391V139.395C108.859 138.765 109.723 138.225 110.749 138.225C112.567 138.225 113.557 139.395 113.557 141.141V146.379H112.189V141.357C112.189 140.241 111.631 139.467 110.425 139.467C109.489 139.467 108.679 140.097 108.391 140.961V146.379H107.041ZM121.086 145.839V145.245C120.69 145.803 119.844 146.325 118.854 146.325C116.514 146.325 115.272 144.381 115.272 142.275C115.272 140.151 116.514 138.225 118.854 138.225C119.844 138.225 120.69 138.729 121.086 139.287V138.387H122.454V145.749C122.454 148.377 120.942 149.619 118.89 149.619C116.946 149.619 115.722 148.611 115.47 146.973H116.802C117.036 147.981 117.792 148.467 118.89 148.467C120.33 148.467 121.086 147.567 121.086 145.839ZM121.086 143.859V140.673C120.672 139.917 119.916 139.431 119.052 139.431C117.54 139.431 116.658 140.619 116.658 142.275C116.658 143.913 117.54 145.101 119.052 145.101C119.916 145.101 120.672 144.615 121.086 143.859ZM135.606 142.383C135.606 144.831 134.112 146.541 131.934 146.541C129.738 146.541 128.262 144.831 128.262 142.383C128.262 139.935 129.738 138.225 131.934 138.225C134.112 138.225 135.606 139.935 135.606 142.383ZM134.238 142.383C134.238 140.637 133.374 139.413 131.934 139.413C130.494 139.413 129.63 140.637 129.63 142.383C129.63 144.129 130.494 145.353 131.934 145.353C133.374 145.353 134.238 144.129 134.238 142.383ZM137.434 146.379V138.387H138.784V139.395C139.252 138.765 140.116 138.225 141.142 138.225C142.96 138.225 143.95 139.395 143.95 141.141V146.379H142.582V141.357C142.582 140.241 142.024 139.467 140.818 139.467C139.882 139.467 139.072 140.097 138.784 140.961V146.379H137.434ZM155.883 139.503C156.387 138.783 157.197 138.225 158.313 138.225C159.933 138.225 160.833 139.359 160.833 141.087V146.379H159.465V141.303C159.465 140.187 158.979 139.449 157.953 139.449C157.143 139.449 156.441 140.007 156.189 140.871V146.379H154.839V141.303C154.839 140.187 154.353 139.449 153.327 139.449C152.517 139.449 151.815 140.007 151.563 140.871V146.379H150.213V138.387H151.563V139.323C151.959 138.693 152.733 138.225 153.723 138.225C154.731 138.225 155.505 138.747 155.883 139.503ZM168.911 146.379H167.615V145.785C167.309 146.109 166.463 146.523 165.509 146.523C163.889 146.523 162.539 145.551 162.539 143.967C162.539 142.473 163.889 141.465 165.599 141.465C166.427 141.465 167.273 141.807 167.615 142.113V141.105C167.615 140.115 167.003 139.395 165.851 139.395C165.005 139.395 164.465 139.755 164.213 140.493H162.881C163.151 139.143 164.339 138.225 165.869 138.225C167.777 138.225 168.911 139.305 168.911 141.051V146.379ZM167.615 144.399V143.571C167.381 142.977 166.571 142.581 165.743 142.581C164.771 142.581 163.835 143.013 163.835 143.967C163.835 144.939 164.771 145.389 165.743 145.389C166.571 145.389 167.381 144.993 167.615 144.399ZM171.544 144.363V139.539H170.248V138.387H171.544V136.281H172.894V138.387H174.82V139.539H172.894V144.219C172.894 144.993 173.272 145.335 173.956 145.335C174.334 145.335 174.73 145.191 175 145.011V146.271C174.694 146.433 174.226 146.541 173.74 146.541C172.444 146.541 171.544 145.839 171.544 144.363ZM183.216 138.387V146.379H181.848V145.371C181.398 146.001 180.552 146.541 179.526 146.541C177.708 146.541 176.736 145.371 176.736 143.625V138.387H178.104V143.409C178.104 144.525 178.644 145.299 179.85 145.299C180.786 145.299 181.56 144.669 181.848 143.805V138.387H183.216ZM189.719 138.351V139.737C189.503 139.593 189.161 139.521 188.819 139.521C187.973 139.521 187.235 140.079 186.965 141.015V146.379H185.615V138.387H186.965V139.431C187.307 138.747 188.063 138.225 188.945 138.225C189.287 138.225 189.575 138.279 189.719 138.351ZM192.748 138.387V146.379H191.398V138.387H192.748ZM192.946 135.975C192.946 136.443 192.55 136.839 192.064 136.839C191.596 136.839 191.2 136.443 191.2 135.975C191.2 135.489 191.596 135.111 192.064 135.111C192.55 135.111 192.946 135.489 192.946 135.975ZM195.538 144.363V139.539H194.242V138.387H195.538V136.281H196.888V138.387H198.814V139.539H196.888V144.219C196.888 144.993 197.266 145.335 197.95 145.335C198.328 145.335 198.724 145.191 198.994 145.011V146.271C198.688 146.433 198.22 146.541 197.734 146.541C196.438 146.541 195.538 145.839 195.538 144.363ZM203.108 149.439H201.776L202.982 146.433L199.868 138.387H201.326L203.684 144.687L206.006 138.387H207.41L203.108 149.439ZM218.188 146.379V145.443C217.792 146.019 216.928 146.541 215.938 146.541C213.598 146.541 212.338 144.651 212.338 142.383C212.338 140.133 213.598 138.225 215.938 138.225C216.928 138.225 217.792 138.747 218.188 139.323V134.679H219.556V146.379H218.188ZM218.188 144.003V140.763C217.774 139.935 216.982 139.449 216.136 139.449C214.606 139.449 213.706 140.691 213.706 142.383C213.706 144.075 214.606 145.317 216.136 145.317C216.982 145.317 217.774 144.831 218.188 144.003ZM227.745 146.379H226.449V145.785C226.143 146.109 225.297 146.523 224.343 146.523C222.723 146.523 221.373 145.551 221.373 143.967C221.373 142.473 222.723 141.465 224.433 141.465C225.261 141.465 226.107 141.807 226.449 142.113V141.105C226.449 140.115 225.837 139.395 224.685 139.395C223.839 139.395 223.299 139.755 223.047 140.493H221.715C221.985 139.143 223.173 138.225 224.703 138.225C226.611 138.225 227.745 139.305 227.745 141.051V146.379ZM226.449 144.399V143.571C226.215 142.977 225.405 142.581 224.577 142.581C223.605 142.581 222.669 143.013 222.669 143.967C222.669 144.939 223.605 145.389 224.577 145.389C225.405 145.389 226.215 144.993 226.449 144.399ZM230.378 144.363V139.539H229.082V138.387H230.378V136.281H231.728V138.387H233.654V139.539H231.728V144.219C231.728 144.993 232.106 145.335 232.79 145.335C233.168 145.335 233.564 145.191 233.834 145.011V146.271C233.528 146.433 233.06 146.541 232.574 146.541C231.278 146.541 230.378 145.839 230.378 144.363ZM240.665 143.985H241.943C241.655 145.497 240.521 146.541 238.721 146.541C236.543 146.541 235.049 144.867 235.049 142.401C235.049 140.007 236.507 138.225 238.685 138.225C240.881 138.225 242.051 139.827 242.051 142.149V142.635H236.399C236.417 144.345 237.371 145.389 238.721 145.389C239.711 145.389 240.449 144.885 240.665 143.985ZM238.703 139.377C237.497 139.377 236.633 140.205 236.435 141.609H240.683C240.665 140.421 240.035 139.377 238.703 139.377ZM243.221 144.183H244.625C244.877 145.011 245.579 145.407 246.515 145.407C247.469 145.407 248.153 145.029 248.153 144.219C248.153 143.661 247.793 143.319 246.965 143.103L245.381 142.689C244.247 142.401 243.455 141.825 243.455 140.583C243.455 139.161 244.697 138.225 246.317 138.225C248.081 138.225 249.125 139.089 249.413 140.493H248.063C247.829 139.773 247.271 139.359 246.299 139.359C245.507 139.359 244.769 139.737 244.769 140.511C244.769 141.051 245.129 141.303 245.885 141.519L247.433 141.897C248.801 142.257 249.467 143.013 249.467 144.129C249.467 145.641 248.207 146.541 246.497 146.541C244.751 146.541 243.473 145.659 243.221 144.183ZM250.71 145.497C250.71 144.939 251.142 144.507 251.682 144.507C252.204 144.507 252.636 144.939 252.636 145.497C252.636 146.055 252.204 146.469 251.682 146.469C251.142 146.469 250.71 146.055 250.71 145.497Z" fill="#230B59"/>
</g>
<defs>
<filter id="filter0_d_585_916" x="0.693378" y="0.766602" width="480.408" height="201.829" filterUnits="userSpaceOnUse" color-interpolation-filters="sRGB">
<feFlood flood-opacity="0" result="BackgroundImageFix"/>
<feColorMatrix in="SourceAlpha" type="matrix" values="0 0 0 0 0 0 0 0 0 0 0 0 0 0 0 0 0 0 127 0" result="hardAlpha"/>
<feOffset dx="-4.67075" dy="5.6049"/>
<feGaussianBlur stdDeviation="0.934149"/>
<feComposite in2="hardAlpha" operator="out"/>
<feColorMatrix type="matrix" values="0 0 0 0 0.451157 0 0 0 0 0.447014 0 0 0 0 0.654167 0 0 0 0.25 0"/>
<feBlend mode="normal" in2="BackgroundImageFix" result="effect1_dropShadow_585_916"/>
<feBlend mode="normal" in="SourceGraphic" in2="effect1_dropShadow_585_916" result="shape"/>
</filter>
</defs>
</svg>
