<svg width="1536" height="682" fill="none" xmlns="http://www.w3.org/2000/svg"><mask id="b" style="mask-type:alpha" maskUnits="userSpaceOnUse" x="0" y="0" width="1536" height="682"><path fill="url(#a)" d="M0 0h1536v682H0z"/></mask><g mask="url(#b)"><path d="M7.079 585.741.384 596.385c-.24.383-.66.615-1.113.615-.726 0-1.314.588-1.314 1.314V785a5 5 0 0 0 5 5H1533.03c2.76 0 5-2.239 5-5V106l-21.69 54.543c-.78 1.965-3.69 1.53-3.85-.579l-6.93-85.97c-.45-5.677-8.53-6.296-9.85-.756l-5.98 25.176c-.55 2.308-3.95 1.909-3.95-.463V55.174c0-4.536-5.56-6.728-8.65-3.414l-2.45 2.62c-2.78 2.975-7.76 1.556-8.56-2.438l-6.35-31.883c-.87-4.4-6.65-5.509-9.09-1.746l-2.2 3.387c-2.17 3.332-7.34 1.8-7.34-2.174 0-4.386-6.05-5.561-7.69-1.495l-13 32.176c-1.06 2.614-4.81 2.46-5.65-.233l-5.1-16.383c-1.38-4.454-7.57-4.752-9.38-.451l-10.86 25.857c-1.72 4.09-7.52 4.083-9.23-.01l-4.08-9.776c-1.83-4.367-8.13-3.99-9.43.564l-4.15 14.644c-.83 2.94-4.08 4.45-6.87 3.193l-2.17-.983c-2.58-1.164-5.61.038-6.68 2.652l-15.21 36.93c-1.42 3.448-6.23 3.638-7.92.312-1.89-3.722-7.43-2.92-8.18 1.185l-5.54 30.194a4.993 4.993 0 0 1-4.92 4.098h-1.5a5.007 5.007 0 0 0-4.87 3.868l-9.56 41.112a4.998 4.998 0 0 1-3.72 3.734l-6.06 1.435a4.996 4.996 0 0 0-3.84 4.54l-3.51 53.823c-.21 3.148-4.55 3.783-5.8.885-1.91-4.463-8.48-3.979-9.53.764l-3.49 15.796c-.57 2.556-4.07 2.91-5.13.519-1.79-4.028-7.7-3.371-8.57.952l-3.64 18.171c-.61 3.068-3.86 4.824-6.76 3.658l-2.87-1.15a4.994 4.994 0 0 0-6.69 3.358l-6.63 24.99c-.9 3.383-5.74 3.254-6.46-.172-.77-3.693-6.12-3.44-6.54.309l-8.62 76.772c-.3 2.69-3.57 3.849-5.5 1.948-1.95-1.922-5.25-.712-5.5 2.015L1168.74 525.5l-7.22-256.107c-.12-4.225-5.63-5.759-7.91-2.205-2.08 3.233-7.03 2.319-7.82-1.442l-.48-2.256c-1.02-4.87-7.75-5.42-9.55-.781l-11.26 29.01c-1.16 3.004-5 3.875-7.34 1.67-2.56-2.395-6.74-1.129-7.54 2.278l-5.14 21.955c-.88 3.736-5.7 4.767-8.03 1.713-2.13-2.797-6.49-2.216-7.81 1.042l-8.17 20.123-7.58 13.407c-2.34 4.134-8.59 2.984-9.3-1.712l-4.7-30.992c-.57-3.724-4.89-5.51-7.92-3.271l-1.9 1.406a5.023 5.023 0 0 0-1.94 3.082l-4.94 25.854c-.9 4.719-7.29 5.575-9.4 1.26l-9.35-19.112c-1.89-3.863-7.45-3.696-9.11.273l-8.85 21.227c-1.13 2.723-4.36 3.876-6.967 2.487l-2.042-1.09c-2.75-1.469-6.158-.09-7.114 2.878L981.046 382l-13.894 50.351c-.606 2.194-3.823 1.833-3.926-.441l-2.026-44.507c-.239-5.256-7.39-6.624-9.553-1.827l-4.748 10.528c-1.824 4.046-7.622 3.887-9.221-.253l-7.626-19.731a5.004 5.004 0 0 1-.309-1.281l-3.846-36.639c-.334-3.182-3.528-5.236-6.561-4.219l-17.928 6.008a4.997 4.997 0 0 0-2.466 1.815l-12.444 17.25a5.001 5.001 0 0 1-6.87 1.207l-19.046-12.97a4.999 4.999 0 0 0-7.333 1.993l-3.051 6.444c-1.897 4.006-7.683 3.746-9.212-.415l-3.68-10.011c-1.628-4.428-7.919-4.346-9.43.123l-3.168 9.367c-1.007 2.98-5.337 2.598-5.808-.512l-3.983-26.329c-.765-5.058-7.733-5.839-9.599-1.077l-19.549 49.892a5 5 0 0 1-7.01 2.586l-2.961-1.581a5 5 0 0 0-6.678 1.898l-20.069 34.521c-1.684 2.895-5.683 3.349-7.972.904l-3.144-3.356c-2.242-2.394-6.143-2.018-7.885.761l-12.329 19.658a5 5 0 0 1-4.236 2.343h-12.64a5.001 5.001 0 0 0-3.848 1.806l-9.784 11.787a4.999 4.999 0 0 1-5.868 1.38l-7.574-3.346a5 5 0 0 0-6.057 1.622l-20.982 28.702a5.002 5.002 0 0 1-4.037 2.049h-8.805a5 5 0 0 0-4.633 3.12l-7.891 19.443c-1.392 3.43-5.898 4.211-8.363 1.45l-3.111-3.485a5 5 0 0 0-6.223-1.005l-6.188 3.559a5.003 5.003 0 0 1-4.946.022l-13.626-7.675c-2.712-1.527-6.145-.233-7.173 2.704l-12.899 36.84c-1.584 4.522-8.006 4.443-9.478-.117l-3.194-9.896c-1.232-3.814-6.226-4.702-8.696-1.545l-6.392 8.167A5 5 0 0 1 527.14 532h-9.602a5 5 0 0 0-4.529 2.88L496.096 571l-2.846 6.105c-1.969 4.224-8.137 3.695-9.357-.804l-8.213-30.281c-.877-3.235-4.845-4.426-7.359-2.209-2.155 1.901-5.514 1.336-6.93-1.165l-6.428-11.362c-2.133-3.77-7.723-3.229-9.094.879l-6.532 19.573c-.962 2.88-4.921 3.172-6.294.464-1.121-2.209-4.145-2.531-5.706-.608l-5.07 6.246c-2.501 3.082-7.424 2.161-8.641-1.617l-18.731-58.139c-1.063-3.298-5.192-4.373-7.728-2.012a4.731 4.731 0 0 1-6.88-.461l-9.521-11.592c-2.202-2.682-6.4-2.36-8.167.627l-11.785 19.913a5 5 0 0 1-6.465 1.962l-10.669-5.116a5 5 0 0 0-6.36 1.792l-12 18.542c-2.015 3.113-6.6 3.027-8.495-.161l-7.713-12.968c-2.16-3.632-7.572-3.113-9.002.864l-6.842 19.026c-1.461 4.063-7.04 4.488-9.099.693l-14.193-26.154c-1.763-3.249-6.32-3.528-8.466-.518l-1.859 2.608c-2.539 3.56-8.102 2.377-8.972-1.908l-.088-.434a5 5 0 0 0-3.959-3.916l-11.957-2.292a5 5 0 0 0-4.892 1.846l-17.009 21.923a5 5 0 0 1-2.269 1.645l-25.558 9.121a4.998 4.998 0 0 0-3.157 3.445l-4.623 17.689c-1.163 4.452-7.215 5.101-9.296.998l-6.521-12.855c-1.813-3.573-6.881-3.67-8.829-.169l-.614 1.104c-1.677 3.015-5.832 3.465-8.116.88l-4.648-5.26c-2.193-2.482-6.15-2.184-7.947.599l-11.499 17.811a5.002 5.002 0 0 1-6.858 1.524l-.206-.13c-3.13-1.963-7.233.028-7.628 3.701l-1.442 13.401c-.471 4.378-5.963 6.053-8.797 2.684l-4.2-4.992c-2.462-2.926-7.164-2.118-8.507 1.462l-6.319 16.838c-1.583 4.22-7.502 4.355-9.277.212l-9.005-21.021c-1.833-4.28-8.007-3.951-9.375.499l-4.67 15.192a5 5 0 0 1-6.246 3.311l-14.39-4.413a5 5 0 0 0-5.698 2.119Z" fill="url(#c)"/><path d="m-11.01 601.5 9.356-3.4a4.998 4.998 0 0 0 2.564-2.102l6.187-10.175a5 5 0 0 1 5.738-2.183l14.332 4.395a5 5 0 0 0 6.245-3.311l4.67-15.192c1.37-4.45 7.543-4.779 9.376-.499l9.005 21.021c1.775 4.143 7.694 4.008 9.277-.212l6.319-16.838c1.343-3.58 6.045-4.388 8.507-1.462l4.2 4.992c2.834 3.369 8.326 1.694 8.797-2.684l1.442-13.401c.395-3.673 4.499-5.664 7.628-3.701l.206.13a5.002 5.002 0 0 0 6.858-1.524l11.499-17.811c1.797-2.783 5.754-3.081 7.947-.599l4.648 5.26c2.284 2.585 6.439 2.135 8.116-.88l.614-1.104c1.948-3.501 7.016-3.404 8.829.169l6.521 12.855c2.081 4.103 8.133 3.454 9.296-.998l4.623-17.689a5 5 0 0 1 3.157-3.445l25.558-9.121a5.006 5.006 0 0 0 2.269-1.644l17.009-21.924a5 5 0 0 1 4.892-1.846l11.957 2.292a5 5 0 0 1 3.959 3.916l.088.434c.87 4.285 6.433 5.468 8.972 1.908l1.859-2.608c2.146-3.01 6.703-2.731 8.466.518l14.193 26.154c2.059 3.795 7.638 3.37 9.099-.693l6.842-19.026c1.43-3.977 6.842-4.496 9.002-.864l7.713 12.968c1.895 3.188 6.48 3.274 8.495.161l12-18.542a5 5 0 0 1 6.36-1.792l10.669 5.116a5 5 0 0 0 6.465-1.962l11.785-19.913c1.767-2.987 5.965-3.309 8.167-.627l9.521 11.592a4.731 4.731 0 0 0 6.88.461c2.536-2.361 6.665-1.286 7.728 2.012l18.731 58.139c1.217 3.778 6.14 4.699 8.641 1.617l5.07-6.246c1.561-1.923 4.585-1.601 5.706.608 1.373 2.708 5.332 2.416 6.294-.464l6.532-19.573c1.371-4.108 6.961-4.649 9.094-.879l6.428 11.362c1.416 2.501 4.775 3.066 6.93 1.165 2.514-2.217 6.482-1.026 7.359 2.209l8.213 30.281c1.22 4.499 7.388 5.028 9.357.804l2.846-6.105 16.913-36.12a5.001 5.001 0 0 1 4.529-2.88h9.602c1.538 0 2.99-.707 3.937-1.918l6.392-8.167c2.47-3.157 7.464-2.269 8.696 1.545l3.194 9.896c1.472 4.56 7.894 4.639 9.478.117l12.899-36.84c1.028-2.937 4.461-4.231 7.173-2.704l13.626 7.675a5.003 5.003 0 0 0 4.946-.022l6.188-3.559a5 5 0 0 1 6.223 1.005l3.111 3.485c2.465 2.761 6.971 1.98 8.363-1.45l7.891-19.443a5 5 0 0 1 4.633-3.12h8.805a5.002 5.002 0 0 0 4.037-2.049l20.982-28.702a5 5 0 0 1 6.057-1.622l7.574 3.346a4.999 4.999 0 0 0 5.868-1.38l9.784-11.787a5.001 5.001 0 0 1 3.848-1.806h12.64a5.001 5.001 0 0 0 4.236-2.343l12.329-19.658c1.742-2.779 5.643-3.155 7.885-.761l3.144 3.356c2.289 2.445 6.288 1.991 7.972-.904l20.069-34.521a5 5 0 0 1 6.678-1.898l2.961 1.581a5 5 0 0 0 7.01-2.586l19.549-49.892c1.866-4.762 8.834-3.981 9.599 1.077l3.983 26.329c.471 3.11 4.801 3.492 5.808.512l3.168-9.367c1.511-4.469 7.802-4.551 9.43-.123l3.68 10.011c1.529 4.161 7.315 4.421 9.212.415l3.051-6.444a4.999 4.999 0 0 1 7.333-1.993l19.046 12.97a5.001 5.001 0 0 0 6.87-1.207l12.444-17.25a4.997 4.997 0 0 1 2.466-1.815l17.928-6.008c3.033-1.017 6.227 1.037 6.561 4.219l3.846 36.639c.046.439.149.869.308 1.281l7.627 19.731c1.599 4.14 7.397 4.299 9.221.253l4.748-10.528c2.163-4.797 9.313-3.429 9.553 1.827l2.026 44.507c.103 2.274 3.32 2.635 3.926.441L981.046 382l8.311-25.803c.956-2.968 4.364-4.347 7.114-2.878l2.042 1.09c2.607 1.389 5.837.236 6.967-2.487l8.85-21.227c1.66-3.969 7.22-4.136 9.11-.273l9.35 19.112c2.11 4.315 8.5 3.459 9.4-1.26l4.94-25.854a5.023 5.023 0 0 1 1.94-3.082l1.9-1.406c3.03-2.239 7.35-.453 7.92 3.271l4.7 30.992c.71 4.696 6.96 5.846 9.3 1.712l7.58-13.407 8.17-20.123c1.32-3.258 5.68-3.839 7.81-1.042 2.33 3.054 7.15 2.023 8.03-1.713l5.14-21.955c.8-3.407 4.98-4.673 7.54-2.278 2.34 2.205 6.18 1.334 7.34-1.67l11.26-29.01c1.8-4.639 8.53-4.089 9.55.781l.48 2.256c.79 3.761 5.74 4.675 7.82 1.442 2.28-3.554 7.79-2.02 7.91 2.205l7.22 256.107 11.55-126.173c.25-2.727 3.55-3.937 5.5-2.015 1.93 1.901 5.2.742 5.5-1.948l8.62-76.772c.42-3.749 5.77-4.002 6.54-.309.72 3.426 5.56 3.555 6.46.172l6.63-24.99a4.994 4.994 0 0 1 6.69-3.358l2.87 1.15c2.9 1.166 6.15-.59 6.76-3.658l3.64-18.171c.87-4.323 6.78-4.98 8.57-.952 1.06 2.391 4.56 2.037 5.13-.519l3.49-15.796c1.05-4.743 7.62-5.227 9.53-.764 1.25 2.898 5.59 2.263 5.8-.885l3.51-53.823a4.996 4.996 0 0 1 3.84-4.54l6.06-1.435a4.998 4.998 0 0 0 3.72-3.734l9.56-41.112a5.007 5.007 0 0 1 4.87-3.868h1.5c2.42 0 4.49-1.724 4.92-4.098l5.54-30.194c.75-4.105 6.29-4.907 8.18-1.185 1.69 3.326 6.5 3.136 7.92-.312l15.21-36.93c1.07-2.614 4.1-3.816 6.68-2.652l2.17.983c2.79 1.257 6.04-.254 6.87-3.193l4.15-14.644c1.3-4.554 7.6-4.931 9.43-.563l4.08 9.776c1.71 4.092 7.51 4.098 9.23.01l10.86-25.858c1.81-4.3 8-4.003 9.38.451l5.1 16.383c.84 2.693 4.59 2.847 5.65.233l13-32.176c1.64-4.066 7.69-2.89 7.69 1.495 0 3.974 5.17 5.506 7.34 2.174l2.2-3.387c2.44-3.763 8.22-2.653 9.09 1.746l6.35 31.883c.8 3.994 5.78 5.413 8.56 2.437l2.45-2.619c3.09-3.314 8.65-1.122 8.65 3.414v42.777c0 2.372 3.4 2.771 3.95.463l5.98-25.176c1.32-5.54 9.4-4.92 9.85.756l6.93 85.97c.16 2.109 3.07 2.544 3.85.579L1538.03 106" stroke="url(#d)" stroke-width="2" stroke-linejoin="round"/><mask id="f" style="mask-type:alpha" maskUnits="userSpaceOnUse" x="-3" y="352" width="1542" height="438"><path d="m10.953 593.169-9.412 2.774a5 5 0 0 0-3.587 4.796V785a5 5 0 0 0 5 5H1533.03c2.76 0 5-2.239 5-5V413.5l-6.41 7.39c-2.44 2.807-6.97 2.072-8.4-1.361l-10.92-26.328c-1.34-3.235-5.5-4.124-8.05-1.72l-4.07 3.842a4.995 4.995 0 0 1-7.29-.457l-31.93-38.803a4.999 4.999 0 0 0-7.23-.517l-1.01.912a4.991 4.991 0 0 1-5.08 1.004l-11.89-4.338a4.987 4.987 0 0 0-5.33 1.253l-15.08 15.871a5 5 0 0 1-7.6-.41l-6.33-8.289a4.992 4.992 0 0 0-5.87-1.59l-16.44 6.761a5.01 5.01 0 0 1-3.8.003l-7.81-3.198a4.996 4.996 0 0 0-4.73.512l-18.98 13.088a5.002 5.002 0 0 1-5.51.112l-.65-.409a4.995 4.995 0 0 0-6.49 1.006l-17.98 21.342c-1.93 2.297-5.44 2.382-7.49.18l-9.15-9.865a5.01 5.01 0 0 0-6.27-.87l-27.45 16.694a5.04 5.04 0 0 0-1.76 1.836l-17.71 31.751a5.01 5.01 0 0 1-5.93 2.316l-5.28-1.729a4.524 4.524 0 0 0-5.78 3.131 4.525 4.525 0 0 1-6.01 3.049l-16.21-6.301a5.006 5.006 0 0 0-5.8 1.639l-12.6 16.627a4.996 4.996 0 0 1-6.88 1.054l-5.09-3.618c-2.8-1.993-6.73-.631-7.69 2.667l-6.26 21.324a4.993 4.993 0 0 1-1.56 2.408l-13.12 11.109c-.33.28-.63.602-.87.958l-12.14 17.42a5.052 5.052 0 0 0-.86 2.308l-3.96 35.733c-.13 1.187-1.85 1.187-1.98 0l-10.77-97.727c-.42-3.862-4.9-5.784-7.99-3.435l-.62.47a5.007 5.007 0 0 1-6.64-.524l-1.91-2.002a5.006 5.006 0 0 0-6.71-.468l-32.52 25.644a5 5 0 0 1-5.49.463l-8.25-4.499a4.993 4.993 0 0 0-5.09.179l-18.28 11.71a4.994 4.994 0 0 1-5.31.051l-6.45-3.958a5 5 0 0 0-5.86.456l-20.795 17.733a5 5 0 0 1-6.675-.167l-6.591-6.216a5 5 0 0 0-6.17-.546l-25.469 16.682a5.003 5.003 0 0 1-3.83.697l-5.718-1.277a5 5 0 0 0-5.302 2.187l-23.622 36.959c-.853 1.334-2.844 1.195-3.504-.244l-9.825-21.451a5 5 0 0 0-7.228-2.137l-7.121 4.526c-2.726 1.733-6.355.465-7.409-2.589l-5.531-16.029c-1.198-3.474-5.609-4.512-8.23-1.936l-4.312 4.235a4.999 4.999 0 0 1-4.172 1.389l-21.413-2.887a4.998 4.998 0 0 0-3.787 1.047l-12.899 10.296a4.996 4.996 0 0 1-3.889 1.032l-27.729-4.324a4.997 4.997 0 0 0-3.878 1.024l-8.668 6.878a5 5 0 0 1-5.878.246l-9.29-6.183a3.912 3.912 0 0 0-5.548 1.289c-1.636 2.813-5.791 2.514-7.008-.503l-4.953-12.282c-1.319-3.269-5.515-4.184-8.075-1.761l-21.393 20.253a5.005 5.005 0 0 1-3.012 1.351l-31.441 2.686a5.003 5.003 0 0 0-3.25 1.591l-10.949 11.87a5 5 0 0 1-5.818 1.128l-8.1-3.842a5 5 0 0 0-5.829 1.14l-4.319 4.714a5 5 0 0 1-5.57 1.255l-9.447-3.841a5.001 5.001 0 0 0-4.112.157l-31.98 15.93a5.001 5.001 0 0 1-4.304.073l-9.322-4.251a4.997 4.997 0 0 0-5.15.607l-13.205 10.302a5.003 5.003 0 0 1-3.848.998l-17.634-2.757a5 5 0 0 0-4.428 1.529l-6.681 7.16a4.998 4.998 0 0 1-6.148.923l-14.733-8.472a4.999 4.999 0 0 0-5.275.18l-6.782 4.543a5.002 5.002 0 0 1-3.975.702l-24.869-6.108a5 5 0 0 0-5.441 2.219l-8.246 13.286a4.262 4.262 0 0 1-6.323 1.05 4.264 4.264 0 0 0-4.932-.334l-3.586 2.202a5 5 0 0 1-4.172.491l-9.633-3.155a5.001 5.001 0 0 0-5.581 1.785l-6.421 8.712a5 5 0 0 1-5.53 1.801l-6.844-2.161a5 5 0 0 0-5.938 2.455l-5.981 11.458a5 5 0 0 1-6.637 2.174l-2.477-1.217a4.022 4.022 0 0 0-5.224 1.544c-1.498 2.501-5.075 2.628-6.746.24l-5.397-7.713a5 5 0 0 0-5.891-1.8l-6.292 2.419a5 5 0 0 1-3.537.019l-14.185-5.273a5.002 5.002 0 0 0-5.129 1.009l-10.342 9.526a4.94 4.94 0 0 1-7.031-.355c-1.991-2.236-5.51-2.195-7.436.097-2.547 3.029-7.447 1.957-8.497-1.859l-1.593-5.789a3.292 3.292 0 0 0-4.518-2.133 3.295 3.295 0 0 1-3.701-.708l-7.784-7.98a5 5 0 0 0-5.408-1.162l-6.84 2.688a5 5 0 0 1-5.076-.852l-6.73-5.749a3.866 3.866 0 0 0-5.22.181 3.865 3.865 0 0 1-5.261.146l-4.252-3.737a5 5 0 0 0-5.84-.552l-16.477 9.712a5 5 0 0 1-6.043-.74l-3.114-3.06c-2.243-2.204-5.939-1.815-7.674.808l-.673 1.016a5 5 0 0 1-6.671 1.57l-.982-.567a5 5 0 0 0-6.298 1.075l-1.945 2.269a4.603 4.603 0 0 1-6.991 0l-.595-.694c-1.899-2.215-5.452-1.729-6.686.915-1.312 2.813-5.183 3.136-6.944.58l-3.818-5.545c-1.928-2.801-6.029-2.901-8.092-.199l-2.868 3.757a4.991 4.991 0 0 1-1.408 1.257l-7.437 4.448a5 5 0 0 1-6.2-.857l-3.382-3.578a5.02 5.02 0 0 0-1.076-.862l-13.185-7.85a5 5 0 0 0-5.725.427l-4.488 3.674c-2.535 2.075-6.349 1.192-7.713-1.787l-.057-.124a5 5 0 0 0-6.013-2.698l-11.159 3.426c-.62.19-1.197.499-1.7.911l-2.906 2.379a2.747 2.747 0 0 1-4.085-.694 2.748 2.748 0 0 0-3.739-.935l-22.932 13.518a5.001 5.001 0 0 1-5.35-.173l-2.04-1.388a4.998 4.998 0 0 0-4.226-.661Z" fill="url(#e)"/></mask><g mask="url(#f)"><path fill="url(#g)" d="M-1.537 329h1540.07v462H-1.537z"/></g><path d="m-2.043 598 13-3.831a4.998 4.998 0 0 1 4.225.661l2.04 1.388a5.001 5.001 0 0 0 5.35.173l22.932-13.518a2.748 2.748 0 0 1 3.74.935 2.747 2.747 0 0 0 4.084.694l2.906-2.379a4.976 4.976 0 0 1 1.7-.911l11.159-3.426a5 5 0 0 1 6.013 2.698l.057.124c1.364 2.979 5.178 3.862 7.713 1.787l4.487-3.674a5 5 0 0 1 5.726-.427l13.185 7.85a4.99 4.99 0 0 1 1.075.862l3.383 3.578a5 5 0 0 0 6.2.857l7.437-4.448a4.991 4.991 0 0 0 1.408-1.257l2.868-3.757c2.063-2.702 6.164-2.602 8.092.199l3.818 5.545c1.761 2.556 5.632 2.233 6.944-.58 1.234-2.644 4.787-3.13 6.686-.915l.595.694a4.602 4.602 0 0 0 6.99 0l1.946-2.269a4.999 4.999 0 0 1 6.298-1.075l.982.567a5 5 0 0 0 6.671-1.57l.673-1.016c1.735-2.623 5.431-3.012 7.674-.808l3.114 3.06a5 5 0 0 0 6.043.74l16.477-9.712a5 5 0 0 1 5.84.552l4.252 3.737a3.865 3.865 0 0 0 5.261-.146 3.866 3.866 0 0 1 5.22-.181l6.73 5.749a5 5 0 0 0 5.076.852l6.84-2.688a5 5 0 0 1 5.408 1.162l7.784 7.98a3.295 3.295 0 0 0 3.701.708 3.292 3.292 0 0 1 4.518 2.133l1.593 5.789c1.05 3.816 5.95 4.888 8.496 1.859 1.927-2.292 5.446-2.333 7.437-.097 1.833 2.058 5.003 2.222 7.03.355l10.343-9.526a5.002 5.002 0 0 1 5.129-1.009l14.185 5.273a5 5 0 0 0 3.537-.019l6.292-2.419a5 5 0 0 1 5.891 1.8l5.397 7.713c1.671 2.388 5.248 2.261 6.746-.24a4.022 4.022 0 0 1 5.224-1.544l2.477 1.217a5.001 5.001 0 0 0 6.637-2.174l5.981-11.458a5 5 0 0 1 5.938-2.455l6.843 2.161a5.001 5.001 0 0 0 5.531-1.801l6.421-8.712a5.001 5.001 0 0 1 5.581-1.785l9.633 3.155a5 5 0 0 0 4.172-.491l3.586-2.202a4.264 4.264 0 0 1 4.932.334 4.263 4.263 0 0 0 6.323-1.05l8.246-13.286a5 5 0 0 1 5.441-2.219l24.868 6.108a5.003 5.003 0 0 0 3.976-.702l6.782-4.543a4.999 4.999 0 0 1 5.275-.18l14.733 8.472a4.998 4.998 0 0 0 6.148-.923l6.681-7.16a5 5 0 0 1 4.428-1.529l17.634 2.757a5.003 5.003 0 0 0 3.848-.998l13.205-10.302a4.997 4.997 0 0 1 5.15-.607l9.322 4.251a5.001 5.001 0 0 0 4.304-.073l31.98-15.93a5.001 5.001 0 0 1 4.112-.157l9.447 3.841a5.001 5.001 0 0 0 5.57-1.255l4.318-4.714a5.002 5.002 0 0 1 5.83-1.14l8.1 3.842a5 5 0 0 0 5.818-1.128l10.949-11.87a5.003 5.003 0 0 1 3.25-1.591l31.441-2.686a5.005 5.005 0 0 0 3.012-1.351l21.393-20.253c2.56-2.423 6.756-1.508 8.075 1.761l4.953 12.282c1.217 3.017 5.372 3.316 7.008.503a3.91 3.91 0 0 1 5.547-1.289l9.291 6.183a5 5 0 0 0 5.878-.246l8.668-6.878a4.997 4.997 0 0 1 3.878-1.024l27.729 4.324a4.998 4.998 0 0 0 3.889-1.032l12.899-10.296a4.998 4.998 0 0 1 3.787-1.047l21.413 2.887a5 5 0 0 0 4.172-1.389l4.312-4.235c2.621-2.575 7.032-1.538 8.23 1.936l5.531 16.029c1.054 3.054 4.683 4.322 7.409 2.589l7.121-4.526a5 5 0 0 1 7.228 2.137l9.825 21.451c.66 1.439 2.651 1.578 3.504.244l23.622-36.959a5 5 0 0 1 5.302-2.187l5.718 1.277a5 5 0 0 0 3.829-.697l25.47-16.682a5 5 0 0 1 6.17.546l6.591 6.216a5 5 0 0 0 6.675.167l20.802-17.733a4.998 4.998 0 0 1 5.86-.456l6.44 3.958a5.011 5.011 0 0 0 5.32-.051l18.27-11.71a5.01 5.01 0 0 1 5.1-.179l8.24 4.499c1.76.96 3.92.777 5.49-.463l32.52-25.644a5.005 5.005 0 0 1 6.71.468l1.92 2.002a4.994 4.994 0 0 0 6.63.524l.62-.47c3.09-2.349 7.57-.427 7.99 3.435l10.77 97.727c.13 1.187 1.86 1.187 1.99 0l3.95-35.733c.09-.829.39-1.623.87-2.308l12.13-17.42c.25-.356.54-.678.87-.958l13.12-11.109a4.993 4.993 0 0 0 1.56-2.408l6.26-21.324c.97-3.298 4.89-4.66 7.7-2.667l5.08 3.618a4.996 4.996 0 0 0 6.88-1.054l12.61-16.627a4.991 4.991 0 0 1 5.79-1.639l16.21 6.301c2.51.977 5.32-.444 6.01-3.049a4.538 4.538 0 0 1 5.79-3.131l5.28 1.729a5.002 5.002 0 0 0 5.92-2.316l17.71-31.751a4.987 4.987 0 0 1 1.77-1.836l27.45-16.694a4.995 4.995 0 0 1 6.26.87l9.16 9.865a4.99 4.99 0 0 0 7.48-.18l17.98-21.342a5.006 5.006 0 0 1 6.5-1.006l.65.409a4.985 4.985 0 0 0 5.5-.112l18.98-13.088a4.996 4.996 0 0 1 4.73-.512l7.81 3.198a5.01 5.01 0 0 0 3.8-.003l16.44-6.761a4.992 4.992 0 0 1 5.87 1.59l6.33 8.289a5 5 0 0 0 7.6.41l15.08-15.871a5.003 5.003 0 0 1 5.34-1.253l11.88 4.338c1.75.638 3.71.251 5.09-1.004l1-.912a4.999 4.999 0 0 1 7.23.517l31.93 38.803a5.006 5.006 0 0 0 7.3.457l4.06-3.842c2.55-2.404 6.72-1.515 8.06 1.72l10.91 26.328c1.43 3.433 5.97 4.168 8.4 1.361l6.41-7.39" stroke="url(#h)" stroke-width="2" stroke-linejoin="round"/></g><defs><linearGradient id="a" x1="768" y1="504.7" x2="768" y2="682" gradientUnits="userSpaceOnUse"><stop stop-color="#85B3BD"/><stop offset="1" stop-color="#81B2BA" stop-opacity="0"/></linearGradient><linearGradient id="c" x1="1516.72" y1="80" x2="-543.628" y2="823.278" gradientUnits="userSpaceOnUse"><stop stop-color="#BDC6F5"/><stop offset="1" stop-color="#F4B896"/></linearGradient><linearGradient id="d" x1="1587.74" y1="-41.5" x2="-103.108" y2="653.489" gradientUnits="userSpaceOnUse"><stop stop-color="#5C72E6"/><stop offset="1" stop-color="#D08B64"/></linearGradient><linearGradient id="e" x1="-163.382" y1="809.909" x2="1837.35" y2="402.245" gradientUnits="userSpaceOnUse"><stop stop-color="#BDC6F5"/><stop offset="1" stop-color="#5FA698"/></linearGradient><linearGradient id="g" x1="-162.873" y1="812" x2="1845.96" y2="423.948" gradientUnits="userSpaceOnUse"><stop stop-color="#BDC6F5"/><stop offset="1" stop-color="#5FA698"/></linearGradient><linearGradient id="h" x1="-1.534" y1="641.5" x2="1509.92" y2="475.274" gradientUnits="userSpaceOnUse"><stop stop-color="#7C8AD2"/><stop offset="1" stop-color="#267E5F"/></linearGradient></defs></svg>