<svg width="45" height="45" viewBox="0 0 45 45" fill="none" xmlns="http://www.w3.org/2000/svg">
<rect width="44.0222" height="44.0222" transform="translate(0.692749 0.588867)" fill="white" fill-opacity="0.01"/>
<mask id="mask0_3041_3665" style="mask-type:alpha" maskUnits="userSpaceOnUse" x="0" y="0" width="45" height="45">
<path d="M43.7899 28.934C44.3916 26.928 44.7149 24.8017 44.7149 22.5998C44.7149 10.4434 34.8602 0.588745 22.7038 0.588745C10.5474 0.588745 0.692749 10.4434 0.692749 22.5998C0.692749 34.7562 10.5474 44.6109 22.7038 44.6109C24.9057 44.6109 27.0321 44.2876 29.038 43.6859C26.8424 41.7693 25.4552 38.9499 25.4552 35.8065C25.4552 30.0322 30.1362 25.3512 35.9105 25.3512C39.0539 25.3512 41.8733 26.7384 43.7899 28.934Z" fill="white"/>
</mask>
<g mask="url(#mask0_3041_3665)">
<path d="M21.2597 16.5481H23.8108L25.7764 24.0968L27.5538 16.5481H30.9413L27.5538 29.3872H24.4799L22.4934 21.8594L20.486 29.3872H17.4122L14.0456 16.5481H17.4749L19.2732 24.0968L21.2597 16.5481Z" fill="white"/>
<g clip-path="url(#clip0_3041_3665)">
<path d="M0.692749 22.5998C0.692749 10.4434 10.5474 0.588745 22.7038 0.588745V0.588745C34.8602 0.588745 44.7149 10.4434 44.7149 22.5998V22.5998C44.7149 34.7562 34.8602 44.6109 22.7038 44.6109V44.6109C10.5474 44.6109 0.692749 34.7562 0.692749 22.5998V22.5998Z" fill="white" fill-opacity="0.01"/>
<path d="M22.7038 44.6109C34.8602 44.6109 44.7149 34.7562 44.7149 22.5998C44.7149 10.4434 34.8602 0.588745 22.7038 0.588745C10.5474 0.588745 0.692749 10.4434 0.692749 22.5998C0.692749 34.7562 10.5474 44.6109 22.7038 44.6109Z" fill="#4840BB"/>
</g>
</g>
<g clip-path="url(#clip1_3041_3665)">
<path d="M27.1057 35.8063C27.1057 30.9437 31.0476 27.0018 35.9101 27.0018V27.0018C40.7727 27.0018 44.7146 30.9437 44.7146 35.8063V35.8063C44.7146 40.6688 40.7727 44.6107 35.9101 44.6107V44.6107C31.0476 44.6107 27.1057 40.6688 27.1057 35.8063V35.8063Z" fill="#D2E2C5"/>
<g clip-path="url(#clip2_3041_3665)">
<path fill-rule="evenodd" clip-rule="evenodd" d="M36.1271 33.635C36.1271 32.6229 36.9322 31.8014 37.9308 31.8014C38.9294 31.8014 39.7345 32.6229 39.7345 33.635V34.0006C39.7345 34.2985 39.6641 34.5822 39.5361 34.8348C39.5085 34.8894 39.5293 34.9561 39.5763 34.983C40.3329 35.4177 40.7439 36.1479 40.7439 36.873C40.7439 37.1388 40.6012 37.3769 40.4429 37.5595C40.2769 37.751 40.0518 37.9304 39.7973 38.0843C39.2898 38.3913 38.6145 38.6273 37.9357 38.637L37.9351 38.637L37.9315 38.6371L37.9308 38.6371C37.7089 38.6371 37.4876 38.6129 37.2726 38.57C37.1581 38.5471 37.0614 38.4729 37.0028 38.3719L36.9807 38.3338C36.8978 38.191 36.9358 38.0086 37.0689 37.9109C37.1577 37.8457 37.2705 37.8233 37.3782 37.8464C37.5638 37.8862 37.7874 37.9269 37.9333 37.9292C38.4683 37.9286 39.0231 37.7462 39.4421 37.4987C39.6513 37.3751 39.8137 37.2428 39.9192 37.1226C40.0285 36.9981 40.0443 36.9246 40.045 36.9088C40.045 36.7738 40.038 36.6568 40.0256 36.5557C39.9803 36.1872 39.6899 35.9742 39.2737 35.8528C38.8589 35.7318 38.35 35.7124 37.9308 35.7124C37.6896 35.7124 37.4559 35.6645 37.2431 35.5773C37.0564 35.5008 36.8718 35.4701 36.7217 35.5455C36.5893 35.612 36.431 35.7423 36.3048 35.8575C36.2376 35.9188 36.1427 35.9405 36.0568 35.9108C35.9689 35.8804 35.905 35.8021 35.9015 35.7092C35.899 35.6441 35.8996 35.5742 35.9063 35.5056C35.9181 35.3832 35.9516 35.2256 36.0482 35.1478C36.0971 35.1084 36.17 35.0586 36.242 35.0169C36.2565 35.0085 36.2722 34.9993 36.2899 34.9889C36.3363 34.9616 36.3564 34.8954 36.3288 34.8413C36.1987 34.5871 36.1271 34.301 36.1271 34.0006V33.635ZM37.9308 32.5092C37.3212 32.5092 36.826 33.0108 36.826 33.635V33.8824C36.8279 34.5049 37.3223 35.0046 37.9308 35.0046C38.5404 35.0046 39.0356 34.503 39.0356 33.8788L39.0356 33.635C39.0356 33.0108 38.5404 32.5092 37.9308 32.5092Z" fill="#26403D"/>
<path fill-rule="evenodd" clip-rule="evenodd" d="M31.9365 34.809C31.9365 33.7968 32.7416 32.9753 33.7401 32.9753C34.7387 32.9753 35.5438 33.7968 35.5438 34.809V35.1746C35.5438 35.4724 35.4735 35.7561 35.3455 36.0088C35.3179 36.0633 35.3387 36.13 35.3856 36.157C36.1422 36.5916 36.5532 37.3218 36.5532 38.047C36.5532 38.3128 36.4105 38.5508 36.2522 38.7334C36.0862 38.9249 35.8612 39.1043 35.6067 39.2582C35.0991 39.5652 34.4238 39.8012 33.7451 39.8109L33.7444 39.811L33.7408 39.811L33.7401 39.811C33.0612 39.811 32.3852 39.5844 31.8767 39.284C31.6218 39.1334 31.3961 38.9567 31.2295 38.7668C31.0704 38.5856 30.9271 38.3483 30.9271 38.0818C30.9271 38.079 30.9271 38.0762 30.9272 38.0734C30.9443 37.3426 31.3414 36.6089 32.0993 36.1628C32.1456 36.1356 32.1658 36.0693 32.1381 36.0153C32.008 35.761 31.9365 35.4749 31.9365 35.1746V34.809ZM33.7401 33.6832C33.1305 33.6832 32.6353 34.1847 32.6353 34.809V35.0563C32.6372 35.6789 33.1317 36.1785 33.7401 36.1785C34.3498 36.1785 34.845 35.6769 34.845 35.0527L34.845 35.0524L34.845 35.0508V34.809C34.845 34.1847 34.3498 33.6832 33.7401 33.6832ZM33.0524 36.7512C32.8657 36.6747 32.6812 36.6441 32.531 36.7195C31.9067 37.033 31.6259 37.5757 31.6259 38.047C31.6259 38.0598 31.6394 38.1351 31.7532 38.2663C31.8593 38.3887 32.0224 38.5237 32.2319 38.6505C32.6519 38.9045 33.2074 39.0949 33.7426 39.1031C34.2777 39.1026 34.8324 38.9202 35.2514 38.6726C35.4606 38.549 35.623 38.4167 35.7285 38.2965C35.8378 38.172 35.8536 38.0985 35.8544 38.0827C35.8543 37.9477 35.8474 37.8307 35.8349 37.7296C35.7896 37.3611 35.4993 37.1482 35.0831 37.0267C34.6682 36.9057 34.1594 36.8863 33.7401 36.8863C33.4989 36.8863 33.2652 36.8384 33.0524 36.7512Z" fill="#26403D"/>
</g>
</g>
<path d="M13.1916 25.4082C13.4334 25.257 13.6087 25.6064 13.8224 26.083C14.684 27.8294 15.9673 29.6674 17.2297 30.877C19.7529 33.2943 22.5132 34.2172 22.6535 34.3252C22.8685 34.4911 22.8663 34.6223 22.4543 34.6367C13.7242 34.9433 10.156 31.0393 9.55975 28.7773C9.49538 28.533 9.55193 28.5065 9.81854 28.1982C10.4773 27.4365 12.394 25.9083 13.1916 25.4082ZM20.006 16.7861C20.5632 16.6185 20.5595 17.1635 20.5861 17.3066C22.0078 24.9646 24.5542 28.9602 26.8605 31.2373C26.4322 32.1052 26.1276 33.045 25.9709 34.0342C17.0638 31.6449 14.1361 22.9956 13.5265 19.8574C13.461 19.5198 13.6621 19.4932 13.9289 19.3154C14.1959 19.1373 17.2231 17.7269 20.006 16.7861ZM32.008 10.124C32.1492 10.1286 32.2773 10.1372 32.3889 10.1504C32.6777 10.1846 32.6337 10.4299 32.5685 10.7969C31.6092 16.2051 30.9666 21.8618 31.7931 26.5488C30.1019 27.2785 28.6566 28.4688 27.6144 29.9619C24.5466 26.5831 21.9097 20.9871 22.1467 11.9814C22.1543 11.6891 22.1959 11.555 22.6535 11.4287C24.1849 11.0066 29.0266 10.1869 31.4719 10.124H32.008Z" fill="white"/>
<defs>
<clipPath id="clip0_3041_3665">
<path d="M0.692749 22.5998C0.692749 10.4434 10.5474 0.588745 22.7038 0.588745V0.588745C34.8602 0.588745 44.7149 10.4434 44.7149 22.5998V22.5998C44.7149 34.7562 34.8602 44.6109 22.7038 44.6109V44.6109C10.5474 44.6109 0.692749 34.7562 0.692749 22.5998V22.5998Z" fill="white"/>
</clipPath>
<clipPath id="clip1_3041_3665">
<path d="M27.1057 35.8063C27.1057 30.9437 31.0476 27.0018 35.9101 27.0018V27.0018C40.7727 27.0018 44.7146 30.9437 44.7146 35.8063V35.8063C44.7146 40.6688 40.7727 44.6107 35.9101 44.6107V44.6107C31.0476 44.6107 27.1057 40.6688 27.1057 35.8063V35.8063Z" fill="white"/>
</clipPath>
<clipPath id="clip2_3041_3665">
<rect width="11.7392" height="11.7392" fill="white" transform="translate(30.0405 29.9366)"/>
</clipPath>
</defs>
</svg>
