<svg width="332" height="302" viewBox="0 0 332 302" fill="none" xmlns="http://www.w3.org/2000/svg">
<path d="M32 38H56.6073H81" stroke="#B4B4BF" stroke-width="10" stroke-linecap="round"/>
<path d="M81 94H105.607H130" stroke="#B4B4BF" stroke-width="10" stroke-linecap="round"/>
<path d="M132 192H214.861H297" stroke="#B4B4BF" stroke-width="10" stroke-linecap="round"/>
<path d="M81 38L81 66.1227L81 94" stroke="#B4B4BF" stroke-width="10" stroke-linecap="round"/>
<path d="M132 94L132 143.215L132 192" stroke="#B4B4BF" stroke-width="10" stroke-linecap="round"/>
<path d="M34 57H70.1577H106" stroke="#4840BB" stroke-width="10" stroke-linecap="round"/>
<path d="M106 66H142.158H178" stroke="#4840BB" stroke-width="10" stroke-linecap="round"/>
<path d="M178 75H239.769H301" stroke="#4840BB" stroke-width="10" stroke-linecap="round"/>
<path d="M178 75L178 70.4803L178 66" stroke="#4840BB" stroke-width="10" stroke-linecap="round"/>
<path d="M106 66L106 61.4803L106 57" stroke="#4840BB" stroke-width="10" stroke-linecap="round"/>
<path d="M302 48.8016C288.816 48.8016 278.128 59.7168 278.128 73.1814C278.128 86.6459 288.816 97.5611 302 97.5611C315.184 97.5611 325.872 86.6459 325.872 73.1814C325.872 59.7168 315.184 48.8016 302 48.8016Z" fill="#B1ACFF" stroke="#4840BB" stroke-width="1.73774" stroke-miterlimit="10"/>
<path fill-rule="evenodd" clip-rule="evenodd" d="M306.049 63.4786C306.298 63.4786 306.499 63.6802 306.499 63.929C306.499 64.1777 306.298 64.3794 306.049 64.3794H305.994C305.374 64.3794 304.939 64.992 305.144 65.5777L310.978 82.246C311.06 82.4809 310.936 82.7378 310.702 82.8199C310.467 82.9022 310.21 82.7784 310.128 82.5436L309.71 81.3493C309.457 80.6267 308.775 80.1429 308.009 80.1429H304.305C303.685 80.1429 303.25 80.7556 303.455 81.3413L303.772 82.246C303.854 82.4809 303.73 82.7378 303.495 82.8199C303.261 82.9022 303.004 82.7784 302.921 82.5436L301.769 79.2501C301.389 78.1663 300.366 77.4406 299.218 77.4406H298.843H297.622C296.488 77.4406 295.475 78.1481 295.085 79.2125L293.861 82.55C293.775 82.7834 293.517 82.9033 293.283 82.8177C293.049 82.7321 292.93 82.4733 293.015 82.2397L297.696 69.4758C297.912 68.888 297.916 68.2436 297.71 67.6527L296.775 64.9826C296.649 64.6213 296.308 64.3794 295.925 64.3794H295.24C294.991 64.3794 294.789 64.1777 294.789 63.929C294.789 63.6802 294.991 63.4786 295.24 63.4786H306.049ZM297.355 76.5398C296.729 76.5398 296.293 75.9167 296.509 75.3289L297.633 72.2653C297.924 71.4716 299.049 71.4799 299.328 72.2779L300.401 75.3414C300.606 75.9271 300.171 76.5398 299.551 76.5398H297.355ZM302.509 78.639C302.636 79.0002 302.977 79.2421 303.359 79.2421H307.703C308.323 79.2421 308.758 78.6294 308.553 78.0438L307.607 75.3415C307.48 74.9802 307.139 74.7383 306.757 74.7383H302.414C301.793 74.7383 301.358 75.351 301.563 75.9366L302.509 78.639ZM301.468 73.8375C301.085 73.8375 300.744 73.5955 300.618 73.2343L299.672 70.532C299.467 69.9463 299.901 69.3336 300.522 69.3336H304.865C305.248 69.3336 305.589 69.5755 305.715 69.9368L306.661 72.6392C306.866 73.2248 306.431 73.8375 305.811 73.8375H301.468ZM303.919 68.4328C304.54 68.4328 304.974 67.8202 304.769 67.2345L303.981 64.9826C303.855 64.6213 303.514 64.3794 303.131 64.3794H298.788C298.167 64.3794 297.733 64.992 297.938 65.5777L298.726 67.8296C298.852 68.1909 299.193 68.4328 299.576 68.4328H303.919Z" fill="#4840BB" stroke="#4840BB" stroke-width="0.774671"/>
<path d="M276.446 87.5286C284.425 101.348 302.333 105.945 316.446 97.7966C330.559 89.6484 335.532 71.8406 327.554 58.0216C319.575 44.2026 301.667 39.6055 287.554 47.7536C273.441 55.9018 268.468 73.7097 276.446 87.5286Z" stroke="#4840BB" stroke-width="1.84419" stroke-miterlimit="10" stroke-linecap="round" stroke-dasharray="3.69 7.38 11.07 14.75"/>
<path d="M301.997 54.897C292.179 54.897 284.22 63.0834 284.22 73.1818C284.22 83.2802 292.179 91.4666 301.997 91.4666C311.815 91.4666 319.774 83.2802 319.774 73.1818C319.774 63.0834 311.815 54.897 301.997 54.897Z" stroke="#4840BB" stroke-width="1.73774" stroke-miterlimit="10"/>
<path d="M148.493 294.384V292.176H157.133V294.384H154.093V302H151.517V294.384H148.493ZM162.367 292.176V302H159.791V292.176H162.367ZM171.55 302H169.886L167.838 296.16V302H165.438V292.176H168.574L170.734 298.288L172.878 292.176H175.998V302H173.582V296.16L171.55 302ZM179.069 292.176H186.093V294.384H181.597V295.92H185.709V298.08H181.597V299.776H186.093V302H179.069V292.176Z" fill="#6F6E80"/>
<path d="M301.634 167.722C288.45 167.722 277.762 178.637 277.762 192.102C277.762 205.567 288.449 216.482 301.634 216.482C314.818 216.482 325.505 205.567 325.505 192.102C325.505 178.637 314.818 167.722 301.634 167.722Z" fill="#F0F0F2" stroke="#6F6E80" stroke-width="1.73774" stroke-miterlimit="10"/>
<path fill-rule="evenodd" clip-rule="evenodd" d="M292.621 186.799C292.621 184.687 294.401 182.908 296.513 182.908C298.626 182.908 300.405 184.687 300.405 186.799C300.405 188.912 298.626 190.691 296.513 190.691C294.401 190.691 292.621 188.912 292.621 186.799ZM294.845 186.799C294.845 187.689 295.624 188.467 296.513 188.467C297.403 188.467 298.181 187.689 298.181 186.799C298.181 185.91 297.403 185.132 296.513 185.132C295.624 185.132 294.845 185.91 294.845 186.799ZM308.968 185.91L295.624 199.253C295.179 199.698 294.512 199.698 294.067 199.253C293.622 198.808 293.622 198.141 294.067 197.697L307.411 184.353C307.856 183.908 308.523 183.908 308.968 184.353C309.412 184.798 309.412 185.465 308.968 185.91ZM306.522 192.916C304.409 192.916 302.63 194.695 302.63 196.807C302.63 198.92 304.409 200.699 306.522 200.699C308.635 200.699 310.414 198.92 310.414 196.807C310.414 194.695 308.635 192.916 306.522 192.916ZM306.522 198.475C305.632 198.475 304.854 197.697 304.854 196.807C304.854 195.918 305.632 195.139 306.522 195.139C307.412 195.139 308.19 195.918 308.19 196.807C308.19 197.697 307.412 198.475 306.522 198.475Z" fill="#6F6E80"/>
<path d="M301.631 173.818C291.813 173.818 283.854 182.004 283.854 192.102C283.854 202.201 291.813 210.387 301.631 210.387C311.449 210.387 319.408 202.201 319.408 192.102C319.408 182.004 311.449 173.818 301.631 173.818Z" stroke="#6F6E80" stroke-width="1.73774" stroke-miterlimit="10"/>
<path d="M235.912 115.359C236.84 115.663 237.512 116.575 237.512 117.679C237.512 119.455 236.296 120.431 234.248 120.431H229.736V110.607H233.944C235.992 110.607 237.224 111.519 237.224 113.279C237.224 114.335 236.632 115.103 235.912 115.359ZM232.184 114.495H233.656C234.408 114.495 234.808 114.207 234.808 113.599C234.808 112.991 234.408 112.719 233.656 112.719H232.184V114.495ZM232.184 116.415V118.319H233.912C234.632 118.319 235.032 117.935 235.032 117.375C235.032 116.783 234.632 116.415 233.912 116.415H232.184ZM247.858 115.519C247.858 118.447 245.89 120.591 243.042 120.591C240.21 120.591 238.258 118.447 238.258 115.519C238.258 112.575 240.21 110.447 243.042 110.447C245.89 110.447 247.858 112.575 247.858 115.519ZM245.266 115.519C245.266 113.823 244.37 112.703 243.042 112.703C241.714 112.703 240.85 113.823 240.85 115.519C240.85 117.215 241.714 118.335 243.042 118.335C244.37 118.335 245.266 117.215 245.266 115.519ZM257.595 110.607V120.431H255.516L251.404 114.687V120.431H248.924V110.607H251.324L255.116 116.015V110.607H257.595ZM261.592 118.207H262.648C264.28 118.207 265.192 117.167 265.192 115.519C265.192 113.855 264.28 112.815 262.648 112.815H261.592V118.207ZM259.064 120.431V110.607H262.776C265.864 110.607 267.736 112.527 267.736 115.519C267.736 118.511 265.864 120.431 262.776 120.431H259.064ZM272.017 120.431V110.607H274.593V118.207H278.993V120.431H272.017ZM283.34 110.607H285.964L289.708 120.431H287.1L286.396 118.527H282.828L282.14 120.431H279.596L283.34 110.607ZM284.62 113.647L283.612 116.415H285.628L284.62 113.647ZM293.092 118.207H294.148C295.78 118.207 296.692 117.167 296.692 115.519C296.692 113.855 295.78 112.815 294.148 112.815H293.092V118.207ZM290.564 120.431V110.607H294.276C297.364 110.607 299.236 112.527 299.236 115.519C299.236 118.511 297.364 120.431 294.276 120.431H290.564ZM302.842 118.207H303.898C305.53 118.207 306.442 117.167 306.442 115.519C306.442 113.855 305.53 112.815 303.898 112.815H302.842V118.207ZM300.314 120.431V110.607H304.026C307.114 110.607 308.986 112.527 308.986 115.519C308.986 118.511 307.114 120.431 304.026 120.431H300.314ZM310.064 110.607H317.088V112.815H312.592V114.351H316.704V116.511H312.592V118.207H317.088V120.431H310.064V110.607ZM321.801 117.183H320.905V120.431H318.361V110.607H322.777C324.889 110.607 326.345 111.807 326.345 113.951C326.345 115.439 325.593 116.463 324.393 116.911L326.697 120.431H323.849L321.801 117.183ZM320.905 112.767V115.135H322.505C323.417 115.135 323.833 114.671 323.833 113.951C323.833 113.231 323.417 112.767 322.505 112.767H320.905Z" fill="#230B59"/>
<path d="M214.312 229.027V238.851H211.736V229.027H214.312ZM224.455 229.027V238.851H222.375L218.263 233.107V238.851H215.783V229.027H218.183L221.975 234.435V229.027H224.455ZM225.508 231.235V229.027H234.148V231.235H231.108V238.851H228.532V231.235H225.508ZM235.205 229.027H242.229V231.235H237.733V232.771H241.845V234.931H237.733V236.627H242.229V238.851H235.205V229.027ZM246.942 235.603H246.046V238.851H243.502V229.027H247.918C250.03 229.027 251.486 230.227 251.486 232.371C251.486 233.859 250.734 234.883 249.534 235.331L251.838 238.851H248.99L246.942 235.603ZM246.046 231.187V233.555H247.646C248.558 233.555 248.974 233.091 248.974 232.371C248.974 231.651 248.558 231.187 247.646 231.187H246.046ZM252.689 229.027H259.713V231.235H255.217V232.771H259.329V234.931H255.217V236.627H259.713V238.851H252.689V229.027ZM260.442 235.939H263.114C263.322 236.611 263.898 236.947 264.698 236.947C265.482 236.947 266.026 236.611 266.026 236.003C266.026 235.539 265.722 235.331 265.098 235.187L263.21 234.787C261.77 234.467 260.682 233.715 260.682 232.051C260.682 230.131 262.282 228.867 264.458 228.867C266.858 228.867 268.218 230.179 268.49 231.875H265.978C265.77 231.331 265.322 230.915 264.474 230.915C263.738 230.915 263.242 231.235 263.242 231.779C263.242 232.211 263.546 232.451 264.058 232.563L265.978 233.011C267.658 233.411 268.586 234.323 268.586 235.843C268.586 237.859 266.89 239.011 264.746 239.011C262.394 239.011 260.794 237.875 260.442 235.939ZM269.117 231.235V229.027H277.757V231.235H274.717V238.851H272.141V231.235H269.117ZM285.457 235.603H284.561V238.851H282.017V229.027H286.433C288.545 229.027 290.001 230.227 290.001 232.371C290.001 233.859 289.249 234.883 288.049 235.331L290.353 238.851H287.505L285.457 235.603ZM284.561 231.187V233.555H286.161C287.073 233.555 287.489 233.091 287.489 232.371C287.489 231.651 287.073 231.187 286.161 231.187H284.561ZM294.325 229.027H296.949L300.693 238.851H298.085L297.381 236.947H293.813L293.125 238.851H290.581L294.325 229.027ZM295.605 232.067L294.597 234.835H296.613L295.605 232.067ZM300.07 231.235V229.027H308.71V231.235H305.67V238.851H303.094V231.235H300.07ZM309.767 229.027H316.791V231.235H312.295V232.771H316.407V234.931H312.295V236.627H316.791V238.851H309.767V229.027ZM317.52 235.939H320.192C320.4 236.611 320.976 236.947 321.776 236.947C322.56 236.947 323.104 236.611 323.104 236.003C323.104 235.539 322.8 235.331 322.176 235.187L320.288 234.787C318.848 234.467 317.76 233.715 317.76 232.051C317.76 230.131 319.36 228.867 321.536 228.867C323.936 228.867 325.296 230.179 325.568 231.875H323.056C322.848 231.331 322.4 230.915 321.552 230.915C320.816 230.915 320.32 231.235 320.32 231.779C320.32 232.211 320.624 232.451 321.136 232.563L323.056 233.011C324.736 233.411 325.664 234.323 325.664 235.843C325.664 237.859 323.968 239.011 321.824 239.011C319.472 239.011 317.872 237.875 317.52 235.939Z" fill="#230B59"/>
</svg>
