<svg width="42" height="42" fill="none" xmlns="http://www.w3.org/2000/svg"><path fill="#fff" fill-opacity=".01" d="M0 0h41.448v41.448H0z"/><mask id="a" style="mask-type:alpha" maskUnits="userSpaceOnUse" x="-1" y="0" width="43" height="42"><path d="M40.575 26.688c.567-1.889.871-3.89.871-5.964C41.446 9.278 32.168 0 20.722 0S-.002 9.278-.002 20.724s9.278 20.724 20.724 20.724c2.073 0 4.075-.304 5.964-.87a9.821 9.821 0 0 1-3.373-7.42c0-5.436 4.407-9.843 9.843-9.843a9.82 9.82 0 0 1 7.42 3.373Z" fill="#fff"/></mask><g mask="url(#a)"><circle cx="10.157" cy="10.157" r="10.156" fill="#F4F3F7"/><circle cx="10.157" cy="10.157" r="10.093" stroke="#18172B" stroke-opacity=".17" stroke-width=".127"/><path d="M19.557 15.276h2.402l1.85 7.107 1.674-7.107h3.19l-3.19 12.088H22.59l-1.87-7.088-1.89 7.088h-2.894l-3.17-12.088h3.229l1.693 7.107 1.87-7.107Z" fill="#fff"/><g clip-path="url(#b)"><path d="M-.002 20.723C-.002 9.277 9.276-.001 20.722-.001c11.445 0 20.724 9.278 20.724 20.724 0 11.445-9.279 20.724-20.724 20.724-11.446 0-20.724-9.279-20.724-20.724Z" fill="#4840BA"/><path fill-rule="evenodd" clip-rule="evenodd" d="M41.446 20.723c0 11.445-9.279 20.724-20.724 20.724-11.446 0-20.724-9.279-20.724-20.724C-.002 9.277 9.276-.001 20.722-.001c11.445 0 20.724 9.278 20.724 20.724ZM19.789 12.19l-1.14.311c.277.07.519.138.691.242a37.885 37.885 0 0 1 5.561 1.969.3.3 0 0 0 .242 0l1.036-.311.167-.04c.231-.057.481-.119.731-.202-.034-.034-.069-.034-.069-.034a44.484 44.484 0 0 0-6.252-2.142c-.022-.022-.059-.016-.1-.008a.411.411 0 0 1-.072.008c-.242.07-.518.138-.795.207Zm-5.457 1.9 1.554-.622c.087-.034.181-.069.276-.103.095-.035.19-.07.277-.104.01 0 .024-.003.039-.006.034-.008.075-.018.099.006a40.04 40.04 0 0 1 5.94 2.003c.105.035.243.104.346.173-.034.035-.069.035-.103.035-.346.155-.683.302-1.02.449-.336.146-.673.293-1.018.449-.035.034-.138.034-.173 0-1.83-.898-3.73-1.554-5.699-2.107-.086-.035-.181-.06-.276-.086a3.267 3.267 0 0 1-.242-.074v-.013Zm0 .013c0 .008-.001.012-.003.013-.004.002-.013-.007-.032-.026a.941.941 0 0 0 .035.013Zm-9.775 5.168c-.034 0-.034 0-.069.035.035.034.07.034.104.034.293.138.587.268.88.397.294.13.588.26.881.398.07.034.104.034.173 0a70.099 70.099 0 0 1 2.66-1.727c1.52-.967 3.073-1.865 4.732-2.625.017 0 .025-.009.034-.018.009-.008.017-.017.034-.017-.017 0-.034-.009-.051-.017-.018-.009-.035-.018-.052-.018a51.068 51.068 0 0 1-.898-.276c-.303-.095-.605-.19-.898-.276-.07 0-.138 0-.242.034-2.521 1.175-4.94 2.59-7.288 4.076Zm8.5 4.6c-.011.007-.024.015-.038.029.089.044.163.102.233.157.038.03.076.06.113.084a93.66 93.66 0 0 0 1.934 1.347c.06.06.094.042.147.014l.026-.014c.207-.172.38-.31.587-.449 2.452-1.865 4.974-3.592 7.633-5.112 2.59-1.45 5.25-2.66 8.048-3.557 0 0 .035-.035.07-.035l-.035-.034-2.28-1.14h-.138c-.155.052-.32.095-.484.138-.164.043-.328.086-.483.138-2.21.656-4.283 1.554-6.321 2.59a58.597 58.597 0 0 0-8.98 5.803c0 .022-.014.03-.032.041Zm21.965-3.702c.656-.31 1.278-.587 1.934-.863-.035-.035-.035-.035-.07-.035a93.988 93.988 0 0 0-2.486-1.485h-.138c-.139.052-.285.104-.432.155-.147.052-.294.104-.432.156-2.107.76-4.11 1.796-6.079 2.901-3.143 1.796-6.079 3.834-8.911 6.08a2.28 2.28 0 0 0-.302.225 4.6 4.6 0 0 1-.147.12c.449.345.906.7 1.364 1.053l.002.002 1.362 1.052c.07-.07.139-.139.242-.208 2.522-2.141 5.216-4.04 8.013-5.768 1.97-1.243 3.972-2.383 6.08-3.385ZM8.46 21.24c.086-.05.164-.111.242-.172.078-.06.155-.12.242-.173 2.141-1.485 4.317-2.9 6.666-4.075.062-.025.12-.059.177-.092.1-.059.196-.115.306-.115.173 0 .346.103.484.207.276.12.544.242.812.363.267.12.535.241.811.362.035 0 .07.035.104.07-.034 0-.034.034-.034.034-2.107 1.07-4.076 2.348-5.976 3.73-.363.242-.709.5-1.061.765-.151.113-.303.227-.459.34l-.011.006-.011.006c-.056.03-.093.05-.185-.012-.345-.19-.682-.38-1.019-.57-.337-.19-.673-.38-1.019-.57 0-.069-.034-.103-.069-.103Z" fill="#E21737"/></g><g clip-path="url(#c)"><path d="M-.002 20.723C-.002 9.277 9.276-.001 20.722-.001c11.445 0 20.724 9.278 20.724 20.724 0 11.445-9.279 20.724-20.724 20.724-11.446 0-20.724-9.279-20.724-20.724Z" fill="#4840BA"/><path d="M20.722 13.988a1.341 1.341 0 1 0 0 2.682 1.341 1.341 0 0 0 0-2.683Z" fill="#F0F0F2"/><path fill-rule="evenodd" clip-rule="evenodd" d="M11.67 17.675v-2.414l9.052-4.827 9.051 4.827v2.456l-1.65-.041a1.005 1.005 0 0 0-1.032 1.005v7.04c0 .555.45 1.006 1.006 1.006h1.676v2.346H11.67v-2.346h1.677c.555 0 1.005-.45 1.005-1.006v-7.04c0-.556-.45-1.006-1.005-1.006H11.67Zm6.37-2.347a2.682 2.682 0 1 1 5.364 0 2.682 2.682 0 0 1-5.364 0Zm-.67 4.224c.37 0 .67.3.67.671v5.297a.67.67 0 0 1-1.341 0v-5.297c0-.37.3-.67.67-.67Zm7.375.671a.67.67 0 0 0-1.341 0v5.297a.67.67 0 0 0 1.34 0v-5.297Zm-4.023-.67c.37 0 .67.3.67.67v5.297a.67.67 0 0 1-1.34 0v-5.297c0-.37.3-.67.67-.67Z" fill="#F0F0F2"/><path fill-rule="evenodd" clip-rule="evenodd" d="M41.446 20.723c0 11.445-9.279 20.724-20.724 20.724-11.446 0-20.724-9.279-20.724-20.724C-.002 9.277 9.276-.001 20.722-.001c11.445 0 20.724 9.278 20.724 20.724ZM31.252 13.77 21.195 8.407a1.006 1.006 0 0 0-.946 0L10.19 13.77a1.006 1.006 0 0 0-.532.887v4.023c0 .555.45 1.006 1.006 1.006h1.676v5.028h-1.676c-.556 0-1.006.45-1.006 1.006v4.358c0 .556.45 1.006 1.006 1.006h20.114c.556 0 1.006-.45 1.006-1.006V25.72c0-.555-.45-1.006-1.006-1.006h-1.676v-5.003l1.651.041a1.006 1.006 0 0 0 1.03-1.005v-4.09c0-.371-.204-.713-.532-.887Z" fill="#F0F0F2"/></g><circle cx="20.739" cy="20.732" fill="#F0F0F2" r="20.877"/><path fill-rule="evenodd" clip-rule="evenodd" d="M32.754 18.148c.952 0 1.723-.771 1.723-1.723V13.52a.982.982 0 0 0-.468-.836L21.205 4.816a.982.982 0 0 0-1.028 0L7.373 12.684a.982.982 0 0 0-.468.837v2.904c0 .952.772 1.723 1.723 1.723h.28c.822 0 1.49.667 1.49 1.49v5.66a1.49 1.49 0 0 1-1.49 1.49h-.28c-.951 0-1.723.77-1.723 1.723v2.591c0 .952.772 1.723 1.723 1.723h24.126c.952 0 1.723-.771 1.723-1.723v-2.591c0-.952-.771-1.724-1.723-1.724h-.225a1.49 1.49 0 0 1-1.489-1.485l-.015-5.66a1.49 1.49 0 0 1 1.489-1.494h.24Zm-.24-3.32c0-.471-.245-.909-.647-1.155L21.471 7.284a1.49 1.49 0 0 0-1.56 0L9.515 13.673a1.356 1.356 0 0 0 .71 2.512h.413c.952 0 1.723.771 1.723 1.723v9.12c0 .952-.771 1.723-1.723 1.723h-.714a1.055 1.055 0 0 0 0 2.11h21.534a1.055 1.055 0 0 0 0-2.11h-1.393a.982.982 0 0 1-.982-.979l-.029-10.603a.982.982 0 0 1 .982-.984h1.121c.749 0 1.356-.608 1.356-1.357Z" fill="#605F80"/><path fill-rule="evenodd" clip-rule="evenodd" d="M19.075 15.371a4.73 4.73 0 1 1 6.69 6.69l-.43.43a1.033 1.033 0 1 1-1.462-1.462l.43-.43a2.663 2.663 0 1 0-3.766-3.766l-.43.43a1.034 1.034 0 0 1-1.461-1.462l.43-.43Zm-1.633 6.525.004-.008-.004.008Z" fill="#605F80"/><path fill-rule="evenodd" clip-rule="evenodd" d="m17.446 21.888-.004.008-.004.008-.012.029-.002.003a1.052 1.052 0 0 0-.01.025l-.012.033a.957.957 0 0 0-.009.024l-.01.032-.01.033-.004.012a1.293 1.293 0 0 0-.005.019l-.005.023a1.51 1.51 0 0 0-.01.042l-.003.015v.005a1.408 1.408 0 0 0-.004.02l-.002.013a1.207 1.207 0 0 0-.007.044l-.001.013-.004.038-.002.027-.003.036v.094l.001.03.002.03v.003l.001.007v.006a.66.66 0 0 0 .004.036l.002.014v.004l.004.023a1 1 0 0 0 .005.034l.001.004.001.008a.443.443 0 0 0 .011.052l.001.005.005.022.002.008.002.005.002.007v.003a.96.96 0 0 0 .01.037l.009.026.003.008.002.008.006.016a.98.98 0 0 0 .012.033l.002.004.003.009.003.007a.277.277 0 0 0 .003.008l.002.006.003.006.002.004.002.004c.022.052.047.103.077.152l.006.011.026.042c.032.047.066.092.104.136l.007.008.005.005.003.004.003.003.046.05.05.046a1.31 1.31 0 0 0 1.805-.047l3.786-3.786a1.312 1.312 0 0 0-.15-1.984l-.005-.003-.003-.003-.003-.001-.005-.004-.009-.006-.007-.006a.397.397 0 0 0-.014-.009l-.008-.006a.718.718 0 0 0-.019-.011l-.009-.006-.008-.005a.803.803 0 0 0-.063-.037l-.007-.004-.003-.001a1.3 1.3 0 0 0-.092-.044l-.025-.011a.414.414 0 0 0-.015-.006l-.01-.003-.003-.002-.012-.005-.02-.007-.017-.006h-.003l-.006-.002-.009-.003-.024-.008-.01-.003-.007-.002-.007-.002h-.003l-.036-.01-.016-.004a1.402 1.402 0 0 0-.044-.01l-.023-.004-.039-.006-.023-.003h-.004l-.035-.005h-.008l-.01-.002h-.006l-.037-.003h-.034l-.022-.001h-.068l-.03.002h-.003l-.03.003-.031.003-.03.004c-.01 0-.019.002-.028.004h-.001l-.007.001-.03.005-.02.004a1.386 1.386 0 0 0-.041.01l-.024.006h-.006a.892.892 0 0 0-.09.028l-.023.008h-.002a1.056 1.056 0 0 0-.034.014l-.027.011-.003.001-.026.011-.007.004-.007.003-.018.009-.024.011-.032.017-.01.006a.866.866 0 0 0-.043.025l-.03.019-.026.017-.023.016a1.708 1.708 0 0 0-.08.062l-.024.02-.028.026-.002.002-.003.002-.003.003-.003.003h-.001l-.022.022-3.789 3.789-.021.022h-.001l-.01.012a1.9 1.9 0 0 0-.024.026l-.012.014-.01.012-.008.01-.006.006-.003.004-.003.005a1.634 1.634 0 0 0-.02.025l-.02.027a1.067 1.067 0 0 0-.008.01l-.004.008-.006.008-.02.029v.002a.82.82 0 0 0-.008.012l-.004.006a1.479 1.479 0 0 0-.052.092l-.01.023-.003.004-.005.011-.001.002Z" fill="#605F80"/><path fill-rule="evenodd" clip-rule="evenodd" d="M15.893 18.553a1.034 1.034 0 0 1 1.462 1.462l-.43.43a2.663 2.663 0 0 0 3.767 3.766l.43-.43a1.034 1.034 0 0 1 1.46 1.462l-.43.43-.04.04-.002.002a4.73 4.73 0 0 1-6.69-6.689l.003-.002.04-.04.43-.43Z" fill="#605F80"/></g><g clip-path="url(#d)"><path d="M24.87 33.16a8.29 8.29 0 0 1 16.58 0 8.29 8.29 0 0 1-16.58 0Z" fill="#E0E2F5"/><path d="M33.645 35.87h-.97l-1.193-3.404v3.404h-1.399v-5.726h1.828l1.259 3.563 1.25-3.563h1.818v5.726H34.83v-3.404l-1.184 3.404Z" fill="#230B59"/></g><defs><clipPath id="b"><path d="M-.002 20.723C-.002 9.277 9.276-.001 20.722-.001c11.445 0 20.724 9.278 20.724 20.724 0 11.445-9.279 20.724-20.724 20.724-11.446 0-20.724-9.279-20.724-20.724Z" fill="#fff"/></clipPath><clipPath id="c"><path d="M-.002 20.723C-.002 9.277 9.276-.001 20.722-.001c11.445 0 20.724 9.278 20.724 20.724 0 11.445-9.279 20.724-20.724 20.724-11.446 0-20.724-9.279-20.724-20.724Z" fill="#fff"/></clipPath><clipPath id="d"><path d="M24.87 33.16a8.29 8.29 0 0 1 16.58 0 8.29 8.29 0 0 1-16.58 0Z" fill="#fff"/></clipPath></defs></svg>