<svg width="42" height="42" fill="none" xmlns="http://www.w3.org/2000/svg"><path fill="#fff" fill-opacity=".01" d="M0 0h41.448v41.448H0z"/><mask id="a" style="mask-type:alpha" maskUnits="userSpaceOnUse" x="-1" y="-1" width="43" height="43"><path d="M40.575 26.688c.567-1.889.871-3.891.871-5.964C41.446 9.278 32.168 0 20.722 0S-.002 9.278-.002 20.724c0 11.445 9.278 20.724 20.724 20.724 2.073 0 4.075-.304 5.964-.871a9.82 9.82 0 0 1-3.373-7.419c0-5.436 4.407-9.844 9.843-9.844a9.82 9.82 0 0 1 7.42 3.374Z" fill="#fff"/></mask><g mask="url(#a)"><circle cx="10.157" cy="10.157" r="10.156" fill="#F4F3F7"/><circle cx="10.157" cy="10.157" r="10.093" stroke="#18172B" stroke-opacity=".17" stroke-width=".127"/><path d="M19.557 15.275h2.402l1.85 7.108 1.674-7.108h3.19l-3.19 12.089H22.59l-1.87-7.088-1.89 7.088h-2.894l-3.17-12.089h3.229l1.693 7.108 1.87-7.108Z" fill="#fff"/><g clip-path="url(#b)"><path d="M-.002 20.723C-.002 9.277 9.276-.001 20.722-.001c11.445 0 20.724 9.278 20.724 20.724 0 11.445-9.279 20.724-20.724 20.724-11.446 0-20.724-9.279-20.724-20.724Z" fill="#4840BA"/><path fill-rule="evenodd" clip-rule="evenodd" d="M41.446 20.723c0 11.445-9.279 20.724-20.724 20.724-11.446 0-20.724-9.279-20.724-20.724C-.002 9.277 9.276-.001 20.722-.001c11.445 0 20.724 9.278 20.724 20.724ZM19.789 12.19l-1.14.311c.277.07.519.138.691.242a37.885 37.885 0 0 1 5.561 1.969.3.3 0 0 0 .242 0l1.036-.311.167-.04c.231-.057.481-.119.731-.202-.034-.034-.069-.034-.069-.034a44.484 44.484 0 0 0-6.252-2.142c-.022-.022-.059-.016-.1-.008a.411.411 0 0 1-.072.008c-.242.07-.518.138-.795.207Zm-5.457 1.9 1.554-.622c.087-.034.181-.069.276-.103.095-.035.19-.07.277-.104.01 0 .024-.003.039-.006.034-.008.075-.018.099.006a40.04 40.04 0 0 1 5.94 2.003c.105.035.243.104.346.173-.034.035-.069.035-.103.035-.346.155-.683.302-1.02.449-.336.146-.673.293-1.018.449-.035.034-.138.034-.173 0-1.83-.898-3.73-1.554-5.699-2.107-.086-.035-.181-.06-.276-.086a3.267 3.267 0 0 1-.242-.074v-.013Zm0 .013c0 .008-.001.012-.003.013-.004.002-.013-.007-.032-.026a.941.941 0 0 0 .035.013Zm-9.775 5.168c-.034 0-.034 0-.069.035.035.034.07.034.104.034.293.138.587.268.88.397.294.13.588.26.881.398.07.034.104.034.173 0a70.099 70.099 0 0 1 2.66-1.727c1.52-.967 3.073-1.865 4.732-2.625.017 0 .025-.009.034-.018.009-.008.017-.017.034-.017-.017 0-.034-.009-.051-.017-.018-.009-.035-.018-.052-.018a51.068 51.068 0 0 1-.898-.276c-.303-.095-.605-.19-.898-.276-.07 0-.138 0-.242.034-2.521 1.175-4.94 2.59-7.288 4.076Zm8.5 4.6c-.011.007-.024.015-.038.029.089.044.163.102.233.157.038.03.076.06.113.084a93.66 93.66 0 0 0 1.934 1.347c.06.06.094.042.147.014l.026-.014c.207-.172.38-.31.587-.449 2.452-1.865 4.974-3.592 7.633-5.112 2.59-1.45 5.25-2.66 8.048-3.557 0 0 .035-.035.07-.035l-.035-.034-2.28-1.14h-.138c-.155.052-.32.095-.484.138-.164.043-.328.086-.483.138-2.21.656-4.283 1.554-6.321 2.59a58.597 58.597 0 0 0-8.98 5.803c0 .022-.014.03-.032.041Zm21.965-3.702c.656-.31 1.278-.587 1.934-.863-.035-.035-.035-.035-.07-.035a93.988 93.988 0 0 0-2.486-1.485h-.138c-.139.052-.285.104-.432.155-.147.052-.294.104-.432.156-2.107.76-4.11 1.796-6.079 2.901-3.143 1.796-6.079 3.834-8.911 6.08a2.28 2.28 0 0 0-.302.225 4.6 4.6 0 0 1-.147.12c.449.345.906.7 1.364 1.053l.002.002 1.362 1.052c.07-.07.139-.139.242-.208 2.522-2.141 5.216-4.04 8.013-5.768 1.97-1.243 3.972-2.383 6.08-3.385ZM8.46 21.24c.086-.05.164-.111.242-.172.078-.06.155-.12.242-.173 2.141-1.485 4.317-2.9 6.666-4.075.062-.025.12-.059.177-.092.1-.059.196-.115.306-.115.173 0 .346.103.484.207.276.12.544.242.812.363.267.12.535.241.811.362.035 0 .07.035.104.07-.034 0-.034.034-.034.034-2.107 1.07-4.076 2.348-5.976 3.73-.363.242-.709.5-1.061.765-.151.113-.303.227-.459.34l-.011.006-.011.006c-.056.03-.093.05-.185-.012-.345-.19-.682-.38-1.019-.57-.337-.19-.673-.38-1.019-.57 0-.069-.034-.103-.069-.103Z" fill="#E21737"/></g><g clip-path="url(#c)"><path d="M-.002 20.723C-.002 9.277 9.276-.001 20.722-.001c11.445 0 20.724 9.278 20.724 20.724 0 11.445-9.279 20.724-20.724 20.724-11.446 0-20.724-9.279-20.724-20.724Z" fill="#4840BA"/><path d="M20.722 13.988a1.341 1.341 0 1 0 0 2.682 1.341 1.341 0 0 0 0-2.683Z" fill="#F0F0F2"/><path fill-rule="evenodd" clip-rule="evenodd" d="M11.67 17.675v-2.414l9.052-4.827 9.051 4.827v2.456l-1.65-.041a1.005 1.005 0 0 0-1.032 1.005v7.04c0 .555.45 1.006 1.006 1.006h1.676v2.346H11.67v-2.346h1.677c.555 0 1.005-.45 1.005-1.006v-7.04c0-.556-.45-1.006-1.005-1.006H11.67Zm6.37-2.347a2.682 2.682 0 1 1 5.364 0 2.682 2.682 0 0 1-5.364 0Zm-.67 4.224c.37 0 .67.3.67.671v5.297a.67.67 0 0 1-1.341 0v-5.297c0-.37.3-.67.67-.67Zm7.375.671a.67.67 0 0 0-1.341 0v5.297a.67.67 0 0 0 1.34 0v-5.297Zm-4.023-.67c.37 0 .67.3.67.67v5.297a.67.67 0 0 1-1.34 0v-5.297c0-.37.3-.67.67-.67Z" fill="#F0F0F2"/><path fill-rule="evenodd" clip-rule="evenodd" d="M41.446 20.723c0 11.445-9.279 20.724-20.724 20.724-11.446 0-20.724-9.279-20.724-20.724C-.002 9.277 9.276-.001 20.722-.001c11.445 0 20.724 9.278 20.724 20.724ZM31.252 13.77 21.195 8.407a1.006 1.006 0 0 0-.946 0L10.19 13.77a1.006 1.006 0 0 0-.532.887v4.023c0 .555.45 1.006 1.006 1.006h1.676v5.028h-1.676c-.556 0-1.006.45-1.006 1.006v4.358c0 .556.45 1.006 1.006 1.006h20.114c.556 0 1.006-.45 1.006-1.006V25.72c0-.555-.45-1.006-1.006-1.006h-1.676v-5.003l1.651.041a1.006 1.006 0 0 0 1.03-1.005v-4.09c0-.371-.204-.713-.532-.887Z" fill="#F0F0F2"/></g><circle cx="20.739" cy="20.73" fill="#F0F0F2" r="20.877"/><path d="m21.213 4.955 12.804 7.868a.865.865 0 0 1 .412.736v2.905c0 .887-.719 1.607-1.606 1.607h-.24c-.889 0-1.609.721-1.606 1.61l.015 5.66a1.606 1.606 0 0 0 1.607 1.602h.224c.887 0 1.606.72 1.606 1.607v2.591c0 .887-.719 1.606-1.606 1.606H8.698a1.606 1.606 0 0 1-1.607-1.606V28.55c0-.887.72-1.607 1.607-1.607h.279c.887 0 1.606-.719 1.606-1.606v-5.66c0-.887-.719-1.607-1.606-1.607h-.28a1.606 1.606 0 0 1-1.606-1.606V13.56c0-.301.156-.58.412-.737l12.804-7.868a.865.865 0 0 1 .906 0Zm-11.69 8.657a1.473 1.473 0 0 0 .771 2.729h.413c.887 0 1.606.719 1.606 1.606v9.12c0 .887-.719 1.606-1.606 1.606h-.714a1.172 1.172 0 1 0 0 2.345h21.534a1.172 1.172 0 0 0 0-2.345h-1.393a.865.865 0 0 1-.865-.862l-.029-10.603a.865.865 0 0 1 .865-.867h1.121a1.473 1.473 0 0 0 .771-2.73L21.601 7.225a1.606 1.606 0 0 0-1.682 0L9.523 13.612Z" fill="#3B2B7D"/><path d="M17.858 23.328a1.194 1.194 0 0 1 0-1.69l3.786-3.786a1.194 1.194 0 1 1 1.69 1.69l-3.787 3.786a1.195 1.195 0 0 1-1.689 0Z" fill="#F0F0F2"/><path d="M23.334 17.852a1.194 1.194 0 0 1 0 1.69l-3.787 3.786a1.195 1.195 0 0 1-1.71-1.668l.021-.022 3.786-3.786.023-.021a1.194 1.194 0 0 1 1.667.021Z" fill="#3B2B7D"/><path fill-rule="evenodd" clip-rule="evenodd" d="M18.797 17.219a.916.916 0 0 1 0-1.296l.43-.43a4.613 4.613 0 0 1 6.524 6.524l-.43.43a.916.916 0 1 1-1.296-1.296l.43-.43a2.78 2.78 0 1 0-3.932-3.932l-.43.43a.916.916 0 0 1-1.296 0Zm-1.456 1.456a.916.916 0 0 1 0 1.296l-.43.43a2.78 2.78 0 0 0 3.932 3.931l.43-.43A.916.916 0 1 1 22.57 25.2l-.43.43-.04.04-.002.001a4.613 4.613 0 0 1-6.523-6.523l.001-.001.04-.04.43-.431a.916.916 0 0 1 1.296 0Z" fill="#3B2B7D"/><path fill-rule="evenodd" clip-rule="evenodd" d="M32.823 18.187c.952 0 1.724-.772 1.724-1.723v-2.905a.982.982 0 0 0-.468-.837L21.275 4.855a.982.982 0 0 0-1.028 0L7.442 12.722a.982.982 0 0 0-.468.837v2.905c0 .951.772 1.723 1.724 1.723h.28a1.49 1.49 0 0 1 1.489 1.49v5.66a1.49 1.49 0 0 1-1.49 1.489h-.28c-.95 0-1.723.771-1.723 1.723v2.592c0 .951.772 1.723 1.724 1.723h24.125c.952 0 1.724-.772 1.724-1.723v-2.592c0-.951-.772-1.723-1.724-1.723H32.6a1.49 1.49 0 0 1-1.49-1.485l-.015-5.66a1.49 1.49 0 0 1 1.49-1.494h.24Zm-.24-3.32c0-.472-.245-.91-.646-1.156L21.54 7.323a1.49 1.49 0 0 0-1.56 0L9.586 13.71a1.357 1.357 0 0 0 .71 2.512h.412c.952 0 1.724.772 1.724 1.724v9.12c0 .951-.772 1.723-1.724 1.723h-.714a1.055 1.055 0 0 0 0 2.11h21.535a1.055 1.055 0 0 0 0-2.11h-1.394a.982.982 0 0 1-.982-.98l-.029-10.602a.982.982 0 0 1 .982-.985h1.121c.75 0 1.357-.607 1.357-1.356Z" fill="#605F80"/><path fill-rule="evenodd" clip-rule="evenodd" d="M19.145 15.41a4.73 4.73 0 1 1 6.689 6.69l-.43.429a1.034 1.034 0 0 1-1.461-1.462l.43-.43a2.663 2.663 0 0 0-3.767-3.766l-.43.43a1.033 1.033 0 1 1-1.46-1.462l.429-.43Zm-1.633 6.524.003-.008c0 .003-.002.006-.003.008Z" fill="#605F80"/><path fill-rule="evenodd" clip-rule="evenodd" d="m17.515 21.926-.003.008-.004.009-.013.028-.001.004-.01.024a1.365 1.365 0 0 0-.042.122l-.003.013a1.02 1.02 0 0 0-.02.084l-.003.014-.001.006-.004.02-.002.013-.005.033-.001.01-.002.014-.004.038-.002.027-.002.036v.035a1.27 1.27 0 0 0 0 .048v.011a.762.762 0 0 0 .003.059v.011l.001.006a.719.719 0 0 0 .006.05v.003l.003.024.006.034v.004l.002.007c0 .006.002.011.003.016l.007.037.002.005a.74.74 0 0 0 .005.021l.002.008.001.006.002.006.001.004.01.037.008.025.003.008.003.009.005.016a.98.98 0 0 0 .012.032l.002.005.003.008.003.008.003.008.003.005.002.007.002.004.002.004c.022.052.048.103.077.152l.007.01a1.072 1.072 0 0 0 .13.178l.006.008.005.006.003.004.003.003.047.049.049.046c.515.466 1.31.45 1.806-.046l3.786-3.786a1.311 1.311 0 0 0-.151-1.985l-.004-.003-.004-.002-.002-.002-.005-.003-.01-.006-.007-.006-.013-.01a.445.445 0 0 0-.027-.017l-.01-.005-.007-.005-.018-.012a1.31 1.31 0 0 0-.045-.025l-.007-.004-.003-.002c-.03-.016-.061-.03-.092-.044l-.025-.01a.839.839 0 0 1-.024-.01l-.005-.001-.012-.005-.02-.008-.017-.005h-.002l-.006-.003-.01-.003-.024-.008-.009-.002-.008-.002-.006-.002-.003-.001-.037-.01a.902.902 0 0 0-.06-.013l-.023-.004-.038-.007-.024-.003h-.003a1.085 1.085 0 0 0-.036-.005h-.008l-.01-.001h-.006a1.49 1.49 0 0 0-.036-.003l-.034-.001h-.09l-.03.002h-.004a2.905 2.905 0 0 0-.06.006c-.011 0-.021.002-.031.003a.826.826 0 0 0-.027.004h-.002l-.006.002a.81.81 0 0 0-.03.005l-.021.004a1.467 1.467 0 0 0-.04.009l-.025.006-.005.002-.027.007a1.755 1.755 0 0 0-.086.028h-.002l-.034.013-.028.012h-.003l-.026.012-.007.003-.006.003-.02.01a1.034 1.034 0 0 0-.054.028l-.01.005a.866.866 0 0 0-.1.062 1.206 1.206 0 0 0-.155.123l-.002.002-.003.003-.002.002a.053.053 0 0 0-.004.003v.001l-.023.022-3.788 3.788-.022.022v.001l-.011.012a1.414 1.414 0 0 0-.054.061l-.005.007-.003.004-.004.004a1.277 1.277 0 0 0-.047.063l-.005.007-.006.009-.019.028-.001.003-.008.012-.003.005a1.474 1.474 0 0 0-.022.036l-.013.023-.017.034-.011.022-.003.005-.005.01v.002Z" fill="#605F80"/><path fill-rule="evenodd" clip-rule="evenodd" d="M15.963 18.592a1.034 1.034 0 0 1 1.461 1.461l-.43.43a2.663 2.663 0 0 0 3.767 3.766l.43-.43a1.034 1.034 0 0 1 1.461 1.462l-.43.43-.04.04-.003.003a4.73 4.73 0 0 1-6.689-6.69l.003-.002.039-.04.43-.43Z" fill="#605F80"/></g><g clip-path="url(#d)"><path d="M24.87 33.16a8.29 8.29 0 0 1 16.58 0 8.29 8.29 0 1 1-16.58 0Z" fill="#FFF3D6"/><path d="M30.642 31.431v-1.287h5.036v1.287h-1.772v4.44h-1.501v-4.44h-1.763Z" fill="#625747"/></g><defs><clipPath id="b"><path d="M-.002 20.723C-.002 9.277 9.276-.001 20.722-.001c11.445 0 20.724 9.278 20.724 20.724 0 11.445-9.279 20.724-20.724 20.724-11.446 0-20.724-9.279-20.724-20.724Z" fill="#fff"/></clipPath><clipPath id="c"><path d="M-.002 20.723C-.002 9.277 9.276-.001 20.722-.001c11.445 0 20.724 9.278 20.724 20.724 0 11.445-9.279 20.724-20.724 20.724-11.446 0-20.724-9.279-20.724-20.724Z" fill="#fff"/></clipPath><clipPath id="d"><path d="M24.87 33.16a8.29 8.29 0 0 1 16.58 0 8.29 8.29 0 1 1-16.58 0Z" fill="#fff"/></clipPath></defs></svg>