<svg width="25" height="26" fill="none" xmlns="http://www.w3.org/2000/svg"><path d="M11.59 16.613c0 .465-.227.875-.577 1.127a.479.479 0 0 0-.216.378v1.072a.595.595 0 1 1-1.189 0v-1.072a.479.479 0 0 0-.215-.378 1.387 1.387 0 1 1 2.197-1.127Z" fill="#4840BB"/><path fill-rule="evenodd" clip-rule="evenodd" d="M16.347 8.487v1.19c0 .437.355.792.793.792h1.982c.438 0 .793.355.793.793V23.55a.793.793 0 0 1-.793.793H3.265a.793.793 0 0 1-.792-.793V11.26c0-.437.355-.792.792-.792h1.19a.793.793 0 0 0 .793-.793v-1.19a5.55 5.55 0 0 1 11.1 0Zm-1.189 0v1.19a.793.793 0 0 1-.793.792H7.23a.793.793 0 0 1-.793-.793v-1.19a4.36 4.36 0 1 1 8.721 0Zm.397 3.171c.437 0 .792.355.792.793v9.91a.793.793 0 0 1-.792.793h-11.1a.793.793 0 0 1-.793-.792v-9.91c0-.439.355-.794.793-.794h11.1Z" fill="#4840BB"/></svg>