<svg fill="none" xmlns="http://www.w3.org/2000/svg" viewBox="0 0 25 24"><path fill-rule="evenodd" clip-rule="evenodd" d="M20.34.023c.127.005.242.013.343.026.262.032.223.267.163.619-1.463 8.726-2.11 18.128 3.047 22.623.054.05.129.155.104.193-.025.04-.177.018-.24.014-2.538-.157-12.777-4.228-12.343-21.697.007-.28.045-.408.46-.529C13.258.868 17.64.084 19.853.023h.486zM3.977 8.821c.242-.17 2.981-1.52 5.5-2.421.504-.16.501.361.525.498 2.353 13.409 8.105 15.096 9.723 16.422.217.144-.061.198-.337.185C7.758 23.542 4.257 12.846 3.613 9.34c-.06-.323.122-.349.364-.519zm-3.72 8.505c.595-.729 2.33-2.192 3.052-2.671.219-.145.377.19.57.646.78 1.672 1.943 3.432 3.085 4.59 2.284 2.314 4.781 3.197 4.909 3.3.194.16.193.286-.18.3C3.79 23.783.56 20.045.021 17.88c-.058-.235-.007-.26.234-.555z" fill="#230B59"/></svg>