<svg width="19" height="19" fill="none" xmlns="http://www.w3.org/2000/svg"><path fill-rule="evenodd" clip-rule="evenodd" d="M15.646.557c.098.003.187.01.264.02.202.024.171.205.126.475-1.126 6.713-1.624 13.945 2.343 17.403.042.038.1.119.08.149-.02.03-.136.013-.184.01-1.953-.12-9.83-3.252-9.495-16.69.006-.215.034-.314.353-.407 1.066-.31 4.437-.914 6.139-.96h.374ZM3.059 7.324c.186-.131 2.294-1.17 4.231-1.862.388-.124.386.278.404.383 1.81 10.314 6.235 11.612 7.479 12.632.167.111-.047.153-.26.142C5.969 18.648 3.275 10.42 2.78 7.723c-.046-.248.094-.268.28-.399ZM.197 13.867c.459-.561 1.793-1.687 2.348-2.055.169-.112.29.146.44.497.6 1.286 1.493 2.64 2.372 3.53 1.757 1.78 3.678 2.46 3.776 2.54.15.122.148.218-.139.23-6.078.225-8.562-2.65-8.977-4.316-.045-.18-.005-.2.18-.426Z" fill="#fff"/></svg>