<svg width="91" height="16" viewBox="0 0 91 16" fill="none" xmlns="http://www.w3.org/2000/svg">
<g clip-path="url(#clip0_1470_28102)">
<path fill-rule="evenodd" clip-rule="evenodd" d="M9.80375 0.261719H13.8642C14.0416 0.261719 14.1773 0.404405 14.1669 0.580019V14.706C14.1669 14.8816 14.0312 15.0243 13.8642 15.0243H9.67849C9.6263 15.0243 9.58455 15.0133 9.53236 14.9914C9.52714 14.9914 9.52192 14.9886 9.5167 14.9859C9.51148 14.9831 9.50626 14.9804 9.50104 14.9804C9.45929 14.9584 9.41754 14.9365 9.37579 14.8926L4.82474 10.1071V14.695C4.82474 14.8706 4.68904 15.0133 4.52203 15.0133H0.461583C0.378077 15.0133 0.294572 14.9694 0.242381 14.9145C0.179752 14.8596 0.148438 14.7718 0.148438 14.684V0.580019C0.148438 0.404405 0.284134 0.261719 0.451145 0.261719H4.64729C4.69948 0.261719 4.75167 0.272695 4.79343 0.294646C4.79865 0.294646 4.80386 0.29739 4.80908 0.300134C4.8143 0.302878 4.81952 0.305622 4.82474 0.305622C4.86649 0.327574 4.90825 0.349526 4.95 0.393429L9.50104 5.16794V0.580019C9.50104 0.404405 9.63674 0.261719 9.80375 0.261719ZM44.4897 2.51172H46.3477C46.452 2.51172 46.546 2.6105 46.546 2.72026V12.3132C46.546 12.4339 46.452 12.5217 46.3477 12.5217H44.9594C44.8341 12.5217 44.7297 12.4449 44.6984 12.3242L44.5523 11.8522C44.3435 12.0498 44.0826 12.2254 43.759 12.401C43.3832 12.5986 42.9239 12.7083 42.3916 12.7193C42.329 12.7303 42.2663 12.7303 42.2037 12.7303C41.6818 12.7303 41.233 12.6205 40.8259 12.412C40.4188 12.2034 40.0848 11.9181 39.8029 11.5668C39.5211 11.2156 39.3123 10.8095 39.1662 10.3485C39.0201 9.87654 38.947 9.40458 38.947 8.89968C38.947 8.39479 39.0305 7.92283 39.1766 7.46184C39.3332 7.00086 39.542 6.60572 39.8238 6.2545C40.0952 5.90327 40.4396 5.62887 40.8363 5.4313C41.2329 5.22276 41.6818 5.12398 42.1724 5.12398C42.6734 5.12398 43.1014 5.23374 43.4458 5.4313C43.8007 5.62887 44.0721 5.84839 44.26 6.08986H44.2913V2.72026C44.2913 2.59953 44.3853 2.51172 44.4897 2.51172ZM41.5252 10.1729C41.6609 10.3485 41.8384 10.4802 42.0367 10.59C42.2455 10.6997 42.4751 10.7546 42.736 10.7546C42.997 10.7546 43.2266 10.7107 43.425 10.6009C43.6233 10.5022 43.7903 10.3595 43.9364 10.1839C44.0826 10.0082 44.1974 9.81068 44.2705 9.59117C44.3435 9.37165 44.3853 9.14115 44.3853 8.91066C44.3853 8.68017 44.3435 8.44967 44.2705 8.23016C44.187 8.01064 44.0826 7.81307 43.9364 7.63746C43.8007 7.46184 43.6233 7.33013 43.425 7.22037C43.2162 7.12159 42.997 7.06671 42.736 7.06671C42.4751 7.06671 42.235 7.11062 42.0367 7.22037C41.8279 7.31916 41.6609 7.46184 41.5252 7.62648C41.3791 7.79112 41.2851 7.98869 41.2121 8.2082C41.139 8.42772 41.1077 8.65821 41.1077 8.88871C41.1077 9.1192 41.139 9.33872 41.2121 9.56921C41.2851 9.79971 41.3895 9.99727 41.5252 10.1729ZM86.2843 5.39907H84.8751L84.6977 3.75269C84.6873 3.61 84.562 3.50024 84.4263 3.50024H82.8606C82.7562 3.50024 82.6623 3.58805 82.6623 3.70879V5.3881L82.6727 10.1846C82.6727 10.5687 82.7145 10.9199 82.798 11.2382C82.8815 11.5565 83.0172 11.82 83.205 12.0505C83.3929 12.281 83.6434 12.4566 83.9566 12.5663C84.2697 12.6871 84.6559 12.7419 85.1048 12.7419C85.3449 12.7419 85.5849 12.72 85.8146 12.6761C85.9816 12.6432 86.1382 12.6102 86.2634 12.5773C86.3469 12.5554 86.4095 12.4675 86.4095 12.3797L86.3887 11.0736C86.3887 10.9419 86.2738 10.8541 86.1486 10.876C86.1382 10.876 86.1251 10.8788 86.1121 10.8815C86.099 10.8843 86.086 10.887 86.0755 10.887C85.9503 10.909 85.8354 10.9199 85.7206 10.9199C85.397 10.9199 85.1778 10.8321 85.0526 10.6675C84.9273 10.5029 84.8647 10.2394 84.8647 9.91016V7.15521H86.2738C86.3782 7.15521 86.4722 7.06741 86.4722 6.94667V5.60761C86.4826 5.48688 86.3887 5.39907 86.2843 5.39907ZM25.1486 6.056C24.9503 5.7816 24.6894 5.56208 24.3762 5.38647C24.0631 5.22183 23.6873 5.13402 23.2489 5.12305H23.228H23.2071H23.1341C22.6226 5.13402 22.1946 5.23281 21.8293 5.4194C21.5057 5.59501 21.2343 5.7816 21.036 5.97917L20.9003 5.51818C20.869 5.39744 20.7646 5.32061 20.6393 5.32061H19.1363C19.0319 5.32061 18.9379 5.40842 18.9379 5.52915V12.3013C18.9379 12.411 19.0214 12.5098 19.1363 12.5098H21.0047C21.1091 12.5098 21.203 12.422 21.203 12.3013V8.61338C21.203 8.41581 21.2239 8.21825 21.2761 8.03166C21.3283 7.84507 21.4013 7.68043 21.5057 7.53774C21.6101 7.39506 21.7354 7.2853 21.8815 7.19749C22.0276 7.12066 22.2051 7.07675 22.4138 7.07675C22.6226 7.07675 22.7792 7.12066 22.9149 7.19749C23.0506 7.27432 23.1549 7.39505 23.228 7.52677C23.3011 7.66945 23.3533 7.82311 23.3846 8.00971C23.4159 8.19629 23.4368 8.38288 23.4368 8.59143V12.3123C23.4368 12.422 23.5203 12.5208 23.6351 12.5208H25.5035C25.6079 12.5208 25.7019 12.433 25.7019 12.3123V8.06458C25.7019 7.71336 25.6601 7.35115 25.5766 6.99992C25.4827 6.6487 25.347 6.33039 25.1486 6.056ZM58.6752 5.31908H56.7651C56.6816 5.31908 56.598 5.38494 56.5772 5.47274L55.4185 9.8631H55.3872L54.166 5.46177C54.1451 5.37396 54.0616 5.30811 53.9781 5.30811H52.0053C51.9217 5.30811 51.8382 5.37396 51.8174 5.46177L50.6379 9.8631H50.5961L49.4583 5.47274C49.4375 5.38494 49.354 5.31908 49.2705 5.31908H47.2663C47.1306 5.31908 47.0367 5.46177 47.0784 5.59348L49.3018 12.3656C49.3331 12.4534 49.4062 12.5083 49.4897 12.5083H51.4729C51.5564 12.5083 51.6399 12.4534 51.6608 12.3656L52.9343 8.0411H52.9656L54.2703 12.3766C54.2912 12.4644 54.3747 12.5193 54.4582 12.5193H56.4415C56.525 12.5193 56.598 12.4644 56.6294 12.3766L58.8631 5.60445C58.9049 5.46177 58.8109 5.31908 58.6752 5.31908ZM68.1117 2.51172H70.0115C70.1159 2.51172 70.1994 2.6105 70.2098 2.72026V12.3022C70.2098 12.4229 70.1159 12.5108 70.0115 12.5108H68.1117C67.9969 12.5108 67.9134 12.412 67.9134 12.3022V2.72026C67.9134 2.59953 68.0073 2.51172 68.1117 2.51172ZM73.7698 2.51172H71.87C71.7657 2.51172 71.6717 2.59953 71.6717 2.72026V12.3022C71.6717 12.412 71.7552 12.5108 71.87 12.5108H73.7698C73.8742 12.5108 73.9681 12.4229 73.9681 12.3022V2.72026C73.9681 2.6105 73.8742 2.51172 73.7698 2.51172ZM64.7081 5.07715H66.2738C66.3782 5.07715 66.4617 5.16496 66.4617 5.27471V12.2993C66.4617 12.42 66.3678 12.5078 66.2634 12.5078H64.8751C64.7498 12.5078 64.6455 12.431 64.6141 12.3103L64.4471 11.7615C64.2279 11.992 63.9357 12.2005 63.5703 12.3981C63.2572 12.5627 62.8918 12.6615 62.4743 12.6944C62.3595 12.7054 62.2447 12.7164 62.1299 12.7164C61.6079 12.7164 61.1591 12.6066 60.752 12.3981C60.3449 12.1895 60.0109 11.9041 59.7291 11.5529C59.4472 11.2017 59.2385 10.7956 59.0923 10.3346C58.9462 9.86263 58.8731 9.39067 58.8731 8.88578C58.8731 8.38089 58.9566 7.90893 59.1028 7.44794C59.2594 6.98695 59.4681 6.59182 59.75 6.24059C60.0213 5.88936 60.3658 5.61497 60.7625 5.4174C61.1591 5.20886 61.6079 5.11008 62.0985 5.11008C62.6622 5.11008 63.1319 5.21983 63.5181 5.4174C63.8208 5.57106 64.0609 5.74668 64.2592 5.92229L64.4471 5.27471C64.4784 5.16496 64.5933 5.07715 64.7081 5.07715ZM61.1382 9.56629C61.2113 9.79678 61.3157 9.99434 61.4514 10.17C61.5871 10.3456 61.7645 10.4883 61.9628 10.598C62.1612 10.6968 62.4013 10.7517 62.6622 10.7517C62.9232 10.7517 63.1528 10.7078 63.3511 10.598C63.5494 10.4992 63.7165 10.3565 63.8626 10.1809C64.0087 10.0053 64.1235 9.80775 64.1966 9.58824C64.2697 9.36872 64.3114 9.13823 64.3114 8.90773C64.3114 8.67724 64.2697 8.44674 64.1966 8.22723C64.1131 8.00771 64.0087 7.81014 63.8626 7.63453C63.7269 7.45891 63.5494 7.3272 63.3511 7.21745C63.1424 7.11866 62.9232 7.06378 62.6622 7.06378C62.4013 7.06378 62.1612 7.10769 61.9628 7.21745C61.7541 7.31623 61.5871 7.45892 61.4514 7.62355C61.3052 7.78819 61.2113 7.98576 61.1382 8.20528C61.0652 8.42479 61.0338 8.65529 61.0338 8.88578C61.0338 9.11627 61.0652 9.33579 61.1382 9.56629ZM38.7069 5.145H38.686L38.7069 5.12305H38.5399H38.4042C38.1119 5.12305 37.8405 5.17793 37.59 5.29866C37.4856 5.33159 37.3917 5.37549 37.2977 5.43037C36.9324 5.61696 36.6506 5.8255 36.4418 6.056L36.3061 5.55111C36.2748 5.43037 36.1704 5.34256 36.0452 5.34256H34.5525C34.4481 5.34256 34.3542 5.43037 34.3542 5.55111V12.3123C34.3542 12.422 34.4377 12.5208 34.5525 12.5208H36.4105C36.5149 12.5208 36.6088 12.433 36.6088 12.3123V8.8329C36.6088 8.69021 36.6401 8.52557 36.6923 8.32801C36.7445 8.14142 36.8385 7.95483 36.9637 7.79019C37.089 7.62555 37.256 7.48286 37.4543 7.3731C37.6631 7.26335 37.9136 7.19749 38.2163 7.19749C38.3102 7.19749 38.4042 7.19749 38.4981 7.20847L38.5921 7.21944C38.6965 7.23042 38.8008 7.14261 38.8113 7.03285L38.8843 5.36452C38.8948 5.25476 38.8217 5.15597 38.7069 5.145ZM31.5351 5.3662C31.9526 5.54182 32.318 5.79426 32.6207 6.13452C32.9129 6.47477 33.153 6.88088 33.3096 7.35284C33.4766 7.83578 33.5601 8.38457 33.5601 8.99922V9.2846C33.5601 9.38338 33.5601 9.47119 33.5497 9.55899H28.5915C28.602 9.75656 28.6646 9.94315 28.7585 10.1078C28.8629 10.2724 28.9882 10.4151 29.1343 10.5358C29.2909 10.6566 29.4579 10.7554 29.6458 10.8212C29.8337 10.8871 30.032 10.92 30.2303 10.92C30.5852 10.92 30.8879 10.8541 31.1384 10.7115C31.3159 10.6127 31.4725 10.4919 31.5977 10.3493C31.6812 10.2505 31.8274 10.2505 31.9213 10.3493L32.8921 11.381C32.986 11.4798 32.986 11.6334 32.8921 11.7322C32.652 11.9847 32.3701 12.1822 32.0466 12.3469C31.5142 12.6103 30.9088 12.742 30.2094 12.742C29.698 12.742 29.2178 12.6542 28.7585 12.4896C28.2993 12.3249 27.9026 12.0725 27.5581 11.7542C27.2137 11.4249 26.9423 11.0298 26.744 10.5578C26.5456 10.0858 26.4517 9.54802 26.4517 8.94434C26.4517 8.36262 26.5561 7.8248 26.744 7.35284C26.9318 6.88088 27.1928 6.47477 27.5268 6.14549C27.8608 5.81622 28.2471 5.56377 28.6959 5.37718C29.1447 5.19059 29.6249 5.10278 30.1468 5.10278C30.6478 5.10278 31.1176 5.19059 31.5351 5.3662ZM28.7377 7.57236C28.6542 7.737 28.6124 7.91261 28.602 8.0992H31.5038C31.5038 7.72602 31.389 7.40772 31.1698 7.13332C30.9401 6.85893 30.6061 6.72721 30.1573 6.72721C29.938 6.72721 29.7397 6.76014 29.5518 6.83697C29.3639 6.91381 29.2074 7.01259 29.0717 7.13332C28.9255 7.25406 28.8212 7.40772 28.7377 7.57236ZM80.9819 6.13452C80.6791 5.79426 80.3138 5.54182 79.8963 5.3662C79.4788 5.19059 79.009 5.10278 78.508 5.10278C77.9861 5.10278 77.5059 5.19059 77.0571 5.37718C76.6083 5.56377 76.222 5.81622 75.888 6.14549C75.554 6.47477 75.2931 6.88088 75.1052 7.35284C74.9173 7.8248 74.8129 8.36262 74.8129 8.94434C74.8129 9.54802 74.9068 10.0858 75.1052 10.5578C75.3035 11.0298 75.5749 11.4249 75.9193 11.7542C76.2638 12.0725 76.6605 12.3249 77.1197 12.4896C77.579 12.6542 78.0592 12.742 78.5706 12.742C79.27 12.742 79.8754 12.6103 80.4078 12.3469C80.7313 12.1822 81.0132 11.9847 81.2532 11.7322C81.3472 11.6334 81.3472 11.4798 81.2532 11.381L80.2825 10.3493C80.1886 10.2505 80.0424 10.2505 79.9589 10.3493C79.8336 10.4919 79.6771 10.6127 79.4996 10.7115C79.2491 10.8541 78.9464 10.92 78.5915 10.92C78.3932 10.92 78.1949 10.8871 78.007 10.8212C77.8191 10.7554 77.6521 10.6566 77.4955 10.5358C77.3494 10.4151 77.2241 10.2724 77.1197 10.1078C77.0258 9.94315 76.9632 9.75656 76.9527 9.55899H81.9108C81.9213 9.47119 81.9213 9.38338 81.9213 9.2846V8.99922C81.9213 8.38457 81.8378 7.83578 81.6708 7.35284C81.5142 6.88088 81.2846 6.47477 80.9819 6.13452ZM76.9736 8.0992C76.984 7.91261 77.0258 7.737 77.1093 7.57236C77.1928 7.40772 77.2972 7.25406 77.4433 7.13332C77.579 7.01259 77.7356 6.91381 77.9235 6.83697C78.1114 6.76014 78.3097 6.72721 78.5289 6.72721C78.9777 6.72721 79.3117 6.85893 79.5414 7.13332C79.7606 7.40772 79.8754 7.72602 79.8754 8.0992H76.9736ZM89.5829 11.2808H89.9169L90.0109 12.521H89.7812L89.7395 11.7966C89.729 11.7088 89.729 11.5881 89.729 11.4564H89.7186C89.6994 11.5572 89.6627 11.6857 89.6325 11.791L89.6247 11.8186L89.4159 12.4991H89.1758L88.9671 11.7966C88.958 11.7536 88.9449 11.7022 88.9313 11.6489L88.9312 11.6484C88.9137 11.5794 88.8953 11.5072 88.8836 11.4454H88.8731C88.8731 11.5003 88.8705 11.5579 88.8679 11.6155C88.8653 11.6731 88.8627 11.7308 88.8627 11.7857L88.8209 12.5101H88.6017L88.6852 11.2917H89.0297L89.228 11.8844L89.2356 11.9168L89.2482 11.9715C89.2632 12.037 89.2797 12.1093 89.3011 12.1918C89.3324 12.082 89.3637 11.9722 89.3846 11.8844L89.5829 11.2808ZM87.7027 12.5118H87.9324V11.491H88.3081V11.2825H87.3374V11.491H87.7027V12.5118Z" fill="#4840BB" fill-opacity="0.75"/>
</g>
<defs>
<clipPath id="clip0_1470_28102">
<rect width="89.9145" height="14.7516" fill="white" transform="translate(0.148438 0.259766)"/>
</clipPath>
</defs>
</svg>
