<svg width="118" height="21" viewBox="0 0 118 21" fill="none" xmlns="http://www.w3.org/2000/svg">
<g clip-path="url(#clip0_2210_114545)">
<path fill-rule="evenodd" clip-rule="evenodd" d="M12.5912 0.337158H17.9199C18.1528 0.337158 18.3309 0.520938 18.3172 0.747128V18.9413C18.3172 19.1675 18.1391 19.3513 17.9199 19.3513H12.4268C12.3583 19.3513 12.3035 19.3372 12.235 19.3089C12.2281 19.3089 12.2213 19.3053 12.2144 19.3018C12.2076 19.2983 12.2007 19.2947 12.1939 19.2947C12.1391 19.2665 12.0843 19.2382 12.0295 19.1817L6.05691 13.018V18.9272C6.05691 19.1534 5.87883 19.3372 5.65965 19.3372H0.330881C0.221292 19.3372 0.111703 19.2806 0.0432095 19.2099C-0.0389822 19.1392 -0.0800781 19.0261 -0.0800781 18.913V0.747128C-0.0800781 0.520938 0.0980041 0.337158 0.317182 0.337158H5.82403C5.89252 0.337158 5.96102 0.351295 6.01581 0.379569C6.02266 0.379569 6.02951 0.383103 6.03636 0.386637C6.04321 0.390172 6.05006 0.393706 6.05691 0.393706C6.1117 0.42198 6.1665 0.450253 6.22129 0.506801L12.1939 6.65635V0.747128C12.1939 0.520938 12.372 0.337158 12.5912 0.337158ZM58.1119 3.2356H60.5502C60.6872 3.2356 60.8105 3.36283 60.8105 3.5042V15.8599C60.8105 16.0154 60.6872 16.1285 60.5502 16.1285H58.7283C58.5639 16.1285 58.4269 16.0295 58.3858 15.874L58.194 15.2661C57.9201 15.5206 57.5776 15.7468 57.153 15.9729C56.6598 16.2274 56.0571 16.3688 55.3584 16.3829C55.2762 16.3971 55.194 16.3971 55.1119 16.3971C54.4269 16.3971 53.8379 16.2557 53.3036 15.9871C52.7694 15.7185 52.331 15.3509 51.9612 14.8985C51.5913 14.4462 51.3173 13.9231 51.1256 13.3293C50.9338 12.7215 50.8379 12.1136 50.8379 11.4633C50.8379 10.813 50.9475 10.2051 51.1393 9.61134C51.3447 9.01759 51.6187 8.50866 51.9886 8.05628C52.3447 7.6039 52.7968 7.25048 53.3173 6.99601C53.8379 6.72741 54.4269 6.60018 55.0708 6.60018C55.7283 6.60018 56.2899 6.74155 56.742 6.99601C57.2077 7.25048 57.5639 7.53322 57.8105 7.84423H57.8516V3.5042C57.8516 3.34869 57.9749 3.2356 58.1119 3.2356ZM54.2215 13.1032C54.3995 13.3293 54.6324 13.499 54.8927 13.6404C55.1667 13.7817 55.468 13.8524 55.8105 13.8524C56.153 13.8524 56.4543 13.7959 56.7146 13.6545C56.9749 13.5273 57.1941 13.3435 57.3858 13.1173C57.5776 12.8911 57.7283 12.6366 57.8242 12.3539C57.9201 12.0712 57.9749 11.7743 57.9749 11.4774C57.9749 11.1805 57.9201 10.8837 57.8242 10.6009C57.7146 10.3182 57.5776 10.0637 57.3858 9.83753C57.2078 9.61134 56.9749 9.4417 56.7146 9.30033C56.4406 9.1731 56.153 9.10241 55.8105 9.10241C55.468 9.10241 55.153 9.15896 54.8927 9.30033C54.6187 9.42756 54.3995 9.61134 54.2215 9.82339C54.0297 10.0354 53.9064 10.2899 53.8105 10.5726C53.7146 10.8554 53.6735 11.1523 53.6735 11.4491C53.6735 11.746 53.7146 12.0288 53.8105 12.3256C53.9064 12.6225 54.0434 12.877 54.2215 13.1032ZM112.961 6.95472H111.111L110.878 4.83418C110.865 4.6504 110.7 4.50903 110.522 4.50903H108.467C108.33 4.50903 108.207 4.62213 108.207 4.77763V6.94058L108.221 13.1184C108.221 13.6132 108.276 14.0656 108.385 14.4756C108.495 14.8855 108.673 15.2248 108.919 15.5217C109.166 15.8186 109.495 16.0448 109.906 16.1861C110.317 16.3416 110.824 16.4123 111.413 16.4123C111.728 16.4123 112.043 16.384 112.344 16.3275C112.563 16.2851 112.769 16.2427 112.933 16.2003C113.043 16.172 113.125 16.0589 113.125 15.9458L113.098 14.2635C113.098 14.0939 112.947 13.9808 112.782 14.009C112.769 14.009 112.752 14.0126 112.735 14.0161C112.717 14.0196 112.7 14.0232 112.687 14.0232C112.522 14.0514 112.372 14.0656 112.221 14.0656C111.796 14.0656 111.508 13.9525 111.344 13.7404C111.18 13.5284 111.098 13.1891 111.098 12.765V9.21662H112.947C113.084 9.21662 113.207 9.10353 113.207 8.94802V7.22332C113.221 7.06781 113.098 6.95472 112.961 6.95472ZM32.7268 7.80442C32.4666 7.451 32.1241 7.16826 31.7132 6.94207C31.3022 6.73002 30.809 6.61692 30.2337 6.60278H30.2063H30.1789H30.083C29.4118 6.61692 28.8501 6.74415 28.3707 6.98448C27.946 7.21067 27.5899 7.451 27.3296 7.70546L27.1515 7.11171C27.1104 6.95621 26.9734 6.85725 26.809 6.85725H24.8364C24.6995 6.85725 24.5762 6.97034 24.5762 7.12585V15.8483C24.5762 15.9897 24.6858 16.1169 24.8364 16.1169H27.2885C27.4255 16.1169 27.5488 16.0038 27.5488 15.8483V11.0983C27.5488 10.8439 27.5762 10.5894 27.6447 10.3491C27.7132 10.1087 27.809 9.89668 27.946 9.7129C28.083 9.52912 28.2474 9.38775 28.4392 9.27466C28.631 9.1757 28.8638 9.11915 29.1378 9.11915C29.4118 9.11915 29.6173 9.1757 29.7953 9.27466C29.9734 9.37362 30.1104 9.52912 30.2063 9.69877C30.3022 9.88255 30.3707 10.0805 30.4118 10.3208C30.4529 10.5611 30.4803 10.8014 30.4803 11.07V15.8625C30.4803 16.0038 30.5899 16.1311 30.7405 16.1311H33.1926C33.3296 16.1311 33.4529 16.018 33.4529 15.8625V10.3915C33.4529 9.93909 33.3981 9.47258 33.2885 9.0202C33.1652 8.56781 32.9871 8.15784 32.7268 7.80442ZM76.7284 6.85129H74.2215C74.112 6.85129 74.0024 6.93612 73.975 7.04921L72.4544 12.704H72.4133L70.8106 7.03508C70.7832 6.92198 70.6736 6.83716 70.564 6.83716H67.975C67.8654 6.83716 67.7558 6.92198 67.7284 7.03508L66.1805 12.704H66.1257L64.6325 7.04921C64.6051 6.93612 64.4955 6.85129 64.3859 6.85129H61.7558C61.5777 6.85129 61.4544 7.03507 61.5092 7.20472L64.427 15.9272C64.4681 16.0403 64.564 16.111 64.6736 16.111H67.2763C67.3859 16.111 67.4955 16.0403 67.5229 15.9272L69.1941 10.3572H69.2352L70.9476 15.9413C70.975 16.0544 71.0846 16.1251 71.1941 16.1251H73.7969C73.9065 16.1251 74.0024 16.0544 74.0434 15.9413L76.975 7.21885C77.0298 7.03508 76.9065 6.85129 76.7284 6.85129ZM89.1118 3.2356H91.605C91.742 3.2356 91.8516 3.36283 91.8653 3.5042V15.8457C91.8653 16.0012 91.742 16.1143 91.605 16.1143H89.1118C88.9611 16.1143 88.8516 15.9871 88.8516 15.8457V3.5042C88.8516 3.34869 88.9748 3.2356 89.1118 3.2356ZM96.5366 3.2356H94.0435C93.9065 3.2356 93.7832 3.34869 93.7832 3.5042V15.8457C93.7832 15.9871 93.8928 16.1143 94.0435 16.1143H96.5366C96.6736 16.1143 96.7969 16.0012 96.7969 15.8457V3.5042C96.7969 3.36283 96.6736 3.2356 96.5366 3.2356ZM84.6458 6.54028H86.7006C86.8376 6.54028 86.9472 6.65338 86.9472 6.79475V15.8424C86.9472 15.9979 86.8239 16.111 86.6869 16.111H84.865C84.7006 16.111 84.5636 16.012 84.5225 15.8565L84.3034 15.1497C84.0157 15.4465 83.6321 15.7151 83.1527 15.9696C82.7417 16.1817 82.2623 16.3089 81.7143 16.3513C81.5636 16.3654 81.4129 16.3796 81.2623 16.3796C80.5773 16.3796 79.9883 16.2382 79.454 15.9696C78.9198 15.701 78.4814 15.3334 78.1116 14.8811C77.7417 14.4287 77.4677 13.9056 77.276 13.3119C77.0842 12.704 76.9883 12.0961 76.9883 11.4458C76.9883 10.7955 77.0979 10.1876 77.2896 9.59385C77.4951 9.0001 77.7691 8.49118 78.139 8.03879C78.4951 7.58641 78.9472 7.23299 79.4677 6.97853C79.9883 6.70993 80.5773 6.58269 81.2212 6.58269C81.9609 6.58269 82.5773 6.72406 83.0842 6.97853C83.4814 7.17644 83.7965 7.40263 84.0568 7.62882L84.3034 6.79475C84.3445 6.65338 84.4951 6.54028 84.6458 6.54028ZM79.9609 12.3223C80.0568 12.6192 80.1938 12.8736 80.3718 13.0998C80.5499 13.326 80.7828 13.5098 81.0431 13.6511C81.3034 13.7784 81.6184 13.8491 81.9609 13.8491C82.3034 13.8491 82.6047 13.7925 82.865 13.6511C83.1253 13.5239 83.3445 13.3401 83.5362 13.1139C83.728 12.8878 83.8787 12.6333 83.9746 12.3506C84.0705 12.0678 84.1253 11.7709 84.1253 11.4741C84.1253 11.1772 84.0705 10.8803 83.9746 10.5976C83.865 10.3148 83.728 10.0604 83.5362 9.83418C83.3582 9.60799 83.1253 9.43835 82.865 9.29698C82.591 9.16975 82.3034 9.09906 81.9609 9.09906C81.6184 9.09906 81.3034 9.15561 81.0431 9.29698C80.7691 9.42421 80.5499 9.60799 80.3718 9.82004C80.1801 10.0321 80.0568 10.2866 79.9609 10.5693C79.865 10.852 79.8239 11.1489 79.8239 11.4458C79.8239 11.7427 79.865 12.0254 79.9609 12.3223ZM50.5229 6.63106H50.4955L50.5229 6.60278H50.3037H50.1256C49.742 6.60278 49.3859 6.67347 49.0571 6.82897C48.9201 6.87138 48.7968 6.92793 48.6735 6.99862C48.1941 7.23894 47.8242 7.50755 47.5503 7.80442L47.3722 7.15412C47.3311 6.99862 47.1941 6.88552 47.0297 6.88552H45.0708C44.9338 6.88552 44.8105 6.99862 44.8105 7.15412V15.8625C44.8105 16.0038 44.9201 16.1311 45.0708 16.1311H47.5092C47.6462 16.1311 47.7694 16.018 47.7694 15.8625V11.3811C47.7694 11.1973 47.8105 10.9852 47.879 10.7308C47.9475 10.4904 48.0708 10.2501 48.2352 10.0381C48.3996 9.826 48.6188 9.64222 48.879 9.50085C49.153 9.35948 49.4818 9.27466 49.879 9.27466C50.0023 9.27466 50.1256 9.27466 50.2489 9.2888L50.3722 9.30293C50.5092 9.31707 50.6461 9.20397 50.6598 9.0626L50.7557 6.9138C50.7694 6.77243 50.6735 6.64519 50.5229 6.63106ZM41.1107 6.91082C41.6586 7.13701 42.1381 7.46216 42.5354 7.9004C42.9189 8.33865 43.234 8.86171 43.4395 9.4696C43.6586 10.0916 43.7682 10.7985 43.7682 11.5901V11.9577C43.7682 12.0849 43.7682 12.198 43.7545 12.3111H37.2477C37.2614 12.5656 37.3436 12.8059 37.4669 13.018C37.6038 13.23 37.7682 13.4138 37.96 13.5693C38.1655 13.7248 38.3847 13.852 38.6312 13.9369C38.8778 14.0217 39.1381 14.0641 39.3984 14.0641C39.8641 14.0641 40.2614 13.9793 40.5901 13.7955C40.823 13.6683 41.0285 13.5128 41.1929 13.329C41.3025 13.2017 41.4943 13.2017 41.6175 13.329L42.8915 14.6578C43.0148 14.7851 43.0148 14.983 42.8915 15.1102C42.5765 15.4354 42.2066 15.6898 41.7819 15.9019C41.0833 16.2412 40.2888 16.4108 39.371 16.4108C38.6997 16.4108 38.0696 16.2977 37.4669 16.0857C36.8641 15.8736 36.3436 15.5485 35.8915 15.1385C35.4395 14.7144 35.0833 14.2055 34.823 13.5976C34.5627 12.9897 34.4395 12.297 34.4395 11.5195C34.4395 10.7702 34.5764 10.0775 34.823 9.4696C35.0696 8.86171 35.4121 8.33865 35.8504 7.91454C36.2888 7.49043 36.7956 7.16528 37.3847 6.92496C37.9737 6.68463 38.6038 6.57153 39.2888 6.57153C39.9463 6.57153 40.5628 6.68463 41.1107 6.91082ZM37.4395 9.75234C37.3299 9.96439 37.2751 10.1906 37.2614 10.4309H41.0696C41.0696 9.95025 40.9189 9.54028 40.6312 9.18686C40.3299 8.83344 39.8915 8.6638 39.3025 8.6638C39.0148 8.6638 38.7545 8.70621 38.508 8.80517C38.2614 8.90412 38.0559 9.03135 37.8778 9.18686C37.686 9.34237 37.549 9.54028 37.4395 9.75234ZM106.002 7.9004C105.605 7.46216 105.125 7.13701 104.577 6.91082C104.03 6.68463 103.413 6.57153 102.756 6.57153C102.071 6.57153 101.441 6.68463 100.851 6.92496C100.262 7.16528 99.7556 7.49043 99.3172 7.91454C98.8789 8.33865 98.5364 8.86171 98.2898 9.4696C98.0433 10.0775 97.9063 10.7702 97.9063 11.5195C97.9063 12.297 98.0296 12.9897 98.2898 13.5976C98.5501 14.2055 98.9063 14.7144 99.3583 15.1385C99.8104 15.5485 100.331 15.8736 100.934 16.0857C101.536 16.2977 102.167 16.4108 102.838 16.4108C103.756 16.4108 104.55 16.2412 105.249 15.9019C105.673 15.6898 106.043 15.4354 106.358 15.1102C106.482 14.983 106.482 14.7851 106.358 14.6578L105.084 13.329C104.961 13.2017 104.769 13.2017 104.66 13.329C104.495 13.5128 104.29 13.6683 104.057 13.7955C103.728 13.9793 103.331 14.0641 102.865 14.0641C102.605 14.0641 102.345 14.0217 102.098 13.9369C101.851 13.852 101.632 13.7248 101.427 13.5693C101.235 13.4138 101.071 13.23 100.934 13.018C100.81 12.8059 100.728 12.5656 100.714 12.3111H107.221C107.235 12.198 107.235 12.0849 107.235 11.9577V11.5901C107.235 10.7985 107.125 10.0916 106.906 9.4696C106.701 8.86171 106.399 8.33865 106.002 7.9004ZM100.742 10.4309C100.756 10.1906 100.81 9.96439 100.92 9.75234C101.03 9.54028 101.167 9.34237 101.358 9.18686C101.536 9.03135 101.742 8.90412 101.988 8.80517C102.235 8.70621 102.495 8.6638 102.783 8.6638C103.372 8.6638 103.81 8.83344 104.112 9.18686C104.399 9.54028 104.55 9.95025 104.55 10.4309H100.742ZM117.29 14.5325H117.728L117.851 16.1299H117.55L117.495 15.1969C117.481 15.0839 117.481 14.9285 117.481 14.7589V14.7587H117.468C117.443 14.8884 117.394 15.054 117.355 15.1896L117.344 15.2252L117.07 16.1017H116.755L116.481 15.1969C116.469 15.1413 116.452 15.0748 116.434 15.0059C116.411 14.9171 116.387 14.8241 116.372 14.7445H116.358C116.358 14.8152 116.355 14.8894 116.351 14.9636L116.351 14.9642C116.348 15.0382 116.344 15.1122 116.344 15.1828L116.29 16.1158H116.002L116.112 14.5466H116.564L116.824 15.31C116.833 15.3458 116.841 15.3831 116.85 15.4222L116.85 15.4224C116.87 15.5067 116.892 15.5997 116.92 15.7058C116.961 15.5645 117.002 15.4231 117.029 15.31L117.29 14.5325ZM114.823 16.1158H115.125V14.8011H115.618V14.5325H114.344V14.8011H114.823V16.1158Z" fill="#F0F0F2"/>
</g>
<defs>
<clipPath id="clip0_2210_114545">
<rect width="118" height="20" fill="white" transform="translate(0 0.337158)"/>
</clipPath>
</defs>
</svg>
