<svg width="48" height="48" fill="none" xmlns="http://www.w3.org/2000/svg"><path d="M22.33 44a5 5 0 0 1-5-5.49l.51-5.11-7.75-2.58A6 6 0 0 1 6 25.17V8.05a2 2 0 0 1 2-2L40 6a2 2 0 0 1 2 2v17.11a6 6 0 0 1-4.1 5.7l-7.74 2.59.51 5.11a5 5 0 0 1-5 5.5h-3.34V44ZM10 10.05v15.11a2 2 0 0 0 1.37 1.9l9.27 3.08A2 2 0 0 1 22 32.23l-.67 6.71a1 1 0 0 0 1 1.09h3.37a1 1 0 0 0 1-1.1l-.7-6.7a2 2 0 0 1 1.35-2.1L36.64 27A2 2 0 0 0 38 25.14V10l-28 .05Z" fill="#161338"/><path d="M8 23a1 1 0 0 1 0-2h32a1 1 0 0 1 0 2H8ZM24.99 8.03a1 1 0 1 0-2 0v9a1 1 0 1 0 2 0v-9ZM17.99 8.04a1 1 0 1 0-2 0v6a1 1 0 1 0 2 0v-6ZM31.99 8.03a1 1 0 1 0-2 0v8a1 1 0 1 0 2 0v-8Z" fill="#161338"/></svg>