<svg width="203" height="73" fill="none" xmlns="http://www.w3.org/2000/svg"><path stroke="url(#a)" stroke-width="5" stroke-linecap="round" d="M2.5 46.5h198"/><g filter="url(#b)"><circle cx="149" cy="46" r="12" fill="#230B59"/></g><path d="m151.543 42.919 3.456 3.456-3.456 3.456M146.832 42.919l-3.456 3.456 3.456 3.456" stroke="#fff" stroke-width="1.5" stroke-linecap="round" stroke-linejoin="round"/><path d="m148.993 31-9.225-10.297a12.436 12.436 0 0 1 .454-17.07 12.406 12.406 0 0 1 17.542 0 12.427 12.427 0 0 1 3.629 8.455 12.43 12.43 0 0 1-3.175 8.635L148.993 31Z" fill="#230B59"/><path d="M144.721 14.275c-.546 0-.955-.334-.955-.843 0-.52.409-.843.955-.843.558 0 .967.322.967.843 0 .509-.409.843-.967.843Zm0-3.273c-.472 0-.856-.31-.856-.769 0-.484.384-.794.856-.794.483 0 .855.31.855.794 0 .459-.372.769-.855.769Zm0 4.811c1.587 0 2.876-.83 2.876-2.232 0-.893-.545-1.525-1.227-1.76.607-.298.979-.906.979-1.65 0-1.438-1.227-2.22-2.628-2.22-1.389 0-2.629.782-2.629 2.22 0 .744.372 1.352.992 1.65-.695.235-1.228.867-1.228 1.76 0 1.401 1.277 2.232 2.865 2.232Zm3.395-1.203c0 .657.508 1.166 1.14 1.166.645 0 1.154-.509 1.154-1.166 0-.657-.509-1.153-1.154-1.153-.632 0-1.14.496-1.14 1.153Zm5.682 1.203c1.872 0 3.162-1.612 3.162-3.93 0-2.32-1.29-3.932-3.162-3.932-1.873 0-3.15 1.612-3.15 3.931s1.277 3.931 3.15 3.931Zm0-6.113c.88 0 1.227 1.004 1.227 2.182s-.347 2.183-1.227 2.183c-.881 0-1.228-1.005-1.228-2.183s.347-2.182 1.228-2.182Z" fill="#fff"/><defs><linearGradient id="a" x1="0" y1="49" x2="203" y2="49" gradientUnits="userSpaceOnUse"><stop stop-color="#BDC6F5"/><stop offset="1" stop-color="#F4B896"/></linearGradient><filter id="b" x="125.273" y="24.618" width="47.454" height="47.454" filterUnits="userSpaceOnUse" color-interpolation-filters="sRGB"><feFlood flood-opacity="0" result="BackgroundImageFix"/><feColorMatrix in="SourceAlpha" values="0 0 0 0 0 0 0 0 0 0 0 0 0 0 0 0 0 0 127 0" result="hardAlpha"/><feOffset dy="2.345"/><feGaussianBlur stdDeviation="5.864"/><feColorMatrix values="0 0 0 0 0 0 0 0 0 0 0 0 0 0 0 0 0 0 0.25 0"/><feBlend in2="BackgroundImageFix" result="effect1_dropShadow_1106_17089"/><feBlend in="SourceGraphic" in2="effect1_dropShadow_1106_17089" result="shape"/></filter></defs></svg>