<svg width="227" height="35" fill="none" xmlns="http://www.w3.org/2000/svg"><g clip-path="url(#a)"><path fill="#161338" fill-opacity=".3" d="M4.51 16.66h1.808v1.808H4.51zM11.139 16.66h1.808v1.808h-1.808zM17.768 16.66h1.808v1.808h-1.808zM24.396 16.66h1.808v1.808h-1.808zM31.025 16.66h1.808v1.808h-1.808zM37.654 11.563h2v12h-2zM44.475 11.537h1.808v12.052h-1.808zM51.103 11.537h1.808v12.052h-1.808z"/><path fill="#958CF2" d="M57.732 4.306h1.808v26.515h-1.808z"/><path fill="#161338" fill-opacity=".3" d="M64.361 11.537h1.808v12.052h-1.808zM70.99 11.537h1.808v12.052H70.99zM77.619 11.537h1.808v12.052h-1.808zM84.248 11.537h1.808v12.052h-1.808zM90.876 11.537h1.808v12.052h-1.808zM97.505 11.537h1.808v12.052h-1.808zM104.134 11.537h1.808v12.052h-1.808zM110.763 11.537h1.808v12.052h-1.808zM117.392 11.537h1.808v12.052h-1.808zM124.02 11.537h1.808v12.052h-1.808zM130.649 11.537h1.808v12.052h-1.808zM137.278 11.537h1.808v12.052h-1.808zM143.906 11.537h1.808v12.052h-1.808zM150.535 11.537h1.808v12.052h-1.808zM157.164 11.537h1.808v12.052h-1.808zM163.793 11.537h1.808v12.052h-1.808zM170.421 11.537h1.808v12.052h-1.808zM177.05 11.537h1.808v12.052h-1.808zM183.679 11.537h1.808v12.052h-1.808zM190.308 11.537h1.808v12.052h-1.808zM196.937 11.537h1.808v12.052h-1.808zM203.565 11.537h1.808v12.052h-1.808zM210.194 11.537h1.808v12.052h-1.808zM216.823 11.537h1.808v12.052h-1.808zM223.452 11.537h1.808v12.052h-1.808z"/></g><defs><clipPath id="a"><path fill="#fff" transform="translate(.896 .655)" d="M0 0h225.981v33.746H0z"/></clipPath></defs></svg>