<svg width="227" height="35" fill="none" xmlns="http://www.w3.org/2000/svg"><g clip-path="url(#a)"><path fill="#161338" fill-opacity=".3" d="M4.511 16.66h1.808v1.808H4.511zM11.139 16.66h1.808v1.808h-1.808zM17.768 16.66h1.808v1.808h-1.808zM24.397 16.66h1.808v1.808h-1.808zM31.025 16.66h1.808v1.808h-1.808zM37.654 16.66h1.808v1.808h-1.808zM44.283 11.537h1.808v12.052h-1.808zM50.912 11.537h1.808v12.052h-1.808z"/><path fill="#958CF2" d="M57.541 4.306h1.808v26.515h-1.808z"/><path fill="#161338" fill-opacity=".3" d="M64.169 11.537h1.808v12.052h-1.808zM70.798 11.537h1.808v12.052h-1.808zM77.427 11.537h1.808v12.052h-1.808zM84.056 11.537h1.808v12.052h-1.808zM90.684 11.537h1.808v12.052h-1.808zM97.313 11.537h1.808v12.052h-1.808zM103.942 11.537h1.808v12.052h-1.808zM110.571 11.537h1.808v12.052h-1.808zM117.199 11.537h1.808v12.052h-1.808zM123.828 11.537h1.808v12.052h-1.808zM130.457 11.537h1.808v12.052h-1.808zM137.086 11.537h1.808v12.052h-1.808zM143.715 11.537h1.808v12.052h-1.808zM150.343 11.537h1.808v12.052h-1.808zM156.972 11.537h1.808v12.052h-1.808zM163.601 11.537h1.808v12.052h-1.808zM170.229 11.537h1.808v12.052h-1.808zM176.858 11.537h1.808v12.052h-1.808zM183.487 11.537h1.808v12.052h-1.808zM190.116 11.537h1.808v12.052h-1.808zM196.745 11.537h1.808v12.052h-1.808zM203.373 11.537h1.808v12.052h-1.808zM210.002 11.537h1.808v12.052h-1.808zM216.631 11.537h1.808v12.052h-1.808zM223.26 11.537h1.808v12.052h-1.808z"/></g><defs><clipPath id="a"><path fill="#fff" transform="translate(.896 .655)" d="M0 0h225.981v33.746H0z"/></clipPath></defs></svg>