<svg width="227" height="35" fill="none" xmlns="http://www.w3.org/2000/svg"><g clip-path="url(#a)"><path fill="#161338" fill-opacity=".3" d="M4.51 16.66h1.808v1.808H4.51zM11.139 16.66h1.808v1.808h-1.808zM17.768 16.66h1.808v1.808h-1.808zM24.396 11.563h2v12h-2zM31.217 11.563h2v12h-2zM38.038 11.563h2v12h-2zM44.859 11.537h1.808v12.052h-1.808zM51.488 11.537h1.808v12.052h-1.808z"/><path fill="#958CF2" d="M58.117 4.306h1.808v26.515h-1.808z"/><path fill="#161338" fill-opacity=".3" d="M64.746 11.537h1.808v12.052h-1.808zM71.374 11.537h1.808v12.052h-1.808zM78.003 11.537h1.808v12.052h-1.808zM84.632 11.537h1.808v12.052h-1.808zM91.261 11.537h1.808v12.052h-1.808zM97.89 11.537h1.808v12.052H97.89zM104.518 11.537h1.808v12.052h-1.808zM111.147 11.537h1.808v12.052h-1.808zM117.776 11.537h1.808v12.052h-1.808zM124.404 11.537h1.808v12.052h-1.808zM131.033 11.537h1.808v12.052h-1.808zM137.662 11.537h1.808v12.052h-1.808zM144.291 11.537h1.808v12.052h-1.808zM150.919 11.537h1.808v12.052h-1.808zM157.548 11.537h1.808v12.052h-1.808zM164.177 11.537h1.808v12.052h-1.808zM170.806 11.537h1.808v12.052h-1.808zM177.435 11.537h1.808v12.052h-1.808zM184.063 11.537h1.808v12.052h-1.808zM190.692 11.537h1.808v12.052h-1.808zM197.321 11.537h1.808v12.052h-1.808zM203.95 11.537h1.808v12.052h-1.808zM210.578 11.537h1.808v12.052h-1.808zM217.207 11.537h1.808v12.052h-1.808zM223.836 11.537h1.808v12.052h-1.808z"/></g><defs><clipPath id="a"><path fill="#fff" transform="translate(.896 .655)" d="M0 0h225.981v33.746H0z"/></clipPath></defs></svg>