<svg width="227" height="35" fill="none" xmlns="http://www.w3.org/2000/svg"><g clip-path="url(#a)"><path fill="#161338" fill-opacity=".3" d="M4.511 16.402h1.808v1.808H4.511zM11.14 16.402h1.808v1.808H11.14zM17.769 16.402h1.808v1.808h-1.808zM24.398 16.402h1.808v1.808h-1.808zM31.025 16.402h1.808v1.808h-1.808zM37.654 16.402h1.808v1.808h-1.808zM44.283 11.28h1.808v12.052h-1.808zM50.912 4.306h2v26h-2z"/><path fill="#B9B8C3" d="M57.733 11.306h2v12h-2z"/><path fill="#161338" fill-opacity=".3" d="M64.554 11.28h1.808v12.052h-1.808zM71.183 11.28h1.808v12.052h-1.808zM77.811 11.28h1.808v12.052h-1.808zM84.44 11.28h1.808v12.052H84.44zM91.069 11.28h1.808v12.052h-1.808zM97.697 11.28h1.808v12.052h-1.808zM104.326 11.28h1.808v12.052h-1.808zM110.955 11.28h1.808v12.052h-1.808zM117.584 11.28h1.808v12.052h-1.808zM124.213 11.28h1.808v12.052h-1.808zM130.842 11.28h1.808v12.052h-1.808zM137.471 11.28h1.808v12.052h-1.808zM144.099 11.28h1.808v12.052h-1.808zM150.728 11.28h1.808v12.052h-1.808zM157.356 11.28h1.808v12.052h-1.808zM163.985 11.28h1.808v12.052h-1.808zM170.614 11.28h1.808v12.052h-1.808zM177.243 11.28h1.808v12.052h-1.808zM183.872 11.28h1.808v12.052h-1.808zM190.5 11.28h1.808v12.052H190.5zM197.129 11.28h1.808v12.052h-1.808zM203.758 11.28h1.808v12.052h-1.808zM210.387 11.28h1.808v12.052h-1.808zM217.016 11.28h1.808v12.052h-1.808zM223.645 11.28h1.808v12.052h-1.808z"/></g><defs><clipPath id="a"><path fill="#fff" transform="translate(.896 .655)" d="M0 0h225.981v33.746H0z"/></clipPath></defs></svg>