<svg width="227" height="35" fill="none" xmlns="http://www.w3.org/2000/svg"><g clip-path="url(#a)"><path fill="#000" fill-opacity=".3" d="M4.511 16.401h1.81v1.81h-1.81zM11.142 16.401h1.81v1.81h-1.81zM17.773 16.401h1.81v1.81h-1.81zM24.403 11.459h1.799v11.694h-1.799zM31.023 11.459h1.799v11.694h-1.799zM37.644 11.459h1.799v11.694h-1.799zM44.264 11.28h1.808v12.052h-1.808z"/><path fill="#958CF2" d="M50.892 4.048H52.7v26.515h-1.808z"/><path fill="#000" fill-opacity=".3" d="M57.52 11.28h1.808v12.052H57.52zM64.149 11.28h1.808v12.052h-1.808zM70.778 11.28h1.808v12.052h-1.808zM77.407 11.28h1.808v12.052h-1.808zM84.036 11.28h1.808v12.052h-1.808zM90.665 11.28h1.808v12.052h-1.808zM97.293 11.28h1.808v12.052h-1.808zM103.922 11.28h1.808v12.052h-1.808zM110.551 11.28h1.808v12.052h-1.808zM117.18 11.28h1.808v12.052h-1.808zM123.809 11.28h1.808v12.052h-1.808zM130.438 11.28h1.808v12.052h-1.808zM137.066 11.28h1.808v12.052h-1.808zM143.695 11.28h1.808v12.052h-1.808zM150.323 11.28h1.808v12.052h-1.808zM156.952 11.28h1.808v12.052h-1.808zM163.581 11.28h1.808v12.052h-1.808zM170.21 11.28h1.808v12.052h-1.808zM176.839 11.28h1.808v12.052h-1.808zM183.468 11.28h1.808v12.052h-1.808zM190.096 11.28h1.808v12.052h-1.808zM196.725 11.28h1.808v12.052h-1.808zM203.354 11.28h1.808v12.052h-1.808zM209.982 11.28h1.808v12.052h-1.808zM216.611 11.28h1.808v12.052h-1.808zM223.24 11.28h1.808v12.052h-1.808z"/></g><defs><clipPath id="a"><path fill="#fff" transform="translate(.896 .398)" d="M0 0h225.981v33.746H0z"/></clipPath></defs></svg>