<svg width="48" height="48" fill="none" xmlns="http://www.w3.org/2000/svg"><path d="M31.59 44.39a1.91 1.91 0 0 1-1-.27l-24.25-14a2 2 0 0 1-1-1.6l-.92-14.39a2 2 0 0 1 1.11-1.92l12.92-6.4a2 2 0 0 1 1.89.07l24.25 14a2 2 0 0 1 .73 2.73l-12 20.78a2 2 0 0 1-1.73 1ZM9.27 27.2l21.59 12.46 10-17.32L19.27 9.88 8.49 15.2l.78 12Z" fill="#161338"/><path d="M14.2 21.5a3 3 0 1 1 1.51-5.6 3 3 0 0 1-1.51 5.6Zm0-4a1 1 0 1 0 .96.74 1 1 0 0 0-.46-.61 1 1 0 0 0-.49-.13h-.01ZM21.56 27.83a3.16 3.16 0 0 1-1-3.63l2 1.17a1.32 1.32 0 0 0 .76 1.44c.55.31 1.08.27 1.33-.16.25-.43.07-.71-.39-1.15l-1.11-1a2.47 2.47 0 0 1-.68-3.3 2.77 2.77 0 0 1 3.57-1.11l.69-1.19 1.67 1-.71 1.23a3 3 0 0 1 .8 3.38l-1.93-1.12a1.29 1.29 0 0 0-.7-1.39c-.53-.31-1-.25-1.26.14s-.08.65.26 1l1.22 1.17a2.55 2.55 0 0 1 .68 3.39 2.77 2.77 0 0 1-3.53 1.13L22.52 30l-1.67-1 .71-1.17Z" fill="#161338"/></svg>