<svg width="77" height="26" fill="none" xmlns="http://www.w3.org/2000/svg"><path d="M76.688 9.926c-.181-2.065-1.979-2.614-3.562-1.675-.437-2.269-3.308-2.597-4.738-1.122-.185-.212-.352-.533-.563-.708-.994-.83-2.491-.697-3.495.042-.164-.037-.163-.817-.195-.99-.395-2.078-1.423-6.325-4.27-5.322-2.135.753-1.33 4.55-.964 6.254.328 1.54.832 3.037 1.047 4.604l-2.002-1.443c-1.835-.965-3.97.65-3.765 2.748.137 1.395 2.178 3.488 2.978 4.708.955 1.458 1.46 2.64 2.682 3.975.416.454 1.784 1.601 1.966 2.044.309.752-.555 1.625.473 1.962 1.472-.124 3.39.235 4.81 0 .902-.15 1.53-1.196 2.01-1.916.219.058.171.234.274.38.314.45.81 1.096 1.28 1.344.456.24.74.136 1.224.218 1.08-.19 1.82.213 1.666-1.304-.02-.2-.117-.393-.134-.605-.192-2.456 1.508-3.425 2.4-5.387.86-1.888 1.062-5.72.878-7.807Zm-2.1 7.644c-.395.756-1.064 1.405-1.508 2.15-.127.212-.81 1.56-.81 1.686v2.311c-.053.076-.062.08-.146.08a7.23 7.23 0 0 1-.673-.043c-1.095-.143-1.047-2.095-2.28-2.086-.955.007-1.165 1.027-1.706 1.641-.245.278-.415.417-.784.448-1.15.095-2.425-.067-3.587-.013-.133-.31-.056-.632-.114-.962-.163-.905-1.748-2.078-2.392-2.79-1.292-1.431-2.003-3.046-3.074-4.61-.597-.872-2.13-2.41-2.128-3.441.001-.638.54-1.245 1.126-1.361.968-.191 2.132.951 2.724 1.66.256.307 1.215 1.802 1.412 1.892.5.227.957-.251.94-.77-.019-.72-.305-2.132-.446-2.894-.25-1.352-.667-2.651-.96-3.988-.262-1.19-.819-3.585-.306-4.679.282-.606.955-.603 1.429-.222 1.398 1.123 1.793 5.695 2.151 7.512.067.336.23 1.317.406 1.513.248.276.762.31.962-.046.414-.738-.607-3.182.862-3.42.993-.161 1.595.17 1.864 1.171.147.546.125 2.04.408 2.33.193.198.53.18.748.03.518-.355.204-2.17.654-2.743.241-.308.928-.52 1.298-.489 1.561.132 1.23 1.748 1.517 2.888.094.368.369.645.753.596.634-.081.548-.91.785-1.346.343-.632 1.399-.773 1.669.003.097.28.151 1.06.167 1.39.081 1.782-.147 5.046-.96 6.602Z" fill="#000"/><path d="M75.549 10.968c-.016-.33-.07-1.11-.167-1.39-.27-.776-1.326-.635-1.67-.003-.236.436-.15 1.265-.784 1.346-.384.049-.659-.228-.753-.596-.287-1.14.044-2.756-1.517-2.888-.37-.031-1.057.18-1.298.489-.45.573-.136 2.388-.654 2.743-.219.15-.555.168-.748-.03-.283-.29-.261-1.784-.408-2.33-.269-1.002-.871-1.332-1.864-1.17-1.469.237-.448 2.68-.862 3.418-.2.357-.714.323-.962.047-.176-.196-.339-1.177-.406-1.513-.358-1.817-.754-6.389-2.151-7.512-.474-.381-1.147-.384-1.43.222-.512 1.094.045 3.488.308 4.679.292 1.337.71 2.636.96 3.988.14.762.426 2.173.446 2.893.016.52-.441.998-.94.77-.198-.089-1.157-1.584-1.413-1.89-.592-.71-1.756-1.852-2.724-1.661-.587.116-1.125.723-1.126 1.36-.002 1.033 1.531 2.57 2.128 3.442 1.071 1.564 1.782 3.179 3.074 4.61.644.712 2.229 1.885 2.392 2.79.058.33-.019.651.114.962 1.162-.054 2.437.108 3.587.014.369-.032.539-.17.784-.449.541-.614.751-1.634 1.706-1.641 1.232-.01 1.185 1.943 2.28 2.087.163.02.509.043.673.043.084 0 .093-.005.145-.08v-2.312c0-.127.684-1.474.811-1.686.444-.745 1.113-1.394 1.508-2.15.814-1.556 1.042-4.82.96-6.602Zm-9.55 8.794c-.141.682-1.054.77-1.138.006-.184-1.684.144-3.723-.001-5.446-.013-.16.207-.425.338-.465.446-.139.723.102.808.54L66 19.761Zm2.968-.306c-.043 1.162-1.083 1.091-1.183.16-.119-1.103-.12-4.038 0-5.14.022-.216.114-.55.335-.619.366-.113.755.061.808.465-.101 1.701.102 3.44.04 5.134Zm3.02.164c-.097.848-.997.947-1.197.13.093-1.66-.172-3.564-.014-5.2.049-.514.194-.8.743-.705a.717.717 0 0 1 .3.169c.088.1.153.321.168.459.171 1.596-.133 3.514 0 5.147Z" fill="#fff"/><path d="M71.987 19.62c-.097.848-.997.947-1.197.13.093-1.66-.172-3.564-.014-5.2.049-.514.194-.8.743-.705a.717.717 0 0 1 .3.169c.088.1.153.321.168.459.171 1.596-.133 3.514 0 5.147ZM68.967 19.456c-.043 1.162-1.083 1.091-1.183.16-.119-1.103-.12-4.038 0-5.14.022-.216.114-.55.335-.619.366-.113.755.061.808.465-.101 1.701.102 3.44.04 5.134ZM66.006 14.396 66 19.762c-.141.682-1.054.77-1.138.006-.184-1.684.144-3.723-.001-5.446-.013-.16.207-.425.338-.465.446-.139.723.102.808.54ZM.063 9.926C.243 7.86 2.04 7.312 3.625 8.25 4.06 5.982 6.933 5.654 8.363 7.13c.184-.212.351-.533.563-.708.993-.83 2.491-.697 3.495.042.164-.037.162-.817.195-.99.394-2.078 1.422-6.325 4.269-5.322 2.136.753 1.33 4.55.965 6.254-.328 1.54-.832 3.037-1.048 4.604l2.003-1.443c1.835-.965 3.97.65 3.765 2.748-.137 1.395-2.179 3.488-2.978 4.708-.955 1.458-1.46 2.64-2.683 3.975-.415.454-1.783 1.601-1.966 2.044-.308.752.556 1.625-.472 1.962-1.472-.124-3.39.235-4.81 0-.902-.15-1.53-1.196-2.01-1.916-.219.058-.172.234-.274.38-.315.45-.81 1.096-1.281 1.344-.455.24-.74.136-1.224.218-1.079-.19-1.82.213-1.666-1.304.02-.2.117-.393.135-.605.192-2.456-1.508-3.425-2.4-5.387-.86-1.888-1.063-5.72-.878-7.807Zm2.1 7.644c.395.756 1.063 1.405 1.507 2.15.127.212.811 1.56.811 1.686v2.311c.053.076.062.08.146.08.164 0 .51-.022.672-.043 1.095-.143 1.048-2.095 2.28-2.086.955.007 1.165 1.027 1.706 1.641.246.278.416.417.784.448 1.15.095 2.426-.067 3.588-.013.133-.31.056-.632.114-.962.163-.905 1.748-2.078 2.392-2.79 1.292-1.431 2.003-3.046 3.073-4.61.597-.872 2.13-2.41 2.13-3.441-.002-.638-.54-1.245-1.127-1.361-.968-.191-2.132.951-2.724 1.66-.256.307-1.215 1.802-1.412 1.892-.5.227-.957-.251-.941-.77.02-.72.305-2.132.447-2.894.25-1.352.666-2.651.96-3.988.262-1.19.819-3.585.306-4.679-.283-.606-.955-.603-1.43-.222-1.397 1.123-1.792 5.695-2.15 7.512-.068.336-.23 1.317-.406 1.513-.248.276-.762.31-.962-.046-.414-.738.606-3.182-.863-3.42-.992-.161-1.594.17-1.863 1.171-.147.546-.125 2.04-.408 2.33-.193.198-.53.18-.748.03-.519-.355-.204-2.17-.654-2.743-.241-.308-.928-.52-1.298-.489-1.562.132-1.23 1.748-1.518 2.888-.094.368-.368.645-.752.596-.634-.081-.548-.91-.785-1.346-.343-.632-1.4-.773-1.67.003-.096.28-.15 1.06-.166 1.39-.082 1.782.147 5.046.96 6.602Z" fill="#000"/><path d="M1.202 10.968c.016-.33.07-1.11.167-1.39.27-.776 1.326-.635 1.669-.003.237.436.151 1.265.785 1.346.384.049.658-.228.752-.596.287-1.14-.044-2.756 1.518-2.888.37-.031 1.057.18 1.298.489.45.573.135 2.388.654 2.743.218.15.555.168.748-.03.283-.29.261-1.784.408-2.33.269-1.002.871-1.332 1.863-1.17 1.47.237.449 2.68.863 3.418.2.357.713.323.962.047.176-.196.338-1.177.405-1.513.359-1.817.754-6.389 2.152-7.512.474-.381 1.146-.384 1.429.222.513 1.094-.044 3.488-.307 4.679-.293 1.337-.71 2.636-.96 3.988-.14.762-.426 2.173-.446 2.893-.016.52.441.998.94.77.198-.089 1.157-1.584 1.413-1.89.592-.71 1.756-1.852 2.724-1.661.587.116 1.125.723 1.126 1.36.002 1.033-1.532 2.57-2.129 3.442-1.07 1.564-1.781 3.179-3.073 4.61-.644.712-2.229 1.885-2.392 2.79-.058.33.019.651-.114.962-1.162-.054-2.437.108-3.588.014-.368-.032-.538-.17-.784-.449-.54-.614-.75-1.634-1.706-1.641-1.232-.01-1.185 1.943-2.28 2.087-.162.02-.508.043-.672.043-.084 0-.093-.005-.146-.08v-2.312c0-.127-.684-1.474-.81-1.686-.445-.745-1.113-1.394-1.508-2.15-.814-1.556-1.043-4.82-.961-6.602Zm9.55 8.794c.141.682 1.053.77 1.138.006.184-1.684-.145-3.723.001-5.446.013-.16-.207-.425-.338-.465-.446-.139-.723.102-.808.54l.007 5.365Zm-2.968-.306c.042 1.162 1.083 1.091 1.183.16.119-1.103.12-4.038 0-5.14-.023-.216-.114-.55-.335-.619-.366-.113-.756.061-.808.465.1 1.701-.102 3.44-.04 5.134Zm-3.02.164c.097.848.996.947 1.196.13-.092-1.66.173-3.564.015-5.2-.049-.514-.195-.8-.743-.705a.718.718 0 0 0-.301.169c-.087.1-.153.321-.167.459-.171 1.596.133 3.514 0 5.147Z" fill="#fff"/><path d="M4.764 19.62c.097.848.996.947 1.196.13-.092-1.66.173-3.564.015-5.2-.049-.514-.195-.8-.743-.705a.718.718 0 0 0-.301.169c-.087.1-.153.321-.167.459-.171 1.596.133 3.514 0 5.147ZM7.784 19.456c.042 1.162 1.083 1.091 1.183.16.119-1.103.12-4.038 0-5.14-.023-.216-.114-.55-.335-.619-.366-.113-.756.061-.808.465.1 1.701-.102 3.44-.04 5.134ZM10.745 14.396l.007 5.366c.141.682 1.053.77 1.138.006.184-1.684-.145-3.723.001-5.446.013-.16-.207-.425-.338-.465-.446-.139-.723.102-.808.54Z" fill="#000"/></svg>