<svg width="23" height="22" fill="none" xmlns="http://www.w3.org/2000/svg"><path d="M11.542 13.345c.309 0 .527.303.43.596l-.757 2.27c-.223.669.626 1.168 1.103.649l3.076-3.355a.49.49 0 1 1 .723.663l-6.185 6.747c-.477.519-1.326.02-1.103-.65l2.247-6.741c.032-.097.113-.179.215-.179h.251Zm-6.49-6.71a.603.603 0 0 1 .852.851L3.628 9.763a.401.401 0 0 0 .283.686h17.85a.602.602 0 1 1 0 1.204H3.91a.4.4 0 0 0-.283.684l2.276 2.278a.602.602 0 0 1-.851.851l-3.848-3.848a.802.802 0 0 1 0-1.135l3.848-3.849ZM15.132.906c.477-.52 1.326-.02 1.102.65l-2.247 6.74c-.053.161-.179.322-.348.322h-.192a.433.433 0 0 1-.41-.57l.812-2.438c.223-.67-.626-1.17-1.103-.65L9.54 8.46a.49.49 0 0 1-.724-.663l6.316-6.89Z" fill="#4840BB"/></svg>