<svg width="256" height="22" viewBox="0 0 256 22" fill="none" xmlns="http://www.w3.org/2000/svg">
<path d="M254.253 18.6387C253.511 18.6387 252.894 19.256 252.894 20.0906C252.894 20.9253 253.511 21.5425 254.253 21.5425C254.995 21.5425 255.612 20.9253 255.612 20.0906C255.612 19.256 254.995 18.6387 254.253 18.6387ZM205.049 21.4498H211.292V20.8933L210.614 20.7398C209.996 20.5863 209.718 20.2441 209.718 19.3807V10.9732H211.17C212.065 10.9732 212.529 11.1907 212.593 13.0743L212.747 17.0302C212.871 20.5831 213.891 21.5745 215.622 21.5745C217.352 21.5745 217.847 20.3688 217.847 18.6675V17.9576H217.198V18.482C217.198 19.6269 217.045 20.4296 216.61 20.4296C216.207 20.4296 216.178 20.1194 216.085 18.6995L215.9 15.9812C215.654 12.3323 215.19 11.066 212.5 10.5735C215.065 9.8955 216.642 8.00869 216.642 5.3192C216.642 1.82702 213.891 0.157677 211.263 0.157677H200.722V0.714124L201.311 0.838845C202.424 1.08509 202.456 1.67351 202.456 4.17753V16.4801C202.456 19.2304 201.682 20.5607 199.92 20.5607C198.343 20.5607 197.48 19.7868 197.48 16.7903V2.166C197.48 1.29935 197.758 1.05311 198.436 0.899606L199.27 0.714124V0.154479H192.81V0.710926L193.488 0.896408C194.106 1.08189 194.323 1.32813 194.323 2.19478V16.5665C194.323 19.8124 196.21 21.6033 199.085 21.6033C201.96 21.6033 203.38 19.8092 203.38 16.4737V3.06143C203.38 1.39209 203.722 0.806865 205.081 0.806865C206.162 0.806865 206.629 1.17783 206.629 2.19798V19.3807C206.629 20.2473 206.351 20.5543 205.733 20.711L205.052 20.8965V21.453L205.049 21.4498ZM246.527 2.19478C246.527 1.32813 246.805 1.04991 247.422 0.928388L248.257 0.742906V0.154479H241.829V0.710926L242.51 0.896408C243.127 1.08189 243.406 1.32813 243.406 2.19478V19.5022C243.406 20.3369 243.067 20.8006 242.107 20.8006C240.994 20.8006 240.841 20.4296 240.438 18.6068L236.482 0.0937177H235.244L231.474 18.0183C231.042 20.0267 230.825 20.4904 229.99 20.7398L229.466 20.8933V21.4498H233.885V20.8933L233.236 20.7686C232.309 20.5831 232.062 20.0906 232.526 17.7401L234.752 6.2722L237.192 18.4181C237.563 20.1802 237.534 20.5192 236.204 20.7654L235.555 20.8901V21.4466H251.935V14.4014H251.346C251.036 17.6474 250.39 20.7078 247.761 20.7078H246.524V2.19478H246.527ZM236.885 15.6998V14.8651H232.712L232.587 15.6998H236.882H236.885ZM219.638 2.56255V17.3372C219.638 19.563 219.638 20.6119 218.525 20.8006L217.969 20.8933V21.4498H222.513V20.8933C220.537 20.6151 220.537 19.9339 220.537 17.5259V3.49316L219.795 2.81199L227.368 21.4498H228.666V4.26707C228.666 1.73428 228.666 1.17783 229.904 0.835647L230.335 0.710926V0.154479H225.67V0.710926L226.194 0.835647C227.771 1.11387 227.771 1.73108 227.771 4.08159V14.8364L228.081 14.7436L222.328 0.154479H217.908V0.710926L218.34 0.835647C218.836 0.989149 219.114 1.5456 219.638 2.56575M209.715 0.896408H210.953C212.187 0.896408 213.332 1.6991 213.332 5.71895C213.332 9.73879 212.465 10.2313 210.735 10.2313H209.715V0.896408ZM189.133 10.6022C189.133 19.5342 188.391 20.8006 186.782 20.8006C185.174 20.8006 184.464 19.5342 184.464 10.663C184.464 1.79184 185.238 0.835647 186.782 0.835647C188.327 0.835647 189.133 2.07326 189.133 10.6022ZM192.5 10.7877C192.5 4.88428 190.613 0.000976562 186.782 0.000976562C182.951 0.000976562 181.096 4.88428 181.096 10.7877C181.096 16.6912 182.983 21.6065 186.782 21.6065C190.581 21.6065 192.5 16.7232 192.5 10.7877ZM179.273 2.19478C179.273 1.32813 179.491 1.04991 180.108 0.896408L180.789 0.710926V0.154479H174.39V0.710926L175.161 0.896408C175.778 1.04991 176.12 1.26737 176.12 2.1628V17.0302C176.12 19.0993 175.935 20.7686 174.39 20.7686C173.402 20.7686 172.66 19.9947 172.689 19.4382C172.782 18.4788 174.39 18.5428 174.512 16.995C174.604 15.8821 173.894 15.4184 173.245 15.3256C172.286 15.2009 171.112 16.0036 171.08 17.6122C171.048 19.6813 172.411 21.5681 174.729 21.5681C177.294 21.5681 179.273 19.838 179.273 16.5281V2.19478ZM76.043 2.19478C76.043 1.32813 76.3212 1.04991 76.9384 0.928388L77.7731 0.742906V0.154479H71.3452V0.710926L72.0263 0.896408C72.6435 1.08189 72.9218 1.32813 72.9218 2.19478V19.5022C72.9218 20.3369 72.5828 20.8006 71.6234 20.8006C70.5105 20.8006 70.325 20.4296 69.9221 18.6068L65.9662 0.0937177H64.7318L60.9613 18.0183C60.5296 20.0267 60.3122 20.4904 59.4775 20.7398L58.953 20.8933V21.4498H63.3726V20.8933L62.7234 20.7686C61.796 20.5831 61.5498 20.0906 62.0135 17.7401L64.2393 6.21143L66.6825 18.4213C67.0215 20.1834 67.0215 20.5224 65.6943 20.7686L65.0452 20.8933V21.4498H81.4571V14.4046H80.8687C80.5585 17.6506 79.9093 20.711 77.2838 20.711H76.0462V2.19478H76.043ZM162.088 0.896408H162.769C164.684 0.896408 165.333 3.95687 165.551 7.2028H166.139V0.154479H154.921V7.2028H155.509C155.727 3.95687 156.376 0.896408 158.292 0.896408H158.973V19.3775C158.973 20.2441 158.695 20.5511 158.077 20.7078L157.275 20.8933V21.4498H163.952V20.8933L162.993 20.6759C162.404 20.5223 162.097 20.3369 162.097 19.3775V0.896408H162.088ZM147.962 10.7557L148.918 10.7877C150.309 10.8197 150.709 11.3442 150.991 14.7148H151.579V6.12189H150.991C150.648 8.81138 150.281 9.95306 148.95 9.98504L147.962 10.017V0.896408H150.095C152.474 0.896408 153.002 3.8961 153.341 7.2028H153.93V0.154479H143.268V0.710926L143.949 0.896408C144.659 1.08189 144.844 1.51362 144.844 2.22676V19.3807C144.844 20.2473 144.566 20.5543 143.949 20.711L143.268 20.8965V21.453H154.24V14.4078H153.651C153.28 17.6218 152.877 20.7142 150.098 20.7142H147.965V10.7621L147.962 10.7557ZM136.309 10.7557L137.268 10.7877C138.659 10.8197 139.062 11.3442 139.34 14.7148H139.929V6.12189H139.34C139.001 8.81138 138.63 9.95306 137.3 9.98504L136.312 10.017V0.896408H138.445C140.824 0.896408 141.349 3.95687 141.691 7.2028H142.279V0.154479H131.307V0.710926L132.295 0.896408C133.005 1.08189 133.191 1.51362 133.191 2.22676V19.3807C133.191 20.2473 132.912 20.5543 132.295 20.711L131.614 20.8965V21.453H142.586V14.4078H142.001C141.63 17.6218 141.227 20.7142 138.448 20.7142H136.315V10.7621L136.309 10.7557ZM123.606 0.896408H124.534C125.768 0.896408 126.913 1.6991 126.913 5.71895C126.913 9.73879 126.05 10.2313 124.316 10.2313H123.606V0.896408ZM118.941 21.4498H125.183V20.8933L124.502 20.7398C123.885 20.5863 123.606 20.2441 123.606 19.3807V10.9732H124.751C125.647 10.9732 126.11 11.3442 126.174 13.0743L126.328 17.0302C126.453 20.5831 127.473 21.5745 129.203 21.5745C130.933 21.5745 131.429 20.3688 131.429 18.6675V17.9576H130.779V18.482C130.779 19.6269 130.626 20.4296 130.191 20.4296C129.788 20.4296 129.759 20.1194 129.667 18.6995L129.481 15.9812C129.235 12.2396 128.739 11.066 126.082 10.5735C128.646 9.8955 130.223 8.00869 130.223 5.3192C130.223 1.82702 127.473 0.157677 124.844 0.157677H118.941V0.714124L119.622 0.899606C120.239 1.08509 120.517 1.33133 120.517 2.19798V19.3807C120.517 20.2473 120.239 20.5543 119.622 20.711L118.941 20.8965V21.453V21.4498ZM114.211 0.896408H114.892C116.807 0.896408 117.457 3.95687 117.674 7.2028H118.259V0.154479H107.041V7.2028H107.629C107.847 3.95687 108.496 0.896408 110.412 0.896408H111.093V19.3775C111.093 20.2441 110.815 20.5511 110.197 20.7078L109.395 20.8933V21.4498H115.915V20.8933L115.113 20.7078C114.31 20.5223 114.217 19.9051 114.217 19.3775V0.896408H114.211ZM107.07 15.9173C107.07 9.58209 100.117 7.91275 100.117 3.30768C100.117 2.3195 100.488 0.835647 102.033 0.835647C104.259 0.835647 105.093 3.71062 105.464 7.2028H106.053V0.154479H105.682C105.528 0.835647 105.25 1.14265 104.847 1.14265C104.137 1.14265 103.766 0.0297583 102.065 0.0297583C99.4393 0.0297583 97.6453 2.22357 97.6453 5.09854C97.6453 10.3208 104.601 12.5178 104.601 17.3372C104.601 19.531 103.581 20.7686 102.19 20.7686C100.117 20.7686 98.7582 18.3285 98.3872 14.4014H97.7988V21.4466H98.1697C98.4799 20.4264 98.8797 20.3337 99.2219 20.3337C99.8103 20.3337 100.427 21.5713 102.222 21.5713C104.972 21.5713 107.073 19.192 107.073 15.9141M86.8297 2.19159C86.8297 1.32494 87.108 1.04671 87.7252 0.92519L88.5598 0.739708V0.154479H82.1319V0.710926L82.8131 0.896408C83.4303 1.08189 83.7085 1.32813 83.7085 2.19478V19.3775C83.7085 20.2441 83.4303 20.5511 82.8131 20.7078L82.1319 20.8933V21.4498H92.2375V14.4046H91.6491C91.3421 17.6506 90.6929 20.711 88.0641 20.711H86.8265V2.19478L86.8297 2.19159ZM66.3691 15.6966V14.8619H62.1958L62.071 15.6966H66.3659H66.3691ZM48.5053 21.5073H49.7717L52.6466 6.30098H52.2149L55.3681 21.5073H56.481L60.2514 3.5827C60.6543 1.6959 60.8686 1.04991 61.6105 0.86123L62.199 0.707728V0.154479H57.8401V0.710926L58.4893 0.835647C59.4167 1.02113 59.631 1.57758 59.1993 3.86412L56.7592 15.8885H57.1302L54.6581 3.21813C54.4119 2.0125 54.2552 1.02433 55.2754 0.838845L55.9533 0.714124V0.154479H49.9891V0.710926L50.3921 0.803667C51.0093 0.95717 51.102 1.32813 51.3514 2.50499L52.3108 7.11006L52.1254 4.32783L49.9923 15.5783H50.2705L47.7665 3.21494C47.4883 1.94854 47.3956 0.989149 48.3837 0.803667L48.8474 0.710926V0.154479H42.7585V0.710926L43.3469 0.864428C43.9034 1.01793 44.2136 1.29615 44.5845 2.99747L48.5085 21.5105L48.5053 21.5073ZM32.0005 10.7526L32.9599 10.7845C34.351 10.8165 34.7508 11.341 35.0322 14.7116H35.6206V6.11869H35.0322C34.6932 8.80818 34.3223 9.94986 32.9919 9.98184L32.0037 10.0138V0.896408H34.1368C36.5161 0.896408 37.0437 3.95687 37.3827 7.2028H37.9711V0.154479H27.3091V0.710926L27.9903 0.896408C28.7002 1.08189 28.8857 1.51362 28.8857 2.22676V19.3807C28.8857 20.2473 28.6075 20.5543 27.9903 20.711L27.3091 20.8965V21.453H38.2813V14.4078H37.6929C37.322 17.6218 36.9222 20.7142 34.14 20.7142H32.0069V10.7621L32.0005 10.7526ZM12.5601 21.4466H18.8953V20.8901L18.1853 20.7366C17.6289 20.6119 17.2579 20.2409 17.2579 19.3775V10.9412H21.9237V19.3775C21.9237 20.2441 21.5528 20.6151 20.9963 20.7366L20.2864 20.8901V21.4466H26.6215V20.8901L25.9404 20.7046C25.3232 20.5511 25.0449 20.2089 25.0449 19.3455V2.19478C25.0449 1.32813 25.3232 1.04991 25.9404 0.896408L26.6215 0.710926V0.154479H20.2864V0.710926L20.9963 0.896408C21.5208 1.04991 21.9237 1.26737 21.9237 2.1628V10.1066H17.2579V2.1628C17.2579 1.29615 17.5969 1.04991 18.1853 0.896408L18.8953 0.710926V0.154479H12.5601V0.710926L13.2412 0.896408C13.8584 1.08189 14.1367 1.32813 14.1367 2.19478V19.3775C14.1367 20.2441 13.8584 20.5511 13.2412 20.7078L12.5601 20.8933V21.4498V21.4466ZM7.82708 0.896408H8.50824C10.4238 0.896408 11.073 3.95687 11.2905 7.2028H11.8789V0.154479H0.657227V7.2028H1.24565C1.45992 3.95687 2.1091 0.896408 4.02469 0.896408H4.70586V19.3775C4.70586 20.2441 4.42763 20.5511 3.81043 20.7078L3.00773 20.8933V21.4498H9.6851V20.8933L8.72571 20.6759C8.13728 20.5223 7.83027 20.3369 7.83027 19.3775V0.896408H7.82708Z" fill="#4840BB"/>
</svg>
