<svg width="26" height="25" fill="none" xmlns="http://www.w3.org/2000/svg"><path d="M13.282.751C6.336.751.708 6.083.708 12.663c0 6.58 5.628 11.912 12.574 11.912s12.574-5.332 12.574-11.912c0-6.58-5.628-11.912-12.574-11.912Zm-.165 17.252c-4.282.148-6.03-1.682-6.323-2.74-.027-.112 0-.13.128-.268.32-.355 1.263-1.066 1.656-1.3.12-.07.202.095.312.312.42.815 1.052 1.673 1.674 2.236 1.236 1.127 2.59 1.56 2.663 1.613.11.078.1.139-.1.147h-.01Zm4.164.009c-6.305.017-8.2-5.202-8.547-6.918-.037-.156.064-.173.201-.252.128-.086 1.62-.745 2.984-1.179.274-.078.274.174.283.243 1.272 6.545 4.393 7.369 5.271 8.02.12.069-.036.095-.183.086h-.009Zm2.37 0c-1.372-.078-6.927-2.063-6.69-10.594 0-.139.028-.2.248-.26.75-.2 3.13-.58 4.328-.607h.266c.073 0 .128 0 .183.009.137.017.119.13.091.303-.796 4.257-1.144 8.852 1.647 11.045.028.026.074.078.055.095-.018.018-.091.009-.128 0v.009Z" fill="#FFFBF2"/></svg>