<svg xmlns="http://www.w3.org/2000/svg" width="42" height="37" viewBox="0 0 42 37" fill="none">
  <path d="M18.192 36.3841C28.2392 36.3841 36.3841 28.2392 36.3841 18.192C36.3841 8.14485 28.2392 0 18.192 0C8.14485 0 0 8.14485 0 18.192C0 28.2392 8.14485 36.3841 18.192 36.3841Z" fill="#F4B896"/>
  <path fill-rule="evenodd" clip-rule="evenodd" d="M40.5503 2.68874C41.2902 3.42869 41.2902 4.62837 40.5503 5.36831L20.3398 25.5788C19.5998 26.3188 18.4002 26.3188 17.6602 25.5788L7.55496 15.4736C6.81501 14.7336 6.81501 13.5339 7.55496 12.794C8.2949 12.0541 9.49458 12.0541 10.2345 12.794L17.2136 19.7731C18.2002 20.7597 19.7998 20.7597 20.7864 19.7731L37.8707 2.68874C38.6107 1.9488 39.8104 1.9488 40.5503 2.68874Z" fill="#230B59"/>
</svg>